<svg viewBox="0 0 40 41" fill="none" xmlns="http://www.w3.org/2000/svg">
<g clip-path="url(#clip0_3013_305)">
<path d="M2.57999 26.5658C-0.844995 16.7474 4.18878 6.10259 13.7656 2.76194C23.3423 -0.578758 33.9048 4.62552 37.3297 14.444C40.7547 24.2624 35.721 34.9071 26.1442 38.2478C16.5674 41.5885 6.005 36.3842 2.57999 26.5658Z" fill="#70BFED" class="bubble" stroke="white" stroke-width="2.17647"/>
<path fill-rule="evenodd" clip-rule="evenodd" d="M11.8091 9.26165C13.1705 8.02045 14.7996 7.02805 16.649 6.38295C23.9819 3.82501 32 7.69585 34.5579 15.0287C36.7351 21.27 34.2549 28.0078 28.9468 31.4527C32.9834 27.7726 34.6655 21.9058 32.7527 16.4223C30.1948 9.08955 22.1767 5.21865 14.8438 7.77665C13.7523 8.15735 12.7375 8.65915 11.8091 9.26165Z" fill="white"/>
</g>
<defs>
<clipPath id="clip0_3013_305">
<rect width="40" height="41" fill="white"/>
</clipPath>
</defs>
</svg>
