<svg viewBox="0 0 1168 1133" fill="none" xmlns="http://www.w3.org/2000/svg">
<path d="M379.557 302.813C358.885 302.813 361.986 255.268 366.12 231.496C371.909 196.767 412.632 161.211 412.632 161.211C421.728 151.289 409.531 126.069 402.296 114.7C399.816 94.0277 413.666 91.616 420.901 92.9941C431.431 106.254 441.609 115.59 450.219 121.935C440.821 69.8416 463.278 45.4488 478.782 37.1801C494.286 28.9114 524.26 30.9783 540.798 40.2809C557.335 49.5835 571.116 80.2462 574.906 94.0274C583.175 95.6814 588.687 98.162 590.41 99.1956C628.446 47.9294 689.635 68.1879 689.635 68.1879C689.635 68.1879 734.81 77.4781 736.147 137.439C737.484 197.399 694.458 210.824 672.064 211.857C678.679 223.434 666.551 263.537 659.661 282.142C606.741 419.403 598.334 489.549 600.746 507.465C828.72 629.006 910.52 773.783 922.923 830.979C944.422 827.662 954.823 829.597 957.335 830.979C970.469 833.034 1053.46 869.222 1086.53 897.129C1119.61 925.036 1147.59 928.243 1139.63 932.803C1130.55 939.845 1094.9 952.943 1018.32 952.943H1015.15C1033.07 962.098 1052.24 974.251 1071.03 990.153C1085.5 1004.28 1111.55 1032.12 1099.97 1030.46C1088.26 1028.4 1059.66 1025.91 1038.99 1032.53C1007.98 1040.45 931.702 1042.87 874.648 989.119C871.547 999.455 911.857 1075.94 914.958 1081.11C918.059 1086.28 856.457 1086.48 775.423 1062.5C751.651 1051.13 695.914 1028.6 663.15 1029.43C658.07 1039.56 651.814 1048.61 646.224 1052.17C634.855 1059.4 595.165 1077.39 556.302 1070.77C520.47 1066.29 440.126 1065.81 405.397 1099.71C381.184 1057.34 424.94 1005.97 456.043 980.124L451.909 982.918C442.606 985.329 415.856 982.091 383.275 949.843C355.125 980.185 292.697 1018.69 187.309 1015.99C156.99 1009.79 87.257 1006.07 50.8745 1040.8C42.9502 1049.07 28.5489 1058.78 34.337 1031.5C39.1604 1000.14 88.0839 920.902 106.688 902.297C123.256 885.73 208.017 827.853 323.31 837.565L321.676 835.114C309.962 815.131 324.777 714.183 350.617 669.739C376.456 625.294 474.234 497.336 522.193 332.788V331.674C490.964 329.985 447.404 321.792 399.195 298.793C391.347 300.147 384.594 301.575 379.557 302.813Z" fill="#5AACDC" class="body" />
<path d="M450.219 121.935C441.609 115.59 431.431 106.254 420.901 92.9941C413.666 91.616 399.816 94.0277 402.296 114.7C409.531 126.069 421.728 151.289 412.632 161.211C412.632 161.211 371.909 196.767 366.12 231.496C361.986 255.268 358.885 302.813 379.557 302.813C384.594 301.575 391.347 300.147 399.195 298.793C447.404 321.792 490.964 329.985 522.193 331.674M450.219 121.935C440.821 69.8416 463.278 45.4488 478.782 37.1801C494.286 28.9114 524.26 30.9783 540.798 40.2809C557.335 49.5835 571.116 80.2462 574.906 94.0274C583.175 95.6814 588.687 98.1621 590.41 99.1956M450.219 121.935C453.434 124.303 456.429 126.255 459.144 127.838C464.574 131.005 468.877 132.697 471.547 133.304C507.687 101.883 565.847 97.4729 590.41 99.1956M673.098 999.455C672.397 1007.34 668.402 1018.96 663.15 1029.43M321.676 835.114C309.962 815.131 324.777 714.183 350.617 669.739C376.456 625.294 474.234 497.336 522.193 332.788V331.674M321.676 835.114L322.709 837.181M321.676 835.114L323.743 838.215M562.503 329.687C554.174 331.454 540.243 332.65 522.193 331.674M367.154 844.416C229.893 812.995 125.293 883.693 106.688 902.297C88.0839 920.902 39.1604 1000.14 34.337 1031.5C28.5489 1058.78 42.9502 1049.07 50.8745 1040.8C87.257 1006.07 156.99 1009.79 187.309 1015.99C292.697 1018.69 355.125 980.186 383.275 949.843M397.128 931.238C394.165 936.66 389.58 943.046 383.275 949.843M383.275 949.843C415.856 982.091 442.606 985.329 451.909 982.918L456.043 980.124M578.007 952.943C553.201 947.775 495.733 944.675 464.312 973.615C461.707 975.546 458.93 977.725 456.043 980.124M663.15 1029.43C658.07 1039.56 651.814 1048.61 646.224 1052.17C634.855 1059.4 595.165 1077.39 556.302 1070.77C520.47 1066.29 440.126 1065.81 405.397 1099.71C381.184 1057.34 424.94 1005.97 456.043 980.124M663.15 1029.43C695.914 1028.6 751.65 1051.13 775.423 1062.5C856.457 1086.48 918.059 1086.28 914.958 1081.11C911.857 1075.94 871.547 999.455 874.648 989.119C931.702 1042.87 1007.98 1040.45 1038.99 1032.53C1059.66 1025.91 1088.26 1028.4 1099.97 1030.46C1111.55 1032.12 1085.5 1004.28 1071.03 990.153C1052.24 974.251 1033.07 962.098 1015.15 952.943M938.731 928.137C952.847 929.257 981.826 935.915 1015.15 952.943M590.41 99.1956C628.446 47.9294 689.635 68.1879 689.635 68.1879C689.635 68.1879 734.81 77.4781 736.147 137.439C737.484 197.399 694.458 210.824 672.064 211.857C678.679 223.434 666.551 263.537 659.661 282.142C606.741 419.403 598.334 489.549 600.746 507.465C828.72 629.006 910.52 773.783 922.923 830.979C944.422 827.662 954.823 829.597 957.335 830.979C970.469 833.034 1053.46 869.222 1086.53 897.129C1119.61 925.036 1147.59 928.243 1139.63 932.803C1130.55 939.845 1094.9 952.943 1018.32 952.943C1017.49 952.943 1015.86 952.943 1015.15 952.943" stroke="#FFC93C" class="lines" stroke-width="31.4475"/>
<path d="M635.744 568.189C649.801 559.093 660.205 519.61 663.651 501.006C676.054 492.737 697.759 496.182 707.062 498.938C713.677 500.592 717.398 507.207 718.431 510.308C714.297 578.112 721.532 597.819 725.666 599.197L635.744 568.189Z" stroke="#FFC93C" class="lines" stroke-width="20.965"/>
<path d="M658.559 532.633C788.058 602.428 835.85 638.096 843.558 647.206C889.807 706.069 909.078 755.122 912.932 772.29C922.182 810.972 927.179 818.497 929.254 822.352" stroke="#FFC93C" class="lines" stroke-width="20.965"/>
<path d="M820.449 586.279C816.314 583.179 805.358 574.496 794.609 576.977C781.379 591.034 776.004 595.237 774.971 595.582L761.534 604.884L824.276 640.884C822.852 634.395 820.738 613.462 824.583 603.85C825.721 601.005 826.233 598.629 826.29 596.615C826.441 591.316 823.445 588.526 820.449 586.279Z" fill="#ACAAAF" class="shell"/>
<path d="M824.583 641.06L761.534 604.884L774.971 595.582C776.004 595.237 781.379 591.034 794.609 576.977C805.358 574.496 816.314 583.179 820.449 586.279C823.445 588.526 826.441 591.316 826.29 596.615C826.233 598.629 825.721 601.005 824.583 603.85C820.449 614.186 823.205 637.615 824.583 642.093" stroke="#FFC93C" class="lines" stroke-width="20.965"/>
<path d="M881.745 694.945C889.187 695.772 900.005 693.222 904.484 691.844C920.195 696.805 927.912 716.65 929.291 725.953C917.714 740.837 912.753 754.893 911.719 760.061L908.619 769.364L894.148 760.061L857.973 694.945H881.745Z" fill="#ACAAAF" class="shell"/>
<path d="M911.719 760.061C912.753 754.893 917.714 740.837 929.291 725.953C927.912 716.65 920.195 696.805 904.484 691.844C900.005 693.222 889.187 695.772 881.745 694.945H857.973L894.148 760.061M911.719 760.061H894.148M911.719 760.061L908.619 769.364L894.148 760.061" stroke="#FFC93C" class="lines" stroke-width="20.965"/>
<path d="M379.557 302.813C358.885 302.813 361.986 255.268 366.12 231.496C371.909 196.767 412.632 161.211 412.632 161.211C421.728 151.289 409.531 126.069 402.296 114.7C399.816 94.0277 413.666 91.616 420.901 92.9941C431.431 106.254 441.609 115.59 450.219 121.935C440.821 69.8416 463.278 45.4488 478.782 37.1801C494.286 28.9114 524.26 30.9783 540.798 40.2809C557.335 49.5835 571.116 80.2462 574.906 94.0274C583.175 95.6814 588.687 98.1621 590.41 99.1956C628.446 47.9294 689.635 68.1879 689.635 68.1879C689.635 68.1879 734.81 77.4781 736.147 137.439C737.484 197.399 694.458 210.824 672.064 211.857C678.679 223.434 666.551 263.537 659.661 282.142C606.741 419.403 598.334 489.549 600.746 507.465C828.72 629.006 910.52 773.783 922.923 830.979C944.422 827.662 954.823 829.597 957.335 830.979C970.469 833.034 1053.46 869.222 1086.53 897.129C1119.61 925.036 1147.59 928.243 1139.63 932.803C1130.55 939.845 1094.9 952.943 1018.32 952.943H1015.15C1033.07 962.098 1052.24 974.251 1071.03 990.153C1085.5 1004.28 1111.55 1032.12 1099.97 1030.46C1088.26 1028.4 1059.66 1025.91 1038.99 1032.53C1007.98 1040.45 931.702 1042.87 874.648 989.119C871.547 999.455 911.857 1075.94 914.958 1081.11C918.059 1086.28 856.457 1086.48 775.423 1062.5C751.65 1051.13 695.914 1028.6 663.15 1029.43C658.07 1039.56 651.814 1048.61 646.224 1052.17C634.855 1059.4 595.165 1077.39 556.302 1070.77C520.47 1066.29 440.126 1065.81 405.397 1099.71C381.184 1057.34 424.94 1005.97 456.043 980.124L451.909 982.918C442.606 985.329 415.856 982.091 383.275 949.843C355.125 980.186 292.697 1018.69 187.309 1015.99C156.99 1009.79 87.257 1006.07 50.8745 1040.8C42.9502 1049.07 28.5489 1058.78 34.337 1031.5C39.1604 1000.14 88.0839 920.902 106.688 902.297C123.256 885.73 208.017 827.853 323.31 837.565L321.676 835.114C309.962 815.131 324.777 714.183 350.617 669.739C376.456 625.294 474.234 497.336 522.193 332.788V331.674C490.964 329.985 447.404 321.792 399.195 298.793C391.347 300.147 384.594 301.575 379.557 302.813Z" fill="#5AACDC" class="body" />
<path d="M450.219 121.935C441.609 115.59 431.431 106.254 420.901 92.9941C413.666 91.616 399.816 94.0277 402.296 114.7C409.531 126.069 421.728 151.289 412.632 161.211C412.632 161.211 371.909 196.767 366.12 231.496C361.986 255.268 358.885 302.813 379.557 302.813C384.594 301.575 391.347 300.147 399.195 298.793C447.404 321.792 490.964 329.985 522.193 331.674M450.219 121.935C440.821 69.8416 463.278 45.4488 478.782 37.1801C494.286 28.9114 524.26 30.9783 540.798 40.2809C557.335 49.5835 571.116 80.2462 574.906 94.0274C583.175 95.6814 588.687 98.1621 590.41 99.1956M450.219 121.935C453.434 124.303 456.429 126.255 459.144 127.838C464.574 131.005 468.877 132.697 471.547 133.304C507.687 101.883 565.847 97.4729 590.41 99.1956M673.098 999.455C672.397 1007.34 668.402 1018.96 663.15 1029.43M321.676 835.114C309.962 815.131 324.777 714.183 350.617 669.739C376.456 625.294 474.234 497.336 522.193 332.788V331.674M321.676 835.114L322.709 837.181M321.676 835.114L323.743 838.215M562.503 329.687C554.174 331.454 540.243 332.65 522.193 331.674M367.154 844.416C229.893 812.995 125.293 883.693 106.688 902.297C88.0839 920.902 39.1604 1000.14 34.337 1031.5C28.5489 1058.78 42.9502 1049.07 50.8745 1040.8C87.257 1006.07 156.99 1009.79 187.309 1015.99C292.697 1018.69 355.125 980.186 383.275 949.843M397.128 931.238C394.165 936.66 389.58 943.046 383.275 949.843M383.275 949.843C415.856 982.091 442.606 985.329 451.909 982.918L456.043 980.124M578.007 952.943C553.201 947.775 495.733 944.675 464.312 973.615C461.707 975.546 458.93 977.725 456.043 980.124M663.15 1029.43C658.07 1039.56 651.814 1048.61 646.224 1052.17C634.855 1059.4 595.165 1077.39 556.302 1070.77C520.47 1066.29 440.126 1065.81 405.397 1099.71C381.184 1057.34 424.94 1005.97 456.043 980.124M663.15 1029.43C695.914 1028.6 751.65 1051.13 775.423 1062.5C856.457 1086.48 918.059 1086.28 914.958 1081.11C911.857 1075.94 871.547 999.455 874.648 989.119C931.702 1042.87 1007.98 1040.45 1038.99 1032.53C1059.66 1025.91 1088.26 1028.4 1099.97 1030.46C1111.55 1032.12 1085.5 1004.28 1071.03 990.153C1052.24 974.251 1033.07 962.098 1015.15 952.943M938.731 928.137C952.847 929.257 981.826 935.915 1015.15 952.943M590.41 99.1956C628.446 47.9294 689.635 68.1879 689.635 68.1879C689.635 68.1879 734.81 77.4781 736.147 137.439C737.484 197.399 694.458 210.824 672.064 211.857C678.679 223.434 666.551 263.537 659.661 282.142C606.741 419.403 598.334 489.549 600.746 507.465C828.72 629.006 910.52 773.783 922.923 830.979C944.422 827.662 954.823 829.597 957.335 830.979C970.469 833.035 1053.46 869.222 1086.53 897.129C1119.61 925.036 1147.59 928.243 1139.63 932.803C1130.55 939.845 1094.9 952.943 1018.32 952.943C1017.49 952.943 1015.86 952.943 1015.15 952.943" stroke="#226494" class="body-details" stroke-width="10.4825"/>
<path d="M546.937 1049.64C514.931 1047.53 441.737 1053.24 405 1093C423.368 1081.16 456.487 1071.15 470.75 1067.62C501.642 1060.01 551.459 1064.45 571.984 1067.62C604.546 1067.62 635.995 1053.52 647.127 1046.47C657.146 1037.17 664.521 1012.28 668 1001C645.388 1018.27 589.517 1053.87 546.937 1049.64Z" fill="#F9EED2" class="body-light"/>
<path d="M33 1049C84.8599 981.533 165.946 983.407 200.006 992.778C229.013 1000.6 376.901 950 378 950C374.484 954.889 373.055 956.111 372.78 956.111C362.355 967.172 341.863 983.894 314.274 992.778C283.51 1004.51 258.971 1009.89 250.548 1011.11C217.146 1017.96 195.273 1015.5 188.512 1013.42C160.03 1006 118.732 1010.36 102.22 1012.33C82.8822 1016.24 48.0159 1038.41 33 1049Z" fill="#F9EED2" class="body-light"/>
<path d="M1065.78 1019.38C1030.23 1020.34 942.786 1023.61 871 979C883.324 990.998 915.192 1015.39 932.627 1019.38C955.926 1028.54 1011.31 1040.51 1044.88 1029.74C1051.02 1027.26 1068.9 1023.08 1101 1025.6C1093.3 1022.84 1075.47 1017.73 1065.78 1019.38Z" fill="#F9EED2" class="body-light"/>
<path d="M778.1 1038.78C760.07 1028.5 714.273 1009.64 675.327 1016.45L671 1024.95C677.852 1025.66 695.665 1028.57 712.109 1034.53C725.452 1038.07 755.382 1045.8 764.036 1052.6C769.806 1056.15 788.053 1064.52 814.882 1069.62C843.73 1074.58 902.942 1083.66 909 1080.25C868.612 1069.27 785.889 1045.59 778.1 1038.78Z" fill="#F9EED2" class="body-light"/>
<path d="M1134 931.512C1132.07 931.094 972.121 929 967.496 929C962.871 929 991.777 939.112 1005.65 947.842C1035.72 948.68 1103.47 946.586 1134 931.512Z" fill="#F9EED2" class="body-light"/>
<path d="M673.098 999.455C672.397 1007.34 668.402 1018.96 663.15 1029.43M321.676 835.114C309.962 815.131 324.777 714.184 350.617 669.739C376.456 625.295 474.234 497.336 522.193 332.788V331.674M321.676 835.114L322.709 837.181M321.676 835.114L323.743 838.215M562.503 329.687C554.174 331.454 540.243 332.65 522.193 331.674M367.154 844.416C229.893 812.995 125.293 883.693 106.688 902.297C88.0839 920.902 39.1604 1000.14 34.337 1031.5C28.5489 1058.78 42.9502 1049.07 50.8745 1040.8C87.257 1006.07 156.99 1009.79 187.309 1015.99C292.697 1018.69 355.125 980.186 383.275 949.843M397.128 931.238C394.165 936.66 389.58 943.047 383.275 949.843M383.275 949.843C415.856 982.091 442.606 985.329 451.909 982.918L456.043 980.124M578.007 952.943C553.201 947.776 495.733 944.675 464.312 973.615C461.707 975.547 458.93 977.725 456.043 980.124M663.15 1029.43C658.07 1039.56 651.814 1048.61 646.224 1052.17C634.855 1059.4 595.165 1077.39 556.302 1070.77C520.47 1066.29 440.126 1065.81 405.397 1099.71C381.184 1057.34 424.94 1005.97 456.043 980.124M663.15 1029.43C695.914 1028.6 751.65 1051.13 775.423 1062.5C856.457 1086.48 918.059 1086.28 914.958 1081.11C911.857 1075.94 870.899 998.836 874 988.5C931.054 1042.25 1007.98 1040.45 1038.99 1032.53C1059.66 1025.92 1088.26 1028.4 1099.97 1030.46C1111.55 1032.12 1085.5 1004.28 1071.03 990.153C1052.24 974.251 1033.07 962.099 1015.15 952.943M938.731 928.137C952.847 929.258 981.826 935.915 1015.15 952.943M1015.15 952.943C1015.86 952.943 1017.49 952.943 1018.32 952.943C1094.9 952.943 1130.55 939.846 1139.63 932.803C1147.59 928.244 1119.61 925.036 1086.53 897.129C1053.46 869.222 970.469 833.035 957.335 830.98C954.823 829.597 944.422 827.662 922.923 830.98C910.52 773.783 828.72 629.006 600.746 507.465C598.334 489.549 606.741 419.403 659.661 282.142C666.551 263.537 678.679 223.434 672.064 211.857C694.458 210.824 737.484 197.399 736.147 137.439C734.81 77.4782 689.635 68.188 689.635 68.188C689.635 68.188 628.446 47.9296 590.41 99.1958C565.847 97.4731 507.687 101.883 471.547 133.304C468.877 132.698 464.574 131.005 459.144 127.838C456.429 126.255 453.434 124.303 450.219 121.935C441.609 115.591 431.431 106.255 420.901 92.9942C413.666 91.6161 399.816 94.0278 402.296 114.7C409.531 126.069 421.728 151.289 412.632 161.211C412.632 161.211 371.909 196.767 366.12 231.496C361.986 255.268 358.885 302.814 379.557 302.814C384.594 301.575 391.347 300.147 399.195 298.793C447.404 321.792 490.964 329.985 522.193 331.674" stroke="#226494" class="body-details" stroke-width="10.4825"/>
<path d="M635.585 314.17C632.484 315.204 638.892 295.566 635.585 266.625C643.854 262.146 659.358 260.63 655.223 290.398C654.19 294.188 638.686 313.137 635.585 314.17Z" fill="#226494" class="body-spot"/>
<path d="M609.745 355.514C605.611 355.17 599.823 349.519 609.745 329.674C609.745 329.674 614.913 323.473 613.879 326.574C612.846 329.674 621.321 349.726 609.745 355.514Z" fill="#226494" class="body-spot"/>
<path d="M359.616 717.272C351.691 722.095 335.636 739.184 334.809 768.951C338.599 775.497 348.039 783.008 355.481 760.683C359.616 751.38 366.231 729.675 359.616 717.272Z" fill="#226494" class="body-spot"/>
<path d="M331.709 794.791C330.882 820.424 341.011 831.656 346.179 834.068C348.66 827.453 337.566 805.127 331.709 794.791Z" fill="#226494" class="body-spot"/>
<path d="M472.277 920.889C467.109 917.444 458.84 902.698 467.109 871.277C480.89 884.369 506.799 912.621 500.184 920.889H472.277Z" fill="#226494" class="body-spot"/>
<path d="M506.386 945.696C504.319 944.318 503.905 939.494 518.789 931.225C521.89 934.326 527.471 941.768 524.99 946.729L506.386 945.696Z" fill="#226494" class="body-spot"/>
<path d="M635.585 314.17C632.484 315.204 638.892 295.566 635.585 266.625C643.854 262.146 659.358 260.63 655.223 290.398C654.19 294.188 638.686 313.137 635.585 314.17Z" stroke="#226494" class="body-details" stroke-width="1.04825"/>
<path d="M609.745 355.514C605.611 355.17 599.823 349.519 609.745 329.674C609.745 329.674 614.913 323.473 613.879 326.574C612.846 329.674 621.321 349.726 609.745 355.514Z" stroke="#226494" class="body-details" stroke-width="1.04825"/>
<path d="M359.616 717.272C351.691 722.095 335.636 739.184 334.809 768.951C338.599 775.497 348.039 783.008 355.481 760.683C359.616 751.38 366.231 729.675 359.616 717.272Z" stroke="#226494" class="body-details" stroke-width="1.04825"/>
<path d="M331.709 794.791C330.882 820.424 341.011 831.656 346.179 834.068C348.66 827.453 337.566 805.127 331.709 794.791Z" stroke="#226494" class="body-details" stroke-width="1.04825"/>
<path d="M472.277 920.889C467.109 917.444 458.84 902.698 467.109 871.277C480.89 884.369 506.799 912.621 500.184 920.889H472.277Z" stroke="#226494" class="body-details" stroke-width="1.04825"/>
<path d="M506.386 945.696C504.319 944.318 503.905 939.494 518.789 931.225C521.89 934.326 527.471 941.768 524.99 946.729L506.386 945.696Z" stroke="#226494" class="body-details" stroke-width="1.04825"/>
<path d="M562.2 256.1C544.628 260.923 505.765 266.229 490.882 248.865L489.206 246.798C501.519 233.852 514.159 225.618 526.024 220.627C542.705 213.61 557.852 213.001 568.401 214.721C569.779 224.035 570.468 245.351 562.2 256.1Z" fill="white"/>
<path d="M483.646 252.999C485.49 250.821 487.344 248.755 489.206 246.798M576.67 216.823C574.398 215.984 571.612 215.244 568.401 214.721M568.401 214.721C569.779 224.035 570.468 245.351 562.2 256.1C544.628 260.923 505.765 266.229 490.882 248.865L489.206 246.798M568.401 214.721C557.852 213.001 542.705 213.61 526.024 220.627C514.159 225.618 501.519 233.852 489.206 246.798" stroke="#5A2203" class="eyes-detail" stroke-width="3.14475"/>
<path d="M568.401 214.721C569.779 224.035 570.468 245.351 562.2 256.1C553.242 257.886 533.466 261.212 526.024 260.234C523.982 256.831 522.827 252.918 522.29 248.865C520.871 238.149 523.774 226.457 526.024 220.627C542.705 213.61 557.853 213.001 568.401 214.721Z" class="eyes" fill="#926224" stroke="#5A2203" stroke-width="1.04825"/>
<path d="M568.401 214.721C557.852 213.001 542.705 213.61 526.024 220.627C523.774 226.457 520.871 238.149 522.29 248.865C528.585 233.981 535.671 234.394 538.427 236.462C540.908 248.865 546.696 249.898 551.864 247.831C557.032 245.764 565.989 226.126 568.401 215.79V214.721Z" fill="#5A2203" class="eyes-detail" />
<path d="M483.646 252.999C485.49 250.821 487.344 248.755 489.206 246.798L490.882 248.865M576.67 216.823C574.398 215.984 571.612 215.244 568.401 214.721M568.401 214.721C557.852 213.001 542.705 213.61 526.024 220.627C523.774 226.457 520.871 238.149 522.29 248.865C528.585 233.981 535.671 234.394 538.427 236.462C540.908 248.865 546.696 249.898 551.864 247.831C557.032 245.764 565.989 226.126 568.401 215.79V214.721Z" stroke="#5A2203" stroke-width="1.04825"/>
<path d="M559.099 218.89C558.41 225.092 555.998 240.596 549.797 239.562C543.595 238.529 543.231 228.703 545.619 218.047C545.633 217.984 545.647 217.92 545.662 217.857C553.044 215.474 557.686 217.437 559.099 218.89Z" fill="white" stroke="white" stroke-width="1.04825"/>
<path d="M477.445 235.617C484.887 200.889 508.798 191.517 519.823 191.173" stroke="#226494" class="body-details" stroke-width="5.24125"/>
<path d="M881.581 693.499C889.023 694.326 899.841 691.776 904.32 690.398C920.031 695.359 927.748 715.204 929.126 724.507C917.55 739.39 912.589 753.447 911.555 758.615L908.454 767.917L893.984 758.615L857.808 693.499H881.581Z" fill="#ACAAAF" class="shell"/>
<path d="M911.555 758.615C912.589 753.447 917.55 739.39 929.126 724.507C927.748 715.204 920.031 695.359 904.32 690.398C899.841 691.776 889.023 694.326 881.581 693.499H857.808L893.984 758.615M911.555 758.615H893.984M911.555 758.615L908.454 767.917L893.984 758.615" stroke="#98979B" class="shell-details" stroke-width="4.193"/>
<path d="M820.599 584.972C816.465 581.871 805.508 573.189 794.759 575.669C781.529 589.726 776.154 593.93 775.121 594.274L761.684 603.576L824.426 639.576C823.003 633.087 820.889 612.154 824.733 602.543C825.872 599.697 826.383 597.321 826.44 595.308C826.591 590.009 823.595 587.219 820.599 584.972Z" fill="#ACAAAF" class="shell"/>
<path d="M824.733 639.752L761.684 603.576L775.121 594.274C776.154 593.93 781.529 589.726 794.759 575.669C805.508 573.189 816.465 581.871 820.599 584.972C823.595 587.219 826.591 590.009 826.44 595.308C826.383 597.321 825.872 599.697 824.733 602.543C820.599 612.879 823.355 636.307 824.733 640.786" stroke="#98979B" class="shell-details" stroke-width="4.193"/>
<path d="M824.584 640.011L761.535 603.836L774.971 594.533C776.005 594.189 781.38 589.986 794.61 575.929C805.359 573.448 816.315 582.13 820.449 585.231C823.445 587.478 826.441 590.268 826.291 595.567C826.234 597.58 825.722 599.956 824.584 602.802C820.449 613.138 823.206 636.566 824.584 641.045" stroke="#98979B" class="shell-details" stroke-width="4.193"/>
<path d="M613.919 955.235C556.737 933.372 499.696 871.145 478.323 842.765C450.574 817.538 407.197 826.647 388.978 834.356C371.319 837.719 364.802 816.837 363.75 805.975C363.75 732.817 399.489 667.577 417.358 644.102C426.608 632.329 437.329 622.379 441.534 618.875C482.738 588.602 516.865 553.004 528.777 538.989C545.978 516.553 574.985 510.191 591.545 509.551C593.452 509.477 595.194 509.479 596.734 509.541L600.826 509.556C601.626 509.556 602.486 509.557 603.407 509.557C626.112 512.08 648.606 525.324 657.015 531.631C786.514 601.426 834.305 637.094 842.013 646.204C888.263 705.067 907.533 754.12 911.388 771.288C920.638 809.969 927.098 827.348 929.172 831.202C931.203 836.978 933.522 852.423 931.359 882.707C917.066 908.999 855.678 995.178 837.809 1000.43C819.94 1005.69 705.577 943.463 613.919 955.235Z" fill="#ACAAAF" class="shell"/>
<path d="M597.101 509.558C596.98 509.552 596.858 509.546 596.734 509.541M596.734 509.541C581.823 508.939 547.959 513.969 528.777 538.989C516.865 553.004 482.738 588.602 441.534 618.875C437.329 622.379 426.608 632.329 417.358 644.102C399.489 667.577 363.75 732.817 363.75 805.975C364.802 816.837 371.319 837.719 388.978 834.356C407.197 826.647 450.574 817.538 478.323 842.765C499.696 871.145 556.737 933.372 613.919 955.235C705.577 943.463 819.94 1005.69 837.809 1000.43C855.678 995.178 917.066 908.999 931.359 882.707C933.522 852.423 931.203 836.978 929.172 831.202M596.734 509.541L601.305 509.558C601.305 509.558 577.129 509.541 603.407 509.557C626.112 512.08 648.606 525.324 657.015 531.631C786.514 601.426 834.305 637.094 842.013 646.204C888.263 705.067 907.533 754.12 911.388 771.288C920.637 809.969 927.098 827.348 929.172 831.202M928.206 829.1C928.505 829.549 928.835 830.242 929.172 831.202" stroke="#908F93" class="shell-details" stroke-width="7.33775"/>
<path d="M653.156 547.763C612.639 528.744 570.124 560.51 553.931 578.77C547.316 596.135 487.092 620.459 457.807 630.45C430.52 641.199 409.228 704.524 401.993 734.843C391.244 785.282 409.917 796.514 420.598 795.825C471.037 788.383 509.142 816.152 521.89 830.967C554.965 903.732 605.266 923.99 626.283 925.024C702.355 911.794 796.481 936.049 834.035 949.83C873.725 949.83 902.252 880.235 911.554 845.437C915.689 837.995 921.89 818.564 922.924 814.43" stroke="#908F93" class="shell-details" stroke-width="6.2895"/>
<path d="M523.958 571.535C514.311 572.224 494.811 578.564 493.984 598.409C498.845 605.037 502.544 614.912 505.146 624.248C507.413 632.383 508.846 640.108 509.488 644.92L578.738 601.509C574.949 602.543 561.581 598.408 538.428 573.602C537.739 572.569 533.881 570.708 523.958 571.535Z" fill="#ACAAAF" class="shell"/>
<path d="M578.738 601.509C574.949 602.543 561.581 598.408 538.428 573.602C537.739 572.569 533.881 570.708 523.958 571.535C514.311 572.224 494.811 578.564 493.984 598.409C498.845 605.037 502.544 614.912 505.146 624.248C507.413 632.382 508.846 640.108 509.488 644.92" stroke="#908F93" class="shell-details" stroke-width="4.193"/>
<path d="M852.64 838.202C853.673 834.068 860.495 823.525 879.513 814.43C881.236 812.018 884.681 805.127 884.681 796.859C883.647 791.691 878.479 779.701 866.076 773.086C847.058 775.567 834.035 770.674 829.901 767.918" stroke="#908F93" class="shell-details" stroke-width="4.193"/>
<path d="M616.981 816.497C612.846 790.864 601.477 778.943 596.309 776.187C592.174 749.727 611.813 734.154 622.149 729.675C626.283 728.021 634.896 728.986 638.686 729.675C655.224 746.212 672.45 754.481 678.996 756.548" stroke="#908F93" class="shell-details" stroke-width="4.193"/>
<path d="M457.807 752.413C440.443 733.395 424.732 728.641 424.732 726.574C424.732 703.421 434.379 692.121 439.203 689.364C440.236 689.364 470.899 694.188 481.58 694.532" stroke="#908F93" class="shell-details" stroke-width="4.193"/>
<path d="M744.82 677.417C770.675 664.016 780.467 648.247 782.725 648.852C808.014 655.628 817.535 669.473 819.133 675.548C818.831 676.677 804.588 708.759 801.085 720.324" stroke="#908F93" class="shell-details" stroke-width="5.24125"/>
<path d="M662.492 500.217C659.047 518.822 648.642 558.305 634.585 567.4L724.473 598.397C720.333 596.922 713.149 577.137 717.272 509.519C716.239 506.419 712.518 499.804 705.903 498.15C696.601 495.394 674.895 491.948 662.492 500.217Z" fill="#ACAAAF" class="shell"/>
<path d="M634.585 567.4C648.642 558.305 659.047 518.822 662.492 500.217C674.895 491.948 696.601 495.394 705.903 498.15C712.518 499.804 716.239 506.419 717.272 509.519C713.138 577.323 720.373 597.03 724.508 598.408" stroke="#908F93" class="shell-details" stroke-width="3.14475"/>
<path d="M644.887 610.811L646.954 608.744L649.021 606.677" stroke="#908F93" class="shell-details" stroke-width="1.04825"/>
<path d="M852.639 869.209C856.773 870.863 859.874 872.655 860.908 873.344M854.706 882.646L860.908 886.781M834.034 834.067C837.342 831.587 839.547 828.899 840.236 827.866M813.362 785.488C819.151 784.662 823.354 785.144 824.732 785.488M645.92 834.067C648.401 826.625 649.71 824.076 650.055 823.731M575.636 632.517C577.29 633.343 579.77 636.996 580.804 638.718M682.096 803.059C684.577 804.713 686.575 808.572 687.264 810.295" stroke="#908F93" class="shell-details" stroke-width="1.04825"/>
<path d="M700.701 613.912C703.182 621.354 703.802 624.593 703.802 625.282M487.781 736.91C491.088 736.91 494.672 735.532 496.05 734.842M489.848 726.574C492.329 725.747 495.016 724.851 496.05 724.507" stroke="#908F93" class="shell-details" stroke-width="1.04825"/>
<path d="M690.365 617.013C690.365 618.666 692.432 624.592 693.466 627.349" stroke="#908F93" class="shell-details" stroke-width="1.04825"/>
<path d="M657.29 615.979C659.771 613.498 661.08 612.189 661.424 611.845" stroke="#908F93" class="shell-details" stroke-width="1.04825"/>
<path d="M485.301 466.449C474.518 488.582 453.334 555.791 364.571 656.525C430.64 558.142 452.528 514.305 525.618 338.584C524.805 366.498 498.165 429.967 485.301 466.449Z" fill="#F9EED2" class="body-light"/>
<path d="M529.124 319.338C481.166 483.886 383.388 611.845 357.548 656.29" stroke="#226494" class="body-details" stroke-width="5.24125"/>
<path d="M604.577 303.835C611.468 287.297 618.22 255.876 590.107 262.491C561.166 291.432 523.612 300.734 508.453 301.767C472.897 295.152 433 301.767 417.497 305.902C436.101 313.826 484.267 330.088 528.091 331.742C550.141 331.397 593.001 328.641 604.577 303.835Z" fill="#F9EED2" class="body-light"/>
<path d="M412.329 304.868C413.018 305.212 414.809 305.901 416.463 305.901C445.404 295.152 489.159 297.977 507.419 300.733C542.148 300.733 577.015 275.238 590.107 262.491C590.107 262.491 592.174 260.423 593.208 260.423" stroke="#226494" class="body-details" stroke-width="5.24125"/>
<path d="M697.6 203.576C697.6 203.576 652.329 214.505 632.867 194.372C623.919 186.263 608.036 164.004 616.089 139.845C621.402 126.982 639.074 102.934 667.261 109.645C684.709 112.33 693.546 130.897 695.783 139.845" stroke="#226494" class="body-details" stroke-width="5.24125"/>

</svg>
