<svg width="17" height="17" viewBox="0 0 17 17" fill="none" xmlns="http://www.w3.org/2000/svg">
<rect x="0.168457" y="0.420166" width="16.2144" height="16.2144" rx="8.10722" fill="white"/>
<circle cx="8.27567" cy="8.52738" r="8.10722" fill="white"/>
<path fill-rule="evenodd" clip-rule="evenodd" d="M4.44466 12.7234C4.40999 12.6899 4.3757 12.6557 4.34181 12.6209C2.55273 10.782 2.55273 7.80069 4.34181 5.96186C6.13089 4.12302 11.8316 4 11.8316 4C11.8316 4 12.6097 10.782 10.8207 12.6209C9.23172 14.254 6.76599 14.4367 4.98088 13.169L6.41926 11.3547L8.71863 10.8445L6.84167 10.6517L8.0345 9.40334L9.39231 9.09762L8.31864 8.77081L9.39231 6.78007L7.86511 8.54071L7.27537 7.68535L7.48297 9.09762L6.41926 10.3301L5.92618 8.77079V10.8445L4.44466 12.7234Z" fill="#33BA5A"/>
</svg>
