<?xml version="1.0" standalone="no"?>
<!DOCTYPE svg PUBLIC "-//W3C//DTD SVG 20010904//EN"
 "http://www.w3.org/TR/2001/REC-SVG-20010904/DTD/svg10.dtd">
<svg version="1.0" xmlns="http://www.w3.org/2000/svg"
 width="650.000000pt" height="650.000000pt" viewBox="0 0 650.000000 650.000000"
 preserveAspectRatio="xMidYMid meet">
<metadata>
Created by potrace 1.14, written by Peter Selinger 2001-2017
</metadata>
<g transform="translate(0.000000,650.000000) scale(0.100000,-0.100000)"
fill="#000000" stroke="none">
<path d="M430 6233 c0 -5 11 -32 24 -59 13 -28 36 -88 50 -135 72 -239 44
-440 -81 -579 l-46 -51 33 6 c176 31 376 -57 564 -249 37 -39 81 -90 98 -113
16 -24 31 -43 34 -43 3 0 3 4 0 9 -3 5 -19 62 -35 127 -75 300 -54 520 63 669
23 29 26 37 12 32 -109 -42 -308 13 -455 126 -67 52 -169 152 -221 219 -22 27
-40 46 -40 41z"/>
<path d="M1840 5885 c-14 -14 -54 -40 -89 -58 -59 -29 -74 -32 -151 -31 l-85
0 37 -38 c46 -47 78 -143 78 -235 l0 -64 38 30 c54 43 124 63 224 65 l87 1
-22 25 c-12 14 -25 27 -28 30 -4 3 -21 32 -38 66 -35 69 -49 157 -33 203 13
38 12 38 -18 6z"/>
<path d="M4565 5626 c-244 -60 -609 -238 -830 -404 -78 -59 -195 -178 -320
-326 -139 -165 -285 -313 -316 -321 -23 -6 -34 2 -85 56 -120 125 -279 199
-432 200 -112 0 -171 -16 -271 -72 -64 -36 -64 -37 -147 -115 -35 -34 -89 -73
-119 -88 -51 -24 -56 -24 -89 -11 -59 25 -118 20 -149 -12 -36 -39 -47 -99
-42 -233 7 -197 22 -235 133 -332 104 -91 161 -298 125 -452 -20 -88 -56 -145
-138 -220 -66 -59 -167 -175 -202 -231 -90 -143 -130 -302 -111 -440 11 -81
71 -210 120 -258 30 -29 86 -123 163 -271 113 -218 167 -426 142 -549 -7 -35
-80 -133 -129 -172 -104 -83 -101 -80 -94 -103 10 -30 50 -49 116 -56 57 -6
211 -18 245 -20 16 -1 25 16 53 104 190 595 396 915 638 990 73 22 114 14 236
-44 146 -69 176 -72 156 -13 -13 36 -50 96 -88 142 -39 47 -170 176 -218 215
-24 19 -56 45 -70 58 -15 12 -45 35 -67 50 -22 15 -47 36 -56 47 -17 20 -89
185 -105 240 -44 150 -56 320 -29 408 15 49 52 113 82 139 10 10 54 31 97 49
173 70 314 157 397 246 54 58 74 93 85 148 9 49 65 155 111 211 37 45 35 45
203 98 288 92 564 268 739 472 48 57 121 160 121 172 0 6 4 12 8 14 21 9 110
229 188 465 55 165 65 216 48 232 -5 5 -49 -1 -99 -13z"/>
<path d="M5124 5161 c-162 -80 -331 -174 -344 -191 -3 -4 -14 -12 -25 -18 -12
-6 -45 -51 -75 -100 -148 -249 -384 -503 -585 -629 -51 -32 -156 -83 -220
-106 -94 -33 -158 -44 -270 -46 l-60 -1 -42 -97 c-23 -54 -43 -105 -45 -113
-4 -19 100 -46 312 -81 84 -14 374 -18 465 -6 394 49 697 264 889 629 117 221
178 460 190 738 5 124 17 123 -190 21z"/>
<path d="M4785 2949 c-103 -31 -146 -48 -290 -118 -126 -62 -337 -193 -407
-253 -14 -13 -45 -38 -67 -56 -70 -57 -198 -188 -231 -237 -64 -92 -141 -300
-156 -419 -2 -17 -6 -42 -9 -56 -2 -14 -7 -52 -10 -85 -9 -89 -16 -157 -20
-185 -2 -14 -6 -45 -10 -70 -11 -74 -52 -222 -78 -282 -41 -92 -107 -143 -161
-122 -24 9 -20 27 13 58 67 65 103 221 98 436 -3 159 -16 195 -105 291 -94
102 -220 158 -372 164 -80 4 -90 2 -159 -30 -136 -64 -242 -202 -292 -380 -28
-99 -30 -215 -6 -262 10 -18 15 -33 12 -33 -3 0 11 -32 32 -72 93 -177 295
-309 542 -353 76 -14 312 -14 376 0 174 37 166 33 365 161 436 279 800 722
940 1143 18 52 33 103 35 113 2 11 6 27 9 36 29 94 42 531 19 603 l-8 26 -60
-18z"/>
<path d="M6046 1960 c-54 -56 -135 -92 -208 -94 -32 0 -58 -3 -58 -4 0 -2 20
-23 44 -46 54 -53 92 -147 95 -234 1 -23 2 -22 43 12 52 45 134 77 217 84 l65
5 -25 21 c-31 28 -92 104 -106 136 -18 39 -30 92 -28 128 1 17 1 32 1 32 -1
-1 -19 -19 -40 -40z"/>
<path d="M5432 1438 c49 -116 79 -250 79 -354 0 -152 -36 -254 -123 -349 -43
-48 -47 -54 -24 -45 43 16 159 12 224 -9 152 -47 314 -171 444 -338 22 -29 41
-53 43 -53 1 0 -8 36 -21 79 -12 43 -26 98 -29 122 -4 24 -8 46 -10 49 -8 13
-19 151 -17 222 2 135 47 274 108 335 14 14 24 27 22 29 -2 1 -20 -1 -41 -6
-106 -23 -248 15 -384 106 -87 58 -267 229 -278 265 -4 10 -10 19 -15 19 -5 0
5 -32 22 -72z"/>
</g>
</svg>
