<svg width="540" height="509" viewBox="0 0 540 509" fill="none" xmlns="http://www.w3.org/2000/svg">
<path d="M9.55642 228.569C6.0313 234.492 1.17595 251.527 9.95549 272.289C24.6412 274.685 36.5601 285.266 40.6838 290.257C44.8341 311.338 56.5136 336.04 61.8345 345.755C64.0693 352.144 68.8847 360.661 71.0131 364.122C69.4168 382.648 60.6373 391.805 56.4471 394.067C54.3719 403.33 68.0866 417.624 75.2033 423.613C83.6636 422.176 102.673 422.083 111.12 422.216C117.824 430.041 140.385 444.109 150.827 450.165L152.878 451.362C152.957 454.269 148.65 461.159 148.285 461.79C161.694 478.719 184.356 483.504 191.938 483.371C198.928 482.841 203.229 473.59 205.801 470.527C214.659 485.061 228.18 496.547 233.834 500.473C246.604 506.861 278.662 503.134 293.095 500.473C295.809 499.514 299.547 496.613 301.077 495.282C302.513 487.456 309.258 479.378 312.45 476.317C315.643 475.359 320.299 474.72 322.228 474.52C330.209 480.27 337.93 489.326 344.981 487.995C354.558 484.641 374.741 472.463 377.335 468.47C379.41 465.915 375.969 454.756 376.102 452.959C381.937 451.384 395.564 447.468 401.842 445.573C410.302 456.912 427.715 456.42 435.364 454.756C437.16 454.423 440.991 453.638 441.948 453.159C446.804 450.431 457.193 443.896 459.907 439.584C462.434 436.323 467.409 428.125 467.09 421.417C467.023 412.433 466.012 393.229 462.5 388.278L475.47 363.922C481.456 354.007 493.428 332.859 493.428 327.588C493.894 318.139 499.414 296.605 517.772 286.064C522.693 282.937 532.896 275.484 534.333 270.692C535.397 259.446 535.969 235.477 529.744 229.567L518.57 225.575C514.712 223.978 506.478 220.664 504.403 220.185C502.008 218.122 497.22 213.676 497.22 212.399C496.82 204.946 495.703 188.842 494.426 184.051C493.561 178.993 490.555 166.004 485.447 154.505L481.057 145.122C480.126 143.125 477.665 138.653 475.271 136.737C474.007 136.005 471.24 134.461 470.282 134.142C477.865 122.696 492.67 98.367 491.234 92.6175C490.502 91.2866 488.52 88.1058 486.445 86.0296C482.72 82.5692 473.235 75.2493 465.094 73.6522C461.303 72.3878 448.693 72.3745 428.58 82.4361C413.681 72.3878 377.299 51.4926 350.961 48.2985C344.509 46.3021 331.167 36.1606 329.411 11.5655C316.641 6.04229 286.431 -1.13128 267.754 14.3604C265.626 21.2146 259.174 35.7613 250.395 39.1152C238.489 41.1116 203.983 50.8139 161.203 73.6522C156.148 69.3267 143.684 59.6377 134.266 55.4853C127.748 56.7497 112.915 62.4726 105.732 75.2492C105.466 85.4306 104.056 108.708 100.544 120.367C91.8978 127.421 71.6117 147.717 59.6396 172.472C57.5778 175.932 52.0174 188.083 46.2708 209.005C36.4271 212.066 15.303 220.264 9.55642 228.569Z" fill="#FCF662"/>
<path d="M208.293 466.335C207.913 467.455 207.106 468.974 205.801 470.527M205.801 470.527C203.229 473.59 198.928 482.841 191.938 483.371C184.356 483.504 161.694 478.719 148.285 461.79C148.65 461.159 152.957 454.269 152.878 451.362L150.827 450.165C140.385 444.109 117.824 430.041 111.12 422.216C102.673 422.083 83.6636 422.176 75.2033 423.613C68.0866 417.624 54.3719 403.33 56.4471 394.067C60.6373 391.805 69.4168 382.648 71.0131 364.122C68.8847 360.661 64.0693 352.144 61.8345 345.755C56.5136 336.04 44.8341 311.338 40.6838 290.257C36.5601 285.266 24.6412 274.685 9.95549 272.289C1.17595 251.527 6.0313 234.492 9.55642 228.569C15.303 220.264 36.4271 212.066 46.2708 209.005C52.0174 188.083 57.5778 175.932 59.6396 172.472C71.6117 147.717 91.8978 127.421 100.544 120.367C104.056 108.708 105.466 85.4306 105.732 75.2492C112.915 62.4726 127.748 56.7497 134.266 55.4853C143.684 59.6377 156.148 69.3267 161.203 73.6522C203.983 50.8139 238.489 41.1116 250.395 39.1152C259.174 35.7613 265.626 21.2146 267.754 14.3604C286.431 -1.13128 316.641 6.04229 329.411 11.5655C331.167 36.1606 344.509 46.3021 350.961 48.2985C377.299 51.4926 413.681 72.3878 428.58 82.4361C448.693 72.3745 461.303 72.3878 465.094 73.6522C473.235 75.2492 482.72 82.5692 486.445 86.0296C488.52 88.1058 490.502 91.2866 491.234 92.6175C492.67 98.367 477.865 122.696 470.282 134.142C471.24 134.461 474.007 136.005 475.271 136.737C477.665 138.653 480.126 143.125 481.057 145.122L485.447 154.505C490.555 166.004 493.561 178.993 494.426 184.051C495.703 188.842 496.82 204.946 497.22 212.399C497.22 213.676 502.008 218.122 504.403 220.185C506.478 220.664 514.712 223.978 518.57 225.575L529.744 229.567C535.969 235.477 535.397 259.446 534.333 270.692C532.896 275.484 522.693 282.937 517.772 286.064C499.414 296.605 493.894 318.139 493.428 327.588C493.428 332.859 481.456 354.007 475.47 363.922L462.5 388.278C466.012 393.229 467.023 412.433 467.09 421.417C467.409 428.125 462.434 436.323 459.907 439.584C457.193 443.896 446.804 450.431 441.948 453.159C440.991 453.638 437.16 454.423 435.364 454.756C427.715 456.42 410.302 456.912 401.842 445.573C395.564 447.468 381.937 451.384 376.102 452.959C375.969 454.756 379.41 465.915 377.335 468.47C374.741 472.463 354.558 484.641 344.981 487.995C337.93 489.326 330.209 480.27 322.227 474.52C320.299 474.72 315.643 475.359 312.45 476.317C309.258 479.378 302.513 487.456 301.077 495.282C299.547 496.613 295.809 499.514 293.095 500.473C278.662 503.134 246.604 506.861 233.834 500.473C228.18 496.547 214.659 485.061 205.801 470.527Z" stroke="#FCF662" stroke-width="9.34464"/>
<path d="M10.4623 223.841C7.01 229.638 2.25494 246.313 10.8531 266.636C25.2355 268.981 36.9082 279.338 40.9467 284.224C45.0113 304.859 56.4495 329.038 61.6605 338.549C63.8492 344.802 68.5651 353.139 70.6495 356.527C69.0862 374.661 60.488 383.624 56.3844 385.839C54.3521 394.906 67.7835 408.897 74.7532 414.76C83.0387 413.353 101.655 413.262 109.928 413.392C116.493 421.052 138.588 434.822 148.815 440.75L150.823 441.922C150.901 444.768 146.683 451.512 146.325 452.129C159.457 468.7 181.651 473.384 189.077 473.254C195.922 472.735 200.134 463.68 202.653 460.682C211.328 474.908 224.57 486.151 230.107 489.994C242.613 496.247 274.01 492.599 288.144 489.994C290.802 489.056 294.463 486.216 295.961 484.913C297.368 477.253 303.973 469.345 307.1 466.349C310.226 465.411 314.786 464.786 316.675 464.59C324.491 470.218 332.053 479.083 338.958 477.78C348.338 474.497 368.104 462.576 370.644 458.668C372.677 456.167 369.306 445.244 369.436 443.485C375.151 441.944 388.497 438.11 394.645 436.255C402.93 447.355 419.983 446.873 427.474 445.244C429.233 444.919 432.985 444.15 433.923 443.681C438.678 441.01 448.852 434.614 451.51 430.393C453.985 427.201 458.857 419.176 458.545 412.61C458.48 403.817 457.49 385.018 454.05 380.172L466.752 356.331C472.615 346.626 484.339 325.925 484.339 320.766C484.795 311.516 490.202 290.438 508.18 280.12C513 277.058 522.992 269.763 524.399 265.073C525.441 254.065 526.001 230.602 519.905 224.818L508.961 220.91C505.183 219.346 497.119 216.103 495.087 215.634C492.742 213.614 488.052 209.263 488.052 208.012C487.661 200.717 486.567 184.954 485.316 180.264C484.47 175.313 481.525 162.598 476.523 151.343L472.224 142.158C471.312 140.204 468.902 135.827 466.557 133.951C465.319 133.234 462.609 131.723 461.671 131.41C469.097 120.207 483.597 96.3924 482.19 90.7645C481.473 89.4617 479.532 86.3481 477.5 84.3158C473.852 80.9287 464.564 73.7635 456.591 72.2002C452.878 70.9626 440.528 70.9496 420.83 80.7984C406.239 70.9626 370.609 50.5094 344.814 47.3827C338.496 45.4286 325.429 35.5016 323.71 11.4267C311.203 6.02024 281.618 -1.00161 263.327 14.1625C261.243 20.8717 254.924 35.1108 246.326 38.3937C234.666 40.3478 200.873 49.8449 158.976 72.2002C154.026 67.9663 141.819 58.4822 132.596 54.4176C126.212 55.6552 111.686 61.2571 104.651 73.7635C104.391 83.7296 103.01 106.515 99.5707 117.927C91.1028 124.832 71.2358 144.699 59.511 168.93C57.4917 172.317 52.0462 184.211 46.4183 204.69C36.7779 207.687 16.0902 215.712 10.4623 223.841Z" fill="#AC95A6"/>
<path d="M205.094 456.578C204.721 457.674 203.931 459.161 202.653 460.682M202.653 460.682C200.134 463.68 195.922 472.735 189.077 473.254C181.651 473.384 159.457 468.7 146.325 452.129C146.683 451.512 150.901 444.768 150.823 441.922L148.815 440.75C138.588 434.822 116.493 421.052 109.928 413.392C101.655 413.262 83.0387 413.353 74.7532 414.76C67.7835 408.897 54.3521 394.906 56.3844 385.839C60.488 383.624 69.0862 374.661 70.6495 356.527C68.5651 353.139 63.8492 344.802 61.6605 338.549C56.4495 329.038 45.0113 304.859 40.9467 284.224C36.9082 279.338 25.2355 268.981 10.8531 266.636C2.25494 246.313 7.01 229.638 10.4623 223.841C16.0902 215.712 36.7779 207.687 46.4183 204.69C52.0462 184.211 57.4917 172.317 59.511 168.93C71.2358 144.699 91.1028 124.832 99.5707 117.927C103.01 106.515 104.391 83.7296 104.651 73.7635C111.686 61.2571 126.212 55.6552 132.596 54.4176C141.819 58.4822 154.026 67.9663 158.976 72.2002C200.873 49.8449 234.666 40.3478 246.326 38.3937C254.924 35.1108 261.243 20.8717 263.327 14.1625C281.618 -1.00161 311.203 6.02024 323.71 11.4267C325.429 35.5016 338.496 45.4286 344.814 47.3827C370.609 50.5094 406.239 70.9626 420.83 80.7984C440.528 70.9496 452.878 70.9626 456.591 72.2002C464.564 73.7635 473.852 80.9287 477.5 84.3158C479.532 86.3481 481.473 89.4617 482.19 90.7645C483.597 96.3924 469.097 120.207 461.671 131.41C462.609 131.723 465.319 133.234 466.557 133.951C468.902 135.827 471.312 140.204 472.224 142.158L476.523 151.343C481.525 162.598 484.47 175.313 485.316 180.264C486.567 184.954 487.661 200.717 488.052 208.012C488.052 209.263 492.742 213.614 495.087 215.634C497.119 216.103 505.183 219.346 508.961 220.91L519.905 224.818C526.001 230.602 525.441 254.065 524.399 265.073C522.992 269.763 513 277.058 508.18 280.12C490.202 290.438 484.795 311.516 484.339 320.766C484.339 325.925 472.615 346.626 466.752 356.331L454.05 380.172C457.49 385.018 458.48 403.817 458.545 412.61C458.857 419.176 453.985 427.201 451.51 430.393C448.852 434.614 438.678 441.01 433.923 443.681C432.985 444.15 429.233 444.919 427.474 445.244C419.983 446.873 402.93 447.355 394.645 436.255C388.497 438.11 375.151 441.944 369.436 443.485C369.306 445.244 372.677 456.167 370.644 458.668C368.104 462.576 348.338 474.497 338.958 477.78C332.053 479.083 324.491 470.218 316.675 464.59C314.786 464.786 310.226 465.411 307.1 466.349C303.973 469.345 297.368 477.253 295.961 484.913C294.463 486.216 290.802 489.056 288.144 489.994C274.01 492.599 242.613 496.247 230.107 489.994C224.57 486.151 211.328 474.908 202.653 460.682Z" stroke="#775F7F" stroke-width="9.34464"/>
<path d="M411.748 385.593C411.432 383.582 412.32 382.337 418.399 393.442C419.07 394.6 419.154 396.33 416.18 392.899C415.68 392.365 414.094 390.155 411.748 385.593Z" fill="#775F7F"/>
<path d="M406.815 394.138C405.26 392.08 406.867 389.59 413.75 399.303C413.126 399.47 411.874 399.591 411.86 398.739C410.947 398.493 408.369 396.196 406.815 394.138Z" fill="#775F7F"/>
<path d="M398.714 391.36C398.984 390.953 401.066 392.402 407.236 401.449L408.407 403.075C408.108 403.155 407.603 403.068 407.387 403.014C406.565 402.855 404.238 401.744 401.515 398.568C400.322 396.614 398.093 392.436 398.714 391.36Z" fill="#775F7F"/>
<path d="M411.748 385.593C411.432 383.582 412.32 382.337 418.399 393.442C419.07 394.6 419.154 396.33 416.18 392.899C415.68 392.365 414.094 390.155 411.748 385.593Z" stroke="#775F7F" stroke-width="0.154309"/>
<path d="M406.815 394.138C405.26 392.08 406.867 389.59 413.75 399.303C413.126 399.47 411.874 399.591 411.86 398.739C410.947 398.493 408.369 396.196 406.815 394.138Z" stroke="#775F7F" stroke-width="0.154309"/>
<path d="M398.714 391.36C398.984 390.953 401.066 392.402 407.236 401.449L408.407 403.075C408.108 403.155 407.603 403.068 407.387 403.014C406.565 402.855 404.238 401.744 401.515 398.568C400.322 396.614 398.093 392.436 398.714 391.36Z" stroke="#775F7F" stroke-width="0.154309"/>
<path d="M258.907 48.2689C257.324 49.5479 255.801 49.4017 262.379 38.5848C263.047 37.4245 264.502 36.4867 263.018 40.7774C262.805 41.4779 261.685 43.9567 258.907 48.2689Z" fill="#775F7F"/>
<path d="M268.774 48.2689C267.769 50.6438 264.809 50.4976 269.779 39.6807C270.236 40.1375 270.967 41.1607 270.236 41.5992C270.479 42.5128 269.779 45.894 268.774 48.2689Z" fill="#775F7F"/>
<path d="M270.419 56.6735C269.931 56.643 270.145 54.1154 274.895 44.2486L275.717 42.4214C275.937 42.6407 276.113 43.1219 276.174 43.335C276.448 44.1268 276.649 46.697 275.261 50.6438C274.164 52.6537 271.661 56.6735 270.419 56.6735Z" fill="#775F7F"/>
<path d="M258.907 48.2689C257.324 49.5479 255.801 49.4017 262.379 38.5848C263.047 37.4245 264.502 36.4867 263.018 40.7774C262.805 41.4779 261.685 43.9567 258.907 48.2689Z" stroke="#775F7F" stroke-width="0.154309"/>
<path d="M268.774 48.2689C267.769 50.6438 264.809 50.4976 269.779 39.6807C270.236 40.1375 270.967 41.1607 270.236 41.5992C270.479 42.5128 269.779 45.894 268.774 48.2689Z" stroke="#775F7F" stroke-width="0.154309"/>
<path d="M270.419 56.6735C269.931 56.643 270.145 54.1154 274.895 44.2486L275.717 42.4214C275.937 42.6407 276.113 43.1219 276.174 43.335C276.448 44.1268 276.649 46.697 275.261 50.6438C274.164 52.6537 271.661 56.6735 270.419 56.6735Z" stroke="#775F7F" stroke-width="0.154309"/>
<path d="M293.174 301.38C322.142 296.123 343.816 285.616 351.033 281.02C353.301 279.886 368.815 270.926 376.289 266.588C386.804 259.681 382.145 262.722 390.98 252.027C395.357 246.727 398.585 243.01 400.8 239.62C395.276 243.851 388.899 246.394 384.207 242.104C380.642 239.226 371.956 230.418 366.138 217.223C354.173 210.136 294.393 197.934 150.997 205.829C149.471 209.514 144.907 218.396 137.954 226.457C136.579 228.09 132.464 231.174 127.001 230.452C125.981 230.15 124.244 229.342 121.957 227.861C124.748 254.797 154.096 275.367 171.014 283.211C227.037 305.684 275.797 304.688 293.174 301.38Z" fill="#EF8080"/>
<path d="M100.011 195.714C94.6507 208.188 101.3 212.853 105.295 213.626C109.809 214.036 116.539 213.252 123.464 212.015M366.138 217.223C371.014 217.859 393.909 225.298 404.567 228.961M366.138 217.223C371.956 230.418 380.642 239.226 384.207 242.104C388.899 246.394 395.276 243.851 400.8 239.62M366.138 217.223C354.173 210.136 294.393 197.934 150.997 205.829M432.731 211.307C433.676 215.473 433.993 224.992 427.705 229.734C423.37 230.103 415.122 230.589 410.108 230.239M123.464 212.015C132.196 210.455 141.236 208.177 146.53 206.668C147.52 206.338 149.079 206.06 150.997 205.829M123.464 212.015C117.076 213.156 110.853 213.912 106.383 213.7C112.61 220.901 118.075 225.349 121.957 227.861M123.464 212.015C121.847 217.494 121.432 222.791 121.957 227.861M404.567 228.961C409.457 230.641 403.506 228.518 406.829 229.734C407.57 229.98 408.714 230.142 410.108 230.239M404.567 228.961C404.264 233.057 403.057 236.169 400.8 239.62M150.997 205.829C149.471 209.514 144.907 218.396 137.954 226.457C136.579 228.09 132.464 231.174 127.001 230.452C125.981 230.15 124.244 229.342 121.957 227.861M150.997 205.829C151.032 205.744 145.041 207.312 150.997 205.829ZM121.957 227.861C124.748 254.797 154.096 275.367 171.014 283.211C227.037 305.684 275.797 304.688 293.174 301.38C322.142 296.123 343.816 285.616 351.033 281.02C353.301 279.886 368.815 270.926 376.289 266.588C386.804 259.681 382.145 262.722 390.98 252.027C395.357 246.727 398.585 243.01 400.8 239.62M410.108 230.239C407.941 233.063 404.569 236.734 400.8 239.62" stroke="#775F7F" stroke-width="7"/>
<path d="M123.464 212.144C117.076 213.285 110.853 214.041 106.383 213.829C112.61 221.029 118.075 225.478 121.957 227.99C124.244 229.471 125.981 230.279 127.001 230.581C132.464 231.303 136.579 228.219 137.954 226.586C144.907 218.525 149.471 209.643 150.997 205.958C149.079 206.189 147.52 206.467 146.53 206.797C141.236 208.306 132.196 210.584 123.464 212.144Z" fill="white"/>
<path d="M394.072 225.346C383.414 221.684 371.114 217.741 366.238 217.105C372.057 230.301 380.642 239.355 384.207 242.233C392.099 249.45 404.763 237.33 410.108 230.368C408.714 230.271 407.57 230.109 406.829 229.863C403.506 228.647 398.962 227.026 394.072 225.346Z" fill="white"/>
<path d="M100.011 195.843C94.6507 208.317 101.3 212.982 105.295 213.755C109.809 214.165 116.539 213.381 123.464 212.144M432.731 211.436C433.676 215.602 433.993 225.121 427.705 229.863C423.37 230.232 415.122 230.718 410.108 230.368M123.464 212.144C132.196 210.584 141.236 208.306 146.53 206.797C147.52 206.467 149.079 206.189 150.997 205.958M123.464 212.144C117.076 213.285 110.853 214.041 106.383 213.829C112.61 221.029 118.075 225.478 121.957 227.99C124.244 229.471 125.981 230.279 127.001 230.581C132.464 231.303 136.579 228.219 137.954 226.586C144.907 218.525 149.471 209.643 150.997 205.958M151.098 205.711C151.066 205.79 151.032 205.873 150.997 205.958M100.011 197.003C103.748 199.065 115.217 194.555 115.217 194.555M410.108 230.368C408.714 230.271 407.57 230.109 406.829 229.863C403.506 228.647 398.962 227.026 394.072 225.346C383.414 221.684 371.114 217.741 366.238 217.105C372.057 230.301 380.642 239.355 384.207 242.233C392.099 249.45 404.763 237.33 410.108 230.368Z" stroke="#775F7F" stroke-width="2.17651"/>
<path d="M207.797 441.194C213.09 441.591 224.652 442.75 228.781 439.098C226.663 437.973 222.071 435.525 220.642 434.731C217.135 432.746 208.335 428.259 201.188 426.195C198.409 425.467 191.66 424.011 186.896 424.011C184.58 423.416 179.551 421.47 177.963 418.453C177.434 415.674 176.613 409.639 177.566 407.734C178.162 406.477 180.226 403.764 183.72 402.97C185.374 402.771 189.119 402.573 190.866 403.367C192.983 404.161 197.576 406.146 199.005 407.734C201.585 410.05 207.302 415.039 209.526 416.468C213.959 418.85 225.128 424.488 234.339 427.981C240.493 429.702 254.388 432.984 260.74 432.349C264.115 431.224 272.373 428.656 278.407 427.386C283.105 426.327 293.057 424.051 295.28 423.416C298.39 422.092 304.928 419.128 306.198 417.858C308.382 416.203 313.027 412.458 314.138 410.711C314.535 409.917 315.687 408.25 317.116 407.932C318.572 407.469 321.84 406.543 323.27 406.543C324.725 406.609 328.51 407.297 332.004 409.52C332.599 409.851 333.632 411.069 332.996 413.292C332.467 415.608 330.575 420.756 327.24 422.82C324.196 424.739 317.513 428.537 315.131 428.378C311.889 428.114 304.65 427.823 301.632 428.775C296.405 429.636 284.402 432.785 278.209 438.502C277.613 439.362 276.222 440.24 278.606 441.877C280.99 443.514 289.366 448.411 291.707 448.824C294.048 449.238 296.154 447.991 297.265 447.832C301.368 447.501 310.049 447.514 311.955 450.214C312.418 451.074 313.305 453.231 313.146 454.978C313.08 456.5 312.511 459.782 310.764 460.735C309.374 461.595 305.364 462.958 300.441 461.529C297.398 460.536 291.31 457.678 291.31 454.184C280.723 451.604 254.745 446.125 235.53 444.854C233.545 444.656 226.359 444.497 213.496 445.45C212.834 445.582 211.352 446.085 210.717 447.038C209.459 448.626 206.27 452.04 203.57 452.993C201.916 453.39 197.893 453.946 195.035 452.993C192.983 452.331 188.524 450.254 187.094 447.236C186.3 445.648 185.149 442.234 186.896 441.281C188.219 440.355 193.493 438.502 196.623 439.098C199.752 439.693 202.08 440.559 207.797 441.194Z" fill="#FCF662" stroke="#775F7F" stroke-width="3"/>
<path fill-rule="evenodd" clip-rule="evenodd" d="M234.736 413.689C228.701 404.161 220.973 400.455 217.863 399.794C207.223 398.841 200.46 395.559 198.409 394.037C193.169 388.32 194.902 381.597 196.424 378.951C200.394 373.551 208.533 370.481 212.106 369.621C225.287 367.398 239.037 366.842 244.264 366.842C251.728 366.842 262.99 367.636 267.688 368.033C271.499 368.35 278.275 369.621 281.186 370.216C285.633 371.328 291.112 372.929 293.295 373.591C297.901 375.02 303.419 377.495 305.603 378.554C308.779 380.3 310.234 382.458 310.565 383.318C311.293 385.634 312.391 391.218 310.962 395.03C310.367 396.684 307.866 400.35 302.625 401.779C298.853 402.441 289.603 404.121 282.774 405.55C280.061 407.337 274.278 411.466 272.849 413.689C271.459 412.829 267.847 410.195 264.512 406.543C262.99 407.403 258.517 410.195 252.8 414.483C251.543 412.564 248.353 408.369 245.654 406.94C242.544 408.925 236.006 413.054 234.736 413.689ZM233.544 389.78C231.091 388.234 226.843 384.098 229.477 379.923C229.606 379.923 236.1 379.614 261.045 378.377C263.434 378.442 269.915 379.498 276.732 383.209C278.54 385.077 281.613 389.78 279.444 393.645C278.217 393.967 274.021 394.766 267.049 395.384C260.98 395.449 245.784 394.418 233.544 389.78Z" fill="#FCF662" stroke="#775F7F" stroke-width="3"/>
<path d="M311.4 159.891C308.479 159.977 301.452 160.355 296.71 161.18C295.576 161.18 296.066 160.407 296.452 160.02C297.38 159.401 299.073 158.474 299.803 158.087C300.215 157.881 300.748 157.572 300.963 157.443C301.169 157.34 301.22 157.142 301.22 157.056C302.165 151.773 306.297 139.376 315.266 132.057C319.819 128.234 332.92 120.202 348.899 118.656H352.12C356.287 118.398 367.635 119.223 379.697 124.583C382.059 125.872 389.155 130.227 398.639 137.34C399.326 137.77 401.397 139.325 404.18 142.108C405.984 143.698 409.67 147.031 409.979 147.649C411.01 148.895 413.252 151.773 413.974 153.319C414.489 154.393 415.726 156.953 416.551 158.603C417.023 159.719 418.046 162.262 418.355 163.499C418.613 164.358 419.205 166.437 419.515 167.881C419.687 168.826 420.056 171.154 420.159 172.906C420.202 174.066 420.211 176.72 419.901 178.061L420.288 178.318L428.535 182.313C429.566 182.871 431.525 184.169 431.112 184.89C431.112 185.191 430.288 185.535 426.989 184.504C425.013 183.902 420.623 182.493 418.87 181.669C416.809 180.552 411.577 177.803 407.144 175.741C403.837 174.195 396.577 170.896 394 170.071C391.681 169.126 386.14 167.004 382.532 166.077C380.04 165.389 374.413 163.86 371.836 163.242C369.044 162.64 362.713 161.334 359.723 160.922C357.747 160.664 353.022 160.097 349.93 159.891C348.34 159.762 344.208 159.53 340.394 159.633H331.245C329.097 159.591 324.493 159.53 323.255 159.633C321.108 159.633 315.73 159.685 311.4 159.891Z" fill="#775F7F" stroke="#775F7F" stroke-width="3"/>
<path d="M314.879 135.15C311.743 138.93 305.189 148.5 304.055 156.541V157.185C306.46 157.099 312.302 156.979 316.425 157.185C316.984 154.651 317.972 149.711 320.807 148.68C323.642 147.649 325.961 148.036 327.507 148.809C329.054 149.582 330.987 151.747 330.987 157.314C332.318 157.142 336.785 156.901 344.002 157.314C346.965 157.443 355.264 158.087 364.748 159.633C366.767 159.934 371.99 160.87 376.732 162.211C378.794 162.64 384.335 163.989 390.005 165.947C390.907 166.205 394.644 167.442 402.376 170.329C404.094 170.801 409.36 172.726 416.679 176.643C417.238 176.815 418.303 177.03 418.097 176.514L417.968 175.097C417.839 173.464 417.401 169.504 416.679 166.721C416.035 164.874 414.257 160.278 412.298 156.669C410.666 154.049 406.963 148.371 405.211 146.618C400.786 142.237 388.819 132.005 376.346 126.129C372.781 124.712 363.872 121.697 356.759 120.975C353.838 120.631 345.11 120.82 333.564 124.325C329.741 125.571 320.652 129.48 314.879 135.15Z" fill="white" stroke="#775F7F" stroke-width="3"/>
<path d="M134.089 142.495C132.542 144.686 129.862 151.824 131.511 162.855C133.058 161.206 145.214 157.357 151.098 155.639C157.593 154.092 166.261 153.019 169.783 152.675C175.35 151.541 186.621 151.601 191.561 151.773C197.334 151.464 203.33 151.644 205.606 151.773C205.503 148.99 207.711 146.747 208.828 145.974C210.477 144.428 214.24 145.072 215.915 145.588C216.431 145.794 217.329 146.447 217.714 146.747C218.306 147.39 218.985 148.456 219.266 148.938C219.575 149.557 219.738 150.227 219.781 150.484C220.297 150.69 222.831 151.343 224.034 151.644L226.482 152.16L228.673 152.804C229.497 153.216 232.71 153.577 234.214 153.706C234.342 153.147 234.523 151.85 234.214 151.129C233.784 149.797 232.796 146.928 232.281 146.103L230.348 142.108C229.618 140.777 227.822 137.727 226.482 136.181C225.193 134.506 222.436 131.026 221.714 130.511C221.027 129.738 219.343 127.959 218.106 127.032C217.118 126.13 214.781 124.119 213.338 123.295C212.264 122.607 209.936 121.156 209.215 120.846C208.055 120.331 205.555 119.223 204.833 118.913C203.888 118.527 201.715 117.702 200.581 117.496C199.636 117.238 197.153 116.645 194.782 116.336C194.138 116.207 192.128 115.924 189.241 115.821H188.854H187.824H184.86H181.381C180.779 115.778 178.623 115.846 174.809 116.465C173.09 116.723 168.829 117.444 165.531 118.269C161.665 119.214 152.206 122.521 145.299 128.191C142.722 130.296 136.872 136.103 134.089 142.495Z" fill="white"/>
<path d="M217.591 146.618C217.631 146.659 217.672 146.702 217.714 146.747M217.714 146.747C218.306 147.39 218.985 148.456 219.266 148.938C219.575 149.557 219.738 150.227 219.781 150.484C220.297 150.69 222.831 151.343 224.034 151.644L226.482 152.16L228.673 152.804C229.497 153.216 232.71 153.577 234.214 153.706C234.342 153.147 234.523 151.85 234.214 151.129C233.784 149.797 232.796 146.928 232.281 146.103L230.348 142.108C229.618 140.777 227.822 137.727 226.482 136.181C225.193 134.506 222.436 131.026 221.714 130.511C221.027 129.738 219.343 127.959 218.106 127.032C217.118 126.13 214.781 124.119 213.338 123.295C212.264 122.607 209.936 121.156 209.215 120.846C208.055 120.331 205.555 119.223 204.833 118.913C203.888 118.527 201.715 117.702 200.581 117.496C199.636 117.238 197.153 116.645 194.782 116.336C194.138 116.207 192.128 115.924 189.241 115.821H188.854H187.824H184.86H181.381C180.779 115.778 178.623 115.846 174.809 116.465C173.09 116.723 168.829 117.444 165.531 118.269C161.665 119.214 152.206 122.521 145.299 128.191C142.722 130.296 136.872 136.103 134.089 142.495C132.542 144.686 129.862 151.824 131.511 162.855C133.058 161.206 145.214 157.357 151.098 155.639C157.593 154.092 166.261 153.019 169.783 152.675C175.35 151.541 186.621 151.601 191.561 151.773C197.334 151.464 203.33 151.644 205.606 151.773C205.503 148.99 207.711 146.747 208.828 145.974C210.477 144.428 214.24 145.072 215.915 145.588C216.431 145.794 217.329 146.447 217.714 146.747Z" stroke="#775F7F" stroke-width="3"/>
<path fill-rule="evenodd" clip-rule="evenodd" d="M126.872 165.69C124.088 168.473 126.571 168.224 128.16 167.752L128.805 167.494C129.217 167.288 130.437 166.463 130.995 166.076C131.511 165.767 132.499 165.088 132.928 164.788C133.444 164.478 134.947 163.456 135.634 162.984C136.15 162.674 137.653 161.91 138.34 161.566C138.753 161.36 140.402 160.707 141.175 160.406L143.237 159.762L145.557 159.118L149.809 158.087L154.19 157.314L157.798 156.541L159.345 156.283C160.479 156.077 162.137 155.853 162.824 155.767L165.53 155.51L167.076 155.381C167.901 155.278 169.997 154.994 170.942 154.865C173.416 154.556 175.839 154.393 176.741 154.35C179.524 154.247 182.883 154.135 184.215 154.092H192.978C193.699 154.092 196.543 154.006 197.874 153.963C198.802 153.86 201.525 153.835 202.771 153.835H206.895C208.441 153.835 210.374 153.749 211.147 153.706H213.724C215.477 153.706 217.118 154.049 217.719 154.221C219.265 154.427 220.854 154.737 221.456 154.865C224.239 155.381 226.997 155.853 228.028 156.025C229.986 156.334 232.452 156.841 233.44 157.056C235.811 157.571 238.809 158.474 240.012 158.86C241.971 159.479 244.951 160.492 246.197 160.922C248.568 161.747 249.247 161.094 249.29 160.664C249.29 159.324 246.713 157.872 245.424 157.314L239.496 155.252C238.775 154.943 237.134 154.522 236.404 154.35C236.404 153.749 236.326 152.159 236.017 150.613C235.502 149.067 234.393 145.794 234.084 145.072C233.741 144.127 232.77 141.747 231.636 139.789C230.734 138.242 228.414 134.48 226.353 131.799L222.487 127.418C221.585 126.473 219.42 124.3 217.977 123.166C216.602 122.221 213.209 120.021 210.632 118.784C209.343 118.14 206.147 116.697 203.673 116.078C201.697 115.606 197.359 114.609 195.812 114.403C194.094 114.102 189.988 113.501 187.308 113.501H181.895C180.22 113.544 176.561 113.656 175.324 113.759C173.305 113.974 169.009 114.455 167.978 114.661C166.26 114.918 162.18 115.666 159.603 116.594C158.357 117.066 155.556 118.14 154.319 118.655C152.902 119.257 149.68 120.769 148.134 122.006C147.361 122.607 145.479 124.119 144.139 125.356C142.894 126.559 139.99 129.48 138.34 131.542C137.61 132.53 135.892 134.918 134.861 136.567C134.131 137.856 132.464 140.974 131.64 143.139C131.081 144.471 129.939 147.288 129.836 147.907C129.492 149.367 128.779 152.469 128.676 153.19C128.59 154.35 128.418 156.876 128.418 157.7V161.18V164.143L126.872 165.69ZM134.088 142.495C132.542 144.685 129.861 151.824 131.511 162.855C133.057 161.205 145.213 157.357 151.098 155.639C157.592 154.092 166.26 153.018 169.783 152.675C175.349 151.541 186.62 151.601 191.56 151.773C197.333 151.463 203.329 151.644 205.606 151.773C205.503 148.989 207.711 146.747 208.827 145.974C210.477 144.428 214.24 145.072 215.915 145.587C216.43 145.794 217.329 146.446 217.713 146.747C218.306 147.39 218.984 148.456 219.265 148.938C219.574 149.556 219.738 150.226 219.781 150.484C220.296 150.69 222.83 151.343 224.033 151.644L226.481 152.159L228.672 152.804C229.497 153.216 232.71 153.577 234.213 153.706C234.342 153.147 234.522 151.85 234.213 151.128C233.784 149.797 232.796 146.928 232.28 146.103L230.347 142.108C229.617 140.777 227.822 137.727 226.481 136.181C225.193 134.505 222.435 131.026 221.714 130.511C221.026 129.738 219.343 127.959 218.105 127.031C217.118 126.129 214.781 124.119 213.338 123.294C212.264 122.607 209.936 121.155 209.214 120.846C208.054 120.331 205.554 119.222 204.833 118.913C203.888 118.527 201.714 117.702 200.58 117.496C199.635 117.238 197.153 116.645 194.782 116.336C194.137 116.207 192.127 115.924 189.241 115.821H188.854H187.823H184.859H181.38C180.779 115.778 178.622 115.846 174.808 116.465C173.09 116.723 168.829 117.444 165.53 118.269C161.664 119.214 152.206 122.521 145.299 128.191C142.722 130.296 136.871 136.103 134.088 142.495Z" fill="#775F7F"/>
<path d="M126.872 165.69C124.088 168.473 126.571 168.224 128.16 167.752L128.805 167.494C129.217 167.288 130.437 166.463 130.995 166.076C131.511 165.767 132.499 165.088 132.928 164.788C133.444 164.478 134.947 163.456 135.634 162.984C136.15 162.674 137.653 161.91 138.34 161.566C138.753 161.36 140.402 160.707 141.175 160.406L143.237 159.762L145.557 159.118L149.809 158.087L154.19 157.314L157.798 156.541L159.345 156.283C160.479 156.077 162.137 155.853 162.824 155.767L165.53 155.51L167.076 155.381C167.901 155.278 169.997 154.994 170.942 154.865C173.416 154.556 175.839 154.393 176.741 154.35C179.524 154.247 182.883 154.135 184.215 154.092M126.872 165.69C127.181 165.38 128.032 164.53 128.418 164.143M126.872 165.69L128.418 164.143M184.215 154.092C189.782 154.092 192.376 154.092 192.978 154.092M184.215 154.092H192.978M192.978 154.092C193.699 154.092 196.543 154.006 197.874 153.963C198.802 153.86 201.525 153.835 202.771 153.835H206.895C208.441 153.835 210.374 153.749 211.147 153.706H213.724C215.477 153.706 217.118 154.049 217.719 154.221C219.265 154.427 220.854 154.737 221.456 154.865C224.239 155.381 226.997 155.853 228.028 156.025C229.986 156.334 232.452 156.841 233.44 157.056C235.811 157.571 238.809 158.474 240.012 158.86C241.971 159.479 244.951 160.492 246.197 160.922C248.568 161.747 249.247 161.094 249.29 160.664C249.29 159.324 246.713 157.872 245.424 157.314L239.496 155.252C238.775 154.943 237.134 154.522 236.404 154.35C236.404 153.749 236.326 152.159 236.017 150.613C235.502 149.067 234.393 145.794 234.084 145.072C233.741 144.127 232.77 141.747 231.636 139.789C230.734 138.242 228.414 134.48 226.353 131.799L222.487 127.418C221.585 126.473 219.42 124.3 217.977 123.166C216.602 122.221 213.209 120.021 210.632 118.784C209.343 118.14 206.147 116.697 203.673 116.078C201.697 115.606 197.359 114.609 195.812 114.403C194.094 114.102 189.988 113.501 187.308 113.501H181.895C180.22 113.544 176.561 113.656 175.324 113.759C173.305 113.974 169.009 114.455 167.978 114.661C166.26 114.918 162.18 115.666 159.603 116.594C158.357 117.066 155.556 118.14 154.319 118.655C152.902 119.257 149.68 120.769 148.134 122.006C147.361 122.607 145.479 124.119 144.139 125.356C142.894 126.559 139.99 129.48 138.34 131.542C137.61 132.53 135.892 134.918 134.861 136.567C134.131 137.856 132.464 140.974 131.64 143.139C131.081 144.471 129.939 147.288 129.836 147.907C129.492 149.367 128.779 152.469 128.676 153.19C128.59 154.35 128.418 156.876 128.418 157.7M128.418 164.143C128.418 163.319 128.418 161.824 128.418 161.18M128.418 164.143V161.18M128.418 161.18C128.418 160.149 128.418 158.431 128.418 157.7M128.418 161.18V157.7M217.59 146.618C217.631 146.659 217.672 146.702 217.713 146.747M217.713 146.747C218.306 147.39 218.984 148.456 219.265 148.938C219.574 149.556 219.738 150.226 219.781 150.484C220.296 150.69 222.83 151.343 224.033 151.644L226.481 152.159L228.672 152.804C229.497 153.216 232.71 153.577 234.213 153.706C234.342 153.147 234.522 151.85 234.213 151.128C233.784 149.797 232.796 146.928 232.28 146.103L230.347 142.108C229.617 140.777 227.822 137.727 226.481 136.181C225.193 134.505 222.435 131.026 221.714 130.511C221.026 129.738 219.343 127.959 218.105 127.031C217.118 126.129 214.781 124.119 213.338 123.294C212.264 122.607 209.936 121.155 209.214 120.846C208.054 120.331 205.554 119.222 204.833 118.913C203.888 118.527 201.714 117.702 200.58 117.496C199.635 117.238 197.153 116.645 194.782 116.336C194.137 116.207 192.127 115.924 189.241 115.821H188.854H187.823H184.859H181.38C180.779 115.778 178.622 115.846 174.808 116.465C173.09 116.723 168.829 117.444 165.53 118.269C161.664 119.214 152.206 122.521 145.299 128.191C142.722 130.296 136.871 136.103 134.088 142.495C132.542 144.685 129.861 151.824 131.511 162.855C133.057 161.205 145.213 157.357 151.098 155.639C157.592 154.092 166.26 153.018 169.783 152.675C175.349 151.541 186.62 151.601 191.56 151.773C197.333 151.463 203.329 151.644 205.606 151.773C205.503 148.989 207.711 146.747 208.827 145.974C210.477 144.428 214.24 145.072 215.915 145.587C216.43 145.794 217.329 146.446 217.713 146.747Z" stroke="#775F7F" stroke-width="3"/>
</svg>
