<svg viewBox="0 0 902 882" fill="none" xmlns="http://www.w3.org/2000/svg">
<path d="M171.585 332.694C161.643 387.149 182.199 487.169 343.956 451.608C441.435 507.216 442.439 482.227 430.757 462.781C452.614 479.722 482.396 490.313 478.084 435.456C494.911 449.331 517.225 444.038 519.567 350.219C543.571 320.122 583.17 243.725 549.526 178.92C534.24 157.887 483.566 120.2 403.159 137.708C336.485 151.059 196.827 208.748 171.585 332.694Z" fill="#FCF662" class="shadow"/>
<path d="M467.904 424.047C470.833 428.292 474.322 432.353 478.084 435.456M478.084 435.456C494.911 449.331 517.225 444.038 519.567 350.219C543.571 320.122 583.17 243.725 549.526 178.92C534.24 157.887 483.566 120.2 403.159 137.708C336.485 151.059 196.827 208.748 171.585 332.694C161.643 387.149 182.199 487.169 343.956 451.608C441.435 507.216 442.439 482.227 430.757 462.781M478.084 435.456C482.396 490.313 452.614 479.723 430.757 462.781M420.943 454.304C423.888 457.128 427.218 460.038 430.757 462.781" stroke="#FCF662" class="shadow" stroke-width="10"/>
<path d="M167.585 326.694C157.643 381.149 178.199 481.169 339.956 445.608C437.435 501.216 438.439 476.227 426.757 456.781C448.614 473.722 478.396 484.313 474.084 429.456C490.911 443.331 513.225 438.038 515.567 344.219C539.571 314.122 579.17 237.725 545.526 172.92C530.24 151.887 479.566 114.2 399.159 131.708C332.485 145.059 192.827 202.748 167.585 326.694Z" fill="#FEFFBD" class="sign" />
<path d="M463.904 418.047C466.833 422.292 470.322 426.353 474.084 429.456M474.084 429.456C490.911 443.331 513.225 438.038 515.567 344.219C539.571 314.122 579.17 237.725 545.526 172.92C530.24 151.887 479.566 114.2 399.159 131.708C332.485 145.059 192.827 202.748 167.585 326.694C157.643 381.149 178.199 481.169 339.956 445.608C437.435 501.216 438.439 476.227 426.757 456.781M474.084 429.456C478.396 484.313 448.614 473.723 426.757 456.781M416.943 448.304C419.888 451.128 423.218 454.038 426.757 456.781" stroke="#775F7F" class="sign" stroke-width="10"/>
<path d="M387.666 329.549C414.489 314.062 436.196 295.099 449.539 276.759C456.206 267.595 460.927 258.391 463.028 249.693C465.138 240.96 464.661 232.439 460.465 225.172C456.27 217.905 449.129 213.231 440.511 210.692C431.928 208.163 421.596 207.649 410.326 208.841C387.773 211.227 360.496 220.544 333.673 236.03C306.85 251.516 285.143 270.48 271.8 288.82C265.133 297.984 260.412 307.187 258.31 315.886C256.201 324.619 256.678 333.139 260.873 340.407C265.069 347.674 272.21 352.347 280.828 354.887C289.411 357.416 299.742 357.929 311.012 356.737C333.566 354.352 360.843 345.035 387.666 329.549Z" fill="#B18FA8" stroke="#775F7F" class="background" stroke-width="10"/>
<path d="M499.128 504.605C513.996 494.973 558.166 441.919 615.903 306.754C617.497 300.805 612.031 296.418 609.098 294.968C594.752 282.822 578.553 251.317 628.525 222.465C641.097 215.207 677.514 207.696 722.608 235.719C737.513 247.019 748.936 280.234 675.392 322.694C665.543 334.667 638.631 376.605 609.782 448.576C603.894 465.595 595.762 499.414 610.342 498.539C650.771 505.055 737.62 506.142 761.58 458.366C773.637 449.309 804.065 438.865 829.319 469.543C837.076 480.255 844.584 508.502 812.565 535.788C818.434 552.305 821.886 589.493 788.74 606.116C772.782 611.139 736.502 611.447 719.043 572.497C692.397 565.357 619.702 561.022 542.095 600.8C504.38 622.575 431.014 682.219 439.268 746.597C446.615 753.879 458.763 772.742 448.576 789.938C435.511 812.672 399.674 846.772 360.849 801.301L355.953 800.985L349.877 801.35C330.926 803.91 292.949 799.645 292.647 762.105C295.255 741.218 308.488 702.987 340.556 717.158C370.746 698.681 430.967 648.931 430.334 597.753C420.475 582.492 371.434 555.071 254.137 567.477C251.736 571.483 240.359 581.718 214.066 590.613C175.411 603.502 108.839 607.05 151.792 518.136C158.572 499.031 182.034 463.275 221.645 473.092C232.572 475.688 254.865 488.17 256.615 517.332C315.862 529.222 443.139 546.987 499.128 504.605Z" fill="#FCF662"  stroke="#FCF662" class="shadow" stroke-width="10"/>
<path d="M493.128 498.605C507.996 488.973 552.166 435.919 609.903 300.754C611.497 294.805 606.031 290.418 603.098 288.968C588.752 276.822 572.553 245.317 622.525 216.465C635.097 209.207 671.514 201.696 716.608 229.719C731.513 241.019 742.936 274.234 669.392 316.694C659.543 328.667 632.631 370.605 603.782 442.576C597.894 459.595 589.762 493.414 604.342 492.539C644.771 499.055 731.62 500.142 755.58 452.366C767.637 443.309 798.065 432.865 823.319 463.543C831.076 474.255 838.584 502.502 806.565 529.788C812.434 546.305 815.886 583.493 782.74 600.116C766.782 605.139 730.502 605.447 713.043 566.497C686.397 559.357 613.702 555.022 536.095 594.8C498.38 616.575 425.014 676.219 433.268 740.597C440.615 747.879 452.763 766.742 442.576 783.938C429.511 806.672 393.674 840.772 354.849 795.301L349.953 794.985L343.877 795.35C324.926 797.91 286.949 793.645 286.647 756.105C289.255 735.218 302.488 696.987 334.556 711.158C364.746 692.681 424.967 642.931 424.334 591.753C414.475 576.492 365.434 549.071 248.137 561.477C245.736 565.483 234.359 575.718 208.066 584.613C169.411 597.502 102.839 601.05 145.792 512.136C152.572 493.031 176.034 457.275 215.645 467.092C226.572 469.688 248.865 482.17 250.615 511.332C309.862 523.222 437.139 540.987 493.128 498.605Z" fill="#FEFFBD" class="sign" stroke="#775F7F" stroke-width="10"/>
</svg>
