<svg  viewBox="0 0 896 873" fill="none" xmlns="http://www.w3.org/2000/svg">
<g filter="url(#filter0_d_2871_348)">
<path d="M167.585 324.694C157.643 379.149 178.199 479.169 339.956 443.608C437.435 499.216 438.439 474.226 426.757 454.78C448.614 471.722 478.396 482.313 474.084 427.456C490.911 441.331 513.225 436.038 515.567 342.219C539.571 312.122 579.17 235.725 545.526 170.92C530.24 149.887 479.566 112.2 399.159 129.708C332.485 143.059 192.827 200.748 167.585 324.694Z" fill="#FEFFBD"/>
<path d="M463.904 416.047C466.833 420.292 470.322 424.353 474.084 427.456M474.084 427.456C490.911 441.331 513.225 436.038 515.567 342.219C539.571 312.122 579.17 235.725 545.526 170.92C530.24 149.887 479.566 112.2 399.159 129.708C332.485 143.059 192.827 200.748 167.585 324.694C157.643 379.149 178.199 479.169 339.956 443.608C437.435 499.216 438.439 474.226 426.757 454.78M474.084 427.456C478.396 482.313 448.614 471.722 426.757 454.78M416.943 446.303C419.888 449.128 423.218 452.038 426.757 454.78" stroke="#775F7F" stroke-width="10"/>
<path d="M387.666 327.549C414.489 312.062 436.196 293.099 449.539 274.759C456.206 265.595 460.927 256.391 463.028 247.693C465.138 238.96 464.661 230.439 460.465 223.172C456.27 215.905 449.129 211.231 440.511 208.692C431.928 206.163 421.596 205.649 410.326 206.841C387.773 209.227 360.496 218.544 333.673 234.03C306.85 249.516 285.143 268.48 271.8 286.82C265.133 295.984 260.412 305.187 258.31 313.886C256.201 322.619 256.678 331.139 260.873 338.407C265.069 345.674 272.21 350.347 280.828 352.887C289.411 355.416 299.742 355.929 311.012 354.737C333.566 352.352 360.843 343.035 387.666 327.549Z" fill="#B18FA8" stroke="#775F7F" stroke-width="10"/>
<path d="M493.128 496.605C507.996 486.973 552.166 433.919 609.903 298.754C611.497 292.805 606.031 288.418 603.098 286.968C588.752 274.822 572.553 243.317 622.525 214.465C635.097 207.207 671.514 199.696 716.608 227.719C731.513 239.019 742.936 272.234 669.392 314.694C659.543 326.667 632.631 368.605 603.782 440.576C597.894 457.595 589.762 491.414 604.342 490.539C644.771 497.055 731.62 498.142 755.58 450.366C767.637 441.309 798.065 430.865 823.319 461.543C831.076 472.255 838.584 500.502 806.565 527.788C812.434 544.305 815.886 581.493 782.74 598.116C766.782 603.139 730.502 603.447 713.043 564.497C686.397 557.357 613.702 553.022 536.095 592.8C498.38 614.575 425.014 674.219 433.268 738.597C440.615 745.879 452.763 764.742 442.576 781.938C429.511 804.672 393.674 838.772 354.849 793.301L349.953 792.985L343.877 793.35C324.926 795.91 286.949 791.645 286.647 754.105C289.255 733.218 302.488 694.987 334.556 709.158C364.746 690.681 424.967 640.931 424.334 589.753C414.475 574.492 365.434 547.071 248.137 559.477C245.736 563.483 234.359 573.718 208.066 582.613C169.411 595.502 102.839 599.05 145.792 510.136C152.572 491.031 176.034 455.275 215.645 465.092C226.572 467.688 248.865 480.17 250.615 509.332C309.862 521.222 437.139 538.987 493.128 496.605Z" fill="#FEFFBD" stroke="#775F7F" stroke-width="10"/>
</g>
<defs>
<filter id="filter0_d_2871_348" x="126.863" y="120.198" width="713.205" height="707.517" filterUnits="userSpaceOnUse" color-interpolation-filters="sRGB">
<feFlood flood-opacity="0" result="BackgroundImageFix"/>
<feColorMatrix in="SourceAlpha" type="matrix" values="0 0 0 0 0 0 0 0 0 0 0 0 0 0 0 0 0 0 127 0" result="hardAlpha"/>
<feOffset dx="5" dy="7"/>
<feColorMatrix type="matrix" values="0 0 0 0 0.988235 0 0 0 0 0.964706 0 0 0 0 0.384314 0 0 0 1 0"/>
<feBlend mode="normal" in2="BackgroundImageFix" result="effect1_dropShadow_2871_348"/>
<feBlend mode="normal" in="SourceGraphic" in2="effect1_dropShadow_2871_348" result="shape"/>
</filter>
</defs>
</svg>
