<svg viewBox="0 0 132 123" fill="none" xmlns="http://www.w3.org/2000/svg">
<path d="M19.5366 21.2792C26.2014 12.3484 45.3693 -2.07414 68.7226 11.6819C88.9905 2.99572 98.195 17.1762 101.415 29.6768C106.113 29.2769 115.189 31.934 113.91 45.7616C119.81 48.5863 126.686 54.1818 128.306 63.6672C130.038 70.3319 129.265 84.8611 112.31 89.6598C113.11 94.8583 112.07 106.935 101.513 113.653C92.3158 119.251 71.0418 125.889 59.5251 107.655C56.4593 110.587 47.2886 115.173 35.1321 110.054C20.3363 102.856 -3.9244 81.1022 17.3991 51.6706C13.6125 43.4759 10.6426 30.1732 19.5366 21.2792Z" fill="#FCF662" class="shadow"/>
<path d="M102.713 37.2747C102.524 34.9835 102.108 32.3691 101.415 29.6768M19.5366 55.6694C18.8437 54.5565 18.1071 53.2029 17.3991 51.6706M17.3991 51.6706C13.6125 43.4759 10.6426 30.1732 19.5366 21.2792C26.2014 12.3484 45.3693 -2.07414 68.7226 11.6819C88.9905 2.99572 98.195 17.1762 101.415 29.6768M17.3991 51.6706C-3.9244 81.1022 20.3363 102.856 35.1321 110.054C47.2886 115.173 56.4593 110.587 59.5251 107.655C71.0418 125.889 92.3158 119.251 101.513 113.653C112.07 106.935 113.11 94.8583 112.31 89.6598C129.265 84.8611 130.038 70.3319 128.306 63.6672C126.686 54.1818 119.81 48.5863 113.91 45.7616M107.911 43.6728C109.535 44.0049 111.651 44.6803 113.91 45.7616M113.91 45.7616C115.189 31.934 106.113 29.2769 101.415 29.6768" class="shadow" stroke-width="5"/>
<path d="M13.5366 18.2792C20.2014 9.34843 39.3693 -5.07414 62.7226 8.68195C82.9905 -0.00428486 92.195 14.1762 95.4147 26.6768C100.113 26.2769 109.189 28.934 107.91 42.7616C113.81 45.5863 120.686 51.1818 122.306 60.6672C124.038 67.3319 123.265 81.8611 106.31 86.6598C107.11 91.8583 106.07 103.935 95.5131 110.653C86.3158 116.251 65.0418 122.889 53.5251 104.655C50.4593 107.587 41.2886 112.173 29.1321 107.054C14.3363 99.856 -9.9244 78.1022 11.3991 48.6706C7.61245 40.4759 4.64264 27.1732 13.5366 18.2792Z" fill="#FEFFBD" class="smoke" />
<path d="M96.7129 34.2747C96.524 31.9835 96.1081 29.3691 95.4147 26.6768M13.5366 52.6694C12.8437 51.5565 12.1071 50.2029 11.3991 48.6706M11.3991 48.6706C7.61245 40.4759 4.64264 27.1732 13.5366 18.2792C20.2014 9.34843 39.3693 -5.07414 62.7226 8.68195C82.9905 -0.00428496 92.195 14.1762 95.4147 26.6768M11.3991 48.6706C-9.9244 78.1022 14.3363 99.856 29.1321 107.054C41.2886 112.173 50.4593 107.587 53.5251 104.655C65.0418 122.889 86.3158 116.251 95.5131 110.653C106.07 103.935 107.11 91.8583 106.31 86.6598C123.265 81.8611 124.038 67.3319 122.306 60.6672C120.686 51.1818 113.81 45.5863 107.91 42.7616M101.911 40.6728C103.535 41.0049 105.651 41.6803 107.91 42.7616M107.91 42.7616C109.189 28.934 100.113 26.2769 95.4147 26.6768" stroke="#775F7F" class="outline" stroke-width="5"/>
</svg>
