<svg viewBox="0 0 147 144" fill="none" xmlns="http://www.w3.org/2000/svg">
<path d="M136.843 49.9063C137.328 46.025 137.424 36.6615 133.938 30.2574C128.134 21.5359 112.572 8.44133 91.8076 15.4429C34.8592 -2.39719 12.874 37.7773 9 60.0946C9 92.115 25.9489 107.397 34.4234 111.036C38.5395 127.046 54.0357 153.827 83.091 132.868C97.3765 136.264 127.546 133.014 133.938 92.8427C140.959 83.3822 151.371 61.5501 136.843 49.9063Z" fill="#FCF662" class="shadow"/>
<path d="M80.9118 20.7969C84.6764 18.3663 88.3156 16.6204 91.8076 15.4429M91.8076 15.4429C112.572 8.44133 128.134 21.5359 133.938 30.2574C137.424 36.6615 137.328 46.025 136.843 49.9063C151.371 61.5501 140.959 83.3822 133.938 92.8427C127.546 133.014 97.3765 136.264 83.091 132.868C54.0357 153.827 38.5395 127.046 34.4234 111.036C25.9489 107.397 9 92.115 9 60.0946C12.874 37.7773 34.8592 -2.39719 91.8076 15.4429Z" stroke="#FCF662" stroke-width="5" class="shadow" />
<path d="M130.843 41.9063C131.328 38.025 131.424 28.6615 127.938 22.2574C122.134 13.5359 106.572 0.441331 85.8076 7.44293C28.8592 -10.3972 6.87404 29.7773 3 52.0946C3 84.115 19.9489 99.3975 28.4234 103.036C32.5395 119.046 48.0357 145.827 77.091 124.868C91.3765 128.264 121.546 125.014 127.938 84.8427C134.959 75.3822 145.371 53.5501 130.843 41.9063Z" fill="#FEFFBD" class="smoke"/>
<path d="M74.9118 12.7969C78.6764 10.3663 82.3156 8.62041 85.8076 7.44293M85.8076 7.44293C106.572 0.441331 122.134 13.5359 127.938 22.2574C131.424 28.6615 131.328 38.025 130.843 41.9063C145.371 53.5501 134.959 75.3822 127.938 84.8427C121.546 125.014 91.3765 128.264 77.091 124.868C48.0357 145.827 32.5395 119.046 28.4234 103.036C19.9489 99.3975 3 84.115 3 52.0946C6.87404 29.7773 28.8592 -10.3972 85.8076 7.44293Z" stroke="#775F7F" class="outline" stroke-width="5"/>
</svg>
