<svg viewBox="0 0 144 129" fill="none" xmlns="http://www.w3.org/2000/svg">
<path d="M108.187 109.202C99.74 120.402 75.7282 137.382 47.2592 115.705C26.4107 116.428 -8.38477 105.517 19.2215 56.0925C8.79728 40.5571 3.69299 9.48624 66.6699 9.48624C79.9698 2.07982 109.697 -5.14596 122.206 25.2023C134.787 36.041 153.694 64.5466 128.676 91.8601C126.34 99.8084 118.971 114.404 108.187 109.202Z" fill="#FCF662" stroke="#FCF662" stroke-width="5" class="shadow" />
<path d="M102.187 109.202C93.74 120.402 69.7282 137.382 41.2592 115.705C20.4107 116.428 -14.3848 105.517 13.2215 56.0925C2.79728 40.5571 -2.30701 9.48624 60.6699 9.48624C73.9698 2.07982 103.697 -5.14596 116.206 25.2023C128.787 36.041 147.694 64.5466 122.676 91.8601C120.34 99.8084 112.971 114.404 102.187 109.202Z" fill="#FEFFBD" stroke="#775F7F" stroke-width="5" class="smoke"/>
</svg>
