<svg width="357" height="357" viewBox="0 0 357 357" fill="none" xmlns="http://www.w3.org/2000/svg">
<path d="M232.094 264.878C226.366 267.586 212.815 272.971 204.441 272.846C195.969 273.085 181.125 272.312 166.513 268.976C150.261 306.039 121.716 349.313 136.949 256.598C128.773 249.793 110.893 233.799 101.2 221.419C59.6855 219.293 -1.49566 209.705 85.8969 188.36C82.6486 172.825 82.7023 152.959 91.1737 130.519L91.5258 129.543C79.401 86.2261 88.3305 83.8121 94.767 88.4932C100.628 93.4039 105.246 98.822 108.754 103.878C119.687 90.4455 139.606 79.484 148.198 75.6824C174.07 30.5627 189.495 23.0324 193.974 24.9072C206.972 33.6561 219.908 62.4027 224.752 75.6824C259.747 89.1808 280.474 120.781 286.463 134.894C334.457 147.393 337.499 161.766 333.02 167.39C320.021 184.888 297.92 196.866 288.494 200.667C286.619 214.541 269.403 237.257 261.029 246.881C262.923 248.461 264.82 250.242 266.622 252.224C276.299 260.837 281.885 274.188 234.004 263.906L232.094 264.878Z" fill="#FAD1E1" class="body" />
<path d="M136.949 256.598C128.773 249.792 110.893 233.799 101.2 221.419M136.949 256.598C144.851 262.577 155.618 266.489 166.513 268.976M136.949 256.598C121.716 349.313 150.261 306.039 166.513 268.976M222.096 261.129C226.391 262.2 230.353 263.122 234.004 263.906M246.311 237.85C249.081 238.879 255.038 241.88 261.029 246.881M234.004 263.906C281.885 274.188 276.299 260.837 266.622 252.224C264.82 250.242 262.923 248.461 261.029 246.881M234.004 263.906L232.094 264.878C226.366 267.586 212.815 272.971 204.441 272.846C195.969 273.085 181.125 272.312 166.513 268.976M94.2983 138.956C93.2719 135.622 92.3502 132.488 91.5258 129.543M117.264 120.365C116.272 117.026 113.549 110.79 108.754 103.878M91.5258 129.543C79.401 86.2261 88.3305 83.8121 94.767 88.4932C100.628 93.4039 105.246 98.822 108.754 103.878M91.5258 129.543L91.1737 130.519C82.7023 152.959 82.6486 172.825 85.8969 188.36M108.754 103.878C119.687 90.4455 139.606 79.484 148.198 75.6824C174.07 30.5627 189.495 23.0324 193.974 24.9072C206.972 33.6561 219.908 62.4027 224.752 75.6824C259.747 89.1808 280.474 120.781 286.463 134.894C334.457 147.393 337.499 161.766 333.02 167.39C320.022 184.888 297.92 196.866 288.494 200.667C286.619 214.541 269.403 237.257 261.029 246.881M85.8969 188.36C88.9268 202.851 94.8296 213.573 99.454 219.103C99.9998 219.858 100.583 220.631 101.2 221.419M85.8969 188.36C-1.49565 209.705 59.6855 219.293 101.2 221.419" stroke="#D9A5B4" stroke-width="7"/>
<path d="M232.094 264.879C226.366 267.587 212.815 272.971 204.441 272.846C195.969 273.085 181.125 272.312 166.513 268.977C155.617 266.489 144.851 262.578 136.949 256.598C129.145 250.102 112.499 235.235 102.572 223.13C101.636 222.839 100.721 222.552 99.8283 222.27C99.7016 222.337 99.5767 222.321 99.4538 222.151C99.5782 222.19 99.703 222.23 99.8283 222.27C100.264 222.037 100.722 220.809 101.2 221.419C101.641 221.982 102.099 222.553 102.572 223.13C143.099 235.716 223.854 255.512 246.311 240.898C247.703 241.415 249.899 239.382 252.5 240.899L288.494 200.668C286.619 214.541 269.402 237.257 261.029 246.881C262.923 248.462 264.82 250.242 266.621 252.224C276.299 260.837 281.885 274.188 234.004 263.906L232.094 264.879Z" fill="#FDC4DA"  class="body-shadow" />
<path d="M136.949 256.598C128.773 249.792 110.893 233.799 101.2 221.419M136.949 256.598C144.851 262.577 155.618 266.489 166.513 268.976M136.949 256.598C121.716 349.313 150.261 306.039 166.513 268.976M222.096 261.129C226.391 262.2 230.353 263.122 234.004 263.906M246.311 237.85C249.081 238.879 255.038 241.88 261.029 246.881M234.004 263.906C281.885 274.188 276.299 260.837 266.622 252.224C264.82 250.242 262.923 248.461 261.029 246.881M234.004 263.906L232.094 264.878C226.366 267.586 212.815 272.971 204.441 272.846C195.969 273.085 181.125 272.312 166.513 268.976M94.2983 138.956C93.2719 135.622 92.3502 132.488 91.5258 129.543M117.264 120.365C116.272 117.026 113.549 110.79 108.754 103.878M91.5258 129.543C79.401 86.2261 88.3305 83.8121 94.767 88.4932C100.628 93.4039 105.246 98.822 108.754 103.878M91.5258 129.543L91.1737 130.519C82.7023 152.959 82.6486 172.825 85.8969 188.36M108.754 103.878C119.687 90.4455 139.606 79.484 148.198 75.6824C174.07 30.5627 189.495 23.0324 193.974 24.9072C206.972 33.6561 219.908 62.4027 224.752 75.6824C259.747 89.1808 280.474 120.781 286.463 134.894C334.457 147.393 337.499 161.766 333.02 167.39C320.022 184.888 297.92 196.866 288.494 200.667C286.619 214.541 269.403 237.257 261.029 246.881M85.8969 188.36C88.9268 202.851 94.8296 213.573 99.454 219.103C99.9998 219.858 100.583 220.631 101.2 221.419M85.8969 188.36C-1.49565 209.705 59.6855 219.293 101.2 221.419" stroke="#D9A5B4" stroke-width="7"/>
<path d="M161.185 156.7C183.307 164.574 196.65 184.978 200.555 194.196C166.237 214.766 110.316 236.066 161.185 156.7Z" fill="#FF9D94" stroke="#D9A5B4" stroke-width="2.20945"/>
<path d="M205.43 73.2726C201.264 70.877 186.307 67.3358 159.811 72.3352C163.56 64.6278 175.215 45.9946 191.838 33.1211C195.692 34.6834 203.805 44.901 205.43 73.2726Z" fill="#443F41" stroke="#302F2F" stroke-width="0.441889"/>
<path d="M136.501 104.206C188.244 89.9581 184.88 122.173 178.214 142.171M208.211 180.916C258.83 160.293 258.257 197.112 251.643 218.099" stroke="#302F2F" stroke-opacity="0.9" stroke-width="5"/>
<path d="M255.775 105.683C225.059 87.4462 203.678 107.507 196.826 119.816C188.369 136.317 193.82 148.008 197.602 151.79C205.988 161.101 213.467 161.493 216.159 160.525C231.495 156.68 232.176 149.871 230.6 146.946M230.6 146.946C227.739 139.464 220.101 141.07 216.64 142.808M230.6 146.946C260.311 153.087 268.753 135.222 269.26 125.523" stroke="#D9A5B4" stroke-width="2.20945"/>
<path d="M288.357 190.446C288.878 189.925 289.607 181.822 288.357 153.575C304.98 152.701 319.76 158.731 325.072 161.856C317.364 170.501 299.231 188.321 288.357 190.446Z" fill="#302F2F" stroke="#302F2F" stroke-width="0.441889"/>
</svg>
