<svg width="569" height="431" viewBox="0 0 569 431" fill="none" xmlns="http://www.w3.org/2000/svg">
<path d="M141.153 101.604C133.387 69.6739 121.182 5.59164 134.496 4.70402C151.816 3.9116 196.89 6.13365 247.669 20.2469C312.171 -7.27721 383.773 11.2356 411.512 23.9325C451.672 14.3018 513.285 0.751411 518.028 4.70401C521.85 10.8681 524.02 37.9903 502.125 97.1659C504.837 101.111 510.705 109.815 512.48 113.069C520.476 132.605 532.23 170.525 534.897 207.75C581.628 235.226 564.498 265.19 543.917 281.998C544.287 291.151 538.707 309.311 513.426 308.719C507.105 322.639 499.577 335.696 491.399 343.484C483.497 352.453 469.066 366.635 451.692 379.73C495.625 397.729 546.062 428.771 396.348 408.948C388.705 411.66 362.618 417.084 319.42 417.084C305.701 417.547 286.286 415.681 264.313 409.806C254.203 413.835 228.511 422.632 206.616 425.591C178.878 428.18 139.822 423.803 205.507 385.587C172.772 366.837 140.176 338.051 115.634 294.992C109.445 296.65 102.673 296.632 97.1413 292.446C90.6074 285.665 81.4598 271.709 97.1413 270.131C83.1856 264.441 62.8108 253.262 63.855 241.776C67.6768 227.969 82.2734 197.469 110.086 185.929C109.84 166.081 115.708 121.428 141.153 101.604Z" fill="#FAD1E1" class="body" />
<path d="M261.354 24.3059C256.758 22.8545 252.191 21.5035 247.669 20.2469M102.319 272.104C100.752 271.552 99.0036 270.891 97.1413 270.131M97.1413 270.131C83.1856 264.441 62.8108 253.262 63.855 241.776C67.6768 227.969 82.2734 197.469 110.086 185.929C109.84 166.081 115.708 121.428 141.153 101.604C133.387 69.6739 121.182 5.59164 134.496 4.70402C151.816 3.9116 196.89 6.13365 247.669 20.2469M97.1413 270.131C81.4598 271.709 90.6074 285.665 97.1413 292.446C102.673 296.632 109.445 296.65 115.634 294.992M115.634 294.992C121.694 293.369 127.195 290.138 130.428 287.638C142.559 277.282 131.291 263.844 124.14 258.42M115.634 294.992C140.176 338.051 172.772 366.837 205.507 385.587M396.348 408.948C388.705 411.66 362.618 417.084 319.42 417.084C305.701 417.547 286.286 415.681 264.313 409.806M396.348 408.948C415.39 404.005 434.914 392.375 451.692 379.73M396.348 408.948C546.062 428.771 495.625 397.729 451.692 379.73M397.828 27.2647C401.968 26.2396 406.578 25.1156 411.512 23.9325M247.669 20.2469C312.171 -7.27721 383.773 11.2356 411.512 23.9325M411.512 23.9325C451.672 14.3018 513.285 0.751411 518.028 4.70401C521.85 10.8681 524.02 37.9903 502.125 97.1659C504.837 101.111 510.705 109.815 512.48 113.069C520.476 132.605 532.23 170.525 534.897 207.75M534.897 207.75C536.22 226.202 535.309 244.482 530.603 260.269C527.627 271.686 521.514 290.91 513.426 308.719M534.897 207.75C581.628 235.226 564.498 265.19 543.917 281.998M533.192 289.487C536.66 287.442 540.341 284.919 543.917 281.998M513.426 308.719C507.105 322.639 499.577 335.696 491.399 343.485C483.497 352.453 469.066 366.635 451.692 379.73M513.426 308.719C538.707 309.311 544.287 291.151 543.917 281.998M205.507 385.587C139.822 423.803 178.878 428.18 206.616 425.591C228.511 422.632 254.203 413.835 264.313 409.806M205.507 385.587C225.673 397.139 245.891 404.881 264.313 409.806" stroke="#D9A5B4" stroke-width="8"/>
<path d="M396.532 408.948C388.888 411.66 362.802 417.084 319.603 417.084C305.885 417.547 286.469 415.681 264.496 409.806C246.075 404.881 225.856 397.139 205.69 385.587C172.956 366.837 140.36 338.051 115.817 294.992C299.964 454.598 454.235 377.833 508.352 319.5C503.262 329.177 497.598 337.756 491.583 343.485C483.68 352.453 469.25 366.635 451.875 379.73C435.097 392.375 415.573 404.005 396.532 408.948Z" fill="#FDC4DA" class="body-shadow"/>
<path d="M261.537 24.3059C256.941 22.8545 252.374 21.5035 247.853 20.2469M102.503 272.104C100.935 271.552 99.1872 270.891 97.3249 270.131M97.3249 270.131C83.3691 264.441 62.9944 253.262 64.0386 241.776C67.8604 227.969 82.457 197.469 110.27 185.929C110.023 166.081 115.891 121.428 141.337 101.604C133.57 69.6739 121.365 5.59164 134.68 4.70402C152 3.9116 197.074 6.13365 247.853 20.2469M97.3249 270.131C81.6434 271.709 90.791 285.665 97.3249 292.446C102.856 296.632 109.628 296.65 115.817 294.992M115.817 294.992C121.877 293.369 127.379 290.138 130.611 287.638C142.742 277.282 131.474 263.844 124.324 258.42M115.817 294.992C140.36 338.051 172.956 366.837 205.69 385.587M396.532 408.948C388.888 411.66 362.802 417.084 319.603 417.084C305.885 417.547 286.469 415.681 264.496 409.806M396.532 408.948C415.573 404.005 435.097 392.375 451.875 379.73M396.532 408.948C546.246 428.771 495.808 397.729 451.875 379.73M398.011 27.2647C402.152 26.2396 406.762 25.1156 411.695 23.9325M247.853 20.2469C312.354 -7.27721 383.957 11.2356 411.695 23.9325M411.695 23.9325C451.855 14.3018 513.469 0.751411 518.212 4.70401C522.033 10.8681 524.203 37.9903 502.308 97.1659C505.02 101.111 510.889 109.815 512.664 113.069C520.659 132.605 532.413 170.525 535.081 207.75M535.081 207.75C536.403 226.202 535.493 244.482 530.786 260.269C527.811 271.686 521.698 290.91 513.61 308.719M535.081 207.75C581.812 235.226 564.682 265.19 544.101 281.998M533.375 289.487C536.843 287.442 540.524 284.919 544.101 281.998M513.61 308.719C507.288 322.639 499.761 335.696 491.583 343.485C483.68 352.453 469.25 366.635 451.875 379.73M513.61 308.719C538.89 309.311 544.471 291.151 544.101 281.998M205.69 385.587C140.005 423.803 179.061 428.18 206.8 425.591C228.695 422.632 254.387 413.835 264.496 409.806M205.69 385.587C225.856 397.139 246.075 404.881 264.496 409.806" stroke="#D9A5B4" stroke-width="8"/>
<path d="M222.505 160.41C171.518 180.027 182.849 230.331 189.234 251.198C194.598 250.923 199.777 251.021 204.767 251.444C233.193 253.855 255.522 266.815 271.315 281.35C310.761 268.171 303.646 222.548 300.188 202.553C261.755 190.759 237.179 174.665 222.505 160.41Z" fill="white"/>
<path d="M380.815 208.12C378.846 209.986 376.347 211.962 373.418 213.823C369.843 233.127 372.428 274.693 411.37 286.528C435.127 267.477 464.084 259.497 484.742 257.059C507.019 200.628 465.21 177.32 447.388 170.657C432.438 183.371 409.536 198.678 380.815 208.12Z" fill="white"/>
<path d="M336.803 177.053C336.085 163.882 329.487 152.286 320.653 142.657M380.815 208.12C389.815 199.614 408.554 178.606 411.512 162.629C413.978 147.095 416.172 111.146 405.225 91.6182C398.814 77.6873 377.264 48.8638 342.351 45.0174C335.324 44.1545 318.828 43.4641 309.065 47.6064C293.654 55.4965 266.014 79.8571 278.737 114.179C289.82 118.583 307.657 128.492 320.653 142.657M380.815 208.12C378.846 209.986 376.347 211.962 373.418 213.823M380.815 208.12C409.536 198.678 432.438 183.371 447.388 170.657M320.653 142.657C279.427 152.421 296.736 188.642 310.544 205.531M310.544 205.531C306.985 204.574 303.534 203.58 300.188 202.553M310.544 205.531C333.926 229.406 358.929 223.029 373.418 213.823M204.767 134.89C206.578 140.958 212.008 150.213 222.505 160.41M463.661 154.492C460.438 158.5 454.923 164.249 447.388 170.657M167.043 254.351C174.759 252.576 182.158 251.562 189.234 251.198M295.01 311.678C290.564 302.952 282.612 291.748 271.315 281.35M391.171 307.609C397.135 299.408 404.003 292.436 411.37 286.528M500.276 256.2C496.013 256.111 490.725 256.352 484.742 257.059M320.9 296.514C346.937 280.832 361.583 292.199 365.651 299.842M222.505 160.41C171.518 180.027 182.849 230.331 189.234 251.198M222.505 160.41C237.179 174.665 261.755 190.759 300.188 202.553M189.234 251.198C194.598 250.923 199.777 251.021 204.767 251.444C233.193 253.855 255.522 266.815 271.315 281.35M271.315 281.35C310.761 268.171 303.646 222.548 300.188 202.553M411.37 286.528C372.428 274.693 369.843 233.127 373.418 213.823M411.37 286.528C435.127 267.477 464.084 259.497 484.742 257.059M484.742 257.059C507.019 200.628 465.21 177.32 447.388 170.657" stroke="#D9A5B4" stroke-width="5"/>
<path d="M389.903 204.651C381.331 222.045 375.875 261.127 422.624 278.305C441.095 266.655 461.272 260.572 477.731 257.834C492.229 202.269 454.924 183.138 434.459 180.518C422.433 189.114 407.398 197.889 389.903 204.651Z" fill="#0A5E4F"/>
<path fill-rule="evenodd" clip-rule="evenodd" d="M480.881 223.69C476.607 217.343 467.394 205.944 464.731 211.115C461.156 240.086 444.685 289.079 407.405 253.278C403.213 246.744 393.646 236.815 388.912 249.374C393.951 260.688 404.331 271.312 423.363 278.305C441.835 266.655 462.012 260.572 478.471 257.834C481.97 244.424 482.451 233.136 480.881 223.69Z" fill="#2E9B89" class="eye"/>
<ellipse cx="421.946" cy="205.187" rx="15.138" ry="15.1638" transform="rotate(-30 421.946 205.187)" fill="white"/>
<path d="M389.904 205.39C381.332 222.784 375.875 261.867 422.624 279.045C441.096 267.395 461.272 261.311 477.731 258.573C492.229 203.008 454.924 183.877 434.459 181.257C422.433 189.854 407.398 198.629 389.904 205.39Z" stroke="#0A5E4F" stroke-width="3"/>
<path d="M166.634 254.672C174.35 252.896 181.749 251.882 188.825 251.519C194.189 251.243 199.368 251.341 204.359 251.765M390.762 307.93C396.727 299.728 403.594 292.756 410.961 286.849M499.867 256.521C495.604 256.432 490.317 256.673 484.333 257.379M410.961 286.849C372.019 275.014 369.434 233.448 373.009 214.144C375.938 212.283 378.437 210.307 380.406 208.441C409.128 198.998 432.029 183.692 446.979 170.978C464.801 177.641 506.61 200.949 484.333 257.379M410.961 286.849C434.719 267.798 463.675 259.818 484.333 257.379" stroke="#D9A5B4" stroke-width="5"/>
<path d="M232.36 168.916C187.503 181.639 195.275 229.179 204.767 251.359C225.065 253.081 242.255 260.181 256.176 269.394C297.303 257.292 295.996 217.557 290.202 199.203C264.526 190.274 245.724 179.435 232.36 168.916Z" class="eye" fill="#2E9B89"/>
<path d="M204.767 251.359C199.777 250.936 194.598 250.837 189.234 251.113C182.849 230.245 171.518 179.942 222.504 160.325C225.395 163.133 228.67 166.012 232.36 168.916M204.767 251.359C195.275 229.179 187.503 181.639 232.36 168.916M204.767 251.359C225.065 253.081 242.255 260.181 256.176 269.394M232.36 168.916C245.724 179.435 264.526 190.274 290.202 199.203M256.176 269.394C261.75 273.082 266.799 277.109 271.314 281.265C310.761 268.086 303.646 222.463 300.188 202.468C296.749 201.412 293.422 200.323 290.202 199.203M256.176 269.394C297.303 257.292 295.996 217.557 290.202 199.203" stroke="#0A5E4F" stroke-width="3"/>
<path d="M289.321 199.551C263.982 190.739 245.428 180.042 232.24 169.662C206.789 176.881 198.506 195.458 197.843 214.106C201.084 210.7 208.441 204.252 211.945 205.712C217.906 234.302 239.173 280.752 276.547 237.83C279.832 231.504 286.55 223.815 287.146 243.67C294.524 228.237 292.692 210.228 289.321 199.551Z" fill="#0A5E4F"/>
<ellipse cx="270.931" cy="208.156" rx="16.2733" ry="15.5336" fill="white"/>
<path d="M310.875 205.852C307.316 204.894 303.865 203.9 300.519 202.873M205.098 135.211C206.909 141.278 212.339 150.534 222.836 160.73M167.374 254.672C175.09 252.896 182.489 251.882 189.565 251.519M295.341 311.998C290.895 303.273 282.943 292.069 271.646 281.671M222.836 160.73C171.849 180.348 183.18 230.651 189.565 251.519M222.836 160.73C237.51 174.985 262.086 191.079 300.519 202.873M189.565 251.519C194.929 251.243 200.108 251.341 205.098 251.765C233.524 254.176 255.853 267.135 271.646 281.671M271.646 281.671C311.092 268.492 303.977 222.868 300.519 202.873" stroke="#D9A5B4" stroke-width="5"/>
<path d="M168.484 98.3111C161.457 92.147 148.734 69.463 154.06 28.04C166.758 24.958 202.14 24.1196 242.084 45.4229C241.221 47.7652 225.293 61.6222 168.484 98.3111Z" fill="#302F2F" stroke="#302F2F"/>
<path d="M493.21 94.2429C490.498 90.5445 473.682 77.9696 428.117 57.2582C450.308 34.7714 486.922 26.191 502.456 24.7116C507.19 23.8239 507.881 30.999 507.634 34.6975C505.859 57.4801 497.278 83.8872 493.21 94.2429Z" fill="#302F2F" stroke="#302F2F"/>
<path d="M67.5787 306.615C68.1116 302.599 67.991 297.008 66.5223 289.432C64.1342 286.739 62.0636 284.576 60.309 282.859L76.4365 278.467L130.8 263.664C136.528 266.186 145.86 274.609 137.355 288.128C129.323 290.387 112.692 294.877 81.6793 302.953C77.2747 304.1 72.5801 305.32 67.5787 306.615Z" fill="#140502"/>
<path d="M63.5596 315.272C64.9521 314.583 66.86 312.032 67.5787 306.615M53.3436 277.145C54.1949 277.518 56.5119 279.143 60.309 282.859M67.5787 306.615C68.1116 302.599 67.991 297.008 66.5223 289.432C64.1342 286.739 62.0636 284.576 60.309 282.859M67.5787 306.615C72.5801 305.32 77.2747 304.1 81.6793 302.953C112.692 294.877 129.323 290.387 137.355 288.128C145.86 274.609 136.528 266.186 130.8 263.664L76.4365 278.467L60.309 282.859" stroke="black" stroke-width="1.56782"/>
<path d="M136.02 262.242C140.836 265.455 149.125 274.746 143.759 286.203C143.545 286.331 141.72 286.9 137.354 288.128C145.859 274.609 136.528 266.185 130.799 263.664L136.02 262.242Z" fill="#A08C98"/>
<path d="M76.4359 278.467C79.6194 283.789 85.125 296.137 81.6787 302.953L73.6149 305.149C77.0613 298.332 71.5557 285.985 68.3721 280.663L76.4359 278.467Z" fill="#A08C98"/>
<path d="M136.02 262.242C140.836 265.455 149.125 274.746 143.759 286.203C143.545 286.331 141.72 286.9 137.354 288.128C145.859 274.609 136.528 266.185 130.799 263.664L136.02 262.242Z" stroke="#A08C98" stroke-width="1.56782"/>
<path d="M76.4359 278.467C79.6194 283.789 85.125 296.137 81.6787 302.953L73.6149 305.149C77.0613 298.332 71.5557 285.985 68.3721 280.663L76.4359 278.467Z" stroke="#A08C98" stroke-width="1.56782"/>
<path d="M27.585 324.91L63.5591 315.271C64.9516 314.582 66.8595 312.031 67.5783 306.614C68.1112 302.598 66.6598 293.349 66.1296 291.514C65.5994 289.678 65.4484 287.741 60.3085 282.857C55.1685 277.973 54.1944 277.517 53.3432 277.144L16.8748 284.939C6.49551 288.511 3.84288 298.207 3.81397 302.609C3.91107 303.791 4.49191 307.107 6.03841 310.91C8.00635 316.205 15.0708 326.417 27.585 324.91Z" fill="#1B462D" stroke="#1B462D" stroke-width="1.56782"/>
<path d="M97.1413 269.903C83.1856 264.212 62.8108 253.034 63.855 241.548L124.14 258.191C131.291 263.615 142.559 277.053 130.428 287.409C127.195 289.909 121.694 293.14 115.634 294.764C109.445 296.422 102.673 296.403 97.1413 292.217C90.6074 285.436 81.4598 271.481 97.1413 269.903Z" fill="#FAD1E1"/>
<path d="M63.855 241.548C62.8108 253.034 83.1856 264.212 97.1413 269.903M102.319 271.875C100.752 271.324 99.0036 270.662 97.1413 269.903M97.1413 269.903C81.4598 271.481 90.6074 285.436 97.1413 292.217C102.673 296.403 109.445 296.422 115.634 294.764C121.694 293.14 127.195 289.909 130.428 287.409C142.559 277.053 131.291 263.615 124.14 258.191" stroke="#D9A5B4" stroke-width="7"/>
</svg>
