<svg width="1278" height="1315" viewBox="0 0 1278 1315" fill="none" xmlns="http://www.w3.org/2000/svg">
<path d="M238.02 822.127C205.125 838.025 172.875 846.77 147.446 848.209C134.719 848.93 123.958 847.806 115.753 845.032C107.572 842.265 102.319 838.011 99.7337 832.661C97.1485 827.312 97.0783 820.552 99.9938 812.423C102.918 804.271 108.723 795.14 117.195 785.616C134.123 766.585 161.012 746.748 193.907 730.85C226.803 714.952 259.053 706.207 284.482 704.768C297.209 704.047 307.97 705.171 316.174 707.945C324.356 710.712 329.609 714.967 332.194 720.316C334.779 725.665 334.85 732.425 331.934 740.554C329.01 748.706 323.205 757.837 314.733 767.361C297.805 786.392 270.915 806.229 238.02 822.127Z" fill="#FAD1E1" class="body"  stroke="#D9A5B4" stroke-width="10"/>
<path d="M543.559 1076.28C535.333 1105.76 522.977 1130.84 509.844 1147.56C503.27 1155.94 496.66 1162.01 490.474 1165.57C484.309 1169.12 478.934 1169.99 474.397 1168.72C469.86 1167.46 465.71 1163.93 462.273 1157.7C458.825 1151.45 456.315 1142.83 455.024 1132.27C452.446 1111.16 454.858 1083.31 463.084 1053.83C471.31 1024.35 483.665 999.268 496.799 982.544C503.373 974.173 509.983 968.098 516.169 964.536C522.334 960.985 527.708 960.12 532.245 961.386C536.782 962.652 540.933 966.175 544.369 972.404C547.818 978.654 550.328 987.273 551.618 997.839C554.196 1018.95 551.784 1046.8 543.559 1076.28Z" fill="#F8CEDE" stroke="#D9A5B4" stroke-width="10"/>
<path d="M935.676 933.125C875.478 988.429 771.729 1078.06 577.43 1039.53C383.13 1001 28 722.003 383.13 304.185C404.972 156.576 449.001 70.0654 519.238 64.754C574.261 75.7705 664.003 171.009 701.996 217.251L703.712 217.043C812.066 203.865 870.065 196.811 977.391 255.844C1017.52 280.574 1091.17 360.147 1064.69 480.598C1103.35 501.827 1182.38 554.888 1189.23 597.308C1181.97 630.215 1140.42 711.465 1032.36 773.2C1021.16 804.708 986.138 880.803 935.676 933.125Z" fill="#FAD1E1" class="body" />
<path d="M1064.69 480.598C1103.35 501.827 1182.38 554.888 1189.23 597.308C1181.97 630.215 1140.42 711.465 1032.36 773.2C1021.16 804.708 986.138 880.803 935.676 933.125C875.478 988.429 771.729 1078.06 577.43 1039.53C383.13 1001 28 722.003 383.13 304.185C404.972 156.576 449.001 70.0654 519.238 64.754C574.261 75.7705 664.003 171.009 701.996 217.251C811.457 203.941 869.5 196.5 977.391 255.844C1017.52 280.574 1091.17 360.147 1064.69 480.598ZM1064.69 480.598C1039.51 552.946 971.602 580.75 940.794 585.609C903.66 589.738 859.409 564.147 841.926 550.835C815.316 523.413 810.776 491.932 811.832 479.619C814.304 459.576 829.93 437.191 837.434 428.504C845.639 419.521 831.547 396.386 823.475 385.941" stroke="#D9A5B4" stroke-width="10"/>
<path d="M1189.24 597.307C1181.97 630.215 1140.43 711.464 1032.37 773.2C1061.02 746.194 1143.7 664.282 1181.28 577.002C1159.83 540.824 1102.51 501.981 1069 482.998C1060.47 506.516 1063.31 572.229 940.799 585.608C971.606 580.75 1039.52 552.945 1064.7 480.598C1066.08 481.358 1067.52 482.158 1069 482.998C1102.51 501.981 1159.83 540.824 1181.28 577.002C1185.39 583.921 1188.18 590.741 1189.24 597.307Z" fill="#FDC4DA" class="body-shadow" />
<path d="M973 259.002C1013.13 283.732 1088.98 360.551 1062.5 481.002C1037.32 553.35 971.307 575.644 940.5 580.502C1091.7 539.302 1023 352.169 973 259.002Z" fill="#FDC4DA" class="body-shadow" />
<path d="M835.03 715.666C822.454 691.763 784.776 637.392 734.666 611.128C710.828 641.493 667.49 711.149 684.839 746.856C699.809 770.193 750.806 796.626 835.03 715.666Z" fill="#FF9D94" stroke="#D9A5B4" stroke-width="10"/>
<path d="M443.564 295.014C441.508 263.404 453.882 183.484 519.82 116.673C544.517 121.738 604.36 153.923 646.15 242.145C590.84 249.584 472.889 270.571 443.564 295.014Z" fill="#302F2F"/>
<path d="M1046.85 726.87C1050.92 698.8 1053.53 623.89 1031.41 548.807C1089.72 566.088 1130.48 600.2 1143.57 615.096C1140.35 623.895 1116.5 658.57 1046.85 726.87Z" fill="#302F2F"/>
<path d="M443.564 295.014C441.508 263.404 453.882 183.484 519.82 116.673C544.517 121.738 604.36 153.923 646.15 242.145C590.84 249.584 472.889 270.571 443.564 295.014Z" stroke="#302F2F" stroke-width="3"/>
<path d="M1046.85 726.87C1050.92 698.8 1053.53 623.89 1031.41 548.807C1089.72 566.088 1130.48 600.2 1143.57 615.096C1140.35 623.895 1116.5 658.57 1046.85 726.87Z" stroke="#302F2F" stroke-width="3"/>
<path d="M786.899 483.808C766.258 560.841 685.982 606.365 607.509 585.338C529.035 564.311 482.276 484.748 502.917 407.715C523.558 330.683 603.834 285.159 682.307 306.186C760.78 327.212 807.54 406.776 786.899 483.808Z" fill="white" stroke="#D9A5B4" stroke-width="7"/>
<path d="M771.791 459.054C757.782 511.337 700.083 541.815 642.46 526.375C584.838 510.935 550.108 455.691 564.117 403.408C578.126 351.125 635.825 320.648 693.448 336.088C751.07 351.528 785.8 406.771 771.791 459.054Z" fill="#3CA491" stroke="#006E64" stroke-width="7" class="eye" />
<ellipse cx="683.712" cy="424.583" rx="86.5" ry="83.5" transform="rotate(15 683.712 424.583)" fill="#006E64"/>
<ellipse cx="710" cy="409.502" rx="40.5" ry="39" transform="rotate(90 710 409.502)" fill="white"/>
<path d="M1014.81 726.26C1000.98 757.964 980.606 783.058 959.021 798.065C937.381 813.11 915.05 817.718 896.755 809.735C878.461 801.753 866.651 782.248 862.964 756.151C859.285 730.121 863.825 698.117 877.659 666.413C891.492 634.709 911.867 609.615 933.452 594.608C955.092 579.563 977.423 574.955 995.718 582.938C1014.01 590.92 1025.82 610.426 1029.51 636.522C1033.19 662.552 1028.65 694.556 1014.81 726.26Z" fill="white" stroke="#D9A5B4" stroke-width="7"/>
<path d="M1002.5 711.75C990.658 734.758 973.902 752.309 956.544 762.161C939.155 772.031 921.575 773.991 907.534 766.765C893.493 759.538 884.872 744.092 882.798 724.206C880.728 704.354 885.273 680.519 897.115 657.51C908.957 634.502 925.713 616.951 943.071 607.099C960.459 597.23 978.039 595.269 992.08 602.496C1006.12 609.722 1014.74 625.168 1016.82 645.055C1018.89 664.906 1014.34 688.742 1002.5 711.75Z" fill="#3CA491" stroke="#006E64"  class="eye" stroke-width="6.69494"/>
<ellipse cx="961.354" cy="656.556" rx="49.8068" ry="59.913" transform="rotate(30.8251 961.354 656.556)" fill="#006E64"/>
<ellipse cx="963.369" cy="642.386" rx="35" ry="35.5" transform="rotate(15 963.369 642.386)" fill="white"/>
<path d="M507.931 518.437C637.467 563.657 733.041 632.263 420.573 666.729L428.445 494.395C454.274 501.142 481.794 509.314 507.931 518.437Z" fill="#FAD1E1" class="body" />
<path d="M420.573 666.729C733.041 632.263 637.467 563.657 507.931 518.437C481.794 509.314 454.274 501.142 428.445 494.395M819.047 937.591C790.736 717.153 895.731 796.291 951.767 863.414" stroke="#D9A5B4" stroke-width="5"/>
<path d="M818.674 937.699C790.363 717.261 895.358 796.399 951.394 863.523L818.674 937.699Z" fill="#FAD1E1" class="body" />
<path d="M818.674 937.699C790.363 717.261 895.358 796.399 951.394 863.523" stroke="#D9A5B4" stroke-width="5"/>
<path d="M1064.69 480.598C1103.35 501.827 1182.38 554.888 1189.23 597.308C1181.97 630.215 1140.42 711.465 1032.36 773.2C1021.16 804.708 986.138 880.803 935.676 933.125C875.478 988.429 771.729 1078.06 577.43 1039.53C383.13 1001 28 722.003 383.13 304.185C404.972 156.576 449.001 70.0654 519.238 64.754C574.261 75.7705 664.003 171.009 701.996 217.251C811.457 203.941 869.5 196.5 977.391 255.844C1017.52 280.574 1091.17 360.147 1064.69 480.598ZM1064.69 480.598C1039.51 552.946 971.602 580.75 940.794 585.609C903.66 589.738 859.409 564.147 841.926 550.835C815.316 523.413 810.776 491.932 811.832 479.619C814.304 459.576 829.93 437.191 837.434 428.504C845.639 419.521 831.547 396.386 823.475 385.941" stroke="#D9A5B4" stroke-width="10"/>
</svg>
