<svg width="50" height="50" viewBox="0 0 50 50" fill="none" xmlns="http://www.w3.org/2000/svg">
<path class="pokeballTop" d="M5.01094 21.6983C6.47224 12.2486 14.66 5.01233 24.5455 5C34.4295 5.00664 42.6192 12.2358 44.0909 21.6798L34.0379 21.6983C32.7536 17.6931 28.9898 14.7936 24.5455 14.7913C20.1083 14.7965 16.3497 17.6912 15.0606 21.6893L5.01094 21.6983Z" fill="#000"/>
<path class="pokeballBottom"  d="M24.5455 44.4686C14.6614 44.462 6.47176 37.2329 5 27.7889L15.053 27.7704C16.3373 31.7756 20.1012 34.675 24.5455 34.6774C28.9826 34.6722 32.7413 31.7775 34.0303 27.7794L44.08 27.7704C42.6187 37.2201 34.431 44.4563 24.5455 44.4686Z" fill="#000"/>
<path class="pokeballCenter" d="M24.5455 31.1859C20.9715 31.1859 18.0741 28.2974 18.0741 24.7343C18.0741 21.1712 20.9715 18.2827 24.5455 18.2827C28.1195 18.2827 31.0168 21.1712 31.0168 24.7343C31.0168 28.2974 28.1195 31.1859 24.5455 31.1859Z" fill="#000"/>
</svg>
