<svg width="50" height="50" viewBox="0 0 50 50" fill="none" xmlns="http://www.w3.org/2000/svg">
<g clip-path="url(#clip0)">
<path d="M25.1716 26.0672C32.2441 17.011 45.9459 7.21378 45.5415 7.01159C45.1371 6.80941 35.1257 9.2422 27.6989 15.0483L24.9189 7.01159L22.5433 15.0483C15.5912 11.0773 4.75125 7.01159 3.89198 7.01159C3.03271 7.01159 17.2285 16.9436 25.1716 26.0672Z" fill="black"/>
<path d="M0 42.5451C6.66113 39.7682 10.5156 38.7383 17.6404 38.0971C19.7297 33.6024 21.0624 31.1969 24.2618 27.432C24.41 27.2577 20.7911 23.2199 18.9546 21.2149C11.0139 29.1474 6.73788 33.7254 0 42.5451Z" fill="black"/>
<path d="M30.8833 21.2149C29.2827 23.1693 26.0512 27.1489 25.9298 27.432L27.6989 29.8582L33.2084 23.8433L30.8833 21.2149Z" fill="black"/>
<path d="M34.1688 24.6014L28.4066 31.324L30.6811 33.9524L36.4939 26.9771L34.1688 24.6014Z" fill="black"/>
<path d="M31.136 35.3676C33.0905 33.0931 37.06 28.5035 37.3026 28.3418C43.2861 33.63 45.5585 37.021 49.7873 43C43.8949 40.6487 40.8448 39.1987 32.5513 38.0971L31.136 35.3676Z" fill="black"/>
<path d="M25.1716 26.0672C32.2441 17.011 45.9459 7.21378 45.5415 7.01159C45.1371 6.80941 35.1257 9.2422 27.6989 15.0483L24.9189 7.01159L22.5433 15.0483C15.5912 11.0773 4.75125 7.01159 3.89198 7.01159C3.03271 7.01159 17.2285 16.9436 25.1716 26.0672Z" stroke="black" stroke-width="0.101091"/>
<path d="M0 42.5451C6.66113 39.7682 10.5156 38.7383 17.6404 38.0971C19.7297 33.6024 21.0624 31.1969 24.2618 27.432C24.41 27.2577 20.7911 23.2199 18.9546 21.2149C11.0139 29.1474 6.73788 33.7254 0 42.5451Z" stroke="black" stroke-width="0.101091"/>
<path d="M30.8833 21.2149C29.2827 23.1693 26.0512 27.1489 25.9298 27.432L27.6989 29.8582L33.2084 23.8433L30.8833 21.2149Z" stroke="black" stroke-width="0.101091"/>
<path d="M34.1688 24.6014L28.4066 31.324L30.6811 33.9524L36.4939 26.9771L34.1688 24.6014Z" stroke="black" stroke-width="0.101091"/>
<path d="M31.136 35.3676C33.0905 33.0931 37.06 28.5035 37.3026 28.3418C43.2861 33.63 45.5585 37.021 49.7873 43C43.8949 40.6487 40.8448 39.1987 32.5513 38.0971L31.136 35.3676Z" stroke="black" stroke-width="0.101091"/>
</g>
<defs>
<clipPath id="clip0">
<rect width="50" height="50" fill="white"/>
</clipPath>
</defs>
</svg>
