<svg width="123" height="47" fill="none" xmlns="http://www.w3.org/2000/svg"><path stroke="#FDCB51" stroke-width="2.444" d="M83.331 5.132h36.865v38.385H83.331z"/><path d="M3.472 42.019c1.45-1.145 1.718-2.1 1.67-2.433.153-1.413-.716-3.436-.668-3.436.048 0-1.622-3.467-2.433-4.246-2.749-3.589.477-7.476 2.433-8.97 1.527-1.642.954-4.056.477-5.058-.878-1.604-1.097-1.098-1.67-2.004-.572-.907-.525-3.69-.19-4.152.343-.687 1.32-.35 1.765-.095 1.641-.61 1.848-1.272 1.895-1.272.135-.123.27-.237.403-.344 1.826-1.458 3.575-1.523 5.067-.95a6.1 6.1 0 0 1 2.362 1.55c.11.114.34.365.388.462.726 1.221 3.96-3.931 6.346-5.84 2.386-1.908 6.553-3.88 8.97-4.246.42-.191-.874 3.356-1.574 5.153-2.023 5.077-7.618 7.396-10.163 7.92-.725.268-1.48 1.702-1.765 2.386 0 1.947-3.531 3.642-5.297 4.247-2.328 1.794-.811 6.06.239 7.968 3.55 2.52 4.692 4.358 4.819 4.962.076.23-1.272-.413-1.956-.763-1.516-.877-5.278-.044-8.207 10.306l-2.91-.238c-.955-.382-.398-.764 0-.907Z" fill="#FDCB51"/><path d="M6.751 10.353c-.047 0-.254.661-1.895 1.272-.445-.255-1.422-.592-1.766.095-.334.462-.381 3.245.191 4.152.573.906.792.4 1.67 2.004.477 1.002 1.05 3.416-.477 5.057-1.956 1.495-5.182 5.382-2.433 8.97.81.78 2.48 4.247 2.433 4.247-.048 0 .82 2.023.668 3.436.048.334-.22 1.288-1.67 2.433-.397.143-.954.525 0 .907l2.91.238c2.93-10.35 6.692-11.183 8.208-10.306.684.35 2.032.992 1.956.763-.127-.604-1.27-2.443-4.82-4.962-1.049-1.909-2.566-6.174-.238-7.968 1.766-.605 5.297-2.3 5.297-4.247.286-.684 1.04-2.118 1.765-2.386 2.545-.524 8.14-2.843 10.163-7.92.7-1.797 1.994-5.344 1.575-5.153-2.418.366-6.585 2.338-8.97 4.246-2.386 1.909-5.621 7.061-6.347 5.84-.048-.097-.279-.348-.388-.461m-7.832-.257c3.07-2.787 5.963-1.524 7.832.257m-7.832-.257c3.311-3.021 6.601-1.088 7.832.257" stroke="#FDCB51" stroke-width=".286"/><path d="M19.848 15.983c5.344.42 9.731-5.32 11.274-8.247 1.516-1.151 4.197-2.42 5.347-2.91.25 3.862-2.013 17.189-17.467 13.073l.846-1.916Z" fill="#FDCB51" stroke="#FDCB51" stroke-width=".286"/><path d="M6.843 33.198c.21.599.277 1.177.22 1.626-.06.457-.238.734-.47.816-.233.082-.546-.02-.88-.34-.326-.313-.638-.805-.849-1.404-.211-.598-.278-1.177-.22-1.625.059-.458.238-.735.47-.817.233-.082.546.021.879.34.326.313.638.805.85 1.404Z" fill="#fff" stroke="#fff" stroke-width=".286"/><path d="M6.497 33.397c.135.382.176.75.14 1.03-.038.291-.149.446-.272.49-.123.043-.307-.008-.518-.21-.205-.197-.403-.508-.538-.89-.135-.383-.177-.75-.14-1.032.037-.29.148-.445.271-.488.124-.044.307.007.518.21.205.196.404.507.539.89Z" fill="#FDCB51" stroke="#fff" stroke-width=".286"/><path d="M7.252 10.306c-.016-.058-.004-.14.07-.25.075-.108.2-.228.376-.351.35-.245.87-.48 1.477-.643.607-.162 1.176-.217 1.6-.179.214.02.383.061.501.118.12.058.17.123.186.18.015.058.003.14-.071.25-.075.108-.2.229-.375.351-.35.245-.87.48-1.477.643-.608.162-1.176.217-1.601.179a1.481 1.481 0 0 1-.5-.118c-.12-.058-.171-.123-.186-.18Z" fill="#fff" stroke="#fff" stroke-width=".286"/><path d="M8.064 10.062c-.003-.013-.004-.046.038-.106a.884.884 0 0 1 .222-.204 3.04 3.04 0 0 1 .91-.392c.376-.1.726-.135.984-.114.13.011.228.035.294.066.067.032.082.06.085.073.004.013.005.046-.037.106a.885.885 0 0 1-.222.204 3.04 3.04 0 0 1-.91.391c-.377.1-.726.136-.984.114a.884.884 0 0 1-.294-.066c-.067-.03-.082-.06-.086-.072Z" fill="#FDCB51" stroke="#fff" stroke-width=".286"/><path d="M8.564 12.342c-.588.127-1.785.563-1.86 1.288.03.048.4.115 1.621 0 .287-.127.865-.584.888-1.392-.095 0-.292.021-.649.104Z" fill="#fff"/><path d="M9.08 12.422a1.035 1.035 0 0 1 .133-.184m0 0c-.095 0-.292.021-.649.104-.588.127-1.785.563-1.86 1.288.03.048.4.115 1.621 0 .287-.127.865-.584.888-1.392Z" stroke="#fff" stroke-width=".286"/><path d="M20.77 45.87c-2.1.716-7.02 1.28-9.91-2.197-.41-.572-1.2-1.998-1.071-3.124.536-3.873 3.013-5.036 4.185-5.134 3.436.078 4.94 2.506 4.94 3.71.118 2.539-.319 4.182-.79 4.687-.196.244-.986.744 0 .789.748-.016 1.865-1.27 2.255-6.15.076-.831.27-2.439.87-3.963.304-.776.715-1.53 1.268-2.148a20.646 20.646 0 0 1 2.88-2.59c2.758-2.052 5.496-3.071 6.796-3.358.127.762.304 2.843 0 5.07-.296 2.88-2.996 9.793-11.423 14.408Z" fill="#FDCB51"/><path d="M31.266 19.732c0 1.205.278 2.073.834 2.603.557.517 1.332.775 2.326.775s1.769-.258 2.325-.775c.57-.53.855-1.398.855-2.603v-8.03h2.186v8.507c0 .649-.106 1.265-.318 1.848a4.202 4.202 0 0 1-.993 1.55c-.438.438-1.007.789-1.71 1.054-.689.252-1.51.377-2.464.377s-1.77-.125-2.445-.377c-.676-.265-1.232-.616-1.67-1.054a4.227 4.227 0 0 1-.934-1.55 6.06 6.06 0 0 1-.278-1.848v-8.507h2.286v8.03Zm18.61 5.088v-6.042c0-1.087-.431-1.63-1.292-1.63-.212 0-.444.04-.696.12a3.01 3.01 0 0 0-.715.357 3.094 3.094 0 0 0-.637.556 2.054 2.054 0 0 0-.397.775v5.864h-2.186v-9.143h1.709l.1 1.352h.079a2.52 2.52 0 0 1 1.252-1.233 4.238 4.238 0 0 1 1.848-.417c.623 0 1.186.126 1.69.378.517.238.9.655 1.153 1.252a2.535 2.535 0 0 1 1.252-1.213 4.111 4.111 0 0 1 1.828-.417c.424 0 .822.06 1.193.179a2.454 2.454 0 0 1 1.67 1.53c.172.411.258.915.258 1.51v6.222h-2.187v-6.042c0-1.087-.43-1.63-1.291-1.63-.212 0-.444.04-.696.12a3.01 3.01 0 0 0-.716.357 3.093 3.093 0 0 0-.636.556 2.054 2.054 0 0 0-.397.775v5.864h-2.186Zm17.092.238c-.716 0-1.312-.145-1.789-.437a5.943 5.943 0 0 1-1.252-1.053h-.08l-.159 1.252H61.94V10.112h2.167v6.48a2.994 2.994 0 0 1 1.212-.895c.504-.212 1.073-.318 1.71-.318.688 0 1.291.132 1.808.397.517.265.948.617 1.292 1.054.345.437.596.947.755 1.53.173.57.259 1.166.259 1.789 0 .702-.1 1.352-.298 1.948a4.632 4.632 0 0 1-.855 1.55 3.854 3.854 0 0 1-1.312 1.034 3.85 3.85 0 0 1-1.71.377Zm-.278-1.65c.384 0 .715-.092.993-.278.292-.185.53-.424.716-.715.199-.305.344-.65.437-1.034a5.23 5.23 0 0 0 .14-1.192c0-.411-.054-.802-.16-1.173a2.834 2.834 0 0 0-.457-1.013 2.01 2.01 0 0 0-.775-.676c-.305-.173-.663-.259-1.073-.259a2.89 2.89 0 0 0-1.193.279c-.41.172-.815.503-1.212.993v3.817c.145.198.324.377.536.536.212.146.431.272.656.378.239.106.477.192.716.258.238.053.464.08.676.08Zm13.28-5.743c-.132-.106-.337-.192-.615-.259a3.169 3.169 0 0 0-.716-.1c-.265 0-.483.067-.656.2-.172.119-.324.285-.457.497-.132.198-.245.43-.338.695-.093.265-.179.537-.258.815v5.307h-2.186v-9.143h1.709l.1 1.908h.079c.132-.278.271-.55.417-.815.146-.265.311-.497.497-.695.185-.212.397-.378.636-.497a1.85 1.85 0 0 1 .875-.2c.53 0 1.026.173 1.49.518l-.576 1.769Zm9.067 7.155-.16-1.252h-.079c-.357.45-.848.815-1.47 1.093a4.643 4.643 0 0 1-1.869.397c-.835 0-1.49-.238-1.967-.715-.477-.49-.716-1.133-.716-1.928 0-.543.113-1.027.338-1.451a3.071 3.071 0 0 1 1.014-1.093c.437-.305.96-.537 1.57-.696a8.116 8.116 0 0 1 2.047-.238h.855v-.299c0-.516-.166-.894-.497-1.132-.345-.239-.881-.358-1.61-.358-.98 0-1.855.218-2.624.656l-.417-1.65c.888-.517 1.96-.775 3.22-.775 1.325 0 2.332.271 3.02.815.319.252.577.576.776.974.212.397.318.874.318 1.43v6.222h-1.75Zm-2.723-1.53c.424 0 .848-.1 1.272-.299.424-.212.762-.49 1.014-.834v-1.81h-.378c-1.087 0-1.881.14-2.385.418-.49.279-.735.722-.735 1.332 0 .795.404 1.192 1.212 1.192Z" fill="#fff"/><path d="m32.1 22.335-1.01 1.062.006.007.007.006.997-1.075Zm4.651 0 .998 1.075.001-.001-.999-1.074Zm.855-10.633v-1.466H36.14v1.466h1.466Zm2.186 0h1.467v-1.466h-1.467v1.466Zm-.318 10.355-1.378-.501 1.378.501Zm-.993 1.55-1.037-1.036 1.037 1.036Zm-1.71 1.054.504 1.377.007-.003.007-.002-.518-1.372Zm-4.909 0-.535 1.365.011.004.012.005.512-1.374Zm-1.67-1.054-1.067 1.005.015.017.016.015 1.037-1.037Zm-.934-1.55-1.397.445.005.014.005.014 1.387-.473Zm-.278-10.355v-1.466h-1.466v1.466h1.466Zm2.286 0h1.466v-1.466h-1.466v1.466Zm-1.466 8.03c0 1.384.313 2.735 1.29 3.665l2.022-2.123c-.137-.13-.38-.515-.38-1.542h-2.933Zm1.303 3.678c.903.838 2.076 1.167 3.323 1.167v-2.933c-.741 0-1.118-.188-1.328-.383l-1.995 2.149Zm3.323 1.167c1.246 0 2.42-.329 3.323-1.167l-1.995-2.15c-.21.196-.587.384-1.328.384v2.933Zm3.324-1.168c.998-.929 1.322-2.285 1.322-3.677H36.14c0 1.019-.246 1.398-.387 1.53l1.997 2.147Zm1.322-3.677v-8.03H36.14v8.03h2.932Zm-1.466-6.564h2.186v-2.932h-2.186v2.932Zm.72-1.466v8.507h2.933v-8.507h-2.933Zm0 8.507c0 .486-.079.932-.23 1.347l2.756 1.002a6.832 6.832 0 0 0 .407-2.35h-2.933Zm-.23 1.347c-.136.376-.349.711-.652 1.015l2.073 2.073a5.669 5.669 0 0 0 1.335-2.086l-2.756-1.002Zm-.652 1.015c-.262.262-.642.511-1.19.718l1.035 2.744c.856-.324 1.616-.776 2.228-1.389l-2.073-2.073Zm-1.176.713c-.487.178-1.13.288-1.961.288v2.933c1.076 0 2.077-.142 2.968-.467l-1.007-2.754Zm-1.961.288c-.833 0-1.465-.11-1.933-.285l-1.024 2.748c.883.329 1.881.47 2.957.47v-2.933Zm-1.91-.276c-.52-.204-.896-.453-1.168-.725l-2.073 2.073c.602.603 1.34 1.056 2.17 1.382l1.071-2.73Zm-1.137-.694a2.761 2.761 0 0 1-.614-1.018l-2.776.946c.267.782.688 1.48 1.255 2.082l2.135-2.01Zm-.605-.99a4.596 4.596 0 0 1-.209-1.403h-2.932c0 .79.113 1.557.347 2.293l2.794-.89Zm-.209-1.403v-8.507h-2.932v8.507h2.932Zm-1.466-7.04h2.286v-2.933H28.98v2.932Zm.82-1.467v8.03h2.932v-8.03h-2.933ZM49.876 24.82h-1.467v1.466h1.467V24.82Zm-1.988-7.553-.441-1.398-.012.003-.01.004.463 1.391Zm-.715.358.796 1.23.008-.005.009-.005-.813-1.22Zm-.637.556-1.099-.97-.017.019-.015.02 1.131.931Zm-.397.775-1.415-.385-.051.19v.195h1.466Zm0 5.864v1.466h1.466V24.82H46.14Zm-2.186 0h-1.467v1.466h1.467V24.82Zm0-9.143v-1.466h-1.467v1.466h1.467Zm1.709 0 1.462-.107-.1-1.36h-1.362v1.467Zm.1 1.352-1.463.107.1 1.359h1.362v-1.466Zm.079 0v1.466h.926l.398-.836-1.324-.63Zm1.252-1.233.618 1.33.007-.003.006-.004-.631-1.323Zm3.538-.04-.656 1.312.02.01.021.01.615-1.332Zm1.153 1.253-1.351.57 1.254 2.971 1.414-2.899-1.317-.642Zm1.252-1.213.618 1.33.013-.006.012-.006-.643-1.318Zm3.02-.238-.448 1.396.03.01.029.007.39-1.413Zm.995.536-.984 1.088.013.011.012.011.959-1.11Zm.675.994-1.367.53.007.019.008.018 1.352-.567Zm.259 7.732v1.466h1.466V24.82h-1.466Zm-2.187 0h-1.466v1.466h1.466V24.82Zm-1.987-7.553-.442-1.398-.01.003-.012.004.464 1.391Zm-.716.358.797 1.23.008-.005.009-.005-.814-1.22Zm-.636.556-1.1-.97-.016.019-.016.02 1.132.931Zm-.397.775-1.415-.385-.051.19v.195h1.466Zm0 5.864v1.466h1.466V24.82h-1.466Zm-.72 0v-6.042h-2.933v6.042h2.933Zm0-6.042c0-.698-.132-1.492-.64-2.133-.56-.707-1.36-.963-2.118-.963v2.932c.063 0 .051.01-.004-.013a.442.442 0 0 1-.176-.135c-.042-.053-.04-.076-.027-.027.014.052.032.16.032.339h2.933Zm-2.758-3.096c-.394 0-.776.073-1.138.187l.884 2.796a.902.902 0 0 1 .254-.05v-2.933Zm-1.16.194a4.477 4.477 0 0 0-1.065.529l1.627 2.44c.145-.097.267-.154.366-.187l-.928-2.782Zm-1.048.518c-.35.226-.662.503-.939.817l2.199 1.94c.12-.136.233-.23.333-.295l-1.593-2.462Zm-.971.855a3.519 3.519 0 0 0-.68 1.322l2.828.771a.588.588 0 0 1 .115-.229l-2.263-1.864Zm-.732 1.707v5.864h2.932v-5.864h-2.932Zm1.466 4.398h-2.186v2.932h2.186v-2.932Zm-.72 1.466v-9.143h-2.933v9.143h2.933Zm-1.466-7.677h1.709v-2.932h-1.71v2.932Zm.247-1.358.099 1.351 2.925-.215-.1-1.351-2.924.215Zm1.561 2.71h.08v-2.933h-.08v2.933Zm1.404-.836c.115-.242.28-.409.546-.533l-1.236-2.66a3.985 3.985 0 0 0-1.958 1.932l2.648 1.261Zm.56-.54a2.773 2.773 0 0 1 1.216-.274v-2.932c-.866 0-1.698.187-2.48.56l1.264 2.646Zm1.216-.274c.42 0 .755.084 1.034.223l1.312-2.623a5.189 5.189 0 0 0-2.346-.532v2.932Zm1.075.243c.14.064.286.182.417.491l2.701-1.14c-.373-.884-.995-1.601-1.889-2.014l-1.229 2.663Zm3.085.563c.112-.228.275-.396.553-.525l-1.237-2.66a4 4 0 0 0-1.951 1.9L53.1 17.65Zm.578-.537a2.647 2.647 0 0 1 1.185-.269v-2.932c-.866 0-1.697.187-2.472.566l1.287 2.635Zm1.185-.269c.285 0 .53.04.744.109l.898-2.792a5.34 5.34 0 0 0-1.642-.25v2.933Zm.803.126a.949.949 0 0 1 .4.21l1.967-2.174a3.88 3.88 0 0 0-1.587-.863l-.78 2.827Zm.425.233a1 1 0 0 1 .267.413l2.735-1.058a3.917 3.917 0 0 0-1.085-1.574l-1.917 2.22Zm.282.451c.076.182.145.48.145.944h2.932c0-.729-.104-1.438-.372-2.078l-2.705 1.134Zm.145.944v6.22h2.932V18.6H56.52Zm1.466 4.755h-2.187v2.932h2.187v-2.932Zm-.72 1.466v-6.042h-2.933v6.042h2.933Zm0-6.042c0-.698-.132-1.492-.64-2.133-.56-.707-1.36-.963-2.118-.963v2.932c.063 0 .051.01-.004-.013a.444.444 0 0 1-.176-.135c-.042-.053-.04-.076-.027-.027.014.052.032.16.032.339h2.933Zm-2.758-3.096c-.394 0-.776.073-1.138.187l.883 2.796a.902.902 0 0 1 .255-.05v-2.933Zm-1.16.194a4.475 4.475 0 0 0-1.065.529l1.627 2.44c.145-.097.267-.154.366-.187l-.928-2.782Zm-1.048.518c-.35.226-.662.503-.94.817l2.2 1.94c.12-.136.233-.23.333-.295l-1.593-2.462Zm-.971.855a3.52 3.52 0 0 0-.68 1.322l2.828.771a.59.59 0 0 1 .115-.229l-2.264-1.864Zm-.732 1.707v5.864h2.932v-5.864h-2.932Zm1.466 4.398h-2.186v2.932h2.186v-2.932Zm13.117 1.267-.78 1.241.008.005.007.005.765-1.25Zm-1.252-1.053 1.088-.983-.437-.484h-.651v1.467Zm-.08 0V22.1h-1.291l-.163 1.282 1.454.185Zm-.159 1.252v1.466h1.292l.163-1.282-1.455-.184Zm-1.749 0h-1.466v1.466h1.466V24.82Zm0-14.708V8.646h-1.466v1.466h1.466Zm2.167 0h1.466V8.646h-1.466v1.466Zm0 6.48H62.64V20.8l2.614-3.298-1.148-.91Zm1.212-.895.57 1.351-.57-1.351Zm3.518.08-.669 1.304.67-1.305Zm1.292 1.053 1.152-.908-1.152.908Zm.755 1.53-1.414.386.005.02.006.019 1.403-.425Zm-.894 5.287L68.87 22.7l-.009.01-.008.01 1.135.928Zm-2.306-.517-.787-1.237-.013.009-.013.008.813 1.22Zm.716-.715-1.228-.801-.005.007-.004.007 1.237.787Zm.437-1.034 1.425.344.003-.01-1.428-.334Zm-.02-2.365-1.425.344.007.03.008.029 1.41-.403Zm-.457-1.013-1.211.825.012.019.013.018 1.186-.862Zm-.775-.676-.722 1.276.033.018.033.017.656-1.311Zm-2.266.02.567 1.352.018-.008.019-.008-.604-1.336Zm-1.212.993-1.14-.923-.327.404v.52h1.467Zm0 3.817H62.64v.48l.283.387 1.183-.867Zm.536.536-.88 1.173.025.018.025.017.83-1.208Zm.656.378-.624 1.326.014.007.015.007.595-1.34Zm.716.258-.393 1.413.037.01.038.009.318-1.432Zm.954.263c-.52 0-.834-.106-1.024-.222l-1.53 2.502c.764.467 1.643.653 2.554.653v-2.933Zm-1.009-.212a4.473 4.473 0 0 1-.944-.795l-2.176 1.965c.46.51.98.948 1.56 1.312l1.56-2.482ZM63.927 22.1h-.08v2.933h.08V22.1Zm-1.534 1.282-.16 1.252 2.91.37.159-1.253-2.91-.369Zm1.295-.03H61.94v2.933h1.75v-2.932Zm-.282 1.467V10.112h-2.933V24.82h2.933Zm-1.467-13.242h2.167V8.646h-2.167v2.932Zm.7-1.466v6.48h2.933v-6.48h-2.933Zm2.615 7.39c.135-.17.33-.326.633-.454l-1.138-2.702a4.457 4.457 0 0 0-1.792 1.334l2.297 1.822Zm.633-.454c.296-.124.668-.203 1.14-.203v-2.932c-.8 0-1.567.133-2.278.433l1.138 2.702Zm1.14-.203c.5 0 .866.095 1.14.236l1.338-2.61c-.759-.389-1.599-.558-2.477-.558v2.932Zm1.14.236c.338.173.6.392.81.656l2.303-1.815a5.333 5.333 0 0 0-1.775-1.45l-1.338 2.61Zm.81.656c.212.27.38.6.492 1.009l2.829-.772a5.712 5.712 0 0 0-1.018-2.052l-2.304 1.815Zm.503 1.048c.129.425.195.878.195 1.364h2.933c0-.76-.105-1.5-.321-2.213l-2.807.849Zm.195 1.364c0 .563-.079 1.054-.222 1.484l2.782.928c.254-.763.373-1.57.373-2.412h-2.933Zm-.222 1.484a3.166 3.166 0 0 1-.582 1.066l2.236 1.897a6.096 6.096 0 0 0 1.128-2.035l-2.782-.928Zm-.599 1.086c-.221.27-.49.483-.819.644l1.284 2.636a5.317 5.317 0 0 0 1.805-1.423l-2.27-1.857Zm-.819.644c-.3.146-.648.23-1.067.23v2.932c.826 0 1.618-.169 2.351-.526l-1.284-2.636Zm-1.345 1.512c.629 0 1.253-.156 1.807-.525l-1.627-2.44c-.003.002-.041.032-.18.032v2.933Zm1.78-.508a3.77 3.77 0 0 0 1.166-1.165l-2.474-1.574a.84.84 0 0 1-.266.265l1.575 2.474Zm1.157-1.151c.298-.457.506-.958.635-1.49l-2.851-.689c-.057.236-.14.424-.24.577l2.456 1.602Zm.637-1.502a6.696 6.696 0 0 0 .178-1.525h-2.933c0 .282-.033.568-.1.86l2.855.666Zm.178-1.525c0-.538-.07-1.066-.216-1.576l-2.82.806c.067.232.103.486.103.77h2.933Zm-.2-1.517a4.297 4.297 0 0 0-.697-1.532l-2.372 1.725c.089.122.166.28.218.495l2.85-.688Zm-.671-1.495c-.341-.5-.791-.892-1.331-1.162l-1.312 2.623a.546.546 0 0 1 .22.19l2.423-1.651Zm-1.266-1.127a3.607 3.607 0 0 0-1.794-.448v2.933c.202 0 .302.04.352.068l1.442-2.553Zm-1.794-.448c-.626 0-1.228.152-1.796.408l1.207 2.673c.253-.115.445-.148.589-.148v-2.933Zm-1.76.392c-.707.297-1.294.818-1.784 1.423l2.278 1.847c.305-.376.526-.517.64-.565l-1.134-2.705ZM62.64 18.34v3.817h2.933V18.34h-2.933Zm.284 4.684c.238.323.52.603.84.842l1.76-2.346a1.11 1.11 0 0 1-.235-.23l-2.365 1.734Zm.889.877c.275.19.563.355.862.497l1.249-2.654a3.199 3.199 0 0 1-.45-.26l-1.661 2.417Zm.89.51c.302.133.608.244.92.33l.784-2.825a3.71 3.71 0 0 1-.512-.185l-1.191 2.68Zm.994.35c.327.072.66.114.994.114v-2.933c-.09 0-.209-.011-.358-.044l-.636 2.863Zm14.275-7.096-.916 1.145 1.654 1.323.656-2.014-1.394-.454Zm-.616-.259.34-1.426-.34 1.426Zm-1.372.1.835 1.205.03-.02.03-.023-.895-1.162Zm-.457.497 1.22.813.012-.018.011-.018-1.243-.777Zm-.338.695-1.384-.484 1.384.484Zm-.258.815-1.41-.403-.056.198v.205h1.466Zm0 5.307v1.466h1.466V24.82H76.93Zm-2.186 0h-1.467v1.466h1.467V24.82Zm0-9.143v-1.466h-1.467v1.466h1.467Zm1.709 0 1.464-.076-.072-1.39h-1.392v1.466Zm.1 1.908-1.465.076.072 1.39h1.392v-1.466Zm.079 0v1.466h.925l.399-.835-1.324-.63Zm.417-.815-1.285-.706 1.285.706Zm.497-.695 1.072 1 .016-.017.016-.018-1.104-.965Zm.636-.497.656 1.311.013-.007.014-.007-.683-1.297Zm2.365.318 1.394.454.327-1.003-.846-.628-.875 1.177Zm.34.624c-.38-.304-.83-.454-1.193-.54l-.679 2.853a1.4 1.4 0 0 1 .135.04c.005.002-.002 0-.017-.01a.61.61 0 0 1-.078-.053l1.832-2.29Zm-1.193-.54a4.607 4.607 0 0 0-1.055-.14v2.933c.047 0 .165.01.376.06l.68-2.853Zm-1.055-.14c-.515 0-1.069.133-1.55.503l1.788 2.325a.561.561 0 0 1-.175.092c-.049.014-.074.013-.063.013v-2.932Zm-1.49.46a3.125 3.125 0 0 0-.866.925l2.486 1.555c.047-.075.07-.083.049-.069l-1.67-2.411Zm-.843.89a4.548 4.548 0 0 0-.502 1.024l2.768.969c.06-.17.12-.287.174-.367l-2.44-1.627Zm-.502 1.024c-.102.293-.197.591-.284.896l2.82.806c.072-.252.15-.496.232-.733l-2.768-.97Zm-.34 1.299v5.307h2.932v-5.307h-2.932Zm1.466 3.84h-2.186v2.933h2.186v-2.932Zm-.72 1.467v-9.143h-2.933v9.143h2.933Zm-1.466-7.677h1.709v-2.932h-1.71v2.932Zm.245-1.39.099 1.908 2.928-.152-.099-1.908-2.928.152Zm1.563 3.298h.08V16.12h-.08v2.932Zm1.404-.835c.12-.254.246-.5.378-.74l-2.57-1.412c-.16.29-.311.587-.456.89l2.648 1.261Zm.378-.74c.094-.17.19-.3.284-.401l-2.144-2c-.277.296-.512.629-.71.989l2.57 1.413Zm.316-.436a.609.609 0 0 1 .188-.15l-1.312-2.624c-.418.21-.78.496-1.083.843l2.207 1.931Zm.215-.165c.009-.005.059-.03.192-.03v-2.932c-.53 0-1.063.107-1.558.367l1.366 2.595Zm.192-.03c.186 0 .38.053.616.228l1.749-2.354c-.693-.515-1.492-.806-2.365-.806v2.932Zm.096-1.404-.576 1.77 2.788.908.576-1.77-2.788-.908Zm9.884 9.379-1.455.184.163 1.282h1.292V24.82Zm-.16-1.252 1.456-.185-.163-1.282h-1.292v1.467Zm-.079 0V22.1h-.707l-.44.555 1.147.912Zm-1.47 1.093.584 1.345.007-.003.007-.003-.598-1.34Zm-3.836-.318-1.051 1.022.007.008.007.007 1.037-1.037Zm-.378-3.38-1.287-.701-.004.007-.004.007 1.295.688Zm1.014-1.092.813 1.22.013-.009.012-.008-.838-1.203Zm4.472-.934v1.466h1.466v-1.466H88.6Zm-.497-1.431.857-1.19-.011-.008-.012-.008-.834 1.206Zm-4.234.298-1.421.36.472 1.867 1.674-.953-.725-1.274Zm-.417-1.65-.738-1.267-.955.556.271 1.07 1.422-.359Zm6.24.04.91-1.15-.001-.002-.908 1.152Zm.776.974-1.312.655.01.018.008.017 1.294-.69Zm.318 7.652v1.466h1.466V24.82h-1.466Zm-3.2-1.829.622 1.328.017-.008.017-.008-.656-1.312Zm1.014-.834 1.184.865.282-.387v-.479H88.6Zm0-1.81h1.466v-1.465H88.6v1.466Zm-2.763.418-.71-1.283-.006.004-.008.004.724 1.275Zm4.654 3.87-.159-1.252-2.909.37.16 1.252 2.909-.37Zm-1.613-2.534h-.08v2.933h.08V22.1Zm-1.228.555c-.186.235-.473.466-.92.666L87.925 26c.798-.357 1.492-.854 2.02-1.52l-2.296-1.824Zm-.907.66a3.178 3.178 0 0 1-1.284.276v2.933a6.11 6.11 0 0 0 2.453-.52l-1.169-2.689Zm-1.284.276c-.543 0-.79-.146-.93-.286l-2.074 2.074c.814.814 1.879 1.145 3.004 1.145v-2.933Zm-.916-.272c-.168-.172-.3-.425-.3-.905H81.31c0 1.11.344 2.142 1.13 2.95l2.103-2.045Zm-.3-.905c0-.335.067-.578.166-.763l-2.59-1.376a4.509 4.509 0 0 0-.51 2.139h2.933Zm.158-.749c.119-.217.29-.408.54-.575l-1.627-2.44a4.536 4.536 0 0 0-1.487 1.61l2.574 1.405Zm.565-.592c.272-.19.63-.357 1.102-.48l-.74-2.838c-.748.195-1.436.492-2.039.912l1.677 2.406Zm1.102-.48a6.66 6.66 0 0 1 1.677-.191V17.47c-.856 0-1.666.09-2.417.286l.74 2.838Zm1.677-.191h.855V17.47h-.855v2.933Zm2.32-1.466v-.299h-2.932v.299h2.933Zm0-.299c0-.848-.29-1.736-1.105-2.322l-1.714 2.38a.356.356 0 0 1-.113-.14c-.017-.037 0-.023 0 .082h2.933ZM88.938 16.3c-.712-.493-1.612-.618-2.444-.618v2.932c.29 0 .494.024.63.055.139.03.17.059.145.042l1.67-2.411Zm-2.444-.618c-1.207 0-2.336.271-3.349.847l1.45 2.55c.525-.3 1.144-.465 1.899-.465v-2.932Zm-1.202 1.762-.418-1.65-2.843.72.418 1.65 2.843-.72Zm-1.102-.023c.619-.36 1.425-.576 2.483-.576v-2.932c-1.46 0-2.8.3-3.958.974l1.475 2.534Zm2.483-.576c1.156 0 1.785.242 2.113.5l1.816-2.303c-1.05-.828-2.435-1.13-3.93-1.13v2.933Zm2.11.498c.135.107.263.256.374.48l2.623-1.311a4.3 4.3 0 0 0-1.176-1.468l-1.82 2.3Zm.392.515c.075.14.146.37.146.74h2.932c0-.74-.141-1.466-.49-2.12l-2.588 1.38Zm.146.74v6.222h2.932v-6.221H89.32Zm1.466 4.756h-1.75v2.932h1.75v-2.932Zm-4.472 1.402c.66 0 1.296-.157 1.894-.437l-1.244-2.655c-.25.117-.463.16-.65.16v2.932Zm1.928-.453a4.216 4.216 0 0 0 1.541-1.281l-2.367-1.73a1.29 1.29 0 0 1-.486.388l1.312 2.623Zm1.824-2.146v-1.81h-2.933v1.81h2.933ZM88.6 18.882h-.378v2.932h.378v-2.932Zm-.378 0c-1.15 0-2.255.136-3.094.6l1.418 2.567c.168-.093.653-.235 1.676-.235v-2.932Zm-3.109.608c-.993.564-1.478 1.522-1.478 2.607h2.933c0-.055.005-.084.008-.094.002-.009.001-.002-.007.013a.158.158 0 0 1-.026.035c-.007.007-.004.002.018-.01l-1.448-2.551Zm-1.478 2.607c0 .63.162 1.37.741 1.94.575.565 1.314.719 1.938.719v-2.933c-.086 0-.103-.011-.074-.001a.522.522 0 0 1 .193.124c.08.078.118.158.133.202.012.036.002.028.002-.051h-2.933Z" fill="#21285A"/><path d="M31.266 19.732c0 1.205.278 2.073.834 2.603.557.517 1.332.775 2.326.775s1.769-.258 2.325-.775c.57-.53.855-1.398.855-2.603v-8.03h2.186v8.507c0 .649-.106 1.265-.318 1.848a4.202 4.202 0 0 1-.993 1.55c-.438.438-1.007.789-1.71 1.054-.689.252-1.51.377-2.464.377s-1.77-.125-2.445-.377c-.676-.265-1.232-.616-1.67-1.054a4.227 4.227 0 0 1-.934-1.55 6.06 6.06 0 0 1-.278-1.848v-8.507h2.286v8.03Zm18.61 5.088v-6.042c0-1.087-.431-1.63-1.292-1.63-.212 0-.444.04-.696.12a3.01 3.01 0 0 0-.715.357 3.094 3.094 0 0 0-.637.556 2.054 2.054 0 0 0-.397.775v5.864h-2.186v-9.143h1.709l.1 1.352h.079a2.52 2.52 0 0 1 1.252-1.233 4.238 4.238 0 0 1 1.848-.417c.623 0 1.186.126 1.69.378.517.238.9.655 1.153 1.252a2.535 2.535 0 0 1 1.252-1.213 4.111 4.111 0 0 1 1.828-.417c.424 0 .822.06 1.193.179a2.454 2.454 0 0 1 1.67 1.53c.172.411.258.915.258 1.51v6.222h-2.187v-6.042c0-1.087-.43-1.63-1.291-1.63-.212 0-.444.04-.696.12a3.01 3.01 0 0 0-.716.357 3.093 3.093 0 0 0-.636.556 2.054 2.054 0 0 0-.397.775v5.864h-2.186Zm17.092.238c-.716 0-1.312-.145-1.789-.437a5.943 5.943 0 0 1-1.252-1.053h-.08l-.159 1.252H61.94V10.112h2.167v6.48a2.994 2.994 0 0 1 1.212-.895c.504-.212 1.073-.318 1.71-.318.688 0 1.291.132 1.808.397.517.265.948.617 1.292 1.054.345.437.596.947.755 1.53.173.57.259 1.166.259 1.789 0 .702-.1 1.352-.298 1.948a4.632 4.632 0 0 1-.855 1.55 3.854 3.854 0 0 1-1.312 1.034 3.85 3.85 0 0 1-1.71.377Zm-.278-1.65c.384 0 .715-.092.993-.278.292-.185.53-.424.716-.715.199-.305.344-.65.437-1.034a5.23 5.23 0 0 0 .14-1.192c0-.411-.054-.802-.16-1.173a2.834 2.834 0 0 0-.457-1.013 2.01 2.01 0 0 0-.775-.676c-.305-.173-.663-.259-1.073-.259a2.89 2.89 0 0 0-1.193.279c-.41.172-.815.503-1.212.993v3.817c.145.198.324.377.536.536.212.146.431.272.656.378.239.106.477.192.716.258.238.053.464.08.676.08Zm13.28-5.743c-.132-.106-.337-.192-.615-.259a3.169 3.169 0 0 0-.716-.1c-.265 0-.483.067-.656.2-.172.119-.324.285-.457.497-.132.198-.245.43-.338.695-.093.265-.179.537-.258.815v5.307h-2.186v-9.143h1.709l.1 1.908h.079c.132-.278.271-.55.417-.815.146-.265.311-.497.497-.695.185-.212.397-.378.636-.497a1.85 1.85 0 0 1 .875-.2c.53 0 1.026.173 1.49.518l-.576 1.769Zm9.067 7.155-.16-1.252h-.079c-.357.45-.848.815-1.47 1.093a4.643 4.643 0 0 1-1.869.397c-.835 0-1.49-.238-1.967-.715-.477-.49-.716-1.133-.716-1.928 0-.543.113-1.027.338-1.451a3.071 3.071 0 0 1 1.014-1.093c.437-.305.96-.537 1.57-.696a8.116 8.116 0 0 1 2.047-.238h.855v-.299c0-.516-.166-.894-.497-1.132-.345-.239-.881-.358-1.61-.358-.98 0-1.855.218-2.624.656l-.417-1.65c.888-.517 1.96-.775 3.22-.775 1.325 0 2.332.271 3.02.815.319.252.577.576.776.974.212.397.318.874.318 1.43v6.222h-1.75Zm-2.723-1.53c.424 0 .848-.1 1.272-.299.424-.212.762-.49 1.014-.834v-1.81h-.378c-1.087 0-1.881.14-2.385.418-.49.279-.735.722-.735 1.332 0 .795.404 1.192 1.212 1.192ZM29.158 29.208a33.147 33.147 0 0 1 2.006-.06c.414-.014.809-.02 1.183-.02.388-.014.689-.02.902-.02 1.297 0 2.36.133 3.19.4.842.268 1.537.636 2.085 1.104.709.615 1.224 1.397 1.545 2.346.32.95.481 2 .481 3.149 0 .87-.114 1.705-.34 2.507a4.794 4.794 0 0 1-1.184 2.086c-.562.602-1.344 1.083-2.347 1.444-.99.348-2.26.521-3.81.521-.562 0-1.164-.02-1.806-.06a43.81 43.81 0 0 1-1.905-.16V29.208ZM33.43 40.76c1.618 0 2.795-.388 3.53-1.163.749-.776 1.123-2.04 1.123-3.79 0-.79-.08-1.478-.24-2.067-.148-.601-.408-1.103-.783-1.504-.374-.401-.876-.702-1.504-.902-.628-.201-1.41-.301-2.347-.301h-.762c-.307 0-.635.006-.983.02v9.627a32.951 32.951 0 0 0 1.966.08Zm15.123-7.842c1.177 0 2.086.3 2.728.903.642.588.963 1.424.963 2.507 0 .147-.014.307-.04.481-.014.16-.04.32-.08.481-.028.16-.068.308-.121.442-.04.12-.087.22-.14.3h-5.837c.027.402.1.783.22 1.144.121.347.295.655.522.922.227.254.502.462.822.622.335.147.722.22 1.164.22.495 0 1.016-.093 1.564-.28.562-.187 1.036-.421 1.424-.702l.361 1.645c-.174.106-.388.227-.642.36a7.736 7.736 0 0 1-1.905.602 5.26 5.26 0 0 1-1.143.12c-.749 0-1.41-.127-1.986-.38a4.315 4.315 0 0 1-1.444-1.064 4.743 4.743 0 0 1-.882-1.564c-.2-.588-.301-1.203-.301-1.845 0-.655.1-1.277.3-1.865.215-.602.522-1.13.923-1.585a4.132 4.132 0 0 1 1.484-1.063c.602-.267 1.284-.401 2.046-.401Zm-.06 1.725c-.562 0-1.043.167-1.444.501-.388.321-.669.762-.842 1.324h3.83a.443.443 0 0 0 .02-.14 1.407 1.407 0 0 0-.421-1.263c-.294-.282-.675-.422-1.143-.422Zm8.704-1.424 2.167 3.109 2.065-3.11h2.507l-3.37 4.473 3.571 4.754H61.63l-2.347-3.37-2.286 3.37H54.49l3.55-4.713-3.35-4.513h2.508Z" fill="#fff"/><path d="m29.158 29.208-.112-1.462-1.354.104v1.358h1.466Zm.822-.04-.052-1.466.052 1.465Zm1.184-.02v1.466h.023l.024-.001-.047-1.466Zm1.183-.02v1.466h.025l.026-.001-.051-1.466Zm4.091.38-.45 1.396.007.002.444-1.397Zm2.086 1.104.962-1.108-.01-.008-.952 1.116Zm1.685 8.002-1.41-.4-.003.008-.002.008 1.415.384ZM39.026 40.7l-1.06-1.013-.006.006-.006.007 1.072 1Zm-2.347 1.444.486 1.383.01-.003-.496-1.38Zm-5.616.461.092-1.463-.092 1.463Zm-1.905-.16h-1.466v1.318l1.31.14.156-1.458Zm7.802-2.848-1.055-1.019-.009.01 1.064 1.009Zm.882-5.857-1.424.349.005.018.005.02 1.414-.387Zm-.782-1.504-1.072 1 1.072-1Zm-1.504-.902-.446 1.396.446-1.396Zm-4.091-.281-.057-1.465-1.41.054v1.41h1.466Zm0 9.627h-1.467v1.365l1.362.097.105-1.462Zm1.083.06-.057 1.465.057-1.465ZM29.27 30.67c.142-.011.391-.024.763-.037l-.105-2.93c-.377.013-.677.027-.882.043l.224 2.924Zm.763-.037c.355-.013.732-.02 1.13-.02v-2.932c-.43 0-.841.007-1.235.021l.105 2.93Zm1.178-.02c.4-.013.779-.02 1.136-.02v-2.932c-.392 0-.802.007-1.23.021l.094 2.93Zm1.187-.02c.382-.013.663-.02.851-.02v-2.932c-.239 0-.56.007-.953.021l.102 2.93Zm.851-.02c1.212 0 2.108.127 2.74.33l.9-2.79c-1.027-.331-2.257-.472-3.64-.472v2.933Zm2.746.333c.697.221 1.208.505 1.577.82l1.904-2.23c-.726-.62-1.606-1.071-2.594-1.385l-.887 2.795Zm1.568.813c.499.432.873.989 1.117 1.709l2.778-.94c-.399-1.178-1.054-2.186-1.973-2.984l-1.922 2.215Zm1.117 1.709c.263.777.404 1.666.404 2.679h2.932c0-1.286-.18-2.497-.558-3.618l-2.778.939Zm.404 2.679c0 .74-.097 1.44-.286 2.107l2.822.8c.266-.938.396-1.909.396-2.907h-2.932Zm-.29 2.123a3.328 3.328 0 0 1-.828 1.457l2.12 2.026a6.26 6.26 0 0 0 1.538-2.715l-2.83-.768Zm-.84 1.47c-.363.388-.925.76-1.772 1.064l.994 2.76c1.16-.418 2.161-1.009 2.922-1.824l-2.144-2Zm-1.76 1.06c-.779.274-1.868.44-3.326.44v2.932c1.645 0 3.096-.183 4.297-.605l-.972-2.766Zm-3.326.44c-.527 0-1.098-.02-1.713-.058l-.183 2.927c.668.041 1.3.063 1.896.063v-2.933Zm-1.713-.058c-.621-.039-1.235-.09-1.842-.155l-.31 2.916c.65.069 1.306.124 1.969.166l.183-2.927Zm-.53 1.303V29.208h-2.933v13.237h2.932Zm2.805-.219c1.815 0 3.467-.431 4.594-1.62l-2.128-2.018c-.343.362-1.045.706-2.466.706v2.932Zm4.585-1.61c1.136-1.178 1.534-2.904 1.534-4.81h-2.932c0 1.598-.35 2.398-.712 2.772l2.11 2.037Zm1.534-4.81c0-.883-.089-1.707-.292-2.451l-2.83.771c.119.432.19.986.19 1.68h2.932Zm-.282-2.414c-.2-.814-.568-1.549-1.135-2.156l-2.144 2c.182.195.335.463.43.853l2.849-.697Zm-1.135-2.156c-.577-.619-1.31-1.038-2.13-1.3l-.892 2.794c.438.14.707.323.878.507l2.144-2.001Zm-2.13-1.3c-.82-.26-1.763-.37-2.793-.37V32.5c.843 0 1.463.092 1.901.231l.892-2.793Zm-2.793-.37H32.446V32.5H33.21v-2.933Zm-.762 0a27.1 27.1 0 0 0-1.039.022l.113 2.93c.331-.013.64-.019.926-.019v-2.933Zm-2.449 1.487v9.627h2.933v-9.627h-2.933Zm1.362 11.09c.39.027.766.048 1.131.062l.113-2.93c-.33-.013-.675-.032-1.035-.058l-.209 2.925Zm1.131.062c.36.014.673.021.939.021v-2.932c-.216 0-.49-.006-.826-.02l-.113 2.931Zm18.79-8.384-1.003 1.07.006.005.006.005.99-1.08Zm.922 2.988-1.449-.223-.008.05-.004.051 1.461.122Zm-.08.481-1.422-.355-.014.056-.01.058 1.446.241Zm-.12.442-1.361-.545-.017.04-.013.04 1.39.465Zm-.14.3V39.5h.784l.436-.653-1.22-.814Zm-5.837 0v-1.466H44.46l.104 1.564 1.463-.098Zm.22 1.144-1.39.463.002.008.003.008 1.386-.48Zm.522.922-1.117.95.012.014.012.014 1.093-.978Zm.822.622-.655 1.311.032.017.033.014.59-1.342Zm2.728-.06-.463-1.391-.01.003.473 1.388Zm1.424-.702 1.432-.314-.48-2.186-1.812 1.312.86 1.188Zm.361 1.645.769 1.248.887-.546-.224-1.017-1.432.315Zm-.642.36.628 1.326.028-.014.027-.014-.683-1.297Zm-.862.341.464 1.391-.464-1.39Zm-1.043.261-.258-1.443-.03.005-.03.007.318 1.431Zm-3.129-.26-.618 1.329.013.006.013.006.592-1.342Zm-1.444-1.064-1.115.952.007.008.007.008 1.101-.968Zm-.882-1.564 1.388-.473-1.388.473Zm0-3.71-1.382-.492-.003.01-.003.008 1.388.474Zm.922-1.585 1.1.97-1.1-.97Zm1.484-1.063.582 1.346.007-.003.007-.003-.596-1.34Zm.542 1.825.935 1.13.004-.003-.94-1.127Zm-.842 1.324-1.401-.434-.588 1.9h1.989v-1.466Zm3.83 0v1.466h1.057l.334-1.002-1.39-.464Zm.02-.14-1.422-.356-.044.175v.18h1.466Zm-.42-1.264 1.012-1.06-1.013 1.06Zm-1.084-.68c.933 0 1.436.235 1.725.506l2.006-2.14c-.995-.932-2.31-1.298-3.73-1.298v2.932Zm1.737.517c.268.246.487.647.487 1.427h2.933c0-1.387-.422-2.657-1.438-3.588L50.29 34.9Zm.487 1.427c0 .06-.005.144-.023.258l2.899.446c.036-.234.057-.47.057-.704h-2.933Zm-.035.36c-.006.079-.02.161-.041.247l2.845.711c.059-.235.099-.474.119-.715l-2.923-.244Zm-.065.361a.673.673 0 0 1-.035.138l2.722 1.09c.098-.244.164-.494.206-.746l-2.893-.482Zm-.065.219c-.005.014-.007.017-.003.009a.446.446 0 0 1 .033-.058l2.44 1.627c.145-.217.243-.443.312-.65l-2.782-.928Zm1.25-.702h-5.836V39.5h5.836v-2.933Zm-7.299 1.564c.035.519.13 1.023.293 1.51l2.782-.928a3.094 3.094 0 0 1-.149-.777l-2.926.195Zm.298 1.525c.177.511.44.98.79 1.393l2.234-1.9a1.38 1.38 0 0 1-.253-.452l-2.77.96Zm.814 1.42c.358.4.782.718 1.26.956l1.311-2.623a1.26 1.26 0 0 1-.385-.288l-2.186 1.956Zm1.325.987c.555.244 1.15.345 1.754.345v-2.933c-.28 0-.46-.046-.573-.096L47 42.062Zm1.754.345c.68 0 1.363-.129 2.038-.36l-.948-2.775a3.386 3.386 0 0 1-1.09.202v2.933Zm2.028-.356a6.697 6.697 0 0 0 1.82-.906l-1.72-2.375c-.242.176-.575.348-1.027.499l.927 2.782Zm-.472-1.779.361 1.645 2.864-.629-.36-1.644-2.865.628Zm1.025.082c-.138.084-.32.188-.556.312l1.365 2.595c.273-.143.517-.28.728-.41l-1.537-2.497Zm-.501.284c-.192.091-.423.184-.699.275l.928 2.782c.366-.122.71-.256 1.026-.406l-1.255-2.65Zm-.699.275a5.95 5.95 0 0 1-.837.209l.516 2.887a8.883 8.883 0 0 0 1.249-.314l-.928-2.782Zm-.897.22a3.791 3.791 0 0 1-.825.086v2.933c.499 0 .987-.05 1.461-.156l-.636-2.862Zm-.825.086c-.583 0-1.037-.098-1.393-.256l-1.185 2.683c.793.35 1.663.506 2.578.506v-2.933Zm-1.367-.244a2.853 2.853 0 0 1-.962-.702l-2.202 1.936a5.781 5.781 0 0 0 1.927 1.425l1.237-2.659Zm-.947-.685a3.278 3.278 0 0 1-.61-1.086l-2.776.946a6.212 6.212 0 0 0 1.155 2.043l2.23-1.903Zm-.61-1.086a4.211 4.211 0 0 1-.223-1.372h-2.932c0 .797.125 1.573.379 2.318l2.776-.946Zm-.223-1.372c0-.503.077-.964.223-1.392l-2.776-.947a7.208 7.208 0 0 0-.38 2.339h2.933Zm.216-1.374c.155-.435.37-.799.64-1.106l-2.198-1.94a6.262 6.262 0 0 0-1.205 2.063l2.763.983Zm.64-1.106c.25-.283.565-.513.967-.687l-1.163-2.692a5.6 5.6 0 0 0-2.002 1.44l2.199 1.94Zm.98-.693c.388-.172.862-.275 1.451-.275v-2.932c-.935 0-1.825.164-2.641.527l1.19 2.68Zm1.391-1.482c-.877 0-1.697.27-2.383.84l1.878 2.254c.117-.098.259-.162.505-.162v-2.932Zm-2.379.838c-.642.531-1.064 1.232-1.308 2.02l2.801.867c.104-.336.244-.518.377-.628l-1.87-2.26Zm.093 3.92h3.83v-2.933h-3.83v2.932Zm5.221-1.003c.075-.224.096-.433.096-.604H48.59c0-.065.008-.18.055-.324l2.782.928Zm.052-.249c.052-.21.064-.405.064-.556H48.61v-.009l.003-.026a.829.829 0 0 1 .02-.12l2.846.711Zm.064-.556c0-.805-.295-1.55-.895-2.123l-2.025 2.12c.006.006.005.007.001.001a.105.105 0 0 1-.012-.023c-.004-.008-.004-.013-.004-.011s.002.013.002.036h2.933Zm-.895-2.123c-.609-.581-1.372-.827-2.156-.827v2.932a.4.4 0 0 1 .13.015c.003.001.003.001 0 0-.002-.002-.002-.002 0 0l2.026-2.12Zm6.548-.785 1.203-.838-.437-.628h-.766v1.466Zm2.167 3.109-1.203.838 1.231 1.768 1.193-1.795-1.221-.811Zm2.065-3.11v-1.465h-.786l-.435.654 1.221.812Zm2.507 0 1.172.883 1.769-2.348h-2.94v1.466Zm-3.37 4.473-1.17-.882-.664.881.663.882 1.172-.88Zm3.571 4.754v1.466h2.935l-1.763-2.347-1.172.88Zm-2.507 0-1.203.838.437.628h.766v-1.466Zm-2.347-3.37 1.204-.838-1.22-1.75-1.197 1.765 1.213.823Zm-2.286 3.37v1.466h.777l.436-.643-1.213-.823Zm-2.507 0-1.171-.882-1.77 2.348h2.94v-1.466Zm3.55-4.713 1.171.882.66-.876-.654-.88-1.177.874Zm-3.35-4.513v-1.466h-2.914l1.737 2.34 1.177-.874Zm1.305.838 2.166 3.109 2.406-1.677-2.166-3.108-2.407 1.676Zm4.59 3.082 2.066-3.109-2.443-1.623-2.066 3.11 2.443 1.622Zm.844-2.454h2.507v-2.932H61.43v2.932Zm1.336-2.348-3.37 4.472 2.343 1.765 3.37-4.473-2.343-1.764Zm-3.37 6.235 3.57 4.753 2.344-1.76-3.57-4.754-2.344 1.761Zm4.742 2.407H61.63v2.932h2.507V40.98Zm-1.304.628-2.346-3.37-2.407 1.676 2.347 3.37 2.406-1.676Zm-4.763-3.355-2.286 3.37 2.426 1.646 2.287-3.37-2.427-1.646Zm-1.073 2.727H54.49v2.932h2.507V40.98Zm-1.336 2.348 3.55-4.713-2.342-1.765-3.55 4.714 2.342 1.764Zm3.556-6.47-3.35-4.512-2.354 1.748 3.35 4.512 2.354-1.747Zm-4.527-2.172h2.508v-2.932H54.69v2.932Z" fill="#21285A"/><path d="M29.158 29.208a33.147 33.147 0 0 1 2.006-.06c.414-.014.809-.02 1.183-.02.388-.014.689-.02.902-.02 1.297 0 2.36.133 3.19.4.842.268 1.537.636 2.085 1.104.709.615 1.224 1.397 1.545 2.346.32.95.481 2 .481 3.149 0 .87-.114 1.705-.34 2.507a4.794 4.794 0 0 1-1.184 2.086c-.562.602-1.344 1.083-2.347 1.444-.99.348-2.26.521-3.81.521-.562 0-1.164-.02-1.806-.06a43.81 43.81 0 0 1-1.905-.16V29.208ZM33.43 40.76c1.618 0 2.795-.388 3.53-1.163.749-.776 1.123-2.04 1.123-3.79 0-.79-.08-1.478-.24-2.067-.148-.601-.408-1.103-.783-1.504-.374-.401-.876-.702-1.504-.902-.628-.201-1.41-.301-2.347-.301h-.762c-.307 0-.635.006-.983.02v9.627a32.951 32.951 0 0 0 1.966.08Zm15.123-7.842c1.177 0 2.086.3 2.728.903.642.588.963 1.424.963 2.507 0 .147-.014.307-.04.481-.014.16-.04.32-.08.481-.028.16-.068.308-.121.442-.04.12-.087.22-.14.3h-5.837c.027.402.1.783.22 1.144.121.347.295.655.522.922.227.254.502.462.822.622.335.147.722.22 1.164.22.495 0 1.016-.093 1.564-.28.562-.187 1.036-.421 1.424-.702l.361 1.645c-.174.106-.388.227-.642.36a7.736 7.736 0 0 1-1.905.602 5.26 5.26 0 0 1-1.143.12c-.749 0-1.41-.127-1.986-.38a4.315 4.315 0 0 1-1.444-1.064 4.743 4.743 0 0 1-.882-1.564c-.2-.588-.301-1.203-.301-1.845 0-.655.1-1.277.3-1.865.215-.602.522-1.13.923-1.585a4.132 4.132 0 0 1 1.484-1.063c.602-.267 1.284-.401 2.046-.401Zm-.06 1.725c-.562 0-1.043.167-1.444.501-.388.321-.669.762-.842 1.324h3.83a.443.443 0 0 0 .02-.14 1.407 1.407 0 0 0-.421-1.263c-.294-.282-.675-.422-1.143-.422Zm8.704-1.424 2.167 3.109 2.065-3.11h2.507l-3.37 4.473 3.571 4.754H61.63l-2.347-3.37-2.286 3.37H54.49l3.55-4.713-3.35-4.513h2.508Z" fill="#fff"/></svg>