<svg width="216" height="220" viewBox="0 0 216 220" fill="none" xmlns="http://www.w3.org/2000/svg">
<path d="M109.492 32.6447C112.081 15.732 126.492 1.39495 136.617 2.01968C146.742 2.64441 151.367 34.1444 146.742 44.2697C161.542 52.6695 168.825 79.9361 170.617 92.5194C171.117 97.7194 172.409 111.353 172.992 117.519C174.792 129.019 180.575 140.561 183.242 144.894C186.81 151.961 188.038 159.034 187.867 165.59C197.859 179.801 205.852 185.623 208.617 189.269C206.982 197.948 183.258 201.506 172.992 199.404C168.655 203.182 163.315 206.249 158.117 208.617C151.878 211.459 145.844 213.295 141.992 214.144C131.566 216.877 116.029 218.586 102.742 217.604C89.443 216.62 78.3987 212.941 76.9921 204.894C70.1578 205.151 63.9117 204.096 58.3671 202.04C52.944 202.966 39.3671 202.019 34.1171 202.019C28.8671 202.019 28.9171 202.519 25.6171 202.519C21.3671 202.978 12.1921 201.694 9.49207 192.894C8.75828 190.478 8.67016 186.48 10.4593 181.769C12.8355 175.513 18.5229 168.001 30.4065 161.269C30.5753 155.581 31.9738 149.89 34.7421 144.579C23.9087 136.559 8.74207 119.134 34.7421 113.591C25.9736 104.309 20.2709 95.1039 17.4375 86.3944C9.59077 62.2746 23.7502 41.9588 55.7421 34.3575C58.2421 7.58704 68.7004 7.81108 73.6171 11.2694C80.6171 17.3694 84.4504 27.0691 85.4921 31.1565C92.9553 31.1418 100.964 31.6204 109.492 32.6447Z" fill="#A4BB83"/>
<path d="M46.9921 130.395L48.6171 126.27L47.2421 125.145C42.5392 121.3 38.3772 117.439 34.7421 113.591M46.9921 130.395C80.6004 114.123 120.117 131.894 122.492 163.269M46.9921 130.395C41.4995 134.514 37.4604 139.363 34.7421 144.579M76.9921 204.894C76.1921 194.994 83.2421 187.436 86.8671 184.894M76.9921 204.894C78.3987 212.941 89.443 216.62 102.742 217.604M76.9921 204.894C70.1578 205.151 63.9117 204.096 58.3671 202.04M86.8671 184.894C96.1866 185.79 98.4584 188.373 101.742 193.519M86.8671 184.894C89.1017 182.153 91.5093 179.718 93.9921 177.564C104.731 168.247 116.874 164.183 122.492 163.269M122.492 163.269C134.188 161.668 173.929 164.703 158.117 208.617M102.742 217.604C116.029 218.586 131.566 216.877 141.992 214.144C145.844 213.295 151.878 211.459 158.117 208.617M102.742 217.604C111.042 213.036 108.95 204.144 106.867 200.269M158.117 208.617C163.315 206.249 168.655 203.182 172.992 199.404M17.4375 86.3944C21.9812 70.8944 37.1171 69.4361 44.1171 70.6444C57.3171 73.6444 68.5337 80.0611 72.4921 82.8944C90.1921 97.6944 105.7 99.2277 111.242 98.1444M17.4375 86.3944C9.59077 62.2746 23.7502 41.9588 55.7421 34.3575M17.4375 86.3944C20.2709 95.1039 25.9736 104.309 34.7421 113.591M187.867 165.59C188.038 159.034 186.81 151.961 183.242 144.894C180.575 140.561 174.792 129.019 172.992 117.519C172.409 111.353 171.117 97.7194 170.617 92.5194C168.825 79.9361 161.542 52.6695 146.742 44.2697C151.367 34.1444 146.742 2.64441 136.617 2.01968C126.492 1.39495 112.081 15.732 109.492 32.6447C100.964 31.6204 92.9553 31.1418 85.4921 31.1565M187.867 165.59C187.541 178.144 182.086 188.803 178.117 193.894C176.679 195.874 174.936 197.71 172.992 199.404M187.867 165.59C197.859 179.801 205.852 185.623 208.617 189.269C206.982 197.948 183.258 201.506 172.992 199.404M55.7421 34.3575C58.2421 7.58704 68.7004 7.81108 73.6171 11.2694C80.6171 17.3694 84.4504 27.0691 85.4921 31.1565M55.7421 34.3575C64.3847 32.304 74.3288 31.1785 85.4921 31.1565M34.7421 113.591C8.74207 119.134 23.9087 136.559 34.7421 144.579M34.7421 144.579C31.9738 149.89 30.5753 155.582 30.4065 161.269M30.4065 161.269C29.8994 178.354 40.4856 195.407 58.3671 202.04M30.4065 161.269C18.5229 168.001 12.8355 175.513 10.4593 181.769M25.6171 202.519C21.3671 202.978 12.1921 201.694 9.49207 192.894C8.75828 190.478 8.67016 186.48 10.4593 181.769M25.6171 202.519C28.9171 202.519 28.8671 202.019 34.1171 202.019C39.3671 202.019 52.944 202.966 58.3671 202.04M25.6171 202.519C30.5171 198.919 31.3254 194.769 31.1171 193.144M10.4593 181.769C17.9855 176.969 25.1171 180.686 27.7421 183.144M132.242 153.394L122.492 144.144C119.192 131.144 129.45 118.478 134.992 113.769C141.492 108.369 150.7 115.936 154.492 120.394C162.192 130.794 164.534 136.728 164.742 138.394C165.642 141.094 162.617 147.769 160.992 150.769" stroke="black" stroke-width="2.5"/>
<path d="M48.6171 126.27L47.2421 125.145C42.5392 121.3 38.3772 117.439 34.7421 113.591C25.9736 104.309 20.2709 95.1038 17.4375 86.3943C21.9812 70.8943 37.1171 69.436 44.1171 70.6443C57.3171 73.6443 68.5338 80.061 72.4921 82.8943C90.1921 97.6943 105.7 99.2277 111.242 98.1443C107.284 105.561 94.8921 121.185 76.9921 124.346C67.2075 123.779 56.8459 125.624 46.9921 130.395C41.4995 134.514 37.4604 139.363 34.7421 144.579C28.4153 139.895 20.6107 132.004 20.3909 125.145C29.7718 129.345 43.1171 127.645 48.6171 126.27Z" fill="#7A8A59"/>
<path d="M141.992 214.144C131.566 216.877 116.029 218.586 102.742 217.604C108.536 214.415 109.266 209.12 108.47 204.894C132.888 207.872 154.127 198.135 161.695 192.894C172.833 186.494 180.7 158.228 183.242 144.894C186.81 151.961 188.038 159.034 187.867 165.59C197.859 179.801 205.852 185.623 208.617 189.269C206.982 197.947 183.258 201.506 172.992 199.403C168.655 203.181 163.315 206.249 158.117 208.617C151.878 211.459 145.844 213.295 141.992 214.144Z" fill="#7A8A59"/>
<path d="M73.6171 11.2693C68.7004 7.811 58.2421 7.58696 55.7421 34.3575C64.3847 32.304 74.3288 31.1784 85.4921 31.1564C84.4504 27.0691 80.6171 17.3693 73.6171 11.2693Z" fill="#7A8A59"/>
<path d="M34.1171 202.019C28.8671 202.019 28.9171 202.519 25.6171 202.519C35.2504 189.928 40.6691 182.185 39.9921 188.954C44.6457 194.639 50.8642 199.257 58.3671 202.04C52.944 202.966 39.3671 202.019 34.1171 202.019Z" fill="#7A8A59"/>
<path d="M122.492 144.144L132.242 153.394C145.542 146.594 144.284 123.016 141.992 112.077C139.558 111.62 137.129 111.994 134.992 113.769C129.45 118.478 119.192 131.144 122.492 144.144Z" fill="#7A8A59"/>
<path d="M46.9921 130.395L48.6171 126.27L47.2421 125.145C42.5392 121.3 38.3772 117.439 34.7421 113.591M46.9921 130.395C80.6004 114.123 120.117 131.894 122.492 163.269M46.9921 130.395C41.4995 134.514 37.4604 139.363 34.7421 144.579M76.9921 204.894C76.1921 194.994 83.2421 187.436 86.8671 184.894M76.9921 204.894C78.3987 212.941 89.443 216.62 102.742 217.604M76.9921 204.894C70.1578 205.151 63.9117 204.096 58.3671 202.04M86.8671 184.894C96.1866 185.79 98.4584 188.373 101.742 193.519M86.8671 184.894C89.1017 182.153 91.5093 179.718 93.9921 177.564C104.731 168.247 116.874 164.183 122.492 163.269M122.492 163.269C134.188 161.668 173.929 164.703 158.117 208.617M102.742 217.604C116.029 218.586 131.566 216.877 141.992 214.144C145.844 213.295 151.878 211.459 158.117 208.617M102.742 217.604C111.042 213.036 108.95 204.144 106.867 200.269M158.117 208.617C163.315 206.249 168.655 203.182 172.992 199.404M17.4375 86.3944C21.9812 70.8944 37.1171 69.4361 44.1171 70.6444C57.3171 73.6444 68.5337 80.0611 72.4921 82.8944C90.1921 97.6944 105.7 99.2277 111.242 98.1444M17.4375 86.3944C9.59077 62.2746 23.7502 41.9588 55.7421 34.3575M17.4375 86.3944C20.2709 95.1039 25.9736 104.309 34.7421 113.591M187.867 165.59C188.038 159.034 186.81 151.961 183.242 144.894C180.575 140.561 174.792 129.019 172.992 117.519C172.409 111.353 171.117 97.7194 170.617 92.5194C168.825 79.9361 161.542 52.6695 146.742 44.2697C151.367 34.1444 146.742 2.64441 136.617 2.01968C126.492 1.39495 112.081 15.732 109.492 32.6447C100.964 31.6204 92.9553 31.1418 85.4921 31.1565M187.867 165.59C187.541 178.144 182.086 188.803 178.117 193.894C176.679 195.874 174.936 197.71 172.992 199.404M187.867 165.59C197.859 179.801 205.852 185.623 208.617 189.269C206.982 197.948 183.258 201.506 172.992 199.404M55.7421 34.3575C58.2421 7.58704 68.7004 7.81108 73.6171 11.2694C80.6171 17.3694 84.4504 27.0691 85.4921 31.1565M55.7421 34.3575C64.3847 32.304 74.3288 31.1785 85.4921 31.1565M34.7421 113.591C8.74207 119.134 23.9087 136.559 34.7421 144.579M34.7421 144.579C31.9738 149.89 30.5753 155.582 30.4065 161.269M30.4065 161.269C29.8994 178.354 40.4856 195.407 58.3671 202.04M30.4065 161.269C18.5229 168.001 12.8355 175.513 10.4593 181.769M25.6171 202.519C21.3671 202.978 12.1921 201.694 9.49207 192.894C8.75828 190.478 8.67016 186.48 10.4593 181.769M25.6171 202.519C28.9171 202.519 28.8671 202.019 34.1171 202.019C39.3671 202.019 52.944 202.966 58.3671 202.04M25.6171 202.519C30.5171 198.919 31.3254 194.769 31.1171 193.144M10.4593 181.769C17.9855 176.969 25.1171 180.686 27.7421 183.144M132.242 153.394L122.492 144.144C119.192 131.144 129.45 118.478 134.992 113.769C141.492 108.369 150.7 115.936 154.492 120.394C162.192 130.794 164.534 136.728 164.742 138.394C165.642 141.094 162.617 147.769 160.992 150.769" stroke="black" stroke-width="2.5"/>
<path d="M86.8671 184.894C83.2421 187.436 76.1921 194.994 76.9921 204.894C70.1578 205.151 63.9117 204.096 58.3671 202.039C40.4856 195.407 29.8994 178.353 30.4065 161.269C30.5753 155.581 31.9738 149.89 34.7421 144.579C37.4604 139.363 41.4995 134.514 46.9921 130.395C80.6004 114.122 120.117 131.894 122.492 163.269C116.874 164.183 104.731 168.247 93.9921 177.564C91.5093 179.718 89.1017 182.153 86.8671 184.894Z" fill="#E7E6E1" stroke="black" stroke-width="2.5"/>
<path d="M86.8671 184.895C83.2421 187.436 76.1921 194.995 76.9921 204.895C70.1578 205.152 63.9117 204.097 58.3671 202.04C40.4856 195.407 29.8994 178.354 30.4065 161.27C30.491 158.421 30.884 155.572 31.6029 152.77C53.0142 185.67 99.8968 167.395 120.662 154.145C121.625 157.031 122.251 160.08 122.492 163.27C116.874 164.183 104.731 168.247 93.9921 177.564C91.5093 179.718 89.1017 182.153 86.8671 184.895Z" fill="#D5CCC3"/>
<path d="M86.8671 184.894C83.2421 187.436 76.1921 194.994 76.9921 204.894C70.1578 205.151 63.9117 204.096 58.3671 202.039C40.4856 195.407 29.8994 178.353 30.4065 161.269C30.5753 155.581 31.9738 149.89 34.7421 144.579C37.4604 139.363 41.4995 134.514 46.9921 130.395C80.6004 114.122 120.117 131.894 122.492 163.269C116.874 164.183 104.731 168.247 93.9921 177.564C91.5093 179.718 89.1017 182.153 86.8671 184.894Z" stroke="black" stroke-width="2.5"/>
<circle cx="125.367" cy="97.5195" r="11.625" transform="rotate(-45 125.367 97.5195)" fill="#E7E6E1" stroke="black" stroke-width="1.75"/>
<circle cx="125.367" cy="97.5195" r="11.625" transform="rotate(-45 125.367 97.5195)" stroke="black" stroke-width="1.75"/>
<path d="M117.492 50.7694C113.117 49.2694 100.392 50.0694 84.4921 65.2694C104.856 51.5974 114.611 49.1154 127.492 58.7694C126.075 56.6444 122.092 52.0694 117.492 50.7694Z" fill="#292D1F" stroke="black" stroke-width="1.25"/>
</svg>
