<svg width="36" height="50" viewBox="0 0 36 50" fill="none" xmlns="http://www.w3.org/2000/svg">
<path d="M17.9715 50C14.929 45.2862 12.701 43.0485 12.2749 36.3046C17.1351 38.7739 19.5866 38.3783 23.7271 36.157C22.7637 41.7249 21.8236 44.7963 17.9715 50Z" fill="black" stroke="black" stroke-width="0.0590319"/>
<path d="M1 14.6399L3.68595 15.5254C4.04043 16.7516 4.35568 17.3952 5.01417 18.5065L11.1535 17.3849V19.4805C7.03711 23.3932 5.56863 29.5083 10.8583 35.1535C10.878 38.7292 11.6196 40.7765 13.3377 44.451L13.3054 44.4255C5.73734 38.4291 1.48426 35.0592 1.05903 27.3613L1.1771 19.6871L1 14.6399Z" fill="black" stroke="black" stroke-width="0.0590319"/>
<path fill-rule="evenodd" clip-rule="evenodd" d="M12.1568 18.6836C16.8025 16.4186 19.3792 16.4524 23.8156 18.8017L23.8451 16.3223C26.3225 16.5116 27.7608 16.7788 30.3681 17.3849L31.3126 15.3188C27.9699 14.0393 25.935 13.5381 21.897 13.1936C21.5546 12.8066 21.3578 12.5918 20.982 12.2196L20.864 9.65172C21.864 9.07164 22.3975 8.72903 23.2548 8.05785C22.4765 7.53162 21.9973 7.28108 21.1296 6.8477L21.1401 6.84239C21.5289 6.64537 21.7502 6.53326 22.0446 6.31641C21.5957 5.9956 21.334 5.85069 20.864 5.60803C20.8259 5.29296 20.797 5.11783 20.7164 4.8111C20.1354 4.29015 19.7773 4.01176 19.0045 3.57143V2.95159C18.6548 1.58142 18.2197 0.950711 17.145 0L17.0859 3.01063C16.7923 2.45252 16.627 2.14015 16.1709 1.65289V3.65998H15.433L13.1898 5.25384H9.05759V5.72609L9.26421 6.25738C9.63466 5.96715 9.8382 5.83674 10.1792 5.78513C10.0383 6.14742 9.87341 6.37092 9.50033 6.78867C9.75049 7.05502 9.94497 7.18159 10.3563 7.37899C10.4715 7.88838 10.6098 8.13549 10.8876 8.55962C11.0409 7.86047 11.1444 7.55117 11.3894 7.29044H11.655C11.6594 7.6305 11.706 7.8242 11.8616 8.17592C11.9821 7.80663 12.0754 7.61779 12.3043 7.31996H13.7801L14.8722 8.64817V8.79575L13.6621 10.3896H12.2158C12.0098 10.0999 11.8946 9.93749 11.7731 9.6222L11.4779 10.3011C11.1313 9.95616 10.9752 9.746 10.799 9.32704C10.628 9.71735 10.5774 9.94694 10.5039 10.3601H9.58888C9.64794 10.8848 9.80378 11.1475 10.2677 11.5703L15.0198 11.5407V12.4557C14.6521 12.7323 14.4447 12.9212 14.0753 13.2822C10.211 13.4074 8.19514 13.9647 4.71875 15.3483L5.72229 17.5915C8.25536 16.7858 9.65276 16.4985 12.1568 16.2633V18.6836ZM14.9313 6.46399C14.4071 6.23884 14.1876 6.08366 13.9277 5.75561C14.9577 5.28198 15.5506 5.18082 16.6432 5.07674C16.2203 5.6151 15.9183 5.91812 15.0788 6.46399H14.9313ZM17.7943 3.42385C17.8097 2.37534 17.8551 1.78395 17.2335 0.796931C17.3009 1.55606 17.3449 3.1068 17.263 3.12869C17.2402 3.13479 17.6074 3.32546 17.7943 3.42385Z" fill="black"/>
<path d="M21.1296 6.8477C21.9973 7.28108 22.4765 7.53162 23.2548 8.05785C22.3975 8.72903 21.864 9.07164 20.864 9.65172L20.982 12.2196C21.3578 12.5918 21.5546 12.8066 21.897 13.1936C25.935 13.5381 27.9699 14.0393 31.3126 15.3188L30.3681 17.3849C27.7608 16.7788 26.3225 16.5116 23.8451 16.3223L23.8156 18.8017C19.3792 16.4524 16.8025 16.4186 12.1568 18.6836V16.2633C9.65276 16.4985 8.25536 16.7858 5.72229 17.5915L4.71875 15.3483C8.19514 13.9647 10.211 13.4074 14.0753 13.2822C14.4447 12.9212 14.6521 12.7323 15.0198 12.4557V11.5407L10.2677 11.5703C9.80378 11.1475 9.64794 10.8848 9.58888 10.3601H10.5039C10.5774 9.94694 10.628 9.71735 10.799 9.32704C10.9752 9.746 11.1313 9.95616 11.4779 10.3011L11.7731 9.6222C11.8946 9.93749 12.0098 10.0999 12.2158 10.3896H13.6621L14.8722 8.79575V8.64817L13.7801 7.31996H12.3043C12.0754 7.61779 11.9821 7.80663 11.8616 8.17592C11.706 7.8242 11.6594 7.6305 11.655 7.29044H11.3894C11.1444 7.55117 11.0409 7.86047 10.8876 8.55962C10.6098 8.13549 10.4715 7.88838 10.3563 7.37899C9.94497 7.18159 9.75049 7.05502 9.50033 6.78867C9.87341 6.37092 10.0383 6.14742 10.1792 5.78513C9.8382 5.83674 9.63466 5.96715 9.26421 6.25738L9.05759 5.72609V5.25384H13.1898L15.433 3.65998H16.1709V1.65289C16.627 2.14015 16.7923 2.45252 17.0859 3.01063L17.145 0C18.2197 0.950711 18.6548 1.58142 19.0045 2.95159V3.57143C19.7773 4.01176 20.1354 4.29015 20.7164 4.8111C20.797 5.11783 20.8259 5.29296 20.864 5.60803C21.334 5.85069 21.5957 5.9956 22.0446 6.31641C21.7502 6.53326 21.5289 6.64537 21.1401 6.84239M21.1296 6.8477L21.1401 6.84239M21.1296 6.8477C21.1331 6.84592 21.1366 6.84415 21.1401 6.84239M13.9277 5.75561C14.1876 6.08366 14.4071 6.23884 14.9313 6.46399H15.0788C15.9183 5.91812 16.2203 5.6151 16.6432 5.07674C15.5506 5.18082 14.9577 5.28198 13.9277 5.75561ZM17.2335 0.796931C17.8551 1.78395 17.8097 2.37534 17.7943 3.42385C17.6074 3.32546 17.2402 3.13479 17.263 3.12869C17.3449 3.1068 17.3009 1.55606 17.2335 0.796931Z" stroke="black" stroke-width="0.0590319"/>
<path d="M31.1061 18.2999L24.8192 17.2963L24.7896 19.6871C29.4318 25.3216 29.5722 28.6482 25.1143 34.7993C24.8461 38.5733 24.5513 40.6929 22.6055 44.51C30.3652 38.7154 34.2167 34.7116 34.8251 27.745L34.9727 14.6399L32.3457 15.4073C32.0762 16.6017 31.7922 17.2312 31.1061 18.2999Z" fill="black" stroke="black" stroke-width="0.0590319"/>
<path d="M17.7958 36.6588C13.2278 36.6557 9.44289 33.3147 8.7627 28.9501L13.4088 28.9415C14.0023 30.7926 15.7419 32.1326 17.7958 32.1337C19.8465 32.1313 21.5836 30.7935 22.1794 28.9457L26.8239 28.9415C26.1486 33.3088 22.3645 36.6531 17.7958 36.6588ZM8.76775 26.1352C9.44311 21.768 13.2272 18.4237 17.7958 18.418C22.3639 18.421 26.1488 21.762 26.829 26.1267L22.1829 26.1352C21.5893 24.2842 19.8498 22.9442 17.7958 22.9431C15.7452 22.9455 14.0081 24.2833 13.4123 26.1311L8.76775 26.1352Z" fill="black"/>
<path d="M21.2331 27.545C21.2211 29.404 19.7043 30.9013 17.8453 30.8892C15.9863 30.8772 14.4891 29.3604 14.5011 27.5014C14.5132 25.6424 16.03 24.1451 17.889 24.1572C19.748 24.1693 21.2452 25.686 21.2331 27.545ZM16.4191 27.5138C16.4139 28.3135 17.058 28.9661 17.8577 28.9712C18.6575 28.9764 19.31 28.3323 19.3152 27.5326C19.3203 26.7329 18.6762 26.0804 17.8765 26.0752C17.0768 26.07 16.4243 26.7141 16.4191 27.5138Z" fill="black"/>
</svg>
