<svg width="50" height="50" xmlns="http://www.w3.org/2000/svg"><path class="pikachuBody" d="M6.86496 8.74053C6.56113 8.24356 5.97937 7.09181 6.00056 7.03528C6.01941 6.98818 6.10184 6.98818 6.29969 7.03528C6.61059 7.10594 7.13818 7.31792 8.27815 7.82902C8.54665 7.94915 8.9235 8.17054 9.64423 8.62983C10.4521 9.14328 10.5699 9.22572 11.081 9.63319C11.7145 10.1349 11.9854 10.3728 12.4117 10.7991C12.831 11.2207 13.5352 11.9909 13.6459 12.1463C13.6765 12.1911 13.7095 12.2264 13.7189 12.2264C13.726 12.2264 13.8767 12.1722 14.051 12.1063C14.9413 11.7695 15.589 11.6093 16.4746 11.5033C16.9009 11.4538 17.909 11.4468 18.3353 11.4915C19.2138 11.5857 20.0146 11.7954 20.8696 12.1581C21.0816 12.2476 21.2771 12.3206 21.303 12.3206C21.3289 12.3206 21.4325 12.2617 21.5315 12.1887C22.3747 11.5645 23.8774 10.7661 24.9891 10.3492C25.5991 10.1231 26.8074 9.7957 27.6152 9.63789C28.0203 9.56017 28.3501 9.52956 29.158 9.49423C29.4571 9.4801 29.8316 9.46125 29.9941 9.44712C30.1566 9.43534 30.3969 9.42356 30.5311 9.42356C30.8608 9.42356 30.8656 9.44476 30.6088 9.76508C30.3921 10.0383 29.3676 11.0464 29.0637 11.289C28.4796 11.7506 27.5846 12.3441 26.9204 12.7045C26.5224 12.9212 25.5543 13.3475 25.1304 13.4912C24.3932 13.7408 23.4346 14.0141 23.159 14.0541C23.0954 14.0612 23.0459 14.0777 23.0459 14.0894C23.0459 14.1012 23.1354 14.3415 23.2438 14.6241C23.6819 15.7523 23.6984 15.8371 23.9292 17.9851C24.087 19.4619 24.4732 21.8478 24.7488 23.0726C24.9137 23.791 25.1963 24.9922 25.2953 25.3808L25.4515 25.6988C24.7729 26.1976 24.1482 26.7696 23.5894 27.406V24.7385H20.6788V32.1577H24.5342L24.4002 32.2606C24.1623 32.5032 23.915 32.6846 23.6136 32.8353C23.4911 32.8966 23.3804 32.9931 23.013 33.3629C22.5584 33.8199 22.3299 34.0083 21.8706 34.3074C21.4797 34.5618 21.2159 34.6725 21.1735 34.6018C21.1664 34.59 21.124 34.5783 21.0816 34.5783C20.9945 34.5783 20.7424 34.4605 20.6788 34.3898C20.62 34.3262 20.627 34.1331 20.6906 33.947C20.7189 33.8646 20.799 33.6691 20.8696 33.5113L20.9945 33.224L20.7636 33.1957C20.5399 33.1674 20.3632 33.1321 18.9948 32.8495C18.3683 32.7223 17.8831 32.6469 17.6805 32.6469C17.6193 32.6469 17.3955 32.6728 17.1812 32.7058C16.9151 32.7458 16.5947 32.7717 16.1684 32.7882C15.8246 32.8024 15.3417 32.8212 15.0944 32.833C14.5927 32.8518 14.6281 32.84 14.3548 33.0709C14.1853 33.2169 13.7401 33.5443 13.4598 33.7304C13.2267 33.8882 12.7297 34.1543 12.6732 34.1543C12.6567 34.1543 12.6096 34.1378 12.5742 34.119C12.5365 34.1001 12.4753 34.0837 12.44 34.0837C12.3858 34.0837 12.367 34.0695 12.3458 34.013C12.3316 33.9753 12.3104 33.9423 12.3034 33.9423C12.2516 33.9423 12.2115 33.8599 12.2115 33.7563C12.2115 33.4901 12.4824 32.9672 12.8686 32.4844L12.9888 32.3337L12.8898 32.2489C12.4965 31.9215 12.1621 31.5046 11.9548 31.0901C11.797 30.7768 11.7546 30.579 11.7687 30.2139C11.7876 29.7546 11.8959 29.4131 12.2657 28.6735C12.4706 28.2637 12.5789 28.0117 12.6025 27.8915C12.6143 27.8303 12.586 27.7714 12.3999 27.4841C12.0419 26.9259 11.731 26.2523 11.5803 25.6988C11.5214 25.4844 11.5191 25.4491 11.5191 24.8862C11.5214 24.229 11.5567 23.8663 11.6698 23.4259C11.8158 22.8418 12.0042 22.4461 12.5036 21.6641C12.5248 21.6288 12.5059 21.6029 12.3717 21.4757C12.1691 21.2896 11.7122 20.7785 11.5143 20.5171C11.3518 20.3051 10.9679 19.5702 10.8713 19.2923C10.7983 19.078 10.7818 18.8213 10.8313 18.6446C10.8549 18.5669 10.9444 18.3431 11.0339 18.15C11.3047 17.5541 11.4084 17.1749 11.4837 16.513C11.6274 15.2412 11.804 14.4828 12.0867 13.9151C12.1314 13.8256 12.1644 13.7456 12.1597 13.7338C12.155 13.722 11.9736 13.6066 11.7522 13.4723C10.9467 12.9871 10.3861 12.5891 9.73844 12.0403C9.08131 11.4821 8.76099 11.1547 8.0591 10.3351C7.3266 9.47538 7.25123 9.37646 6.86496 8.74053Z" fill="#fff"/><path class="pikachuTail" d="M28.6822 23.3128C28.6516 23.3199 28.628 23.3387 28.628 23.3576L28.8117 23.9836C28.3756 24.1233 27.9471 24.2888 27.5285 24.4796C27.4976 24.4937 27.4668 24.5079 27.436 24.5223L26.772 23.0726C26.6095 22.6816 26.586 22.5968 26.6284 22.5544C26.6472 22.5356 26.8003 22.4696 26.9675 22.4037C27.1366 22.3403 27.5165 22.1925 27.8129 22.0773L27.8154 22.0763C28.1146 21.9609 28.4584 21.8313 28.5809 21.7889C28.7034 21.7465 28.807 21.7089 28.8117 21.7065C28.8164 21.7018 28.7976 21.657 28.7717 21.6076C28.7222 21.5063 26.2256 17.7449 25.9335 17.3256C25.8252 17.1702 25.7545 17.0501 25.7592 17.0218C25.764 16.9959 25.8158 16.937 25.877 16.8899C25.9383 16.8451 27.236 16.0019 28.7599 15.0174C31.1034 13.5053 31.6546 13.1591 32.3235 12.7846C33.2703 12.2523 33.454 12.1557 33.5577 12.1392L33.6354 12.1275L33.8073 12.4784C34.3114 13.4935 35.4396 15.797 35.5927 16.1244C35.9036 16.7863 36.1414 17.3916 36.1414 17.5141C36.1414 17.5565 35.8988 17.6789 35.5879 17.7967C35.2464 17.9239 31.9914 19.012 31.4662 19.1722C31.2212 19.2499 30.8114 19.3653 30.5594 19.4336C30.3073 19.4996 30.0671 19.5655 30.0247 19.5773L29.9517 19.6009L30.0082 19.7822C30.0388 19.8811 30.1872 20.3663 30.338 20.8586C30.4864 21.3508 30.6512 21.8761 30.703 22.0245C30.7525 22.1729 30.8043 22.3471 30.8161 22.4107L30.8373 22.5238L30.6913 22.5897C30.6135 22.6251 30.3356 22.7287 30.0765 22.8206C29.8174 22.9124 29.41 23.0585 29.1697 23.1432C28.9295 23.2304 28.7104 23.3058 28.6822 23.3128Z" fill="#fff"/><path class="switchTopArrow" d="M32.2981 36.972V39.2362H35.0822C34.4495 39.9501 33.6721 40.5212 32.8017 40.9115C31.9313 41.3019 30.9879 41.5027 30.0339 41.5004C28.233 41.4984 26.5064 40.7821 25.233 39.5087C23.9595 38.2353 23.2433 36.5087 23.2413 34.7078H20.9771C20.9734 36.5494 21.5324 38.3481 22.5791 39.8633C23.6258 41.3785 25.1104 42.5378 26.8342 43.1861C28.5579 43.8343 30.4385 43.9406 32.2243 43.4906C34.0101 43.0407 35.6158 42.056 36.8266 40.6684V43.7646H39.0908V36.972H32.2981Z" fill="#fff"/><path class="switchBottomArrow" d="M30.0339 25.0654C28.7472 25.0721 27.4764 25.3514 26.3056 25.8851C25.1347 26.4188 24.0903 27.1947 23.2413 28.1616V25.0654H20.9771V31.8581H27.7697V29.5939H24.9856C25.6184 28.88 26.3957 28.3089 27.2661 27.9185C28.1365 27.5281 29.08 27.3274 30.0339 27.3296C31.8348 27.3316 33.5614 28.0479 34.8349 29.3213C36.1083 30.5948 36.8246 32.3214 36.8266 34.1223H39.0908C39.088 31.7211 38.1329 29.4191 36.435 27.7212C34.7371 26.0233 32.4351 25.0682 30.0339 25.0654Z" fill="#fff"/></svg>