<svg width="50" height="50" viewBox="0 0 50 50" fill="none" xmlns="http://www.w3.org/2000/svg">
<g clip-path="url(#clip0)">
<path d="M3.12376 3.26131C2.72902 2.61564 1.97319 1.11929 2.00073 1.04585C2.02521 0.984653 2.13231 0.984653 2.38936 1.04585C2.79328 1.13765 3.47872 1.41306 4.95977 2.07708C5.30861 2.23314 5.79822 2.52078 6.73458 3.11748C7.78417 3.78456 7.93717 3.89167 8.6012 4.42105C9.42434 5.07283 9.77624 5.3819 10.3301 5.93577C10.8748 6.48351 11.7897 7.48413 11.9336 7.6861C11.9733 7.74424 12.0162 7.79013 12.0284 7.79013C12.0376 7.79013 12.2334 7.71976 12.4599 7.63408C13.6166 7.1965 14.4581 6.98841 15.6086 6.85071C16.1625 6.78645 17.4722 6.77726 18.0261 6.83541C19.1674 6.95781 20.2079 7.23016 21.3186 7.7014C21.594 7.81768 21.848 7.91253 21.8817 7.91253C21.9153 7.91253 22.05 7.83603 22.1785 7.74117C23.274 6.93027 25.2263 5.89292 26.6706 5.3513C27.4632 5.05754 29.033 4.63219 30.0825 4.42717C30.6089 4.32619 31.0373 4.28642 32.0869 4.24051C32.4755 4.22215 32.962 4.19767 33.1732 4.17931C33.3843 4.16401 33.6964 4.14871 33.8708 4.14871C34.2993 4.14871 34.3054 4.17625 33.9718 4.59241C33.6903 4.94737 32.3592 6.25707 31.9645 6.57225C31.2056 7.17202 30.0428 7.94313 29.1798 8.41131C28.6627 8.69283 27.405 9.24671 26.8542 9.43337C25.8964 9.75773 24.651 10.1127 24.293 10.1647C24.2104 10.1739 24.1461 10.1953 24.1461 10.2106C24.1461 10.2259 24.2624 10.538 24.4031 10.9052C24.9723 12.371 24.9937 12.4812 25.2936 15.2719C25.4986 17.1905 26.0005 20.2903 26.3585 21.8815C26.5727 22.8148 26.9399 24.3755 27.0684 24.8804L27.2714 25.2935C26.3898 25.9415 25.5782 26.6847 24.8522 27.5115V24.0459H21.0708V33.6849H26.0796L25.9056 33.8187C25.5966 34.1339 25.2752 34.3695 24.8836 34.5653C24.7244 34.6449 24.5806 34.7703 24.1033 35.2508C23.5127 35.8444 23.2159 36.0892 22.6192 36.4778C22.1112 36.8083 21.7685 36.9521 21.7134 36.8603C21.7042 36.845 21.6491 36.8297 21.594 36.8297C21.4808 36.8297 21.1534 36.6767 21.0708 36.5849C20.9943 36.5023 21.0035 36.2514 21.0861 36.0097C21.1228 35.9026 21.2268 35.6486 21.3186 35.4435L21.4808 35.0702L21.1809 35.0335C20.8902 34.9968 20.6607 34.9509 18.8829 34.5837C18.0689 34.4184 17.4385 34.3205 17.1754 34.3205C17.0958 34.3205 16.8051 34.3542 16.5267 34.397C16.1809 34.449 15.7647 34.4827 15.2108 34.5041C14.7641 34.5225 14.1368 34.547 13.8155 34.5623C13.1637 34.5867 13.2096 34.5714 12.8546 34.8713C12.6343 35.061 12.056 35.4864 11.6918 35.7281C11.3889 35.9332 10.7432 36.2789 10.6698 36.2789C10.6484 36.2789 10.5872 36.2575 10.5413 36.233C10.4923 36.2086 10.4127 36.1871 10.3668 36.1871C10.2964 36.1871 10.272 36.1688 10.2444 36.0953C10.2261 36.0464 10.1985 36.0035 10.1893 36.0035C10.122 36.0035 10.07 35.8964 10.07 35.7618C10.07 35.416 10.4219 34.7367 10.9238 34.1094L11.0798 33.9135L10.9513 33.8034C10.4403 33.378 10.0057 32.8364 9.73646 32.2978C9.53144 31.8909 9.47636 31.6338 9.49472 31.1595C9.5192 30.5628 9.65996 30.1191 10.1404 29.1583C10.4066 28.6258 10.5474 28.2984 10.578 28.1423C10.5933 28.0628 10.5566 27.9863 10.3148 27.613C9.84969 26.8877 9.44576 26.0126 9.24992 25.2935C9.17342 25.015 9.17036 24.9691 9.17036 24.2378C9.17342 23.384 9.21932 22.9128 9.3662 22.3405C9.55592 21.5817 9.80073 21.0676 10.4494 20.0516C10.477 20.0057 10.4525 19.9721 10.2781 19.8068C10.0149 19.5651 9.42128 18.9011 9.16424 18.5614C8.9531 18.286 8.45432 17.3313 8.32886 16.9702C8.23399 16.6917 8.21257 16.3582 8.27683 16.1287C8.30744 16.0277 8.42372 15.737 8.54 15.4861C8.8919 14.7119 9.02654 14.2192 9.12446 13.3594C9.31112 11.707 9.54062 10.7216 9.90783 9.98416C9.96597 9.86788 10.0088 9.76385 10.0027 9.74855C9.99657 9.73325 9.76094 9.58331 9.4733 9.40889C8.42678 8.77852 7.69849 8.26137 6.85699 7.54839C6.00324 6.82316 5.58708 6.39782 4.67519 5.33294C3.72352 4.21603 3.6256 4.08751 3.12376 3.26131Z" fill="black"/>
<path d="M31.4687 22.1937C31.429 22.2028 31.3984 22.2273 31.3984 22.2518L31.637 23.0651C31.0704 23.2466 30.5137 23.4616 29.9699 23.7095C29.9297 23.7278 29.8897 23.7463 29.8497 23.765L28.9871 21.8815C28.7759 21.3736 28.7453 21.2634 28.8004 21.2083C28.8249 21.1839 29.0238 21.0982 29.241 21.0125C29.4607 20.9301 29.9543 20.7382 30.3394 20.5884L30.3426 20.5871C30.7313 20.4372 31.178 20.2689 31.3372 20.2138C31.4963 20.1587 31.6309 20.1098 31.637 20.1067C31.6432 20.1006 31.6187 20.0425 31.585 19.9782C31.5208 19.8466 28.2771 14.9598 27.8977 14.4151C27.7569 14.2131 27.6651 14.0571 27.6712 14.0203C27.6774 13.9867 27.7447 13.9102 27.8242 13.849C27.9038 13.7908 29.5899 12.6954 31.5697 11.4163C34.6144 9.45173 35.3305 9.00191 36.1995 8.51537C37.4297 7.8238 37.6683 7.69834 37.803 7.67692L37.904 7.66162L38.1273 8.11755C38.7822 9.43642 40.2479 12.4291 40.4468 12.8545C40.8508 13.7143 41.1598 14.5008 41.1598 14.6599C41.1598 14.715 40.8446 14.8741 40.4407 15.0271C39.997 15.1923 35.7681 16.6061 35.0857 16.8141C34.7674 16.9151 34.235 17.0651 33.9076 17.1538C33.5801 17.2395 33.268 17.3252 33.2129 17.3405L33.1181 17.3711L33.1915 17.6067C33.2313 17.7352 33.4241 18.3656 33.6199 19.0051C33.8127 19.6447 34.0269 20.327 34.0942 20.5198C34.1585 20.7126 34.2258 20.9391 34.2411 21.0217L34.2687 21.1686L34.0789 21.2542C33.978 21.3001 33.6169 21.4348 33.2803 21.5541C32.9437 21.6735 32.4143 21.8632 32.1022 21.9733C31.79 22.0866 31.5055 22.1845 31.4687 22.1937Z" fill="black"/>
<path d="M36.1664 39.9396V42.8813H39.7835C38.9614 43.8087 37.9515 44.5507 36.8206 45.0579C35.6898 45.5651 34.4641 45.8259 33.2247 45.8229C30.885 45.8204 28.6418 44.8898 26.9873 43.2353C25.3329 41.5809 24.4023 39.3377 24.3997 36.9979H21.458C21.4533 39.3905 22.1795 41.7275 23.5394 43.696C24.8993 45.6645 26.8281 47.1707 29.0676 48.0129C31.307 48.8551 33.7503 48.9932 36.0704 48.4087C38.3905 47.8241 40.4767 46.5448 42.0497 44.742V48.7646H44.9914V39.9396H36.1664Z" fill="black"/>
<path d="M33.2257 24.4706C31.5539 24.4792 29.903 24.8422 28.3818 25.5355C26.8606 26.2289 25.5037 27.237 24.4007 28.4932V24.4706H21.459V33.2956H30.284V30.3539H26.6669C27.489 29.4265 28.4989 28.6845 29.6297 28.1773C30.7606 27.6701 31.9863 27.4093 33.2257 27.4123C35.5654 27.4148 37.8086 28.3454 39.4631 29.9999C41.1175 31.6543 42.0481 33.8975 42.0507 36.2373H44.9924C44.9888 33.1176 43.7479 30.1268 41.542 27.9209C39.3361 25.715 36.3453 24.4742 33.2257 24.4706Z" fill="black"/>
</g>
<defs>
<clipPath id="clip0">
<rect width="50" height="50" fill="white"/>
</clipPath>
</defs>
</svg>
