<svg width="50" height="50" viewBox="0 0 50 50" fill="none" xmlns="http://www.w3.org/2000/svg">
<g clip-path="url(#clip0)">
<path d="M40.3781 21.5053C39.413 24.0351 36.5798 25.3036 34.05 24.3385C32.017 23.563 30.7986 21.5811 30.8992 19.5197C30.9238 19.0158 31.0272 18.5073 31.2167 18.0104C32.1818 15.4806 35.015 14.2121 37.5449 15.1771C40.0747 16.1422 41.3432 18.9754 40.3781 21.5053Z" fill="black"/>
<path d="M46.4802 10.3358C35.6825 -1.90281 15.5283 8.36013 20.2361 25.1246L20.7075 23.8131C21.6141 20.9909 24.0719 20.127 26.2362 21.3377C28.4006 22.5485 29.3382 24.5736 28.495 26.7839C27.6518 28.9942 25.1765 30.1024 22.9662 29.2593C22.5805 29.1121 22.2438 28.8364 22.1237 28.7169C27.7574 37.0737 38.6309 35.6416 42.8483 33.2736C47.0658 30.9056 50.6148 27.436 49.8711 17.4162C50.4236 25.6067 39.2267 30.95 33.0142 23.6406C31.6964 22.6669 30.8197 21.1479 30.8992 19.5197L31.0314 19.411C29.2257 10.8236 39.2465 4.61419 46.4802 10.3358Z" fill="black"/>
<path d="M4.19309 41.9795L14.6205 30.3615C13.6307 28.4662 13.2632 27.3673 13.3207 25.2724L8.97699 23.6122L13.5246 22.8583C13.9793 20.748 14.4878 19.7127 15.7476 18.0732L7.88239 4.7033L17.8052 13.4867L18.3861 14.001C17.1073 19.7382 17.283 22.8454 19.6099 28.1462L17.8052 30.8217L20.7459 29.6597C23.9937 33.9372 26.0408 34.5765 29.7395 35.3336C27.9186 36.2636 26.9677 36.4484 24.8329 36.4614L23.1391 40.7467L22.348 36.3373C20.2412 35.8336 19.1693 35.3887 17.6337 34.0345L4.19309 41.9795Z" fill="black"/>
<path d="M30.8992 19.5197C30.7986 21.5811 32.017 23.563 34.05 24.3385C36.5798 25.3036 39.413 24.0351 40.3781 21.5053C41.3432 18.9754 40.0747 16.1422 37.5449 15.1771C35.015 14.2121 32.1818 15.4806 31.2167 18.0104C31.0272 18.5073 30.9238 19.0158 30.8992 19.5197ZM30.8992 19.5197L31.0314 19.411C29.2257 10.8236 39.2465 4.61419 46.4802 10.3358C35.6825 -1.90281 15.5283 8.36013 20.2361 25.1246L20.7075 23.8131C21.6141 20.9909 24.0719 20.127 26.2362 21.3377C28.4006 22.5485 29.3382 24.5736 28.495 26.7839C27.6518 28.9942 25.1765 30.1024 22.9662 29.2593C22.5805 29.1121 22.2438 28.8364 22.1237 28.7169C27.7574 37.0737 38.6309 35.6416 42.8483 33.2736C47.0658 30.9056 50.6148 27.436 49.8711 17.4162M30.8992 19.5197C30.8197 21.1479 31.6964 22.6669 33.0142 23.6406C39.2267 30.95 50.4236 25.6067 49.8711 17.4162M49.8711 17.4162C49.8672 17.3639 49.8632 17.3114 49.859 17.2587C49.8635 17.3113 49.8675 17.3638 49.8711 17.4162ZM14.6205 30.3615L4.19309 41.9795L17.6337 34.0345C19.1693 35.3887 20.2412 35.8336 22.348 36.3373L23.1391 40.7467L24.8329 36.4614C26.9677 36.4484 27.9186 36.2636 29.7395 35.3336C26.0408 34.5765 23.9937 33.9372 20.7459 29.6597L17.8052 30.8217L19.6099 28.1462C17.283 22.8454 17.1073 19.7382 18.3861 14.001L17.8052 13.4867L7.88239 4.7033L15.7476 18.0732C14.4878 19.7127 13.9793 20.748 13.5246 22.8583L8.97699 23.6122L13.3207 25.2724C13.2632 27.3673 13.6307 28.4662 14.6205 30.3615Z" stroke="black" stroke-opacity="0.4" stroke-width="0.103214"/>
</g>
<defs>
<clipPath id="clip0">
<rect width="50" height="50" fill="white"/>
</clipPath>
</defs>
</svg>
