<svg  viewBox="0 0 259 97" fill="none" xmlns="http://www.w3.org/2000/svg">
<path d="M54.2966 4.52583C53.5972 3.07698 52.1289 2.15594 50.5193 2.15594C50.5165 2.15594 50.5131 2.15594 50.5103 2.15594L45.4682 2.16656C43.8552 2.16991 42.3864 3.09708 41.692 4.55208L0.408318 91.0069C-0.211178 92.3049 -0.121161 93.8297 0.647059 95.0457C1.41472 96.2616 2.75435 96.9995 4.1935 96.9995H10.3885C12.0049 96.9995 13.477 96.0712 14.1731 94.6139L24.9757 71.9908H71.3417L82.269 94.6301C82.9684 96.079 84.4361 97 86.0463 97H92.253C92.2575 97 92.2614 97 92.2637 97C94.5801 97 96.457 95.1244 96.457 92.811C96.457 92.0519 96.2552 91.3398 95.9018 90.7254L54.2966 4.52583ZM31.6448 58.0273L48.0346 23.7033L64.6016 58.0273H31.6448Z" fill="currentColor"/>
<path d="M258.56 6.79799L256.33 2.32185C255.62 0.899249 254.167 0 252.576 0H189.985C187.668 0 185.791 1.87558 185.791 4.18905V9.77445C185.791 12.0879 187.668 13.9635 189.985 13.9635H238.61L185.102 85.7393C184.157 87.0055 184.007 88.6951 184.711 90.1082L186.942 94.5849C187.652 96.0075 189.105 96.9068 190.696 96.9068H252.935C255.251 96.9068 257.129 95.0312 257.129 92.7177V87.1323C257.129 84.8188 255.251 82.9432 252.935 82.9432H204.662L258.17 11.1669C259.114 9.90069 259.265 8.21166 258.56 6.79799Z" fill="currentColor"/>
<path d="M158.976 57.4509L154.574 54.0075C153.7 53.3227 152.589 53.0133 151.482 53.1473C150.378 53.2819 149.373 53.8483 148.687 54.7235L138.494 67.7291V4.1896C138.494 1.87613 136.617 0.000549316 134.301 0.000549316H128.71C126.393 0.000549316 124.516 1.87613 124.516 4.1896V67.7291L114.323 54.7235C113.636 53.8489 112.632 53.2819 111.528 53.1473C110.42 53.0127 109.311 53.3227 108.436 54.0075L104.034 57.4509C102.21 58.8768 101.89 61.5098 103.318 63.3312L128.204 95.0825C128.999 96.0969 130.216 96.6889 131.505 96.6889C132.794 96.6889 134.012 96.0963 134.807 95.0825L159.693 63.3312C161.12 61.5098 160.799 58.8768 158.976 57.4509Z" fill="currentColor"/>
</svg>
