<svg  viewBox="0 0 259 96" fill="none" xmlns="http://www.w3.org/2000/svg">
<path d="M214.569 3.45703C213.881 2.0302 212.437 1.12317 210.853 1.12317C210.85 1.12317 210.847 1.12317 210.844 1.12317L205.884 1.13362C204.297 1.13692 202.852 2.05 202.169 3.48288L161.553 88.6234C160.943 89.9018 161.032 91.4034 161.788 92.6008C162.543 93.7983 163.861 94.5249 165.277 94.5249H171.372C172.962 94.5249 174.41 93.6107 175.096 92.1757L185.723 69.8964H231.337L242.088 92.1916C242.775 93.6184 244.219 94.5255 245.804 94.5255H251.911C251.915 94.5255 251.918 94.5255 251.922 94.5255C254.2 94.5255 256.047 92.6784 256.047 90.4001C256.047 89.6526 255.848 88.9513 255.5 88.3462L214.569 3.45703ZM192.284 56.1452L208.408 22.343L224.706 56.1452H192.284Z" fill="currentColor"/>
<path d="M67.1202 6.69465L65.1046 2.28656C64.4631 0.885579 63.1502 0 61.7125 0H5.16151C3.06864 0 1.37283 1.84707 1.37283 4.12537V9.62587C1.37283 11.9042 3.06864 13.7512 5.16151 13.7512H49.0946L0.749461 84.4359C-0.103247 85.6829 -0.239134 87.3468 0.397365 88.7384L2.41295 93.1471C3.05349 94.548 4.36639 95.4336 5.80408 95.4336H62.0373C64.1302 95.4336 65.826 93.5866 65.826 91.3083V85.8078C65.826 83.5295 64.1302 81.6824 62.0373 81.6824H18.4229L66.7671 10.9971C67.6208 9.75018 67.7567 8.08683 67.1202 6.69465Z" fill="currentColor"/>
<path d="M159.569 56.5776L155.239 53.1865C154.379 52.5121 153.287 52.2074 152.198 52.3394C151.111 52.472 150.122 53.0297 149.447 53.8917L139.42 66.6996V4.12537C139.42 1.84707 137.574 0 135.295 0H129.794C127.515 0 125.669 1.84707 125.669 4.12537V66.699L115.64 53.8911C114.965 53.0297 113.977 52.4714 112.891 52.3389C111.801 52.2063 110.71 52.5116 109.849 53.186L105.518 56.577C103.725 57.9813 103.409 60.5742 104.814 62.3679L129.296 93.6366C130.079 94.6355 131.277 95.2186 132.545 95.2186C133.813 95.2186 135.01 94.6355 135.792 93.6366L160.275 62.3679C161.679 60.5748 161.363 57.9818 159.569 56.5776Z" fill="currentColor"/>
</svg>
