<svg viewBox="0 0 279 97" fill="none" xmlns="http://www.w3.org/2000/svg">
<path d="M54.2966 4.52583C53.5972 3.07698 52.1289 2.15594 50.5193 2.15594C50.5165 2.15594 50.5131 2.15594 50.5103 2.15594L45.4682 2.16656C43.8552 2.16991 42.3864 3.09708 41.692 4.55208L0.408318 91.0069C-0.211178 92.3049 -0.121161 93.8297 0.647059 95.0457C1.41472 96.2616 2.75435 96.9995 4.1935 96.9995H10.3885C12.0049 96.9995 13.477 96.0712 14.1731 94.6139L24.9757 71.9908H71.3417L82.269 94.6301C82.9684 96.079 84.4361 97 86.0463 97H92.253C92.2575 97 92.2614 97 92.2636 97C94.5801 97 96.457 95.1244 96.457 92.811C96.457 92.0519 96.2551 91.3398 95.9018 90.7254L54.2966 4.52583ZM31.6448 58.0273L48.0346 23.7033L64.6016 58.0273H31.6448Z" fill="currentColor"/>
<path d="M278.289 6.79799L276.058 2.32185C275.349 0.899249 273.895 0 272.304 0H209.713C207.397 0 205.52 1.87558 205.52 4.18905V9.77445C205.52 12.0879 207.397 13.9635 209.713 13.9635H258.338L204.83 85.7393C203.886 87.0055 203.735 88.6951 204.44 90.1082L206.671 94.5849C207.38 96.0075 208.833 96.9068 210.425 96.9068H272.664C274.98 96.9068 276.857 95.0312 276.857 92.7177V87.1323C276.857 84.8188 274.98 82.9433 272.664 82.9433H224.391L277.899 11.1669C278.842 9.90069 278.993 8.21166 278.289 6.79799Z" fill="currentColor"/>
<path d="M176.55 57.4503L172.149 54.0069C171.274 53.3222 170.164 53.0127 169.057 53.1468C167.952 53.2814 166.948 53.8478 166.262 54.723L156.069 67.7286V4.18905C156.069 1.87558 154.192 0 151.875 0H146.284C143.968 0 142.091 1.87558 142.091 4.18905V67.7286L131.897 54.723C131.211 53.8483 130.206 53.2814 129.102 53.1468C127.994 53.0122 126.885 53.3222 126.01 54.0069L121.608 57.4503C119.785 58.8763 119.464 61.5093 120.892 63.3307L145.778 95.082C146.573 96.0963 147.791 96.6884 149.08 96.6884C150.369 96.6884 151.586 96.0957 152.381 95.082L177.267 63.3307C178.694 61.5093 178.373 58.8763 176.55 57.4503Z" fill="currentColor"/>
</svg>
