<svg viewBox="0 0 278 97" fill="none" xmlns="http://www.w3.org/2000/svg">
<path d="M235.569 4.45703C234.881 3.0302 233.437 2.12317 231.853 2.12317C231.85 2.12317 231.847 2.12317 231.844 2.12317L226.884 2.13362C225.297 2.13692 223.852 3.05 223.169 4.48288L182.553 89.6234C181.943 90.9018 182.032 92.4034 182.788 93.6008C183.543 94.7983 184.861 95.5249 186.277 95.5249H192.372C193.962 95.5249 195.41 94.6107 196.096 93.1757L206.723 70.8964H252.337L263.088 93.1916C263.775 94.6184 265.219 95.5255 266.804 95.5255H272.911C272.915 95.5255 272.918 95.5255 272.922 95.5255C275.2 95.5255 277.047 93.6784 277.047 91.4001C277.047 90.6526 276.848 89.9513 276.5 89.3462L235.569 4.45703ZM213.284 57.1452L229.408 23.343L245.706 57.1452H213.284Z" fill="currentColor"/>
<path d="M71.1202 7.69465L69.1046 3.28656C68.4631 1.88558 67.1502 1 65.7125 1H9.16151C7.06864 1 5.37283 2.84707 5.37283 5.12537V10.6259C5.37283 12.9042 7.06864 14.7512 9.16151 14.7512H53.0946L4.74946 85.4359C3.89675 86.6829 3.76087 88.3468 4.39737 89.7384L6.41295 94.1471C7.05349 95.548 8.36639 96.4336 9.80408 96.4336H66.0373C68.1302 96.4336 69.826 94.5866 69.826 92.3083V86.8078C69.826 84.5294 68.1302 82.6824 66.0373 82.6824H22.4229L70.7671 11.9971C71.6208 10.7502 71.7567 9.08683 71.1202 7.69465Z" fill="currentColor"/>
<path d="M158.633 56.5776L154.302 53.1865C153.442 52.5121 152.35 52.2074 151.261 52.3394C150.175 52.472 149.186 53.0297 148.511 53.8917L138.484 66.6996V4.12537C138.484 1.84707 136.637 0 134.358 0H128.858C126.579 0 124.732 1.84707 124.732 4.12537V66.699L114.704 53.8911C114.029 53.0297 113.041 52.4714 111.955 52.3389C110.864 52.2063 109.774 52.5116 108.912 53.186L104.582 56.577C102.789 57.9813 102.473 60.5742 103.877 62.3679L128.36 93.6366C129.142 94.6355 130.34 95.2186 131.608 95.2186C132.876 95.2186 134.074 94.6355 134.856 93.6366L159.339 62.3679C160.743 60.5748 160.427 57.9818 158.633 56.5776Z" fill="currentColor"/>
</svg>
