<svg width="50" height="50" viewBox="0 0 50 50" fill="none" xmlns="http://www.w3.org/2000/svg">
<path d="M25.0311 46.4686C14.3957 46.4615 5.58363 38.6829 4 28.521L14.8171 28.5011C16.199 32.8108 20.249 35.9306 25.0311 35.9331C29.8056 35.9275 33.8499 32.8128 35.2369 28.5108L46.0505 28.5011C44.4781 38.6691 35.668 46.4554 25.0311 46.4686ZM25.0311 32.1763C21.1854 32.1763 18.0678 29.0682 18.0678 25.2343C18.0678 21.4004 21.1854 18.2923 25.0311 18.2923C28.8768 18.2923 31.9944 21.4004 31.9944 25.2343C31.9944 29.0682 28.8768 32.1763 25.0311 32.1763ZM4.01178 21.9675C5.58414 11.7995 14.3942 4.01327 25.0311 4C35.6665 4.00714 44.4786 11.7857 46.0622 21.9476L35.2451 21.9675C33.8632 17.6578 29.8132 14.538 25.0311 14.5355C20.2567 14.5411 16.2123 17.6558 14.8253 21.9578L4.01178 21.9675Z" fill="black"/>
</svg>
