<svg width="100%" height="100%" viewBox="0 0 201 201" fill="none" xmlns="http://www.w3.org/2000/svg">
<path d="M180.444 52.172L136.823 3.00123C135.096 0.863367 132.958 0 130.409 0H26.9288C22.2419 0 18.3773 3.86459 18.3773 8.55144V192.449C18.3773 197.135 22.2419 201 26.9288 201H174.071C178.758 201 182.211 197.135 182.623 192.86V57.7633C182.581 55.6255 181.759 53.8988 180.444 52.172ZM138.55 30.2589L155.283 49.2119H138.55V30.2589ZM165.479 184.349H35.4802V16.6918H121.858V57.3111C121.858 61.998 125.723 65.8625 130.409 65.8625H165.479V184.349Z" fill="currentColor"/>
<path d="M55.9955 96.6559C55.9955 101.343 59.8601 105.207 64.5469 105.207H136.412C141.099 105.207 144.963 101.343 144.963 96.6559C144.963 91.9691 141.099 88.1045 136.412 88.1045H64.5469C59.8601 88.1045 55.9955 91.9691 55.9955 96.6559Z" fill="currentColor"/>
<path d="M136.412 141.14H64.5469C59.8601 141.14 55.9955 145.004 55.9955 149.691C55.9955 154.378 59.8601 158.243 64.5469 158.243H136.412C141.099 158.243 144.963 154.378 144.963 149.691C144.963 145.004 141.099 141.14 136.412 141.14Z" fill="currentColor"/>
</svg>
