<svg width="100%" height="100%" viewBox="0 0 262 262" fill="none" xmlns="http://www.w3.org/2000/svg">
<path d="M27.9413 15H233.059C235.498 15.0015 237.887 15.6915 239.951 16.9906C242.014 18.2897 243.669 20.145 244.725 22.343C245.78 24.5409 246.193 26.9921 245.916 29.4144C245.639 31.8367 244.684 34.1315 243.159 36.0347L159.248 140.898C157.406 143.192 156.401 146.046 156.399 148.988V215.639C156.399 217.648 155.931 219.63 155.032 221.428C154.133 223.225 152.827 224.789 151.219 225.994L125.32 245.411C123.396 246.853 121.109 247.732 118.714 247.948C116.318 248.164 113.91 247.708 111.76 246.633C109.609 245.558 107.8 243.906 106.535 241.861C105.271 239.816 104.601 237.459 104.601 235.056V148.975C104.596 146.037 103.591 143.189 101.752 140.898L17.8408 36.0347C16.3164 34.1315 15.3607 31.8367 15.0838 29.4144C14.8068 26.9921 15.2198 24.5409 16.2752 22.343C17.3306 20.145 18.9856 18.2897 21.0494 16.9906C23.1133 15.6915 25.5023 15.0015 27.9413 15V15Z" fill="currentColor"/>
</svg>
