
<svg width="100%" height="100%" viewBox="0 0 152 152" fill="none" xmlns="http://www.w3.org/2000/svg">
<path d="M76.0046 5.00455C35.6741 5.00455 3 37.6113 3 77.7977C3 109.977 23.9158 137.251 52.9032 146.874C56.5671 147.561 57.8903 145.309 57.8903 143.362C57.8903 141.633 57.8492 137.06 57.8219 130.991C37.5038 135.377 33.2239 121.205 33.2239 121.205C29.8976 112.816 25.0976 110.564 25.0976 110.564C18.4907 106.064 25.6223 106.16 25.6223 106.16C32.941 106.656 36.792 113.644 36.792 113.644C43.3031 124.781 53.8751 121.56 58.0591 119.686C58.6979 114.995 60.6006 111.769 62.6721 109.972C46.4651 108.148 29.4231 101.892 29.4231 73.9988C29.4231 66.0325 32.252 59.5448 36.9289 54.4493C36.1213 52.6249 33.6482 45.2091 37.5722 35.1819C37.5722 35.1819 43.6818 33.2392 57.6485 42.6477C63.4934 41.0326 69.6988 40.2273 75.8996 40.1864C82.105 40.2273 88.3058 41.0371 94.1508 42.6477C108.035 33.2392 114.14 35.1819 114.14 35.1819C118.06 45.2091 115.587 52.6204 114.875 54.4493C119.506 59.5448 122.335 66.037 122.335 73.9988C122.335 101.956 105.27 108.121 89.045 109.899C91.5819 112.079 93.9591 116.56 93.9591 123.362C93.9591 133.098 93.8679 140.941 93.8679 143.311C93.8679 145.204 95.1454 147.479 98.9052 146.746C128.107 137.224 149 109.927 149 77.7931C149 37.6068 116.326 5 75.9954 5L76.0046 5.00455Z" fill="currentColor"/>
</svg>
