<svg width="100%" height="100%" viewBox="0 0 41 39" xmlns="http://www.w3.org/2000/svg"><path d="M20.349.001A20.145 20.145 0 0 0 0 19.924a19.96 19.96 0 0 0 13.911 18.924c1.017.185 1.387-.425 1.387-.962v-3.385c-5.66 1.203-6.863-2.664-6.863-2.664a5.29 5.29 0 0 0-2.256-2.922c-1.85-1.221.148-1.203.148-1.203a4.272 4.272 0 0 1 3.107 2.053 4.385 4.385 0 0 0 5.92 1.647 4.31 4.31 0 0 1 1.295-2.664c-4.514-.5-9.25-2.201-9.25-9.841a7.677 7.677 0 0 1 2.054-5.383 6.993 6.993 0 0 1 .203-5.254s1.72-.537 5.55 2.035a19.757 19.757 0 0 1 10.174 0c3.885-2.572 5.55-2.035 5.55-2.035a6.992 6.992 0 0 1 .203 5.254 7.677 7.677 0 0 1 2.165 5.346c0 7.658-4.773 9.341-9.25 9.841a4.624 4.624 0 0 1 1.388 3.7v5.457c0 .647.37 1.165 1.387.962a19.98 19.98 0 0 0 13.874-18.906A20.145 20.145 0 0 0 20.35.001" fill="currentColor"/></svg>