
<svg width="100%" height="100%" viewBox="0 0 149 149" fill="none" xmlns="http://www.w3.org/2000/svg">
<path d="M74.5018 6.00369C54.9518 5.81202 36.1226 13.0985 22.1524 26.2617C8.18232 39.4249 0.21444 57.3877 0 76.2023C0.0754002 91.0709 5.04541 105.534 14.1962 117.514C23.347 129.494 36.2076 138.375 50.931 142.881C54.6544 143.533 56.0091 141.383 56.0091 139.491V127.564C35.2867 131.803 30.8823 118.178 30.8823 118.178C29.503 113.903 26.5711 110.248 22.6226 107.882C15.8494 103.58 23.1644 103.643 23.1644 103.643C25.5049 103.944 27.7442 104.752 29.7143 106.004C31.6843 107.257 33.3341 108.923 34.5398 110.877C36.6418 114.385 40.0906 116.958 44.1441 118.043C48.1976 119.129 52.5318 118.639 56.2141 116.68C56.5926 113.111 58.2723 109.785 60.9554 107.294C44.4287 105.532 27.0892 99.5384 27.0892 72.6189C26.9422 65.5967 29.6391 58.7949 34.6094 53.6519C32.3454 47.623 32.612 40.9823 35.3526 35.1395C35.3526 35.1395 41.6499 33.2474 55.6723 42.3098C67.8757 39.1803 80.7179 39.1803 92.9213 42.3098C107.145 33.2474 113.241 35.1395 113.241 35.1395C115.982 40.9822 116.249 47.6231 113.984 53.6519C119.07 58.7006 121.913 65.4568 121.911 72.4885C121.911 99.4714 104.436 105.401 88.0446 107.163C89.8399 108.84 91.2268 110.879 92.1055 113.133C92.9842 115.387 93.3329 117.801 93.1264 120.2V139.428C93.1264 141.708 94.481 143.533 98.2045 142.817C112.886 138.283 125.703 129.399 134.825 117.436C143.948 105.473 148.909 91.0411 149 76.2023C148.786 57.389 140.819 39.4272 126.85 26.2642C112.882 13.1012 94.0543 5.8139 74.5055 6.00369" fill="currentColor"/>
</svg>
