<svg  viewBox="0 0 373 326" fill="none" xmlns="http://www.w3.org/2000/svg">
<path fill-rule="evenodd" clip-rule="evenodd" d="M176.463 5.99998C181.082 -2.00002 192.629 -2 197.248 6L371.319 307.5C375.938 315.5 370.164 325.5 360.927 325.5H12.7846C3.54703 325.5 -2.2265 315.5 2.3923 307.5L176.463 5.99998ZM191.96 97.972C188.717 96.948 185.731 96.7773 183 97.46C177.197 98.8253 173.272 101.727 171.224 106.164C170.2 108.212 169.688 110.26 169.688 112.308L180.01 224.088C180.125 225.336 180.445 226.681 181.615 227.134C182.701 227.554 184.357 227.764 186.584 227.764C187.04 227.764 187.48 227.745 187.904 227.707C191.207 227.411 192.901 224.098 193.206 220.795L203.224 112.308C203.224 111.284 203.139 110.345 202.968 109.492C201.603 103.86 197.933 100.02 191.96 97.972ZM198.36 251.828C193.923 247.561 188.717 246.111 182.744 247.476C177.453 248.5 173.699 251.401 171.48 256.18C170.285 258.569 169.688 261.044 169.688 263.604C169.688 266.505 170.371 269.236 171.736 271.796C174.979 277.599 179.843 280.5 186.328 280.5C193.325 280.159 198.36 277.087 201.432 271.284C202.627 268.895 203.224 266.335 203.224 263.604C203.224 259.337 201.603 255.412 198.36 251.828Z" fill="white"/>
</svg>
