<svg width="50" height="50" viewBox="0 0 50 50" fill="none" xmlns="http://www.w3.org/2000/svg">
<path fill-rule="evenodd" clip-rule="evenodd" d="M30.9817 2C4.16036 10.6331 7.40309 24.0203 12.3771 29.6347C15.4512 32.933 22.4703 40.7719 20.8308 47.9191C25.3352 46.3394 35.3687 41.7133 39.4675 35.8469C43.6687 29.5707 39.5102 22.8355 36.9057 20.2524C36.8768 20.2305 36.8478 20.2084 36.8185 20.186C33.8316 17.3384 26.6345 9.65216 30.9817 2ZM24.9936 42.1872C25.0945 38.8882 24.2993 37.0369 22.2078 33.7335C26.5159 35.5153 28.8531 36.3761 32.839 37.5761C30.2883 39.7074 28.5516 40.7064 24.9936 42.1872ZM14.4585 25.8562C13.7754 24.8742 12.518 22.5964 12.9535 21.3411C22.034 26.0513 27.3805 28.1294 37.1619 31.2999C37.1299 32.0577 36.8161 33.7399 35.817 34.406C27.4254 31.7615 22.7408 29.9962 14.4585 25.8562ZM13.5939 17.4345C14.2984 16.3244 15.7138 14.0978 15.7394 14.0722C22.7893 18.2519 26.8656 20.1245 34.2159 23.1663C36.0338 24.7226 36.6272 25.6455 37.0979 27.3612C27.4871 24.117 22.2233 22.116 13.5939 17.4345ZM18.5573 11.4464L25.506 8.0521C25.8958 11.3531 26.367 13.1391 28.0037 16.1216L18.5573 11.4464Z" fill="black" stroke="black" stroke-width="0.320217"/>
</svg>
