<svg viewBox="0 0 253 112" fill="none" xmlns="http://www.w3.org/2000/svg">
<path d="M7.81893 111C5.68176 111 3.83128 110.243 2.26749 108.73C0.75583 107.164 0 105.312 0 103.172C0 100.511 0.807956 97.7708 2.42387 94.9528C4.03978 92.0825 6.04664 89.3166 8.44444 86.6552C10.8422 83.9415 13.2661 81.4626 15.716 79.2186C18.166 76.9746 20.225 75.122 21.893 73.6608C25.177 70.7905 28.7215 68.1291 32.5267 65.6763C36.332 63.1714 39.9287 60.5621 43.3169 57.8484C46.7572 55.0825 49.546 51.9513 51.6831 48.4549C53.8724 44.9062 54.9671 40.7052 54.9671 35.8519C54.9671 32.0423 54.107 28.6241 52.3868 25.5973C50.6667 22.5705 48.347 20.17 45.428 18.3956C42.5089 16.5691 39.225 15.6559 35.5761 15.6559C31.0412 15.6559 27.1317 17.091 23.8477 19.9612C20.6159 22.8315 18.6091 26.0931 17.8272 29.7461C17.4623 31.4161 16.524 32.8773 15.0123 34.1298C13.5528 35.3822 11.9108 36.0085 10.0864 36.0085C7.94925 36.0085 6.09877 35.2518 4.53498 33.7384C3.02332 32.225 2.26749 30.4245 2.26749 28.3371C2.26749 24.4753 3.23182 20.8484 5.16049 17.4563C7.08916 14.012 9.64335 10.9852 12.823 8.37588C16.0549 5.76657 19.6516 3.73131 23.6132 2.2701C27.5748 0.756699 31.6145 0 35.7325 0C42.5089 0 48.5034 1.59168 53.716 4.77504C58.9808 7.90621 63.0988 12.1594 66.07 17.5346C69.0933 22.9097 70.6049 28.9111 70.6049 35.5388C70.6049 42.4274 69.2757 48.3505 66.6173 53.3082C63.9589 58.2659 60.5967 62.5973 56.5309 66.3025C52.465 69.9556 48.2689 73.2694 43.9424 76.244C39.6159 79.2186 35.7586 82.1671 32.3704 85.0896C28.6173 88.4295 25.3073 91.8477 22.4403 95.3441H68.1811C70.3182 95.3441 72.1427 96.1269 73.6543 97.6925C75.2181 99.2059 76 101.032 76 103.172C76 105.312 75.2181 107.164 73.6543 108.73C72.1427 110.243 70.3182 111 68.1811 111H7.81893Z" fill="currentColor"/>
<path d="M194.287 32.3516C192.472 32.3516 190.844 31.5508 189.402 29.9492C187.961 28.2943 187.24 26.6126 187.24 24.9043C187.24 23.196 187.694 21.4876 188.602 19.7793C189.562 18.0176 191.031 16.9499 193.006 16.5762C195.035 16.1491 197.117 14.9746 199.252 13.0527C201.441 11.0775 203.549 8.22135 205.578 4.48438C207.18 1.49479 209.395 0 212.225 0C214.52 0 216.522 0.69401 218.23 2.08203C219.992 3.41667 220.873 5.25846 220.873 7.60742L220.793 96.1738H230.322C232.191 96.1738 233.739 97.0547 234.967 98.8164C236.195 100.525 236.809 102.18 236.809 103.781C236.809 105.863 236.061 107.652 234.566 109.146C233.072 110.641 231.283 111.389 229.201 111.389H194.607C192.525 111.389 190.737 110.641 189.242 109.146C187.747 107.652 187 105.863 187 103.781C187 102.18 187.614 100.525 188.842 98.8164C190.07 97.0547 191.618 96.1738 193.486 96.1738H204.777V28.9883C203.283 29.8424 201.734 30.6165 200.133 31.3105C198.531 32.0046 196.583 32.3516 194.287 32.3516Z" fill="currentColor"/>
<path d="M154.279 69.9713L149.668 66.3608C148.752 65.6428 147.59 65.3183 146.43 65.4589C145.274 65.6 144.221 66.1939 143.502 67.1116L132.826 80.7485V14.1243C132.826 11.6985 130.86 9.73193 128.433 9.73193H122.577C120.151 9.73193 118.184 11.6985 118.184 14.1243V80.7479L107.507 67.111C106.788 66.1939 105.736 65.5994 104.58 65.4583C103.419 65.3172 102.258 65.6422 101.341 66.3602L96.7298 69.9707C94.8206 71.4659 94.4844 74.2267 95.9796 76.1365L122.047 109.429C122.88 110.492 124.155 111.113 125.506 111.113C126.856 111.113 128.131 110.492 128.963 109.429L155.031 76.1365C156.526 74.2272 156.189 71.4665 154.279 69.9713Z" fill="currentColor"/>
</svg>
