<svg  viewBox="0 0 259 112" fill="none" xmlns="http://www.w3.org/2000/svg">
<path d="M187.819 111C185.682 111 183.831 110.243 182.267 108.73C180.756 107.164 180 105.312 180 103.172C180 100.511 180.808 97.7708 182.424 94.9528C184.04 92.0825 186.047 89.3166 188.444 86.6552C190.842 83.9415 193.266 81.4626 195.716 79.2186C198.166 76.9746 200.225 75.122 201.893 73.6608C205.177 70.7905 208.722 68.1291 212.527 65.6763C216.332 63.1714 219.929 60.5621 223.317 57.8484C226.757 55.0825 229.546 51.9513 231.683 48.4549C233.872 44.9062 234.967 40.7052 234.967 35.8519C234.967 32.0423 234.107 28.6241 232.387 25.5973C230.667 22.5705 228.347 20.17 225.428 18.3956C222.509 16.5691 219.225 15.6559 215.576 15.6559C211.041 15.6559 207.132 17.091 203.848 19.9612C200.616 22.8315 198.609 26.0931 197.827 29.7461C197.462 31.4161 196.524 32.8773 195.012 34.1298C193.553 35.3822 191.911 36.0085 190.086 36.0085C187.949 36.0085 186.099 35.2518 184.535 33.7384C183.023 32.225 182.267 30.4245 182.267 28.3371C182.267 24.4753 183.232 20.8484 185.16 17.4563C187.089 14.012 189.643 10.9852 192.823 8.37588C196.055 5.76657 199.652 3.73131 203.613 2.2701C207.575 0.756699 211.615 0 215.733 0C222.509 0 228.503 1.59168 233.716 4.77504C238.981 7.90621 243.099 12.1594 246.07 17.5346C249.093 22.9097 250.605 28.9111 250.605 35.5388C250.605 42.4274 249.276 48.3505 246.617 53.3082C243.959 58.2659 240.597 62.5973 236.531 66.3025C232.465 69.9556 228.269 73.2694 223.942 76.244C219.616 79.2186 215.759 82.1671 212.37 85.0896C208.617 88.4295 205.307 91.8477 202.44 95.3441H248.181C250.318 95.3441 252.143 96.1269 253.654 97.6925C255.218 99.2059 256 101.032 256 103.172C256 105.312 255.218 107.164 253.654 108.73C252.143 110.243 250.318 111 248.181 111H187.819Z" fill="currentColor"/>
<path d="M13.2871 32.3516C11.472 32.3516 9.84375 31.5508 8.40234 29.9492C6.96094 28.2943 6.24023 26.6126 6.24023 24.9043C6.24023 23.196 6.69401 21.4876 7.60156 19.7793C8.5625 18.0176 10.0306 16.9499 12.0059 16.5762C14.0345 16.1491 16.1165 14.9746 18.252 13.0527C20.4408 11.0775 22.5495 8.22135 24.5781 4.48438C26.1797 1.49479 28.3952 0 31.2246 0C33.5202 0 35.5221 0.69401 37.2305 2.08203C38.9922 3.41667 39.873 5.25846 39.873 7.60742L39.793 96.1738H49.3223C51.1908 96.1738 52.7389 97.0547 53.9668 98.8164C55.1947 100.525 55.8086 102.18 55.8086 103.781C55.8086 105.863 55.0612 107.652 53.5664 109.146C52.0716 110.641 50.2832 111.389 48.2012 111.389H13.6074C11.5254 111.389 9.73698 110.641 8.24219 109.146C6.7474 107.652 6 105.863 6 103.781C6 102.18 6.61393 100.525 7.8418 98.8164C9.06966 97.0547 10.6178 96.1738 12.4863 96.1738H23.7773V28.9883C22.2826 29.8424 20.7344 30.6165 19.1328 31.3105C17.5312 32.0046 15.5827 32.3516 13.2871 32.3516Z" fill="currentColor"/>
<path d="M154.279 69.9713L149.668 66.3608C148.752 65.6428 147.59 65.3183 146.43 65.4589C145.274 65.6 144.221 66.1939 143.502 67.1116L132.826 80.7485V14.1243C132.826 11.6985 130.86 9.73193 128.433 9.73193H122.577C120.151 9.73193 118.184 11.6985 118.184 14.1243V80.7479L107.507 67.111C106.788 66.1939 105.736 65.5994 104.58 65.4583C103.419 65.3172 102.258 65.6422 101.341 66.3602L96.7298 69.9707C94.8206 71.4659 94.4844 74.2267 95.9796 76.1365L122.047 109.429C122.88 110.492 124.155 111.113 125.506 111.113C126.856 111.113 128.131 110.492 128.963 109.429L155.031 76.1365C156.526 74.2272 156.189 71.4665 154.279 69.9713Z" fill="currentColor"/>
</svg>
