
<svg width="100%" height="100%" viewBox="0 0 149 149" fill="none" xmlns="http://www.w3.org/2000/svg">
<path d="M74.5546 36.1091C84.2497 36.1091 92.1091 28.2497 92.1091 18.5546C92.1091 8.85944 84.2497 1 74.5546 1C64.8594 1 57 8.85944 57 18.5546C57 28.2497 64.8594 36.1091 74.5546 36.1091Z" fill="currentColor"/>
<path d="M74.5553 91.2808C84.2504 91.2808 92.1099 83.4213 92.1099 73.7262C92.1099 64.0311 84.2504 56.1716 74.5553 56.1716C64.8602 56.1716 57.0007 64.0311 57.0007 73.7262C57.0007 83.4213 64.8602 91.2808 74.5553 91.2808Z" fill="currentColor"/>
<path d="M74.5553 146.453C84.2504 146.453 92.1099 138.593 92.1099 128.898C92.1099 119.203 84.2504 111.344 74.5553 111.344C64.8602 111.344 57.0007 119.203 57.0007 128.898C57.0007 138.593 64.8602 146.453 74.5553 146.453Z" fill="currentColor"/>
</svg>
