<svg width="100%" height="100%"  viewBox="0 0 31 121" fill="none" xmlns="http://www.w3.org/2000/svg">
<path d="M14.256 28.5114C22.1292 28.5114 28.5117 22.1289 28.5117 14.2557C28.5117 6.3825 22.1292 0 14.256 0C6.38275 0 0.000244141 6.3825 0.000244141 14.2557C0.000244141 22.1289 6.38275 28.5114 14.256 28.5114Z" fill="currentColor"/>
<path d="M14.2566 73.3151C22.1298 73.3151 28.5123 66.9326 28.5123 59.0594C28.5123 51.1862 22.1298 44.8037 14.2566 44.8037C6.38336 44.8037 0.000854492 51.1862 0.000854492 59.0594C0.000854492 66.9326 6.38336 73.3151 14.2566 73.3151Z" fill="currentColor"/>
<path d="M14.2566 118.119C22.1298 118.119 28.5123 111.737 28.5123 103.864C28.5123 95.9904 22.1298 89.6079 14.2566 89.6079C6.38336 89.6079 0.000854492 95.9904 0.000854492 103.864C0.000854492 111.737 6.38336 118.119 14.2566 118.119Z" fill="currentColor"/>
</svg>
