<svg viewBox="0 0 176 177" fill="none" xmlns="http://www.w3.org/2000/svg" >
<path d="M87.5167 176.725C43.2598 176.695 6.58996 144.326 0 102.039L45.0133 101.956C50.7638 119.89 67.6169 132.873 87.5167 132.883C107.385 132.86 124.214 119.899 129.986 101.997L174.984 101.956C168.441 144.268 131.78 176.669 87.5167 176.725ZM87.5167 117.25C71.5138 117.25 58.5405 104.316 58.5405 88.3623C58.5405 72.4082 71.5138 59.4746 87.5167 59.4746C103.52 59.4746 116.493 72.4082 116.493 88.3623C116.493 104.316 103.52 117.25 87.5167 117.25ZM0.0490046 74.7681C6.59209 32.4561 43.2534 0.055191 87.5167 -3.05176e-05C131.774 0.0296936 168.444 32.3988 175.033 74.6852L130.02 74.7681C124.27 56.8344 107.417 43.8519 87.5167 43.8413C67.6488 43.8646 50.8192 56.8259 45.0474 74.7277L0.0490046 74.7681Z" fill="currentColor" shape-rendering="geometricPrecision"/>
</svg>
