<svg width="100%" height="100%" viewBox="0 0 139 139" fill="none" xmlns="http://www.w3.org/2000/svg">
<path d="M104.896 46.5233H111.29V66.4142L139 38.4474L111.283 10.4736V27.0633H104.889C79.2161 27.0633 64.7462 46.0924 51.9721 62.8697C40.4907 77.9651 30.5661 91.0102 14.5394 91.0102H0V110.463H14.5463C40.2196 110.463 54.6895 91.4481 67.4636 74.6569C78.945 59.5545 88.8697 46.5233 104.896 46.5233V46.5233ZM37.5995 58.7831C38.6976 57.3722 39.7957 55.9197 40.9146 54.4532C43.7355 50.6941 46.6367 46.9958 49.616 43.361C40.4281 34.7847 29.3568 28.4602 14.5463 28.4602H0V47.9133H14.5463C23.769 47.9133 30.9622 52.2431 37.5995 58.7831ZM111.283 92.3933H104.889C95.1107 92.3933 87.6047 87.5213 80.6269 80.3142L78.5211 83.0733C75.4562 87.1043 72.1618 91.4203 68.52 95.7084C77.9442 104.91 89.37 111.86 104.882 111.86H111.276V128.526L139 100.553L111.283 72.5788V92.3933Z" fill="currentColor"/>
</svg>
