<svg  viewBox="0 0 800 800" fill="none" xmlns="http://www.w3.org/2000/svg">
<g clip-path="url(#clip0_3003_109)">
<path d="M400 0C205.827 0 44.006 138.37 7.666 321.875H118.701C152.913 198.504 265.735 107.813 400 107.813C480.713 107.813 553.649 140.609 606.445 193.555L478.125 321.875H681.3H800V0L682.813 117.187C610.435 44.7873 510.465 0 400 0ZM0 478.125V800L117.187 682.813C189.564 755.213 289.535 800 400 800C594.173 800 755.994 661.63 792.334 478.125H681.299C647.087 601.495 534.264 692.187 400 692.187C319.287 692.187 246.351 659.391 193.555 606.445L321.875 478.125H0Z" fill="currentColor"/>
</g>
<defs>
<clipPath id="clip0_3003_109">
<rect width="800" height="800" fill="white"/>
</clipPath>
</defs>
</svg>
