
<svg width="100%" height="100%" viewBox="0 0 149 149" fill="none" xmlns="http://www.w3.org/2000/svg">
<path d="M43.6173 7.33924C30.8516 14.6469 21.7191 26.4482 17.9043 40.5666C14.0886 54.6847 16.0476 69.4323 23.4173 82.0907C33.2471 98.9719 51.5755 109.459 71.2525 109.459C77.4656 109.459 83.6302 108.399 89.4738 106.364L114.3 149L132 138.866L107.179 96.2374C115.563 89.1241 121.6 79.6902 124.517 68.8926C128.332 54.7741 126.373 40.0275 119.004 27.3684C109.175 10.4872 90.8454 0 71.169 0C61.5317 0 52.0042 2.53747 43.6173 7.33924ZM101.303 37.5021C105.944 45.472 107.177 54.758 104.774 63.6473C102.372 72.5365 96.6222 79.9666 88.5845 84.568C83.3015 87.5927 77.3077 89.1914 71.2525 89.1914C58.8554 89.1914 47.309 82.5874 41.1188 71.9571C36.4782 63.9867 35.2453 54.7018 37.6481 45.812C40.0502 36.9225 45.8004 29.4924 53.8381 24.8901C59.1205 21.8662 65.1144 20.2675 71.169 20.2675C83.5672 20.2675 95.1131 26.8714 101.303 37.5021Z" fill="currentColor"/>
</svg>
