<svg viewBox="0 0 32 32" fill="none" xmlns="http://www.w3.org/2000/svg">
<path d="M9.99969 3.32993C7.68865 4.65414 6.03536 6.79263 5.34474 9.35099C4.65397 11.9093 5.00861 14.5817 6.34278 16.8755C8.12232 19.9345 11.4404 21.8348 15.0026 21.8348C16.1274 21.8348 17.2434 21.6427 18.3013 21.274L22.7956 29L26 27.1637L21.5065 19.439C23.0244 18.15 24.1172 16.4405 24.6454 14.4839C25.336 11.9255 24.9814 9.2533 23.6472 6.95937C21.8678 3.90037 18.5496 2 14.9875 2C13.2428 2 11.518 2.45981 9.99969 3.32993ZM20.4428 8.79569C21.2829 10.2399 21.5061 11.9226 21.0712 13.5334C20.6364 15.1442 19.5954 16.4906 18.1403 17.3244C17.1839 17.8725 16.0988 18.1622 15.0026 18.1622C12.7583 18.1622 10.668 16.9655 9.54737 15.0392C8.70726 13.5949 8.48406 11.9124 8.91906 10.3015C9.35392 8.69065 10.3949 7.34426 11.85 6.51028C12.8063 5.96233 13.8914 5.67263 14.9875 5.67263C17.232 5.67263 19.3222 6.86932 20.4428 8.79569Z" fill="currentColor"/>
</svg>
