<svg viewBox="0 0 284 283" fill="none" xmlns="http://www.w3.org/2000/svg">
<path d="M84 87.9031C102.062 87.7693 138.749 70.0014 140.997 0C149.988 70.3225 184.078 87.9031 200 87.9031C185.483 87.9031 153.359 105.403 140.997 175.405C138.923 149.114 124.62 94.8069 84 87.9031Z" fill="currentColor"/>
<path d="M195 186.108C204.654 186.036 224.262 176.514 225.464 139C230.269 176.686 248.49 186.108 257 186.108C249.241 186.108 232.071 195.486 225.464 233C224.355 218.911 216.711 189.807 195 186.108Z" fill="currentColor"/>
<path d="M0 204.544C47.9243 204.278 54.5804 152.737 51.918 127C62.1635 196.354 91.1803 207.688 104.952 204.674C105.134 204.63 105.317 204.586 105.5 204.544C105.32 204.59 105.137 204.633 104.952 204.674C67.3076 213.778 55.0172 260.008 53.582 282.088C51.1858 222.982 16.8623 205.764 0 204.544Z" fill="currentColor"/>
</svg>
