<svg width="100%" height="100%" viewBox="0 0 169 169" fill="none" xmlns="http://www.w3.org/2000/svg">
<g clip-path="url(#clip0_2264_561)">
<path d="M90.2323 112.612C87.3661 110.091 82.7042 110.471 80.1833 113.338L53.593 143.312V23.5176C53.593 19.5808 50.3469 16.3347 46.4101 16.3347C42.4734 16.3347 39.2273 19.5808 39.2273 23.5176V143.312L12.637 113.338C9.77076 110.471 5.45415 110.091 2.58792 112.612C-0.278305 115.479 -0.658166 119.795 1.86273 122.661L41.023 166.484C43.9583 170.11 49.1382 169.557 51.4519 166.484L90.9575 122.661C93.4784 119.83 93.1331 115.133 90.2323 112.612Z" fill="currentColor"/>
<path d="M167.137 46.5164L128.322 2.69424C124.869 -0.793574 120.552 -1.00077 117.548 2.69424L78.0422 46.5164C75.5213 49.3827 75.9011 54.0446 78.7674 56.5655C83.1876 60.0878 87.6423 57.6705 88.8164 55.8403L115.407 25.8658V145.315C115.407 149.252 118.653 152.498 122.59 152.498C126.526 152.498 129.772 149.632 129.772 145.66V25.9003L156.363 55.8748C159.229 58.7411 163.546 59.1209 166.412 56.6C169.278 53.6993 169.658 49.3827 167.137 46.5164Z" fill="currentColor"/>
</g>
<defs>
<clipPath id="clip0_2264_561">
<rect width="100%" height="100%" fill="currentColor"/>
</clipPath>
</defs>
</svg>
