<svg viewBox="0 0 200 200" fill="none" xmlns="http://www.w3.org/2000/svg">
<path fill-rule="evenodd" clip-rule="evenodd" d="M100 157C151.915 157 194 131.704 194 100.5C194 69.2959 151.915 44 100 44C48.0852 44 6 69.2959 6 100.5C6 131.704 48.0852 157 100 157ZM100 143C143.63 143 179 123.748 179 100C179 76.2518 143.63 57 100 57C56.3695 57 21 76.2518 21 100C21 123.748 56.3695 143 100 143Z" fill="currentColor"/>
<path fill-rule="evenodd" clip-rule="evenodd" d="M99.5 126C132.361 126 159 111.897 159 94.5C159 77.103 132.361 63 99.5 63C66.6391 63 40 77.103 40 94.5C40 111.897 66.6391 126 99.5 126ZM100 111C124.853 111 145 103.613 145 94.5C145 85.3873 124.853 78 100 78C75.1472 78 55 85.3873 55 94.5C55 103.613 75.1472 111 100 111Z" fill="currentColor"/>
<path d="M122 92C122 97.5228 112.15 102 100 102C87.8497 102 78 97.5228 78 92C78 86.4772 87.8497 82 100 82C112.15 82 122 86.4772 122 92Z" fill="currentColor"/>
</svg>
