<svg  viewBox="0 0 200 200" fill="none" xmlns="http://www.w3.org/2000/svg">
<path fill-rule="evenodd" clip-rule="evenodd" d="M191 100C191 130.376 150.482 155 100.5 155C50.5182 155 10 130.376 10 100C10 69.6243 50.5182 45 100.5 45C150.482 45 191 69.6243 191 100ZM92.2938 57.2622C51.9393 61.0386 20.6493 79.3353 22.4056 98.129C26.5899 153.617 176.83 131.51 117.108 111.437C116.789 111.27 115.855 111.006 114.748 110.694C113.921 110.461 112.998 110.201 112.162 109.933C89.0777 103.96 73.8469 97.4761 73.8469 85.2329C73.8469 71.335 95.0836 60.0685 121.28 60.0685C129.932 60.0685 137.909 60.7512 144.758 62.3465C130.974 57.4599 112.406 55.3802 92.2938 57.2622Z" fill="currentColor"/>
</svg>
