<svg  viewBox="0 0 782 829" fill="none" xmlns="http://www.w3.org/2000/svg">
<g filter="url(#filter0_d_654_487)">
<path d="M133.352 502.78C116.185 504.787 78.5433 504.58 65.3099 487.695C60.5233 483.14 48.1508 453.38 36.5305 370.851C36.3768 369.76 36.2233 368.659 36.07 367.55C45.0439 362.781 76.7891 364.626 91.54 366.145C86.807 380.416 94.9039 406.863 99.544 418.303C102.195 424.638 104.196 437.667 104.865 443.389L114.774 445.516C138.526 431.087 173.102 441.524 187.421 448.546L204.6 454.463L206.669 511.914C203.36 507.516 184.065 499.533 133.352 502.78Z" fill="#C39F7D" class="limbs"/>
<path d="M96.091 319.25C80.2409 318.614 46.2959 317.741 37.3172 319.34C35.6504 319.426 33.2393 319.715 30.7148 320.299L30.661 285.01C38.5196 241.677 66.8713 212.313 80.0648 203.047C93.2612 195.631 106.241 190.68 111.082 189.132C125.87 186.468 149.381 187.093 159.287 187.738C167.74 187.725 177.788 194.314 181.755 197.61C188.642 209.75 186.872 233.042 185.127 243.171C181.7 255.812 169.268 262.986 158.747 266.486C158.314 271.275 157.053 281.648 155.473 284.82C152.837 288.566 144.395 295.931 131.715 295.422C122.693 296.977 102.936 303.919 96.091 319.25Z" fill="#C39F7D" class="limbs"/>
<path d="M129.307 448.635L114.774 445.516M114.774 445.516L104.865 443.389C104.196 437.667 102.195 424.638 99.544 418.303C94.9039 406.863 86.807 380.416 91.54 366.145C76.7891 364.626 45.0439 362.781 36.07 367.55C36.2233 368.659 36.3768 369.76 36.5305 370.851C48.1508 453.38 60.5233 483.14 65.3099 487.695C78.5433 504.58 116.185 504.787 133.352 502.78C184.065 499.533 203.36 507.516 206.669 511.914L204.6 454.463L187.421 448.546C173.102 441.524 138.526 431.087 114.774 445.516ZM56.3998 274.405C66.4021 251.144 74.6301 247.962 77.4937 249.278L119.793 272.327C125.076 272.099 138.15 271.11 148.185 268.982C151.032 268.614 154.752 267.815 158.747 266.486M158.747 266.486C169.268 262.986 181.7 255.812 185.127 243.171C186.872 233.042 188.642 209.75 181.755 197.61C177.788 194.314 167.74 187.725 159.287 187.738C149.381 187.093 125.87 186.468 111.082 189.132C106.241 190.68 93.2612 195.631 80.0648 203.047C66.8713 212.313 38.5196 241.677 30.661 285.01L30.7148 320.299C33.2393 319.715 35.6504 319.426 37.3172 319.34C46.2959 317.741 80.2409 318.614 96.091 319.25C102.936 303.919 122.693 296.977 131.715 295.422C144.395 295.931 152.837 288.566 155.473 284.82C157.053 281.648 158.314 271.275 158.747 266.486Z" stroke="black" stroke-width="6.60381"/>
<path d="M91.54 366.144C76.7891 364.626 45.044 362.781 36.07 367.55C36.2234 368.659 36.3769 369.76 36.5305 370.851C33.0771 371.076 25.9055 371.131 24.8466 369.548C21.5386 365.591 15.9697 351.335 20.1575 325.97C22.1226 323.012 26.5715 321.258 30.7148 320.299C33.2394 319.715 35.6505 319.426 37.3172 319.34C46.296 317.741 80.2409 318.614 96.0911 319.25C99.393 319.245 106.13 319.763 106.661 321.876L105.403 362.821C105.408 365.903 102.644 372.203 91.5501 372.748L91.54 366.144Z" fill="#302F2D" stroke="#3C3B3B" stroke-width="3.96229"/>
<path d="M60.429 318.436C50.3041 318.405 41.3242 318.627 37.317 319.34C33.2647 337.987 33.798 348.42 36.0698 367.55C40.4001 365.249 50.0325 364.488 60.4992 364.487C56.4754 354.527 55.344 330.501 60.429 318.436Z" fill="#666666" stroke="#505050" stroke-width="3.96229"/>
<path d="M91.54 366.144C76.7891 364.626 45.044 362.781 36.07 367.55C36.2234 368.659 36.3769 369.76 36.5305 370.851C33.0771 371.076 25.9055 371.131 24.8466 369.548C21.5386 365.591 15.9697 351.335 20.1575 325.97C22.1226 323.012 26.5715 321.258 30.7148 320.299C33.2394 319.715 35.6505 319.426 37.3172 319.34C46.296 317.741 80.2409 318.614 96.0911 319.25C99.393 319.245 106.13 319.763 106.661 321.876L105.403 362.821C105.408 365.903 102.644 372.203 91.5501 372.748L91.54 366.144Z" stroke="black" stroke-width="3.96229"/>
<path d="M96.0911 319.25C80.2409 318.614 46.2959 317.741 37.3172 319.34C35.6505 319.426 33.2394 319.715 30.7148 320.299L30.661 285.01C36.9808 287.929 50.9763 289.894 56.3998 274.405C66.4022 251.144 74.6301 247.962 77.4937 249.278L119.793 272.327C125.076 272.099 138.15 271.11 148.185 268.982C151.032 268.614 154.752 267.815 158.747 266.486C158.314 271.275 157.053 281.648 155.473 284.82C152.837 288.566 144.396 295.931 131.715 295.422C122.693 296.977 102.936 303.919 96.0911 319.25Z" fill="#986D58" class="limbs-shadow"/>
<path d="M185.127 243.171C181.7 255.812 169.268 262.986 158.747 266.486M158.747 266.486C154.752 267.815 151.032 268.614 148.185 268.982C138.15 271.11 125.076 272.099 119.793 272.327L77.4937 249.278C74.6301 247.962 66.4022 251.144 56.3998 274.405C50.9763 289.894 36.9808 287.929 30.661 285.01L30.7148 320.299C33.2394 319.715 35.6505 319.426 37.3172 319.34C46.2959 317.741 80.2409 318.614 96.0911 319.25C102.936 303.919 122.693 296.977 131.715 295.422C144.396 295.931 152.837 288.566 155.473 284.82C157.053 281.648 158.314 271.275 158.747 266.486Z" stroke="#986D58" class="limbs-shadow" stroke-width="3.96229"/>
<path fill-rule="evenodd" clip-rule="evenodd" d="M133.352 502.78C116.185 504.788 78.5428 504.581 65.3094 487.695C82.6178 478.93 116.742 458.224 114.774 445.516C115.786 444.901 116.819 444.331 117.868 443.804C133.73 452.413 167.184 448.931 181.929 446.114C183.982 446.941 185.827 447.765 187.421 448.547L204.599 454.464L206.668 511.914C203.36 507.516 184.064 499.533 133.352 502.78ZM90.9604 382.195C88.0415 378.457 73.9261 375.617 40.8153 394.158C38.9794 383.666 38.3612 383.856 36.53 370.851C36.3764 369.76 36.2229 368.66 36.0696 367.55C45.0435 362.782 76.7887 364.627 91.5395 366.145C89.1092 373.473 88.8301 372.126 90.9604 382.195Z" fill="#986D58" class="limbs-shadow"/>
<path d="M117.868 443.804C138.696 433.347 166.324 439.826 181.929 446.114C167.184 448.931 133.73 452.413 117.868 443.804Z" fill="#986D58" class="limbs-shadow"/>
<path d="M129.307 448.635L114.774 445.516M114.774 445.516L104.865 443.389C104.196 437.667 102.195 424.638 99.544 418.303C94.9039 406.863 86.807 380.416 91.54 366.145C76.7891 364.626 45.0439 362.781 36.07 367.55C36.2233 368.659 36.3768 369.76 36.5305 370.851C48.1508 453.38 60.5233 483.14 65.3099 487.695C78.5433 504.58 116.185 504.787 133.352 502.78C184.065 499.533 203.36 507.516 206.669 511.914L204.6 454.463L187.421 448.546C173.102 441.524 138.526 431.087 114.774 445.516ZM56.3998 274.405C66.4021 251.144 74.6301 247.962 77.4937 249.278L119.793 272.327C125.076 272.099 138.15 271.11 148.185 268.982C151.032 268.614 154.752 267.815 158.747 266.486M158.747 266.486C169.268 262.986 181.7 255.812 185.127 243.171C186.872 233.042 188.642 209.75 181.755 197.61C177.788 194.314 167.74 187.725 159.287 187.738C149.381 187.093 125.87 186.468 111.082 189.132C106.241 190.68 93.2612 195.631 80.0648 203.047C66.8713 212.313 38.5196 241.677 30.661 285.01L30.7148 320.299C33.2393 319.715 35.6504 319.426 37.3172 319.34C46.2959 317.741 80.2409 318.614 96.091 319.25C102.936 303.919 122.693 296.977 131.715 295.422C144.395 295.931 152.837 288.566 155.473 284.82C157.053 281.648 158.314 271.275 158.747 266.486Z" stroke="black" stroke-width="6.60381"/>
<path d="M154.722 659.258C155.585 647.59 162.723 622.265 184.371 614.307L284.055 591.783L388.45 627.864C381.197 634.919 360.22 650.01 334.338 653.932C345.208 656.313 353.016 660.165 356.805 662.913C362.624 667.658 366.29 675.886 367.396 679.406C369.176 691.73 368.775 717.442 352.932 721.693C337.528 724.578 304.62 739.993 296.226 778.572C292.498 787.603 280.679 803.162 263.229 793.151C250.671 786.126 225.55 768.642 225.529 754.906L225.518 747.642C209.652 736.571 206.545 720.155 206.975 713.33C206.971 710.38 209.337 706.419 212.97 702.094C206.117 697.922 188.447 689.056 172.595 686.967C165.984 682.354 153.154 670.355 154.722 659.258Z" fill="#C39F7D" class="limbs"/>
<path d="M225.518 747.642L225.529 754.906C225.55 768.642 250.671 786.126 263.229 793.151C280.679 803.162 292.498 787.603 296.226 778.572C304.62 739.993 337.528 724.578 352.932 721.693C368.775 717.442 369.176 691.73 367.396 679.406C366.29 675.886 362.624 667.658 356.805 662.913C353.016 660.165 345.208 656.313 334.338 653.932M225.518 747.642C236.3 744.764 258.65 734.912 261.795 718.529M225.518 747.642C209.652 736.571 206.545 720.155 206.975 713.33C206.971 710.38 209.337 706.419 212.97 702.094M212.97 702.094C206.117 697.922 188.447 689.056 172.595 686.967C165.984 682.354 153.154 670.355 154.722 659.258C155.585 647.59 162.723 622.265 184.371 614.307L284.055 591.783L388.45 627.864C381.197 634.919 360.22 650.01 334.338 653.932M212.97 702.094C215.361 699.249 218.299 696.247 221.473 693.272M334.338 653.932C331.272 653.26 327.962 652.705 324.43 652.326M221.473 693.272C229.029 686.188 237.916 679.258 243.898 674.972C258.146 664.384 285.473 655.977 297.356 653.097C307.348 651.504 316.456 651.469 324.43 652.326M221.473 693.272C223.547 667.561 242.54 650.099 251.776 644.582C259.694 639.727 285.308 634.479 324.43 652.326" stroke="black" stroke-width="6.60381"/>
<path fill-rule="evenodd" clip-rule="evenodd" d="M154.722 659.258C153.154 670.355 165.984 682.354 172.595 686.967C188.447 689.056 206.117 697.922 212.97 702.094C215.361 699.249 218.299 696.247 221.473 693.272C229.029 686.188 237.916 679.258 243.898 674.972C258.146 664.384 285.473 655.977 297.356 653.097C307.348 651.504 316.456 651.469 324.43 652.326C327.962 652.705 331.272 653.26 334.338 653.932C360.22 650.01 381.197 634.919 388.45 627.864L284.055 591.783L243.785 600.882C249.738 606.925 261.65 623.426 261.677 641.085C257.194 641.99 253.868 643.3 251.776 644.582C244.282 649.058 230.367 661.397 224.275 679.624L154.722 659.258ZM242.068 740.853C251.508 755.162 268.59 771.376 296.226 778.572C304.62 739.993 337.528 724.578 352.932 721.693C368.775 717.442 369.176 691.73 367.396 679.406C366.29 675.886 362.624 667.658 356.805 662.913C319.167 665.018 241.751 679.757 233.198 721.875C234.42 726.733 237.247 733.544 242.068 740.853Z" fill="#986D58" class="limbs-shadow"/>
<path d="M261.795 718.529C259.91 728.348 251.126 735.821 242.068 740.853M221.473 693.272C218.299 696.247 215.361 699.249 212.97 702.094C206.117 697.922 188.447 689.056 172.595 686.967C165.984 682.354 153.154 670.355 154.722 659.258L224.275 679.624M221.473 693.272C229.029 686.188 237.916 679.258 243.898 674.972C258.146 664.384 285.473 655.977 297.356 653.097C307.348 651.504 316.456 651.469 324.43 652.326M221.473 693.272C221.864 688.421 222.858 683.863 224.275 679.624M324.43 652.326C327.962 652.705 331.272 653.26 334.338 653.932C360.22 650.01 381.197 634.919 388.45 627.864L284.055 591.783L243.785 600.882C249.738 606.925 261.65 623.426 261.677 641.085M324.43 652.326C295.642 639.193 274.167 638.566 261.677 641.085M261.677 641.085C257.194 641.99 253.868 643.3 251.776 644.582C244.282 649.058 230.367 661.397 224.275 679.624M242.068 740.853C237.247 733.544 234.42 726.733 233.198 721.875C241.751 679.757 319.167 665.018 356.805 662.913C362.624 667.658 366.29 675.886 367.396 679.406C369.176 691.73 368.775 717.442 352.932 721.693C337.528 724.578 304.62 739.993 296.226 778.572C268.59 771.376 251.508 755.162 242.068 740.853Z" stroke="#986D58" class="limbs-shadow" stroke-width="6.60381"/>
<path d="M225.518 747.642L225.529 754.906C225.55 768.642 250.671 786.126 263.229 793.151C280.679 803.162 292.498 787.603 296.226 778.572C304.62 739.993 337.528 724.578 352.932 721.693C368.775 717.442 369.176 691.73 367.396 679.406C366.29 675.886 362.624 667.658 356.805 662.913C353.016 660.165 345.208 656.313 334.338 653.932M225.518 747.642C236.3 744.764 258.65 734.912 261.795 718.529M225.518 747.642C209.652 736.571 206.545 720.155 206.975 713.33C206.971 710.38 209.337 706.419 212.97 702.094M212.97 702.094C206.117 697.922 188.447 689.056 172.595 686.967C165.984 682.354 153.154 670.355 154.722 659.258C155.585 647.59 162.723 622.265 184.371 614.307L284.055 591.783L388.45 627.864C381.197 634.919 360.22 650.01 334.338 653.932M212.97 702.094C215.361 699.249 218.299 696.247 221.473 693.272M334.338 653.932C331.272 653.26 327.962 652.705 324.43 652.326M221.473 693.272C229.029 686.188 237.916 679.258 243.898 674.972C258.146 664.384 285.473 655.977 297.356 653.097C307.348 651.504 316.456 651.469 324.43 652.326M221.473 693.272C223.547 667.561 242.54 650.099 251.776 644.582C259.694 639.727 285.308 634.479 324.43 652.326" stroke="black" stroke-width="6.60381"/>
<path d="M297.356 653.097C285.473 655.977 258.146 664.383 243.898 674.971C237.916 679.258 229.029 686.188 221.473 693.271C223.547 667.561 242.539 650.099 251.776 644.581C259.693 639.727 285.308 634.479 324.43 652.325C316.455 651.468 307.348 651.504 297.356 653.097Z" fill="#302F2D"/>
<path d="M251.776 644.582C248.879 646.312 245.023 649.217 241.03 653.183C251.591 656.497 259.083 662.581 261.508 665.209C271.241 660.906 281.83 657.4 289.889 655.088C285.481 651.573 274.023 643.787 263.452 640.76C258.063 641.655 254.134 643.136 251.776 644.582Z" fill="#666666" stroke="#505050" stroke-width="6.60381"/>
<path d="M297.356 653.097C285.473 655.977 258.146 664.383 243.898 674.971C237.916 679.258 229.029 686.188 221.473 693.271C223.547 667.561 242.539 650.099 251.776 644.581C259.693 639.727 285.308 634.479 324.43 652.325C316.455 651.468 307.348 651.504 297.356 653.097Z" stroke="black" stroke-width="6.60381"/>
<path d="M152.833 658.104L177.76 670.285" stroke="black" stroke-width="3.96229"/>
<path d="M201.854 385.788C196.555 375.23 162.578 324.652 146.252 300.683L163.427 303.959C149.671 290.772 140.495 278.679 137.627 274.281C147.398 275.487 166.168 282.247 179.912 287.694C181.118 288.172 182.286 288.64 183.405 289.093L183.215 288.74L177.916 278.182L239.362 297.9L240.683 298.275L248.526 245.055C251.647 212.824 263.068 253.618 268.388 278.044L269.342 284.189C284.873 210.969 290.053 185.709 290.695 182.254C293.323 173.269 297.987 200.074 299.99 214.599L311.822 178.921C315.508 170.462 316.463 190.8 316.48 202.027L325.052 193.429L326.384 192.093C324.11 165.797 320.757 139.625 318.342 123.439L316.346 114.197C324.715 116.385 347.01 128.282 369.244 158.362C362.183 147.146 349.251 125.373 354.009 128.007C375.051 141.393 415.611 187.249 441.477 218.346L457.123 189.926C459.761 187.28 459.583 214.797 459.164 228.885L494.118 198.455L492.878 251.947L535.187 280.94C545.516 269.918 565.386 250.648 562.233 261.747L554.345 285.533L566.217 275.609L562.281 292.785L561.623 294.533C585.133 276.73 620.913 250.664 619.018 256.378C617.262 259.462 608.217 275.413 586.088 314.542L609.846 304.6C607.433 309.887 600.103 324.426 590.089 340.291C596.029 337.86 610.154 333.392 619.138 334.963C616.944 340.029 609.127 352.809 595.407 363.396L607.959 366.018C607.519 366.239 605.319 367.475 600.041 370.653C607.968 371.962 623.161 374.844 620.521 375.905C614.579 376.794 602.437 382.536 601.404 398.387L588.446 562.181C580.076 558.892 560.697 553.903 550.141 560.259C551.247 563.559 555.044 571.081 561.39 574.77L542.242 576.828C549.581 586.686 561.812 599.381 575.962 603.805L517.845 601.252C524.678 607.185 537.022 618.656 531.737 617.08L513.241 613.806C521.399 622.158 535.732 638.338 527.804 636.237C518.329 630.088 495.812 616.738 481.541 612.533C487.499 621.99 497.828 639.981 491.483 636.292L475.622 628.392C482.897 635.865 497.848 652.924 499.446 661.374L473.677 652.168C478.752 660.525 489.833 680.276 493.55 692.421C470.41 675.287 419.243 640.1 399.69 636.432L402.826 662.382L372.397 628.088C360.291 628.767 333.431 626.431 322.843 611.654C321.303 612.537 317.171 616.814 312.96 626.858L308.97 608.374C302.59 610.805 286.268 618.578 272.022 630.223C271.618 626.249 272.673 613.845 279.46 593.974C274.595 594.939 263.663 597.591 255.468 601.191L266.005 582.024C256.983 584.239 239.994 587.743 244.215 584.038L255.417 567.512C236.024 553.233 197.616 513.052 199.13 466.559C188.353 472.299 168.512 481.794 175.368 473.859L186.574 460.635C172.273 465.279 146.045 472.847 155.544 465.965L186.548 443.465C179.056 438.853 165.923 429.892 173.321 430.937L192.473 431.569C188.064 426.953 180.433 417.983 185.19 419.033L198.397 419.012C197.288 413.511 196.427 399.164 201.854 385.788Z" fill="#F7E7D8" class="body" />
<path d="M190.484 292.031C188.488 291.179 186.085 290.178 183.405 289.093M239.376 307.145L240.683 298.275M268.404 288.61C268.721 287.118 269.034 285.644 269.342 284.189M325.052 193.429L316.48 202.027C316.463 190.8 315.508 170.462 311.822 178.921L299.99 214.599C297.987 200.074 293.323 173.269 290.695 182.254C290.053 185.709 284.873 210.969 269.342 284.189M325.052 193.429L327.03 191.445M325.052 193.429L326.554 194.087M240.683 298.275L248.526 245.055C251.647 212.824 263.068 253.618 268.388 278.044L269.342 284.189M240.683 298.275L239.362 297.9L177.916 278.182L183.215 288.74L183.405 289.093M327.799 262.765C329.862 246.584 328.774 220.398 326.554 194.087M536.947 568.864C538.192 571.036 539.986 573.798 542.242 576.828M542.242 576.828C549.581 586.686 561.812 599.381 575.962 603.805L517.845 601.252C524.678 607.185 537.022 618.656 531.737 617.08L513.241 613.806C521.399 622.158 535.732 638.338 527.804 636.237C518.329 630.088 495.812 616.738 481.541 612.533C487.499 621.99 497.828 639.98 491.483 636.292L475.622 628.392C482.897 635.865 497.848 652.924 499.446 661.374L473.677 652.168C478.752 660.525 489.833 680.276 493.55 692.421C470.41 675.287 419.243 640.1 399.69 636.432L402.826 662.382L372.397 628.088C360.291 628.767 333.431 626.431 322.843 611.654C321.303 612.537 317.171 616.814 312.96 626.858L308.97 608.374C302.59 610.805 286.268 618.578 272.022 630.223C271.575 625.821 272.917 611.07 281.862 587.283M542.242 576.828L561.39 574.77C555.044 571.081 551.247 563.559 550.141 560.259C560.698 553.903 580.076 558.892 588.446 562.181L601.404 398.387C602.437 382.536 614.579 376.794 620.521 375.905C623.161 374.844 607.968 371.962 600.041 370.653C605.319 367.475 607.519 366.239 607.959 366.018L595.407 363.396C609.127 352.809 616.944 340.029 619.138 334.963C610.154 333.392 596.029 337.86 590.089 340.291C600.103 324.426 607.433 309.887 609.846 304.6L586.088 314.542C608.217 275.413 617.262 259.462 619.018 256.378C620.913 250.664 585.133 276.73 561.623 294.533M453.888 233.516C450.369 229.132 446.164 223.981 441.477 218.346M441.477 218.346C415.611 187.249 375.051 141.393 354.009 128.007C349.251 125.373 362.183 147.146 369.244 158.362C347.01 128.282 324.715 116.385 316.346 114.197L318.342 123.439C320.818 140.034 324.28 167.127 326.554 194.087M441.477 218.346L457.123 189.926C459.761 187.28 459.583 214.797 459.164 228.885L494.118 198.455L492.878 251.947L535.187 280.94C545.516 269.918 565.386 250.648 562.233 261.747L554.345 285.533L566.217 275.609L562.281 292.785L561.623 294.533M554.367 300.062C556.593 298.355 559.033 296.494 561.623 294.533M183.405 289.093C182.286 288.64 181.118 288.172 179.912 287.694C166.168 282.247 147.398 275.487 137.627 274.281C140.495 278.679 149.671 290.772 163.427 303.959L146.252 300.683C162.578 324.652 196.555 375.23 201.854 385.788C196.427 399.164 197.288 413.511 198.397 419.012L185.19 419.033C180.433 417.983 188.064 426.953 192.473 431.569L173.321 430.937C165.923 429.892 179.056 438.853 186.548 443.465L155.544 465.965C146.045 472.847 172.273 465.279 186.574 460.634L175.368 473.859C168.512 481.794 188.353 472.299 199.13 466.559C197.616 513.052 236.024 553.233 255.417 567.512L244.215 584.038C239.994 587.743 256.983 584.239 266.005 582.024L255.468 601.191C263.915 597.48 275.27 594.777 279.891 593.89" stroke="black" stroke-width="6.60381"/>
<path fill-rule="evenodd" clip-rule="evenodd" d="M535.187 280.94C523.269 404.669 443.19 627.16 218.224 527.285C230.272 545.815 245.387 560.127 255.417 567.511L244.215 584.038C239.994 587.743 256.983 584.239 266.005 582.024L255.468 601.191C263.663 597.59 274.595 594.939 279.46 593.974C272.673 613.845 271.618 626.249 272.022 630.222C286.268 618.578 302.59 610.805 308.97 608.373L312.96 626.858C317.171 616.814 321.303 612.537 322.843 611.654C333.431 626.431 360.291 628.767 372.397 628.088L402.826 662.382L399.69 636.432C419.243 640.1 470.41 675.287 493.55 692.421C489.833 680.276 478.752 660.525 473.677 652.168L499.446 661.374C497.848 652.924 482.897 635.865 475.622 628.391L491.483 636.292C497.828 639.98 487.499 621.99 481.541 612.533C495.812 616.738 518.329 630.087 527.804 636.237C535.732 638.338 521.399 622.158 513.241 613.806L531.737 617.079C537.022 618.656 524.678 607.184 517.845 601.251L575.962 603.804C561.812 599.381 549.581 586.686 542.242 576.828L561.39 574.77C555.044 571.081 551.247 563.559 550.141 560.259C560.697 553.903 580.076 558.892 588.446 562.181L601.404 398.387C602.437 382.536 614.579 376.794 620.521 375.905C623.161 374.844 607.968 371.962 600.041 370.653C605.319 367.475 607.519 366.239 607.959 366.018L595.407 363.396C609.127 352.809 616.944 340.029 619.138 334.963C610.154 333.392 596.029 337.86 590.089 340.29C600.103 324.426 607.433 309.886 609.846 304.6L586.088 314.542C608.217 275.413 617.262 259.462 619.018 256.378C620.913 250.664 585.133 276.73 561.623 294.533L562.281 292.785L566.217 275.609L554.345 285.533L562.233 261.747C565.386 250.648 545.516 269.918 535.187 280.94Z" fill="#E5D6C5" class="body-shadow" />
<path d="M318.342 123.439L316.346 114.196C324.715 116.385 347.01 128.282 369.244 158.361C362.183 147.146 349.251 125.373 354.009 128.007M536.947 568.864C538.192 571.035 539.986 573.798 542.242 576.828M542.242 576.828C549.581 586.686 561.812 599.381 575.962 603.804L517.845 601.251C524.678 607.184 537.022 618.656 531.737 617.079L513.241 613.806C521.399 622.158 535.732 638.338 527.804 636.237C518.329 630.087 495.812 616.738 481.541 612.533C487.499 621.99 497.828 639.98 491.483 636.292L475.622 628.391C482.897 635.865 497.848 652.924 499.446 661.374L473.677 652.168C478.752 660.525 489.833 680.276 493.55 692.421C470.41 675.287 419.243 640.1 399.69 636.432L402.826 662.382L372.397 628.088C360.291 628.767 333.431 626.431 322.843 611.654C321.303 612.537 317.171 616.814 312.96 626.858L308.97 608.373C302.59 610.805 286.268 618.578 272.022 630.222C271.618 626.249 272.673 613.845 279.46 593.974M542.242 576.828L561.39 574.77C555.044 571.081 551.247 563.559 550.141 560.259C560.697 553.903 580.076 558.892 588.446 562.181L601.404 398.387C602.437 382.536 614.579 376.794 620.521 375.905C623.161 374.844 607.968 371.962 600.041 370.653C605.319 367.475 607.519 366.239 607.959 366.018L595.407 363.396C609.127 352.809 616.944 340.029 619.138 334.963C610.154 333.392 596.029 337.86 590.089 340.29C600.103 324.426 607.433 309.886 609.846 304.6L586.088 314.542C608.217 275.413 617.262 259.462 619.018 256.378C620.913 250.664 585.133 276.73 561.623 294.533M554.367 300.062C556.592 298.354 559.033 296.494 561.623 294.533M561.623 294.533L562.281 292.785L566.217 275.609L554.345 285.533L562.233 261.747C565.386 250.648 545.516 269.918 535.187 280.94C523.269 404.669 443.19 627.16 218.224 527.285C230.272 545.815 245.387 560.127 255.417 567.511L244.215 584.038C239.994 587.743 256.983 584.239 266.005 582.024L255.468 601.191C263.663 597.591 274.595 594.939 279.46 593.974M198.397 419.012L185.19 419.032M279.891 593.889C279.753 593.916 279.609 593.944 279.46 593.974M281.862 587.283C280.991 589.599 280.192 591.83 279.46 593.974" class="body-shadow-line" stroke="#E5D6C5" stroke-width="6.60381"/>
<path d="M190.484 292.031C188.488 291.179 186.085 290.178 183.405 289.093M239.376 307.145L240.683 298.275M268.404 288.61C268.721 287.118 269.034 285.644 269.342 284.189M325.052 193.429L316.48 202.027C316.463 190.8 315.508 170.462 311.822 178.921L299.99 214.599C297.987 200.074 293.323 173.269 290.695 182.254C290.053 185.709 284.873 210.969 269.342 284.189M325.052 193.429L327.03 191.445M325.052 193.429L326.554 194.087M240.683 298.275L248.526 245.055C251.647 212.824 263.068 253.618 268.388 278.044L269.342 284.189M240.683 298.275L239.362 297.9L177.916 278.182L183.215 288.74L183.405 289.093M327.799 262.765C329.862 246.584 328.774 220.398 326.554 194.087M536.947 568.864C538.192 571.036 539.986 573.798 542.242 576.828M542.242 576.828C549.581 586.686 561.812 599.381 575.962 603.805L517.845 601.252C524.678 607.185 537.022 618.656 531.737 617.08L513.241 613.806C521.399 622.158 535.732 638.338 527.804 636.237C518.329 630.088 495.812 616.738 481.541 612.533C487.499 621.99 497.828 639.98 491.483 636.292L475.622 628.392C482.897 635.865 497.848 652.924 499.446 661.374L473.677 652.168C478.752 660.525 489.833 680.276 493.55 692.421C470.41 675.287 419.243 640.1 399.69 636.432L402.826 662.382L372.397 628.088C360.291 628.767 333.431 626.431 322.843 611.654C321.303 612.537 317.171 616.814 312.96 626.858L308.97 608.374C302.59 610.805 286.268 618.578 272.022 630.223C271.575 625.821 272.917 611.07 281.862 587.283M542.242 576.828L561.39 574.77C555.044 571.081 551.247 563.559 550.141 560.259C560.698 553.903 580.076 558.892 588.446 562.181L601.404 398.387C602.437 382.536 614.579 376.794 620.521 375.905C623.161 374.844 607.968 371.962 600.041 370.653C605.319 367.475 607.519 366.239 607.959 366.018L595.407 363.396C609.127 352.809 616.944 340.029 619.138 334.963C610.154 333.392 596.029 337.86 590.089 340.291C600.103 324.426 607.433 309.887 609.846 304.6L586.088 314.542C608.217 275.413 617.262 259.462 619.018 256.378C620.913 250.664 585.133 276.73 561.623 294.533M453.888 233.516C450.369 229.132 446.164 223.981 441.477 218.346M441.477 218.346C415.611 187.249 375.051 141.393 354.009 128.007C349.251 125.373 362.183 147.146 369.244 158.362C347.01 128.282 324.715 116.385 316.346 114.197L318.342 123.439C320.818 140.034 324.28 167.127 326.554 194.087M441.477 218.346L457.123 189.926C459.761 187.28 459.583 214.797 459.164 228.885L494.118 198.455L492.878 251.947L535.187 280.94C545.516 269.918 565.386 250.648 562.233 261.747L554.345 285.533L566.217 275.609L562.281 292.785L561.623 294.533M554.367 300.062C556.593 298.355 559.033 296.494 561.623 294.533M183.405 289.093C182.286 288.64 181.118 288.172 179.912 287.694C166.168 282.247 147.398 275.487 137.627 274.281C140.495 278.679 149.671 290.772 163.427 303.959L146.252 300.683C162.578 324.652 196.555 375.23 201.854 385.788C196.427 399.164 197.288 413.511 198.397 419.012L185.19 419.033C180.433 417.983 188.064 426.953 192.473 431.569L173.321 430.937C165.923 429.892 179.056 438.853 186.548 443.465L155.544 465.965C146.045 472.847 172.273 465.279 186.574 460.634L175.368 473.859C168.512 481.794 188.353 472.299 199.13 466.559C197.616 513.052 236.024 553.233 255.417 567.512L244.215 584.038C239.994 587.743 256.983 584.239 266.005 582.024L255.468 601.191C263.915 597.48 275.27 594.777 279.891 593.89" stroke="black" stroke-width="6.60381"/>
<path d="M316.347 114.197C324.715 116.385 347.01 128.282 369.245 158.362C362.183 147.146 349.251 125.373 354.01 128.007C375.051 141.393 415.611 187.249 441.477 218.346L457.123 189.926C459.761 187.28 459.583 214.797 459.164 228.885L494.118 198.455L492.879 251.947L535.187 280.94L459.307 322.659C462.56 290.516 410.512 197.525 316.347 114.197Z" fill="#E5D6C5" class="body-shadow" />
<path d="M342.401 310.951C343.497 307.647 352.163 303.011 378.062 310.896L382.662 296.361C377.158 295.269 365.619 292.953 363.505 292.428C359.102 291.994 357.027 287.947 383.951 275.227L362.157 274.6C357.76 277.688 346.853 285.321 338.409 291.145C337.309 291.807 332.204 293.004 320.581 292.493L309.374 305.718C326.277 303.579 325.23 310.096 322.594 313.622L308.763 338.078L322.638 342.679L342.401 310.951Z" fill="#E5D6C5" class="body-shadow"/>
<path d="M376.737 308.257C350.838 300.371 342.172 305.007 341.077 308.311L321.313 340.04M308.049 303.078C324.952 300.939 323.905 307.457 321.269 310.983L307.438 335.438M319.256 289.854C330.879 290.364 335.984 289.168 337.084 288.506C345.528 282.682 356.435 275.048 360.833 271.96M382.626 272.587C355.702 285.308 357.777 289.355 362.181 289.788C364.295 290.313 375.833 292.629 381.338 293.721" stroke="black" stroke-width="5.28305"/>
<path d="M367.596 376.95C365.381 367.708 358.839 346.718 350.396 336.693C323.474 366.848 309.736 398.611 306.232 410.723L316.81 418.632C321.863 411.8 339.094 393.9 367.596 376.95Z" fill="white"/>
<path d="M306.232 410.723C309.736 398.611 323.474 366.848 350.396 336.693C352.107 338.725 353.74 341.207 355.275 343.95C346.827 349.686 325.852 371.599 309.538 413.36L306.232 410.723Z" fill="#E5E5E7"/>
<path d="M349.118 385.564C346.473 382.707 341.574 375.01 343.147 367.083C344.726 363.382 349.987 377.858 352.42 385.559C351.761 386 350.177 386.619 349.118 385.564Z" fill="black" stroke="black" stroke-width="5.28305"/>
<path d="M284.427 402.172C287.63 423.827 295.915 429.67 299.658 429.885C311.017 386.28 334.172 353.872 350.396 336.693M360.916 326.772C358.029 329.098 354.426 332.426 350.396 336.693M316.811 418.632C337.377 393.77 356.161 384.452 362.983 382.901M350.396 336.693C358.839 346.718 365.381 367.709 367.596 376.951" stroke="black" stroke-width="3.96229"/>
<path d="M273.92 441.151C273.432 440.957 272.375 440.538 270.616 439.844C265.026 437.638 252.346 432.647 228.326 423.214C228.129 425.591 227.989 427.85 227.901 429.995C227.059 450.382 230.815 460.42 233.01 463.006C239.868 456.656 257.867 451.962 266.01 450.408C270.409 448.42 278.151 443.786 273.92 441.151Z" fill="white"/>
<path d="M273.92 441.151C273.432 440.956 272.374 440.538 270.616 439.844C265.025 437.638 252.346 432.646 228.326 423.213C228.129 425.59 227.989 427.85 227.9 429.994C243.046 432.612 262.255 442.269 270.625 445.778L273.92 441.151Z" fill="#E5E5E7"/>
<path d="M260.729 451.736C259.628 451.518 256.496 447.516 252.776 433.258L258.722 435.23C260.271 440.29 262.84 450.677 260.729 451.736Z" fill="black" stroke="black" stroke-width="2.64153"/>
<path d="M220.397 420.1C223.168 421.187 225.809 422.225 228.326 423.213M270.616 439.843C272.375 440.537 273.432 440.956 273.92 441.15C278.15 443.785 270.409 448.42 266.01 450.408C257.867 451.961 239.868 456.655 233.01 463.005C230.584 460.147 226.251 448.188 228.326 423.213M270.616 439.843C264.796 434.034 262.448 424.218 262.001 420.036M270.616 439.843C265.025 437.637 252.346 432.646 228.326 423.213" stroke="black" stroke-width="2.64153"/>
<path d="M283.718 369.814C274.228 382.508 274.959 400.205 276.511 407.467" stroke="black" stroke-width="3.96229"/>
<path d="M640.123 671.726C617.006 669.12 569.838 658.229 566.105 635.518C564.705 619.025 565.667 585.712 576.941 559.557C575.575 559.031 568.619 551.865 565.312 548.348C564.487 543.95 564.045 539.828 563.895 536.003C546.032 542.634 508.715 551.408 502.348 533.455L516.177 507.679C515.076 507.901 508.561 510.2 491.303 517.623C497.61 512.551 512.464 498.176 521.42 481.256C510.422 487.037 488.994 496.817 491.26 489.687C550.321 417.748 600.294 391.784 617.898 387.795C631.634 387.774 646.989 410.204 652.95 421.421C655.793 433.191 652.229 464.387 649.413 483.188C649.081 485.403 648.76 487.446 648.461 489.265C650.259 486.851 651.807 484.478 653.042 482.177C658.09 472.263 672.943 454.41 691.974 462.306C701.889 468.234 722.781 483.919 727.031 499.234C727.206 501.89 726.97 505.942 725.869 510.462L727.048 510.46C744.235 521.661 778.62 551.457 778.665 581.042C779.117 588.306 774.343 604.691 751.637 612.122C742.388 609.494 720.853 605.433 708.709 610.206C699.471 614.623 678.623 627.818 669.14 645.266C663.21 654.081 649.104 671.712 640.123 671.726Z" fill="#C39F7D" class="limbs"/>
<path d="M653.778 531.704C676.003 555.444 702.221 541.536 712.552 531.615C720.286 525.795 724.142 517.552 725.869 510.462M648.431 489.448C648.738 487.583 649.07 485.477 649.413 483.188M563.306 531.842L563.849 531.518M576.941 559.557C580.111 552.204 584.096 545.416 589.072 539.727C605.786 529.136 641.979 502.797 653.042 482.177C658.09 472.263 672.943 454.41 691.974 462.306C701.889 468.234 722.781 483.919 727.031 499.234C727.206 501.89 726.97 505.942 725.869 510.462M576.941 559.557C565.667 585.712 564.705 619.025 566.105 635.518C569.838 658.229 617.006 669.12 640.123 671.726C649.104 671.712 663.21 654.081 669.14 645.266C678.623 627.818 699.471 614.623 708.709 610.206C720.853 605.433 742.388 609.494 751.637 612.122C774.343 604.691 779.117 588.306 778.665 581.042C778.62 551.457 744.235 521.661 727.048 510.46L725.869 510.462M576.941 559.557C575.575 559.031 568.619 551.865 565.312 548.348C564.487 543.95 564.045 539.828 563.895 536.003M649.413 483.188C652.229 464.387 655.793 433.191 652.95 421.421C646.989 410.204 631.634 387.774 617.898 387.795C600.294 391.784 550.321 417.748 491.26 489.687C488.994 496.817 510.422 487.037 521.42 481.256C512.464 498.176 497.61 512.551 491.303 517.623C508.561 510.2 515.076 507.901 516.177 507.679L502.348 533.455C508.715 551.408 546.032 542.634 563.895 536.003M649.413 483.188C638.733 481.108 613.678 478.406 598.894 484.24C593.73 486.415 583.75 491.676 576.463 498.465M576.463 498.465C574.126 500.642 572.065 502.976 570.53 505.416C567.971 508.946 564.113 518.057 563.849 531.518M576.463 498.465C571.682 481.308 565.638 473.505 563.214 471.747C561.604 455.372 570.419 432.774 575.028 423.521M563.849 531.518C563.821 532.963 563.834 534.459 563.895 536.003" stroke="black" stroke-width="6.60381"/>
<path fill-rule="evenodd" clip-rule="evenodd" d="M566.105 635.517C569.838 658.229 617.006 669.119 640.123 671.725C649.104 671.712 663.21 654.08 669.14 645.266C678.623 627.817 699.47 614.622 708.709 610.205C720.853 605.432 742.388 609.494 751.637 612.121C756.225 610.619 760.082 608.752 763.311 606.668C754.709 587.699 738.893 553.376 719.147 525.001C706.884 507.377 693.104 492.049 678.595 484.118C648.764 509.258 584.503 574.734 566.105 635.517ZM576.941 559.557C575.575 559.03 568.619 551.865 565.312 548.348C564.487 543.95 564.045 539.827 563.895 536.003C546.032 542.634 508.715 551.408 502.348 533.455L516.176 507.679C515.076 507.901 508.561 510.2 491.302 517.623C497.61 512.55 512.464 498.175 521.42 481.256C510.422 487.037 488.993 496.816 491.26 489.687C525.085 448.485 555.93 422.365 579.42 406.816C578.765 410.248 576.969 418.395 575.028 423.521C570.419 432.773 561.604 455.372 563.214 471.747C565.638 473.504 571.682 481.308 576.463 498.464C583.75 491.676 593.73 486.414 598.894 484.24C613.678 478.406 638.733 481.107 649.413 483.187C649.081 485.402 648.76 487.445 648.461 489.264C634.143 508.48 603.921 530.317 589.072 539.727C584.096 545.415 580.111 552.203 576.941 559.557Z" fill="#986D58" class="limbs-shadow"/>
<path d="M727.048 510.46L725.869 510.462M653.778 531.704C676.003 555.444 702.221 541.536 712.551 531.614C715.173 529.642 717.349 527.391 719.147 525.001M727.031 499.233C727.206 501.89 726.97 505.941 725.869 510.462M653.042 482.176C651.807 484.477 650.259 486.85 648.461 489.264M648.43 489.447C648.44 489.386 648.451 489.325 648.461 489.264M563.306 531.841L563.849 531.517M576.463 498.464C574.126 500.641 572.065 502.975 570.53 505.415C567.971 508.945 564.113 518.056 563.849 531.517M576.463 498.464C583.75 491.676 593.73 486.414 598.894 484.24C613.678 478.406 638.733 481.107 649.413 483.187C649.081 485.402 648.76 487.445 648.461 489.264M576.463 498.464C571.682 481.308 565.638 473.504 563.214 471.747C561.604 455.372 570.419 432.773 575.028 423.521C576.969 418.395 578.765 410.248 579.42 406.816C555.93 422.365 525.085 448.485 491.26 489.687C488.993 496.816 510.422 487.037 521.42 481.256C512.464 498.175 497.61 512.55 491.302 517.623C508.561 510.2 515.076 507.901 516.176 507.679L502.348 533.455C508.715 551.408 546.032 542.634 563.895 536.003M725.869 510.462C724.727 515.149 722.655 520.339 719.147 525.001M563.849 531.517C563.821 532.963 563.834 534.458 563.895 536.003M563.895 536.003C564.045 539.827 564.487 543.95 565.312 548.348C568.619 551.865 575.575 559.03 576.941 559.557C580.111 552.203 584.096 545.415 589.072 539.727C603.921 530.317 634.143 508.48 648.461 489.264M719.147 525.001C706.884 507.377 693.104 492.049 678.595 484.118C648.764 509.258 584.503 574.734 566.105 635.517C569.838 658.229 617.006 669.119 640.123 671.725C649.104 671.712 663.21 654.08 669.14 645.266C678.623 627.817 699.47 614.622 708.709 610.205C720.853 605.432 742.388 609.494 751.637 612.121C756.225 610.619 760.082 608.752 763.311 606.668C754.709 587.699 738.893 553.376 719.147 525.001Z" stroke="#986D58" class="limbs-shadow" stroke-width="6.60381"/>
<path d="M653.778 531.704C676.003 555.444 702.221 541.536 712.552 531.615C720.286 525.795 724.142 517.552 725.869 510.462M648.431 489.448C648.738 487.583 649.07 485.477 649.413 483.188M563.306 531.842L563.849 531.518M576.941 559.557C580.111 552.204 584.096 545.416 589.072 539.727C605.786 529.136 641.979 502.797 653.042 482.177C658.09 472.263 672.943 454.41 691.974 462.306C701.889 468.234 722.781 483.919 727.031 499.234C727.206 501.89 726.97 505.942 725.869 510.462M576.941 559.557C565.667 585.712 564.705 619.025 566.105 635.518C569.838 658.229 617.006 669.12 640.123 671.726C649.104 671.712 663.21 654.081 669.14 645.266C678.623 627.818 699.471 614.623 708.709 610.206C720.853 605.433 742.388 609.494 751.637 612.122C774.343 604.691 779.117 588.306 778.665 581.042C778.62 551.457 744.235 521.661 727.048 510.46L725.869 510.462M576.941 559.557C575.575 559.031 568.619 551.865 565.312 548.348C564.487 543.95 564.045 539.828 563.895 536.003M649.413 483.188C652.229 464.387 655.793 433.191 652.95 421.421C646.989 410.204 631.634 387.774 617.898 387.795C600.294 391.784 550.321 417.748 491.26 489.687C488.994 496.817 510.422 487.037 521.42 481.256C512.464 498.176 497.61 512.551 491.303 517.623C508.561 510.2 515.076 507.901 516.177 507.679L502.348 533.455C508.715 551.408 546.032 542.634 563.895 536.003M649.413 483.188C638.733 481.108 613.678 478.406 598.894 484.24C593.73 486.415 583.75 491.676 576.463 498.465M576.463 498.465C574.126 500.642 572.065 502.976 570.53 505.416C567.971 508.946 564.113 518.057 563.849 531.518M576.463 498.465C571.682 481.308 565.638 473.505 563.214 471.747C561.604 455.372 570.419 432.774 575.028 423.521M563.849 531.518C563.821 532.963 563.834 534.459 563.895 536.003" stroke="black" stroke-width="6.60381"/>
<path d="M576.941 559.557C580.111 552.204 584.096 545.416 589.072 539.727C603.921 530.318 634.143 508.48 648.461 489.265C649.549 487.783 651.263 484.494 649.413 483.188C638.733 481.108 613.678 478.406 598.894 484.24C593.73 486.415 583.75 491.676 576.463 498.465C574.126 500.642 572.065 502.976 570.53 505.416C567.971 508.946 564.113 518.057 563.849 531.518C563.751 536.543 564.154 542.175 565.312 548.348C568.619 551.865 575.575 559.031 576.941 559.557Z" fill="#302F2D"/>
<path d="M563.306 531.842L563.849 531.518M563.849 531.518C563.751 536.543 564.154 542.175 565.312 548.348C568.619 551.865 575.575 559.031 576.941 559.557C580.111 552.204 584.096 545.416 589.072 539.727C603.921 530.318 634.143 508.48 648.461 489.265C649.549 487.783 651.263 484.494 649.413 483.188C638.733 481.108 613.678 478.406 598.894 484.24C593.73 486.415 583.75 491.676 576.463 498.465C574.126 500.642 572.065 502.976 570.53 505.416C567.971 508.946 564.113 518.057 563.849 531.518Z" stroke="black" stroke-width="6.60381"/>
<path fill-rule="evenodd" clip-rule="evenodd" d="M570.529 505.416C571.974 520.895 580.642 538.4 584.795 545.217C586.132 543.296 587.556 541.461 589.072 539.728C592.06 537.835 595.67 535.438 599.648 532.661C594.428 524.786 585.056 506.477 586.151 491.067C582.813 493.213 579.416 495.714 576.462 498.466C574.125 500.643 572.065 502.977 570.529 505.416Z" fill="#666666"/>
<path d="M600.084 533.307C599.942 533.1 599.797 532.885 599.648 532.661M599.648 532.661C595.67 535.438 592.06 537.835 589.072 539.728C587.556 541.461 586.132 543.296 584.795 545.217C580.642 538.4 571.974 520.895 570.529 505.416C572.065 502.977 574.125 500.643 576.462 498.466C579.416 495.714 582.813 493.213 586.151 491.067C585.056 506.477 594.428 524.786 599.648 532.661Z" stroke="#505050" stroke-width="6.60381"/>
<path d="M563.306 531.842L563.849 531.518M563.849 531.518C563.751 536.543 564.154 542.175 565.312 548.348C568.619 551.865 575.575 559.031 576.941 559.557C580.111 552.204 584.096 545.416 589.072 539.727C603.921 530.318 634.143 508.48 648.461 489.265C649.549 487.783 651.263 484.494 649.413 483.188C638.733 481.108 613.678 478.406 598.894 484.24C593.73 486.415 583.75 491.676 576.463 498.465C574.126 500.642 572.065 502.976 570.53 505.416C567.971 508.946 564.113 518.057 563.849 531.518Z" stroke="black" stroke-width="6.60381"/>
<path d="M472.952 176.034C469.416 166.354 457.054 143.435 435.9 129.203L435.698 129.08C434.579 129.868 433.54 130.574 432.601 131.189C425.213 136.483 409.281 140.03 402.238 141.141C389.563 143.802 368.32 129.086 359.283 121.395C354.523 117.704 350.679 108.421 349.351 104.24C345.661 109.529 339.479 125.828 336.848 133.316C334.654 137.722 326.964 147.596 313.763 151.842C290.881 159.361 238.768 167.673 213.368 140.769C208.955 133.951 200.523 118.335 202.096 110.408C205.599 98.2958 213.529 72.881 217.22 68.1207C224.022 53.5819 240.926 23.8389 254.13 21.1773C270.199 21.3729 304.187 21.3652 311.581 19.769C318.622 17.7771 335.475 12.2042 346.56 5.84766C348.981 5.62385 355.144 5.30628 360.428 5.82653L385.534 13.0526C396.613 3.52623 416.557 3.31974 425.143 4.40729C443.113 9.13456 465.251 33.623 474.074 45.2763C478.254 51.5252 478.67 63.0755 477.905 73.0065L479.401 74.3251L509.157 99.3743C527.891 114.535 565.889 146.307 568.011 152.115L565.402 173.251L523.405 348.977L516.121 335.781L504.929 358.911L498.929 321.278L484.451 354.319C471.669 344.873 446.624 319.509 448.697 293.619C454.634 289.207 471.762 261.531 492.779 186.12L472.952 176.034Z" fill="#C39F7D" class="limbs"/>
<path d="M504.014 191.836L492.779 186.12M492.779 186.12L472.952 176.034C469.416 166.354 457.054 143.435 435.9 129.203L435.698 129.08M492.779 186.12C471.762 261.531 454.634 289.207 448.697 293.619C446.624 319.509 471.669 344.873 484.451 354.319L498.929 321.278L504.929 358.911L516.121 335.781L523.405 348.977L565.402 173.251L568.011 152.115C565.889 146.307 527.891 114.535 509.157 99.3743L479.401 74.3251L477.905 73.0065M385.534 13.0526C396.613 3.52623 416.557 3.31974 425.143 4.40729C443.113 9.13456 465.251 33.623 474.074 45.2763C478.254 51.5252 478.67 63.0755 477.905 73.0065M385.534 13.0526C406.149 20.4174 419.251 37.6554 423.225 45.3538C431.168 57.4927 413.371 79.4885 403.48 88.9691C398.866 94.6994 381.58 105.776 349.351 104.24M385.534 13.0526L360.428 5.82653C355.144 5.30628 348.981 5.62385 346.56 5.84766C335.475 12.2042 318.622 17.7771 311.581 19.769C304.187 21.3652 270.199 21.3729 254.13 21.1773C240.926 23.8389 224.022 53.5819 217.22 68.1207C213.529 72.881 205.599 98.2958 202.096 110.408C200.523 118.335 208.955 133.951 213.368 140.769C238.768 167.673 290.881 159.361 313.763 151.842C326.964 147.596 334.654 137.722 336.848 133.316C339.479 125.828 345.661 109.529 349.351 104.24M349.351 104.24C350.679 108.421 354.523 117.704 359.283 121.395C368.32 129.086 389.563 143.802 402.238 141.141C409.281 140.03 425.213 136.483 432.601 131.189C433.54 130.574 434.579 129.868 435.698 129.08M349.351 104.24C362.538 90.4843 377.273 81.3046 382.992 78.4342M477.905 73.0065C477.508 78.1731 476.79 82.9013 476.117 86.2169C467.946 103.59 447.412 120.835 435.698 129.08" stroke="black" stroke-width="6.60381"/>
<path fill-rule="evenodd" clip-rule="evenodd" d="M446.907 120.433C445.249 121.82 443.628 123.127 442.073 124.341C492.067 121.144 507.626 106.364 509.156 99.374L479.401 74.3249L477.905 73.0062C477.507 78.1728 476.79 82.9011 476.117 86.2166C470.19 98.8178 457.759 111.352 446.907 120.433ZM566.706 162.683C557.438 192.921 520.862 261.442 448.697 293.619C446.623 319.509 471.668 344.873 484.45 354.319L498.928 321.278L504.929 358.911L516.12 335.78L523.405 348.977L565.401 173.251L566.706 162.683Z" fill="#986D58" class="limbs-shadow"/>
<path d="M504.014 191.835L492.779 186.12M492.779 186.12L472.952 176.034C469.415 166.353 457.053 143.435 435.899 129.203L435.697 129.08M492.779 186.12C471.762 261.531 454.634 289.207 448.697 293.619M448.697 293.619C446.623 319.509 471.668 344.873 484.45 354.319L498.928 321.278L504.929 358.911L516.12 335.78L523.405 348.977L565.401 173.251L566.706 162.683M448.697 293.619C520.862 261.442 557.438 192.921 566.706 162.683M509.156 99.3741C527.89 114.534 565.889 146.307 568.011 152.115L566.706 162.683M509.156 99.3741L479.401 74.3249L477.905 73.0062C477.507 78.1728 476.79 82.9011 476.117 86.2166C470.19 98.8178 457.759 111.352 446.907 120.433C445.249 121.82 443.628 123.127 442.073 124.341M509.156 99.3741C507.626 106.364 492.067 121.144 442.073 124.341M402.238 141.141C409.28 140.03 425.212 136.483 432.6 131.189C433.54 130.573 434.578 129.868 435.697 129.08M435.697 129.08C437.617 127.729 439.773 126.137 442.073 124.341" stroke="#986D58" class="limbs-shadow-line" stroke-width="6.60381"/>
<path d="M423.224 45.3533C431.167 57.4922 413.37 79.4881 403.479 88.9686C398.865 94.6989 381.58 105.776 349.351 104.24C347.131 107.421 344.009 114.587 341.301 121.422C339.508 125.95 337.896 130.332 336.848 133.316C334.653 137.722 326.964 147.595 313.763 151.842C290.881 159.361 238.767 167.673 213.368 140.768C208.955 133.951 200.522 118.335 202.095 110.408C230.137 126.954 271.113 129.038 303.613 126.65C323.852 117.918 371.172 84.2566 398.545 19.4644C411.692 27.8416 420.164 39.4255 423.224 45.3533Z" fill="#986D58" class="limbs-shadow"/>
<path d="M385.533 13.0521C390.274 14.746 394.618 16.9621 398.545 19.4644M349.351 104.24C381.58 105.776 398.865 94.6989 403.479 88.9686C413.37 79.4881 431.167 57.4922 423.224 45.3533C420.164 39.4255 411.692 27.8416 398.545 19.4644M349.351 104.24C362.537 90.4838 377.272 81.3041 382.991 78.4337M349.351 104.24C347.131 107.421 344.009 114.587 341.301 121.422M341.301 121.422C339.508 125.95 337.896 130.332 336.848 133.316C334.653 137.722 326.964 147.595 313.763 151.842C290.881 159.361 238.767 167.673 213.368 140.768C208.955 133.951 200.522 118.335 202.095 110.408C230.137 126.954 271.113 129.038 303.613 126.65M341.301 121.422C332.552 123.343 320.271 125.296 306.255 126.445C305.381 126.517 304.5 126.585 303.613 126.65M398.545 19.4644C371.172 84.2566 323.852 117.918 303.613 126.65" stroke="#986D58" class="limbs-shadow" stroke-width="6.60381"/>
<path d="M504.014 191.836L492.779 186.12M492.779 186.12L472.952 176.034C469.416 166.354 457.054 143.435 435.9 129.203L435.698 129.08M492.779 186.12C471.762 261.531 454.634 289.207 448.697 293.619C446.624 319.509 471.669 344.873 484.451 354.319L498.929 321.278L504.929 358.911L516.121 335.781L523.405 348.977L565.402 173.251L568.011 152.115C565.889 146.307 527.891 114.535 509.157 99.3743L479.401 74.3251L477.905 73.0065M385.534 13.0526C396.613 3.52623 416.557 3.31974 425.143 4.40729C443.113 9.13456 465.251 33.623 474.074 45.2763C478.254 51.5252 478.67 63.0755 477.905 73.0065M385.534 13.0526C406.149 20.4174 419.251 37.6554 423.225 45.3538C431.168 57.4927 413.371 79.4885 403.48 88.9691C398.866 94.6994 381.58 105.776 349.351 104.24M385.534 13.0526L360.428 5.82653C355.144 5.30628 348.981 5.62385 346.56 5.84766C335.475 12.2042 318.622 17.7771 311.581 19.769C304.187 21.3652 270.199 21.3729 254.13 21.1773C240.926 23.8389 224.022 53.5819 217.22 68.1207C213.529 72.881 205.599 98.2958 202.096 110.408C200.523 118.335 208.955 133.951 213.368 140.769C238.768 167.673 290.881 159.361 313.763 151.842C326.964 147.596 334.654 137.722 336.848 133.316C339.479 125.828 345.661 109.529 349.351 104.24M349.351 104.24C350.679 108.421 354.523 117.704 359.283 121.395C368.32 129.086 389.563 143.802 402.238 141.141C409.281 140.03 425.213 136.483 432.601 131.189C433.54 130.574 434.579 129.868 435.698 129.08M349.351 104.24C362.538 90.4843 377.273 81.3046 382.992 78.4342M477.905 73.0065C477.508 78.1731 476.79 82.9013 476.117 86.2169C467.946 103.59 447.412 120.835 435.698 129.08" stroke="black" stroke-width="6.60381"/>
<path d="M425.143 4.40701C416.556 3.31945 396.613 3.52595 385.533 13.0523C406.148 20.4171 419.25 37.6551 423.224 45.3535C431.167 57.4924 413.37 79.4883 403.479 88.9688C398.865 94.6992 381.58 105.776 349.351 104.24C350.678 108.42 354.522 117.704 359.283 121.395C368.32 129.086 389.562 143.802 402.238 141.141C409.28 140.03 425.212 136.483 432.6 131.189C433.54 130.573 434.578 129.868 435.697 129.08C447.411 120.835 467.945 103.59 476.117 86.2166C476.79 82.9011 477.507 78.1728 477.905 73.0062C478.669 63.0752 478.253 51.5249 474.073 45.276C465.25 33.6227 443.112 9.13427 425.143 4.40701Z" fill="#302F2D"/>
<path d="M435.899 129.203L435.697 129.08M435.697 129.08C447.411 120.835 467.945 103.59 476.117 86.2166C476.79 82.9011 477.507 78.1728 477.905 73.0062C478.669 63.0752 478.253 51.5249 474.073 45.276C465.25 33.6227 443.112 9.13427 425.143 4.40701C416.556 3.31945 396.613 3.52595 385.533 13.0523C406.148 20.4171 419.25 37.6551 423.224 45.3535C431.167 57.4924 413.37 79.4883 403.479 88.9688C398.865 94.6992 381.58 105.776 349.351 104.24C350.678 108.42 354.522 117.704 359.283 121.395C368.32 129.086 389.562 143.802 402.238 141.141C409.28 140.03 425.212 136.483 432.6 131.189C433.54 130.573 434.578 129.868 435.697 129.08Z" stroke="#302F2D" stroke-width="3.96229"/>
<path fill-rule="evenodd" clip-rule="evenodd" d="M425.143 4.40701C416.556 3.31945 396.613 3.52595 385.533 13.0523C406.148 20.4171 419.25 37.6551 423.224 45.3535C433.242 32.6589 448.509 25.8116 454.89 23.9747C445.566 15.1235 434.758 6.93643 425.143 4.40701ZM432.6 131.189C424.883 123.056 408.255 103.226 403.479 88.9688C398.865 94.6992 381.58 105.776 349.351 104.24C350.678 108.42 354.522 117.704 359.283 121.395C368.32 129.086 389.562 143.802 402.238 141.141C409.28 140.03 425.212 136.483 432.6 131.189Z" fill="#666666"/>
<path d="M435.899 129.203L435.697 129.08M432.6 131.189C425.212 136.483 409.28 140.03 402.238 141.141C389.562 143.802 368.32 129.086 359.283 121.395C354.522 117.704 350.678 108.42 349.351 104.24C381.58 105.776 398.865 94.6992 403.479 88.9688M432.6 131.189C433.54 130.573 434.578 129.868 435.697 129.08M432.6 131.189C424.883 123.056 408.255 103.226 403.479 88.9688M423.224 45.3535C419.25 37.6551 406.148 20.4171 385.533 13.0523C396.613 3.52595 416.556 3.31945 425.143 4.40701C434.758 6.93643 445.566 15.1235 454.89 23.9747M423.224 45.3535C431.167 57.4924 413.37 79.4883 403.479 88.9688M423.224 45.3535C433.242 32.6589 448.509 25.8116 454.89 23.9747M435.697 129.08C447.411 120.835 467.945 103.59 476.117 86.2166C476.79 82.9011 477.507 78.1728 477.905 73.0062C478.669 63.0752 478.253 51.5249 474.073 45.276C469.971 39.8581 462.991 31.6657 454.89 23.9747" stroke="#505050" stroke-width="3.96229"/>
<path d="M435.899 129.203L435.697 129.08M435.697 129.08C447.411 120.835 467.945 103.59 476.117 86.2166C476.79 82.9011 477.507 78.1728 477.905 73.0062C478.669 63.0752 478.253 51.5249 474.073 45.276C465.25 33.6227 443.112 9.13427 425.143 4.40701C416.556 3.31945 396.613 3.52595 385.533 13.0523C406.148 20.4171 419.25 37.6551 423.224 45.3535C431.167 57.4924 413.37 79.4883 403.479 88.9688C398.865 94.6992 381.58 105.776 349.351 104.24C350.678 108.42 354.522 117.704 359.283 121.395C368.32 129.086 389.562 143.802 402.238 141.141C409.28 140.03 425.212 136.483 432.6 131.189C433.54 130.573 434.578 129.868 435.697 129.08Z" stroke="black" stroke-width="3.96229"/>
<path d="M313.763 151.842C326.964 147.595 334.653 137.722 336.848 133.316C339.478 125.828 344.338 108.21 348.028 102.922C361.215 89.1655 377.272 81.3045 382.991 78.4341" stroke="black" stroke-width="3.96229"/>
<path d="M527.063 149.536C543.49 182.266 544.08 193.535 542.321 195.079C540.21 196.139 535.278 195.97 533.077 195.753" stroke="black" stroke-width="3.96229"/>
<path d="M333.61 501.132C341.744 492.974 354.784 471.297 341.877 449.859C337.097 442.714 323.185 440.152 316.827 439.765C310.628 439.774 303.916 442.168 301.335 443.364C291.803 446.359 271.554 457.238 266.815 476.796C265.235 482.56 263.148 495.398 267.448 500.637C269.639 504.21 277.955 511.707 293.693 513.114C303.231 513.696 324.567 512.113 333.61 501.132Z" fill="#E5D6C5" class="body-shadow" />
<path d="M316.276 501.181C325.288 492.142 339.735 468.126 325.435 444.374C320.14 436.457 304.726 433.619 297.681 433.19C290.814 433.2 283.377 435.853 280.518 437.178C269.957 440.496 247.522 452.549 242.272 474.218C240.521 480.604 238.209 494.828 242.973 500.632C245.4 504.59 254.614 512.897 272.051 514.456C282.618 515.1 306.257 513.347 316.276 501.181Z" fill="#E1957E" class="details" stroke="black" stroke-width="3.96229"/>
<path d="M316.276 501.181C325.287 492.142 339.735 468.126 325.434 444.374C319.832 467.386 290.804 506.924 242.972 500.632C245.4 504.591 254.614 512.897 272.05 514.456C282.617 515.1 306.256 513.347 316.276 501.181Z" fill="#B1685D" class="details-shadow"/>
<path d="M316.276 501.181C325.288 492.142 339.735 468.126 325.435 444.374C320.14 436.457 304.726 433.619 297.681 433.19C290.814 433.2 283.377 435.853 280.518 437.178C269.957 440.496 247.522 452.549 242.272 474.218C240.521 480.604 238.209 494.828 242.973 500.632C245.4 504.59 254.614 512.897 272.051 514.456C282.618 515.1 306.257 513.347 316.276 501.181Z" stroke="black" stroke-width="3.96229"/>
<path d="M278.576 462.935C279.646 471.915 283.444 479.438 285.209 482.076M254.157 472.878C255.759 483.97 260.127 490.259 262.11 492.017" stroke="black" stroke-width="3.96229"/>
<path d="M216.775 344.361C216.113 343.261 218.225 342.774 231.972 349.621C229.034 342.726 214.128 326.913 177.77 316.342L213.523 377.385C214.619 374.302 215.751 366.023 211.512 357.577C212.392 357.355 216.401 359.022 225.395 367.461C224.728 363.28 222.071 352.806 216.775 344.361Z" fill="#B1685D" class="details-shadow"/>
<path d="M171.824 314.712C173.867 315.24 175.848 315.784 177.77 316.342M177.77 316.342C214.128 326.913 229.034 342.726 231.972 349.621C218.225 342.774 216.113 343.261 216.775 344.361C222.071 352.806 224.728 363.28 225.395 367.461C216.401 359.022 212.392 357.355 211.512 357.577C215.751 366.023 214.619 374.302 213.523 377.385L177.77 316.342Z" stroke="black" stroke-width="3.96229"/>
<path d="M339.312 151.582C350.721 158.607 371.911 184.057 402.86 251.312C397.13 246.698 385.67 238.131 385.674 240.773C386.121 245.175 386.75 253.45 385.691 251.338C381.498 244.521 372.85 232.207 371.801 237.492L369.186 254.666C364.325 242.786 354.342 220.745 353.296 227.614L347.399 258.661C345.636 256.903 341.549 233.025 339.312 151.582Z" fill="#B1685D" class="details-shadow"/>
<path d="M331.384 149.722C333.033 148.975 335.675 149.342 339.312 151.582M339.312 151.582C350.721 158.607 371.911 184.057 402.86 251.312C397.13 246.698 385.67 238.131 385.674 240.773C386.121 245.175 386.75 253.45 385.69 251.338C381.498 244.521 372.85 232.207 371.801 237.492L369.186 254.666C364.325 242.786 354.342 220.745 353.296 227.614L347.399 258.661C345.636 256.903 341.549 233.025 339.312 151.582Z" stroke="black" stroke-width="3.96229"/>
</g>
<defs>
<filter id="filter0_d_654_487" x="0.827603" y="0.65686" width="781.168" height="828.093" filterUnits="userSpaceOnUse" color-interpolation-filters="sRGB">
<feFlood flood-opacity="0" result="BackgroundImageFix"/>
<feColorMatrix in="SourceAlpha" type="matrix" values="0 0 0 0 0 0 0 0 0 0 0 0 0 0 0 0 0 0 127 0" result="hardAlpha"/>
<feOffset dx="-13.2076" dy="26.4153"/>
<feGaussianBlur stdDeviation="1.32076"/>
<feColorMatrix type="matrix" values="0 0 0 0 0 0 0 0 0 0 0 0 0 0 0 0 0 0 0.8 0"/>
<feBlend mode="normal" in2="BackgroundImageFix" result="effect1_dropShadow_654_487"/>
<feBlend mode="normal" in="SourceGraphic" in2="effect1_dropShadow_654_487" result="shape"/>
</filter>
</defs>
</svg>
