<svg viewBox="0 0 683 662" fill="none" xmlns="http://www.w3.org/2000/svg">
<path d="M386.5 233.5C384.5 231.667 379.1 228 373.5 228C369 236.167 358.79 257.856 353.951 279.279C349.968 266.019 341.6 239.1 340 237.5L330 242.5L348.5 289.5L360 291C368.667 288.333 397.5 279.6 415.5 274L413.5 261.5L366 278.56C370 269.207 379.7 247.1 386.5 233.5Z" fill="#474646" stroke="#474646" stroke-width="2"/>
<path d="M350.284 658.5C350.951 656.834 349.884 648.8 340.284 630C323.256 630.809 283.924 625.324 277.784 619.5C271.451 623.5 257.884 632.7 254.284 637.5C251.951 641 248.384 647.8 252.784 647C256.284 645.834 266.584 644.2 279.784 647C283.784 651.5 293.384 660 299.784 658C305.284 655 318.284 649.6 326.284 652C333.451 655 348.284 660.5 350.284 658.5Z" fill="#FDF6EB" stroke="#F6EAD8" stroke-width="4"/>
<path d="M254.284 637.5C251.951 641 248.384 647.8 252.784 647C286.557 621 332.363 645.333 350.284 657C349.765 655.403 347.584 646.076 346.751 644C345.228 640.204 343.131 635.576 340.284 630C323.256 630.809 283.924 625.324 277.784 619.5C271.451 623.5 257.884 632.7 254.284 637.5Z" fill="#F6EAD8"/>
<path d="M350.284 658.5C350.645 657.598 352.018 662.331 350.284 657M350.284 657C349.765 655.403 347.584 646.076 346.751 644C345.228 640.204 343.131 635.576 340.284 630C323.256 630.809 283.924 625.324 277.784 619.5C271.451 623.5 257.884 632.7 254.284 637.5C251.951 641 248.384 647.8 252.784 647C286.557 621 332.363 645.333 350.284 657Z" stroke="#F6EAD8" stroke-width="4"/>
<path d="M350.284 658.5C350.951 656.834 349.884 648.8 340.284 630C323.256 630.809 283.924 625.324 277.784 619.5C271.451 623.5 257.884 632.7 254.284 637.5C251.951 641 248.384 647.8 252.784 647C256.284 645.834 266.584 644.2 279.784 647C283.784 651.5 293.384 660 299.784 658C305.284 655 318.284 649.6 326.284 652C333.451 655 348.284 660.5 350.284 658.5Z" stroke="#F3DBB5" stroke-width="4"/>
<path d="M273.784 296.5C275.451 296.5 278.284 299 276.284 309C267.784 341.833 242.984 410 211.784 420C208.118 415.167 200.584 402.8 199.784 392C198.451 375 204.084 336 237.284 316C241.118 313.333 248.784 306.4 248.784 300C249.618 298 252.184 295.6 255.784 302C259.784 300.5 268.984 297.3 273.784 296.5Z" fill="#F6CC81"/>
<path d="M226.284 538C225.657 565.002 251.243 607.446 267.284 614C244.913 605.629 200.393 581.984 179.251 548C175.979 542.742 173.268 537.236 171.284 531.5C171.118 530.334 169.784 528.5 174.784 530C179.784 531.5 217.084 541.2 226.284 538Z" fill="#F6CC81" stroke="#DEB365" stroke-width="2"/>
<path d="M179.251 548C175.979 542.742 173.268 537.236 171.284 531.5C171.118 530.334 169.784 528.5 174.784 530C178.469 531.106 199.69 536.663 214.284 538.231C210.618 542.654 198.478 550.8 179.251 548Z" fill="#FBD28A" stroke="#FFDA98"/>
<path d="M179.251 548C175.979 542.742 173.268 537.236 171.284 531.5C171.118 530.334 169.784 528.5 174.784 530C178.469 531.106 199.69 536.663 214.284 538.231C210.618 542.654 198.478 550.8 179.251 548Z" stroke="#FBD28A"/>
<path d="M226.284 538C225.657 565.002 251.243 607.446 267.284 614C244.913 605.629 200.393 581.984 179.251 548C175.979 542.742 173.268 537.236 171.284 531.5C171.118 530.334 169.784 528.5 174.784 530C179.784 531.5 217.084 541.2 226.284 538Z" stroke="#DEB365" stroke-width="3"/>
<path d="M273.784 296.5C275.451 296.5 278.284 299 276.284 309C274.93 314.23 273.163 320.355 271.022 327C265.515 329.667 254.3 335 253.5 335C252.7 335 247.833 327.667 245.5 324C239.5 328.167 226.655 334.6 223.273 327C227.283 322.953 231.924 319.229 237.284 316C241.118 313.333 248.784 306.4 248.784 300C249.618 298 252.184 295.6 255.784 302C259.784 300.5 268.984 297.3 273.784 296.5Z" fill="#FBD28A"/>
<path d="M273.784 296.5C275.451 296.5 278.284 299 276.284 309C267.784 341.833 242.984 410 211.784 420C208.118 415.167 200.584 402.8 199.784 392C198.451 375 204.084 336 237.284 316C241.118 313.333 248.784 306.4 248.784 300C249.618 298 252.184 295.6 255.784 302C259.784 300.5 268.984 297.3 273.784 296.5Z" stroke="#DEB365" stroke-width="3"/>
<path d="M477.784 566.5C490.118 546.833 496.184 486.3 421.784 401.5C385.118 393.333 303.084 381.5 268.284 399.5L239.284 474.5C236.451 480 230.284 494.3 228.284 507.5C226.451 517.5 223.384 541.6 225.784 558C225.881 571.833 235.696 602.087 286 623.295C308.8 636.659 345.5 627.667 361 621.5C379.8 617.1 401.023 616 409.284 616C413.451 619.667 432.984 614.9 477.784 566.5Z" fill="#F6CC81"/>
<path d="M477.784 566.5C490.118 546.833 496.184 486.3 421.784 401.5C385.118 393.333 303.084 381.5 268.284 399.5L239.284 474.5C236.451 480 230.284 494.3 228.284 507.5C226.451 517.5 223.384 541.6 225.784 558C225.881 571.833 235.696 602.087 286 623.295C308.8 636.659 345.5 627.667 361 621.5C379.8 617.1 401.023 616 409.284 616C413.451 619.667 432.984 614.9 477.784 566.5Z" stroke="#DEB365" stroke-width="3"/>
<path d="M444.284 565.5C440.267 564.841 433.284 548 431.284 551C429.284 554 406.216 583.975 406.784 606C406.784 619.6 414.118 628.334 417.784 631C424.584 635.8 437.951 632 443.784 629.5C464.256 620.177 475.887 607.51 496.784 577.5L500.784 572C504.384 567.6 499.951 567.167 497.284 567.5L478.352 568.5C476.013 563.614 475.359 558.632 475.784 550C475.784 548.5 474.984 546 471.784 548C459.429 559.649 453.378 563.57 444.284 565.5Z" fill="#FDF6EB" stroke="#E7DBCA" stroke-width="2"/>
<path d="M496.784 577.5C475.887 607.51 464.256 620.176 443.784 629.5C442.23 630.166 440.141 630.924 437.784 631.588C395.384 632.318 417.784 584.167 434.284 560L445.284 573.5C454.257 569.5 465.167 560.5 469.5 556.5L475.5 574.5L501 571L497.034 577.156L496.784 577.5Z" fill="#F6EAD8"/>
<path d="M444.284 565.5C440.267 564.841 433.284 548 431.284 551C429.284 554 406.216 583.975 406.784 606C406.784 619.6 414.118 628.334 417.784 631C424.584 635.8 437.951 632 443.784 629.5C464.256 620.177 475.887 607.51 496.784 577.5L500.784 572C504.384 567.6 499.951 567.167 497.284 567.5L478.352 568.5C476.013 563.614 475.359 558.632 475.784 550C475.784 548.5 474.984 546 471.784 548C459.429 559.649 453.378 563.57 444.284 565.5Z" stroke="#F3DBB5" stroke-width="2"/>
<path d="M435.684 367.387C434.572 387.875 422.416 405.898 403.506 418.451C384.596 431.005 358.985 438.044 331.157 436.533C303.328 435.022 278.63 425.252 261.19 410.725C243.75 396.198 233.617 376.965 234.729 356.477C235.841 335.988 247.998 317.966 266.907 305.413C285.817 292.859 311.429 285.82 339.257 287.331C367.085 288.842 391.784 298.612 409.223 313.139C426.663 327.666 436.797 346.898 435.684 367.387Z" fill="#F6CC81" stroke="#DEB365" stroke-width="2"/>
<path d="M435.185 367.36C434.083 387.655 422.041 405.546 403.229 418.035C384.418 430.523 358.915 437.539 331.184 436.034C303.452 434.528 278.859 424.792 261.51 410.341C244.161 395.889 234.126 376.799 235.228 356.504C236.33 336.209 248.372 318.317 267.184 305.829C285.996 293.341 311.498 286.325 339.23 287.83C366.961 289.336 391.554 299.072 408.903 313.523C426.253 327.975 436.287 347.065 435.185 367.36Z" stroke="#DEB365" stroke-width="3"/>
<path d="M289.284 365.5C293.799 364.043 296.444 364.191 301.284 365.5C313.931 374.597 320.993 379.103 333.284 381C347.963 381.343 354.481 382.763 363.784 387C363.784 392.2 359.784 400.834 357.784 404.5C354.984 407.3 350.951 418.334 349.284 423.5C353.138 466.681 336.681 486.264 264.284 488.5C229.187 491.312 179.28 456.566 189.284 434.5C197.273 419.545 207.736 412.3 232.284 400.5C243.16 394.276 247.638 389.117 253.284 377.5H267.784C272.117 377.333 282.484 374.7 289.284 365.5Z" fill="#FDF6EB" stroke="#633C02" stroke-width="4"/>
<path d="M283.267 400.922C284.5 394.5 285.137 390.928 292 365C292.833 365 295.7 365.2 300.5 366C308.333 371.333 325.7 382.3 332.5 383.5C332.5 383.5 291.5 406 288.5 407.5C286.167 408 281.853 407.384 283.267 400.922Z" fill="#F7EBD8" stroke="#F6EBD8" stroke-width="2"/>
<path d="M289.284 365.5C293.799 364.043 296.444 364.191 301.284 365.5C313.931 374.597 320.993 379.103 333.284 381C347.963 381.343 354.481 382.763 363.784 387C363.784 392.2 359.784 400.834 357.784 404.5C354.984 407.3 350.951 418.334 349.284 423.5C353.138 466.681 336.681 486.264 264.284 488.5C229.187 491.312 179.28 456.566 189.284 434.5C197.273 419.545 207.736 412.3 232.284 400.5C243.16 394.276 247.638 389.117 253.284 377.5H267.784C272.117 377.333 282.484 374.7 289.284 365.5Z" stroke="#F3DBB5" stroke-width="4"/>
<path d="M390.784 356.5C390.784 361.757 387.824 366.608 382.853 370.184C377.884 373.758 370.968 376 363.284 376C355.6 376 348.685 373.758 343.716 370.184C338.745 366.608 335.784 361.757 335.784 356.5C335.784 351.243 338.745 346.392 343.716 342.816C348.685 339.242 355.6 337 363.284 337C370.968 337 377.884 339.242 382.853 342.816C387.824 346.392 390.784 351.243 390.784 356.5Z" fill="#FAFCFD" stroke="#F4D5A2" stroke-width="2"/>
<path d="M286.156 356.645C282.286 365.233 270.055 368.513 258.55 363.328C247.044 358.143 241.4 346.807 245.271 338.219C249.141 329.631 261.372 326.35 272.878 331.536C284.383 336.721 290.027 348.057 286.156 356.645Z" fill="#FAFCFD" stroke="#F3DBB5" stroke-width="2"/>
<circle cx="267.284" cy="346.5" r="1.5" fill="black"/>
<circle cx="359.284" cy="356.5" r="1.5" fill="black"/>
<path d="M494.284 438.5C494.284 452.167 486.984 481.4 457.784 489C457.023 490.833 450.957 492.8 432.784 486C428.118 483.834 418.284 478.5 416.284 474.5C412.784 468.667 406.884 451.7 411.284 430.5C413.284 408.334 414.084 360.4 401.284 346C398.118 343.167 395.784 337.5 411.784 337.5C412.618 336.667 414.484 333.3 415.284 326.5C415.451 324 418.784 321 430.784 329C435.784 325.167 445.784 319.8 445.784 329V342C459.312 357.908 483.253 391.224 483.284 396.5C486.951 404.834 494.284 424.9 494.284 438.5Z" fill="#F6CC81"/>
<path d="M415.284 326.5C415.451 324 418.784 321 430.784 329C431.896 328.148 433.255 327.219 434.697 326.392C439.737 323.5 445.784 321.846 445.784 329C444.356 329.833 440.2 330.5 435 326.5L434.697 326.392C433.255 327.219 431.896 328.148 430.784 329C430.023 330.667 425.784 333 414.919 329C414.012 334.14 412.508 336.776 411.784 337.5C412.951 341.833 412.794 350 402.834 348C402.341 347.277 401.825 346.608 401.284 346C398.118 343.167 395.784 337.5 411.784 337.5C412.508 336.776 414.012 334.14 414.919 329C415.056 328.225 415.179 327.392 415.284 326.5Z" fill="#FBD28A"/>
<path d="M457.784 489C486.984 481.4 494.284 452.167 494.284 438.5C494.284 424.9 493.568 420 483.284 396.5C473 373 457.618 358 445.784 342V329C445.784 319.8 435.784 325.167 430.784 329C418.784 321 415.451 324 415.284 326.5C414.484 333.3 412.618 336.667 411.784 337.5C395.784 337.5 398.118 343.167 401.284 346C414.084 360.4 413.284 408.334 411.284 430.5C406.884 451.7 412.784 468.667 416.284 474.5" stroke="#DEB365" stroke-width="3"/>
<path d="M309.5 386.5C304.3 388.9 299 392.833 297 394.5M278.5 382C278.9 384.8 278.333 390.167 278 392.5" stroke="#474646" stroke-width="2"/>
<path d="M402.791 596.148C403.783 599.358 395.605 604.737 384.524 608.161C373.443 611.586 363.656 611.759 362.664 608.549C361.672 605.339 372.487 603.463 383.568 600.039C394.649 596.614 401.799 592.938 402.791 596.148Z" fill="#FBD28A"/>
<ellipse cx="293.744" cy="305.952" rx="21" ry="6.5" transform="rotate(-25.6582 293.744 305.952)" fill="#FBD28A"/>
<ellipse cx="205.267" cy="394.555" rx="7.16944" ry="2.94712" transform="rotate(-101.05 205.267 394.555)" fill="#FBD28A"/>
<path d="M488.154 452.655C490.162 454.673 485.63 462.438 478.031 469.998C470.432 477.559 462.644 482.051 460.636 480.033C458.628 478.015 472.5 466.5 470.759 462.689C469.018 458.878 486.146 450.636 488.154 452.655Z" fill="#FBD28A"/>
<ellipse cx="473.768" cy="399.793" rx="19.4089" ry="5.15514" transform="rotate(-114.603 473.768 399.793)" fill="#FBD28A"/>
<ellipse cx="452.929" cy="613.865" rx="14.5" ry="4.5" transform="rotate(-40.6872 452.929 613.865)" fill="#FAFCFD"/>
<path d="M405.156 407.369C406.355 409.546 401.641 414.442 394.626 418.306C387.611 422.169 380.953 423.536 379.754 421.359C378.555 419.182 385.287 416.871 392.302 413.008C399.317 409.145 403.958 405.192 405.156 407.369Z" fill="#FBD28A"/>
<path d="M233.765 590.954C232.554 592.461 223.371 587.092 213.254 578.963C203.136 570.833 195.916 563.022 197.127 561.515C198.338 560.008 213.034 576.461 217.638 573.506C222.243 570.551 234.976 589.447 233.765 590.954Z" fill="#FBD28A"/>
<path d="M209.694 428.958C202.87 436.931 200.251 445.076 197.671 442.868C195.091 440.66 198.531 432.407 205.355 424.435C212.178 416.463 219.801 411.79 222.381 413.998C224.96 416.206 216.517 420.986 209.694 428.958Z" fill="#FAFCFD"/>
<path d="M574.263 211.198L548.972 195.47C551.178 191.771 552.513 189.549 553.018 188.737C558.114 180.543 563.658 174.648 569.652 171.051C575.666 167.42 584.802 164.885 597.054 163.302C609.285 161.754 616.856 160.452 619.697 159.355C624.169 157.676 627.62 154.845 630.041 150.952C633.41 145.535 634.128 139.549 632.216 132.961C630.282 126.406 625.659 120.854 618.313 116.286C611.236 111.885 604.049 110.231 596.769 111.291C589.523 112.373 582.407 116.492 575.475 123.637L551.893 104.558C559.973 93.1502 571.272 86.2319 585.754 83.7825C600.269 81.3539 615.094 84.845 630.33 94.3202C646.31 104.259 656.429 116.374 660.708 130.632C664.953 144.869 663.65 157.533 656.722 168.672C652.911 174.8 647.53 179.529 640.665 182.866C633.767 186.182 621.699 189.053 604.449 191.424C595.505 192.669 589.406 194.323 586.131 196.418C582.856 198.513 578.907 203.428 574.263 211.198Z" fill="currentColor"/>
<path d="M569 228C569 239.598 559.598 249 548 249C536.402 249 527 239.598 527 228C527 216.402 536.402 207 548 207C559.598 207 569 216.402 569 228Z" fill="currentColor"/>
<path d="M345.936 130.499L316.173 131.579C315.937 127.279 315.803 124.69 315.768 123.734C315.418 114.092 316.725 106.105 319.687 99.7736C322.648 93.4025 328.809 86.1974 338.088 78.0412C347.369 69.925 352.922 64.6168 354.666 62.1196C357.437 58.2294 358.718 53.9535 358.552 49.3719C358.321 42.9965 355.573 37.6305 350.306 33.2339C345.042 28.8766 338.106 26.8544 329.461 27.1681C321.133 27.4702 314.247 30.1132 308.802 35.0586C303.395 40.0025 299.793 47.3943 298.035 57.1925L267.817 54.5385C268.147 40.5634 273.655 28.5141 284.299 18.3935C294.983 8.2715 309.23 2.88675 327.16 2.23626C345.966 1.55398 361.126 5.95127 372.639 15.3881C384.113 24.8257 390.105 36.0588 390.581 49.1673C390.842 56.3789 389.019 63.3072 385.19 69.9093C381.32 76.5128 372.913 85.6349 359.93 97.2368C353.206 103.265 349.071 108.044 347.525 111.611C345.979 115.177 345.448 121.46 345.936 130.499Z" fill="currentColor"/>
<path d="M350.955 147.375C357.433 156.996 354.886 170.046 345.266 176.524C335.646 183.002 322.595 180.455 316.117 170.835C309.639 161.214 312.187 148.164 321.807 141.686C331.427 135.208 344.477 137.755 350.955 147.375Z" fill="currentColor"/>
<path d="M144.323 215.824L123.237 236.857C120.139 233.865 118.281 232.058 117.605 231.38C110.791 224.549 106.317 217.805 104.183 211.149C102.021 204.464 101.639 194.992 102.895 182.701C104.18 170.44 104.641 162.772 104.221 159.755C103.607 155.018 101.639 151.012 98.4012 147.766C93.896 143.249 88.232 141.184 81.3811 141.542C74.5579 141.927 68.0979 145.161 61.9727 151.271C56.0727 157.156 52.8218 163.776 52.1924 171.105C51.5908 178.407 53.9772 186.275 59.3511 194.655L35.3919 213.259C26.1302 202.789 21.9739 190.209 22.8951 175.55C23.8443 160.864 30.6274 147.227 43.3306 134.557C56.6545 121.267 70.7597 114.181 85.6183 113.27C100.448 112.387 112.481 116.547 121.744 125.834C126.84 130.944 130.215 137.263 131.897 144.708C133.551 152.181 133.591 164.586 131.962 181.921C131.133 190.914 131.35 197.229 132.643 200.896C133.935 204.562 137.819 209.529 144.323 215.824Z" fill="currentColor"/>
<path d="M159.48 224.784C170.772 227.432 177.779 238.732 175.131 250.023C172.484 261.315 161.184 268.323 149.892 265.675C138.6 263.027 131.593 251.727 134.24 240.436C136.888 229.144 148.188 222.136 159.48 224.784Z" fill="currentColor"/>
</svg>
