<svg width="269" height="783" viewBox="0 0 269 783" fill="none" xmlns="http://www.w3.org/2000/svg">
<path d="M157.464 5.89917L27.9653 205.249C40.6799 223.499 50.9391 354.899 54.4794 418.318L49.2467 524.189L128.843 777.427L79.7037 515.682L99.793 453.598C100.577 383.718 99.5312 232.015 89.0769 184.241L163.829 89.8157L157.464 5.89917Z" fill="url(#paint0_linear_3033_180)"/>
<path d="M262.602 127.237L157.464 5.89917L163.829 89.8157L208.287 112.037L244.792 210.46C257.029 151.756 261.981 129.065 262.602 127.237Z" fill="url(#paint1_linear_3033_180)"/>
<path d="M163.829 89.8157L89.0769 184.241C99.5312 232.015 100.577 383.718 99.793 453.598L79.7037 515.682L128.843 777.427C191.031 470.805 226.262 299.348 244.792 210.46L208.287 112.037L163.829 89.8157Z" fill="#7A9ACA" class="shard" />
<path d="M163.829 89.8157L89.0769 184.241C99.5312 232.015 100.577 383.718 99.793 453.598L79.7037 515.682L128.843 777.427C191.031 470.805 226.262 299.348 244.792 210.46L208.287 112.037L163.829 89.8157Z" fill="url(#paint2_linear_3033_180)"/>
<path d="M128.843 777.427L49.2467 524.189L54.4794 418.318C50.9391 354.899 40.6799 223.499 27.9653 205.249L157.464 5.89917M128.843 777.427L79.7037 515.682L99.793 453.598C100.577 383.718 99.5312 232.015 89.0769 184.241L163.829 89.8157M128.843 777.427C191.031 470.805 226.262 299.348 244.792 210.46M157.464 5.89917L262.602 127.237C261.981 129.065 257.029 151.756 244.792 210.46M157.464 5.89917L163.829 89.8157M163.829 89.8157L208.287 112.037L244.792 210.46" stroke="white" stroke-width="4"/>
<defs>
<linearGradient id="paint0_linear_3033_180" x1="115.109" y1="776.748" x2="173.038" y2="-137.006" gradientUnits="userSpaceOnUse">
<stop stop-color="#565C9A"/>
<stop offset="0.539426" stop-color="#565C9A"/>
<stop offset="1" stop-color="white"/>
</linearGradient>
<linearGradient id="paint1_linear_3033_180" x1="115.109" y1="776.748" x2="173.038" y2="-137.006" gradientUnits="userSpaceOnUse">
<stop stop-color="#565C9A"/>
<stop offset="0.539426" stop-color="#565C9A"/>
<stop offset="1" stop-color="white"/>
</linearGradient>
<linearGradient id="paint2_linear_3033_180" x1="115.109" y1="776.748" x2="153.219" y2="5.68937" gradientUnits="userSpaceOnUse">
<stop stop-color="white" stop-opacity="0.4"/>
<stop offset="1" stop-color="#7A9ACA" stop-opacity="0"/>
</linearGradient>
</defs>
</svg>
