<svg width="846" height="715" viewBox="0 0 846 715" fill="none" xmlns="http://www.w3.org/2000/svg">
<path d="M167.904 491.087C168.439 482.527 169.188 461.232 167.904 444.539L145.055 426.883L140.899 423.672C134.253 433.945 135.802 460.055 137.407 471.826C139.178 473.951 141.851 476.779 145.055 479.613C151.53 485.34 160.172 491.087 167.904 491.087Z" fill="#414141" class="dark-parts-shadow"/>
<path d="M394.224 206.983C385.129 199.493 366.296 173.597 363.727 129.938C418.943 119.666 450.938 125.658 460.034 129.938C456.824 150.27 447.835 193.821 437.562 205.378C430.607 210.194 412.202 217.256 394.224 206.983Z" fill="#414141" class="dark-parts-shadow"/>
<path d="M652.647 491.087L655.857 444.539L677.259 428.488C676.83 454.17 674.105 476.641 672.795 484.667C665.803 492.582 655.829 500.635 652.647 491.087Z" fill="#414141" class="dark-parts-shadow"/>
<path d="M464.849 669.255L492.136 656.414L512.735 674.07C507.474 678.35 493.98 688.064 482.094 692.678C474.326 687.461 463.75 678.045 464.849 669.255Z" fill="#414141" class="dark-parts-shadow"/>
<path d="M326.81 658.019L352.492 674.07L338.046 688.516C331.625 687.981 316.613 684.342 307.926 674.07L326.81 658.019Z" fill="#414141" class="dark-parts-shadow"/>
<path d="M137.407 327.365L132.592 417.251L167.904 444.538C169.188 461.231 168.439 482.526 167.904 491.086C156.347 491.086 142.757 478.246 137.407 471.825C133.555 507.78 156.133 557.431 167.904 577.762C175.609 579.046 188.236 590.068 193.586 595.418L203.217 625.916C221.408 645.712 265.174 685.305 294.708 685.305L326.81 658.018L352.492 674.069L333.23 693.33C335.905 697.075 344.466 704.887 357.307 706.171C382.989 708.846 441.415 712.27 469.664 704.566L485.716 694.935C478.225 690.655 463.565 679.526 464.849 669.253L492.136 656.413L514.608 675.674L533.869 685.305C565.436 668.718 632.101 622.384 646.226 569.737L676.723 479.851C670.303 488.411 656.499 502.643 652.647 491.086L655.857 444.538L681.539 425.277V361.073C675.118 317.735 652.968 223.033 615.729 190.931C594.328 168.46 542.536 123.196 506.582 121.912H482.505L460.034 129.937C456.824 150.269 447.835 193.82 437.562 205.377C430.607 210.193 412.202 217.255 394.224 206.982C385.129 199.492 366.296 173.596 363.727 129.937L342.861 121.912C333.765 122.447 312.364 125.122 299.523 131.542C279.727 140.638 236.282 163.644 220.873 182.906C197.866 209.122 148.964 274.718 137.407 327.365Z" fill="#CEE4E8"  stroke="#CEE4E8" class="body" stroke-width="9.63065"/>
<path d="M492.141 656.413L514.613 675.674L524.244 680.489C526.384 675.674 529.38 664.117 524.244 656.413C525.314 653.737 531.627 647.745 548.32 645.177C565.976 626.451 601.931 579.046 604.499 539.24C593.263 542.985 565.655 550.155 545.11 548.87C552.066 546.73 568.545 541.808 578.817 539.24C585.773 536.03 603.536 524.473 618.945 503.927C626.436 495.902 642.059 470.862 644.627 434.908L598.079 393.175C596.473 380.869 591.016 354.331 582.028 346.627L562.766 353.047C536.819 332.72 505.169 264.216 514.613 206.982C491.606 220.358 447.519 253.21 455.224 277.607C452.549 274.932 442.062 266.05 421.517 251.925H408.676C407.606 252.996 395.835 261.877 357.312 288.843C339.656 306.499 305.307 345.664 309.159 361.073L322 364.283L460.039 404.411C451.479 420.462 426.974 456.416 397.44 471.825L394.23 502.322C388.344 506.603 372.721 523.189 357.312 555.291L423.122 672.464C412.421 676.744 391.02 689.97 391.02 708.63C418.146 709.895 450.707 709.738 469.67 704.566L485.721 694.935C478.231 690.655 463.571 679.526 464.855 669.254L492.141 656.413Z" fill="#B6CADA" class="body-shadow"/>
<path d="M655.862 444.538L652.652 491.087M514.613 675.674L492.141 656.413L464.855 669.254C463.571 679.526 478.231 690.655 485.721 694.935L469.67 704.566C450.707 709.738 418.146 709.895 391.02 708.63C391.02 689.97 412.421 676.744 423.122 672.464L357.312 555.291C372.721 523.189 388.344 506.603 394.23 502.322L397.44 471.825C426.974 456.416 451.479 420.462 460.039 404.411L322 364.283L309.159 361.073C305.307 345.664 339.656 306.499 357.312 288.843C395.835 261.877 407.606 252.996 408.676 251.925H421.517C442.062 266.05 452.549 274.932 455.224 277.607C447.519 253.21 491.606 220.358 514.613 206.982C505.169 264.216 536.819 332.72 562.766 353.047L582.028 346.627C591.016 354.331 596.473 380.869 598.079 393.175L644.627 434.908C642.059 470.862 626.436 495.902 618.945 503.927C603.536 524.473 585.773 536.03 578.817 539.24C568.545 541.808 552.066 546.73 545.11 548.87C565.655 550.155 593.263 542.985 604.499 539.24C601.931 579.046 565.976 626.451 548.32 645.177C531.627 647.745 525.314 653.737 524.244 656.413C529.38 664.117 526.384 675.674 524.244 680.489L514.613 675.674Z" stroke="#B6CADA" class="body-shadow" stroke-width="9.63065"/>
<path d="M137.407 327.365L132.592 417.251L167.904 444.538C169.188 461.231 168.439 482.526 167.904 491.086C156.347 491.086 142.757 478.246 137.407 471.825C133.555 507.78 156.133 557.431 167.904 577.762C175.609 579.046 188.236 590.068 193.586 595.418L203.217 625.916C221.408 645.712 265.174 685.305 294.708 685.305L326.81 658.018L352.492 674.069L333.23 693.33C335.905 697.075 344.466 704.887 357.307 706.171C382.989 708.846 441.415 712.27 469.664 704.566L485.716 694.935C478.225 690.655 463.565 679.526 464.849 669.253L492.136 656.413L514.608 675.674L533.869 685.305C565.436 668.718 632.101 622.384 646.226 569.737L676.723 479.851C670.303 488.411 656.499 502.643 652.647 491.086L655.857 444.538L681.539 425.277V361.073C675.118 317.735 652.968 223.033 615.729 190.931C594.328 168.46 542.536 123.196 506.582 121.912H482.505L460.034 129.937C456.824 150.269 447.835 193.82 437.562 205.377C430.607 210.193 412.202 217.255 394.224 206.982C385.129 199.492 366.296 173.596 363.727 129.937L342.861 121.912C333.765 122.447 312.364 125.122 299.523 131.542C279.727 140.638 236.282 163.644 220.873 182.906C197.866 209.122 148.964 274.718 137.407 327.365Z" stroke="#CEE4E8" class="body-line" stroke-width="9.63065"/>
<path d="M172.719 375.519C162.554 365.888 140.938 349.516 135.802 361.073C135.802 355.937 140.082 338.601 142.222 330.576C170.472 333.144 196.796 287.773 206.427 264.767L244.949 253.531C244.949 259.416 243.023 274.397 235.318 287.238L222.478 304.894C224.083 314.525 226.009 334.749 220.872 338.601C213.917 347.162 194.549 366.53 172.719 375.519Z" fill="#B6CADA" class="body-shadow"/>
<path d="M190.375 542.45L163.089 510.348L171.114 505.533L198.401 539.24L188.77 571.342L182.35 568.132L190.375 542.45Z" fill="#B6CADA" class="body-shadow"/>
<path d="M228.898 611.47C224.618 602.374 217.662 579.368 224.083 560.106C225.688 559.036 230.824 557.538 238.529 560.106L297.918 667.649C294.707 670.324 285.077 674.39 272.236 669.254C266.351 664.973 249.443 647.424 228.898 611.47Z" fill="#B6CADA" class="body-shadow"/>
<path d="M643.016 553.686L634.99 555.291L625.36 532.82L628.57 529.609L647.831 508.743L652.647 513.558L631.78 534.425L643.016 553.686Z" fill="#B6CADA" class="body-shadow"/>
<path d="M172.719 375.519C162.554 365.888 140.938 349.516 135.802 361.073C135.802 355.937 140.082 338.601 142.222 330.576C170.472 333.144 196.796 287.773 206.427 264.767L244.949 253.531C244.949 259.416 243.023 274.397 235.318 287.238L222.478 304.894C224.083 314.525 226.009 334.749 220.872 338.601C213.917 347.162 194.549 366.53 172.719 375.519Z" stroke="#B6CADA" class="body-shadow" stroke-width="3.21022"/>
<path d="M190.375 542.45L163.089 510.348L171.114 505.533L198.401 539.24L188.77 571.342L182.35 568.132L190.375 542.45Z" stroke="#B6CADA" class="body-shadow" stroke-width="3.21022"/>
<path d="M228.898 611.47C224.618 602.374 217.662 579.368 224.083 560.106C225.688 559.036 230.824 557.538 238.529 560.106L297.918 667.649C294.707 670.324 285.077 674.39 272.236 669.254C266.351 664.973 249.443 647.424 228.898 611.47Z" stroke="#B6CADA" class="body-shadow" stroke-width="3.21022"/>
<path d="M643.016 553.686L634.99 555.291L625.36 532.82L628.57 529.609L647.831 508.743L652.647 513.558L631.78 534.425L643.016 553.686Z" stroke="#B6CADA" class="body-shadow" stroke-width="3.21022"/>
<path d="M238.612 558.65C246.944 561.66 258.837 568.873 275.529 582.783C280.88 586.528 293.506 603.649 301.211 642.172C302.741 650.744 303.466 662.643 299.958 667.648C298.83 669.258 297.265 670.154 295.147 669.999C292.341 669.792 288.565 667.736 283.555 663.038C264.828 642.172 229.623 592.081 238.612 558.65Z" fill="#414141" class="dark-parts-shadow"/>
<path d="M220.956 568.337C220.272 561.159 223.869 553.325 238.612 558.65M238.612 558.65C246.944 561.66 258.837 568.873 275.529 582.783C280.88 586.528 293.506 603.649 301.211 642.172C302.741 650.744 303.466 662.643 299.958 667.648M238.612 558.65C229.623 592.081 264.828 642.172 283.555 663.038C292.345 671.279 297.335 671.391 299.958 667.648M299.958 667.648C285.488 675.353 277.643 674.069 275.529 672.464" stroke="#414141" stroke-width="3.21022"/>
<path d="M248.164 391.379C232.755 423.633 237.463 462.729 241.743 478.245C246.879 493.654 265.285 509.277 273.845 515.162C280.266 520.299 316.113 520.513 333.234 519.978C347.359 513.557 357.311 483.118 360.521 468.7L248.164 391.379Z" fill="#5ABDE5" class="eye"/>
<path d="M360.52 468.7L248.162 391.379C241.45 405.429 238.555 420.776 237.779 434.908C270.484 440.044 327.295 477.711 351.612 495.902C355.928 486.086 358.99 475.573 360.52 468.7Z" fill="#128ABA" class="eye-shadow"/>
<path d="M333.237 471.825C330.026 472.895 324.248 469.257 326.816 446.144L336.446 452.564C336.446 458.449 335.805 470.541 333.237 471.825Z" fill="#323131" stroke="#323131" stroke-width="3.21022"/>
<ellipse cx="328.421" cy="455.774" rx="1.60511" ry="4.81532" fill="white"/>
<path d="M232.112 380.333L201.615 404.41C188.774 421.103 187.704 461.659 188.774 479.85C196.479 515.804 256.188 529.073 285.08 531.214C304.342 533.782 335.909 532.284 349.285 531.214C359.557 524.793 367.192 491.086 369.725 475.035L360.521 468.701C357.31 483.118 347.359 513.557 333.234 519.978C316.113 520.513 280.265 520.299 273.845 515.162C265.284 509.277 246.879 493.654 241.743 478.245C237.462 462.729 232.754 423.633 248.163 391.379L233 380.944L232.112 380.333Z" fill="#414141" class="dark-parts-shadow"/>
<path d="M381.387 483.06L369.725 475.035M369.725 475.035C367.192 491.086 359.557 524.793 349.285 531.214C335.909 532.284 304.342 533.782 285.08 531.214C256.188 529.073 196.479 515.804 188.774 479.85C187.704 461.659 188.774 421.103 201.615 404.41L232.112 380.333L233 380.944M369.725 475.035L360.521 468.701M248.163 391.379C232.754 423.633 237.462 462.729 241.743 478.245C246.879 493.654 265.284 509.277 273.845 515.162C280.265 520.299 316.113 520.513 333.234 519.978C347.359 513.557 357.31 483.118 360.521 468.701M248.163 391.379L360.521 468.701M248.163 391.379L233 380.944M233 380.944C219.4 370.189 192.333 384.5 180.5 393" stroke="#414141" stroke-width="9.63065"/>
<path d="M582.029 455.774V423.671C582.029 415.967 572.398 405.543 567.583 401.294C492.916 445.586 462.533 464.592 454.25 470.22C458.855 484.666 471.276 513.557 484.117 513.557H513.009C535.481 511.417 580.745 496.864 582.029 455.774Z" fill="#128ABA" class="eye-shadow"/>
<path fill-rule="evenodd" clip-rule="evenodd" d="M567.583 401.294C492.916 445.586 462.533 464.592 454.25 470.22C456.434 477.072 460.377 487.174 465.289 495.902C483.924 468.128 553.362 442.245 582.029 431.697V423.671C582.029 415.967 572.398 405.543 567.583 401.294Z" fill="#206597" class="eye-shadow-dark"/>
<path d="M492.143 467.01C489.468 469.685 484.117 470.541 484.117 452.564L495.353 449.354C495.353 453.099 494.711 461.874 492.143 467.01Z" fill="#323131" stroke="#323131" stroke-width="3.21022"/>
<ellipse cx="488.932" cy="455.774" rx="1.60511" ry="4.81532" fill="white"/>
<path d="M454.249 470.22C452.462 501.038 468.066 522.654 476.091 529.609C481.228 533.461 523.174 533.354 543.506 532.819H548.321C575.287 526.399 594.869 511.953 601.29 505.532C615.415 490.123 620.016 472.36 620.551 465.405V426.882C620.551 411.473 597.995 395.85 586.717 389.965C580.037 393.913 573.663 397.688 567.582 401.295C572.398 405.544 582.028 415.967 582.028 423.672V455.774C580.744 496.865 535.48 511.418 513.009 513.558H484.117C471.276 513.558 458.855 484.666 454.249 470.22Z" fill="#3C3B3B"/>
<path d="M445.594 481.455C445.059 480.385 445.594 476.961 452.015 471.825C452.371 471.528 453.096 471.003 454.249 470.22M636.602 396.385C625.366 391.569 601.29 382.581 594.869 385.149C592.103 386.782 589.386 388.387 586.717 389.965M454.249 470.22C452.462 501.038 468.066 522.654 476.091 529.609C481.228 533.461 523.174 533.354 543.506 532.819H548.321C575.287 526.399 594.869 511.953 601.29 505.532C615.415 490.123 620.016 472.36 620.551 465.405V426.882C620.551 411.473 597.995 395.85 586.717 389.965M454.249 470.22C462.533 464.592 492.915 445.586 567.582 401.295M454.249 470.22C458.855 484.666 471.276 513.558 484.117 513.558H513.009C535.48 511.418 580.744 496.865 582.028 455.774V423.672C582.028 415.967 572.398 405.544 567.582 401.295M586.717 389.965C580.037 393.913 573.663 397.688 567.582 401.295" stroke="#3C3B3B" stroke-width="9.63065"/>
<path d="M445.594 481.455C445.059 480.385 445.594 476.961 452.015 471.825C452.371 471.528 453.096 471.003 454.249 470.22M636.602 396.385C625.366 391.569 601.29 382.581 594.869 385.149C592.103 386.782 589.386 388.387 586.717 389.965M454.249 470.22C452.462 501.038 468.066 522.654 476.091 529.609C481.228 533.461 523.174 533.354 543.506 532.819H548.321C575.287 526.399 594.869 511.953 601.29 505.532C615.415 490.123 620.016 472.36 620.551 465.405V426.882C620.551 411.473 597.995 395.85 586.717 389.965M454.249 470.22C462.533 464.592 492.915 445.586 567.582 401.295C573.663 397.688 580.037 393.913 586.717 389.965" stroke="#3B3A3A" stroke-width="9.63065"/>
<path d="M309.159 548.871C341.334 554.634 358.974 540.495 363.733 531.214" stroke="#414141" stroke-width="3.21022"/>
<path d="M354.103 442.933L368.549 426.882L312.37 364.283M476.091 441.328L455.225 433.303L495.352 381.939M373.364 422.067L405.466 442.933L410.282 446.144H418.307H419.912L450.409 423.672" stroke="#414141" stroke-width="3.21022"/>
<path d="M634.997 556.896L623.761 534.425L647.838 507.138" stroke="#414141" stroke-width="3.21022"/>
<path d="M171.115 503.928L200.007 539.24L190.376 572.947" stroke="#414141" stroke-width="3.21022"/>
<path d="M187.169 500.717C194.873 518.694 203.22 523.189 206.43 523.189M354.1 290.448L408.674 250.32H421.515L482.509 298.474" stroke="#414141" stroke-width="3.21022"/>
<path d="M424.727 523.188H402.255C346.347 553.573 322.458 578.685 316.433 588.998C352.987 630.089 382.458 644.642 392.623 646.782H429.541C461.643 639.077 491.231 607.189 502.013 592.208C492.475 578.056 467.899 550.455 424.727 523.188Z" fill="#985862" stroke="black" stroke-width="6.42043"/>
<path d="M338.051 611.171C331.218 604.828 323.976 597.478 316.433 588.998C320.125 582.679 330.526 570.802 350.892 555.559C347.147 563.495 339.336 585.728 338.051 611.171Z" fill="#773F49"/>
<path d="M502.013 592.208C496.056 600.485 484.36 613.922 469.67 625.59C476.091 605.305 471.404 570.451 468.258 555.559C485.335 570.602 496.337 583.787 502.013 592.208Z" fill="#773F49"/>
<path d="M338.051 611.171C331.218 604.828 323.976 597.478 316.433 588.998C320.125 582.679 330.526 570.802 350.892 555.559C347.147 563.495 339.336 585.728 338.051 611.171Z" stroke="#773F49" stroke-width="6.42043"/>
<path d="M502.013 592.208C496.056 600.485 484.36 613.922 469.67 625.59C476.091 605.305 471.404 570.451 468.258 555.559C485.335 570.602 496.337 583.787 502.013 592.208Z" stroke="#773F49" stroke-width="6.42043"/>
<path d="M315.582 590.603C333.558 635.546 378.714 663.903 399.046 672.464H418.307H423.122C453.619 662.833 490.538 618.425 504.984 597.023C504.244 595.667 503.257 594.052 502.015 592.208C491.233 607.189 461.645 639.077 429.543 646.782H392.625C382.46 644.642 352.99 630.089 316.435 588.998C316.094 589.581 315.811 590.116 315.582 590.603Z" fill="#3B3A3A"/>
<path d="M315.582 590.603C311.729 598.308 313.977 612.004 315.582 617.89M315.582 590.603C333.558 635.546 378.714 663.903 399.046 672.464H418.307H423.122C453.619 662.833 490.538 618.425 504.984 597.023M315.582 590.603C315.811 590.116 316.094 589.581 316.435 588.998M504.984 597.023C510.121 607.296 506.054 622.705 503.379 629.126M504.984 597.023C504.244 595.667 503.257 594.052 502.015 592.208M316.435 588.998C322.46 578.685 346.35 553.573 402.257 523.188H424.729C467.901 550.455 492.477 578.056 502.015 592.208M316.435 588.998C352.99 630.089 382.46 644.642 392.625 646.782H429.543C461.645 639.077 491.233 607.189 502.015 592.208" stroke="#323131" stroke-width="6.42043"/>
<path d="M318.557 585.788C317.691 586.978 316.986 588.05 316.433 588.998C332.25 606.778 346.741 619.59 358.916 628.577V608.09L318.557 585.788Z" fill="#EFF7FF"/>
<path d="M410.279 609.864H362.126L358.916 608.09V628.577C374.877 640.359 386.856 645.568 392.623 646.782H411.082L410.279 609.864Z" fill="#EFF7FF"/>
<path d="M453.617 609.864H410.279L411.082 646.782H429.541C440.18 644.228 450.544 639.018 460.038 632.648V607.249L453.617 609.864Z" fill="#EFF7FF"/>
<path d="M502.013 592.208C501.664 591.691 501.295 591.156 500.906 590.603L460.038 607.249V632.648C479.19 619.797 494.804 602.224 502.013 592.208Z" fill="#EFF7FF"/>
<path d="M439.171 577.762H442.382C447.404 577.134 451.917 576.238 455.919 575.195V545.25C446.851 538.057 436.478 530.61 424.727 523.188H410.279V577.762H439.171Z" fill="#EFF7FF"/>
<path d="M410.279 523.188H402.255C387.178 531.383 374.429 539.194 363.731 546.434V575.603C370.464 577.212 376.316 577.762 379.782 577.762H410.279V523.188Z" fill="#EFF7FF"/>
<path d="M363.731 546.434C353.832 553.134 345.689 559.346 339.082 564.921C346.916 570.44 355.917 573.735 363.731 575.603V546.434Z" fill="#EFF7FF"/>
<path d="M478.383 564.921C472.044 558.756 464.577 552.119 455.919 545.25V575.195C468.289 571.971 475.784 567.347 478.383 564.921Z" fill="#EFF7FF"/>
<path d="M410.279 609.864H362.126L358.916 608.09M410.279 609.864H453.617L460.038 607.249M410.279 609.864L411.082 646.782M411.082 646.782H392.623C386.856 645.568 374.877 640.359 358.916 628.577M411.082 646.782H429.541C440.18 644.228 450.544 639.018 460.038 632.648M460.038 607.249L500.906 590.603C501.295 591.156 501.664 591.691 502.013 592.208C494.804 602.224 479.19 619.797 460.038 632.648M460.038 607.249V632.648M358.916 608.09L318.557 585.788C317.691 586.978 316.986 588.05 316.433 588.998C332.25 606.778 346.741 619.59 358.916 628.577M358.916 608.09V628.577M410.279 523.188H402.255C387.178 531.383 374.429 539.194 363.731 546.434M410.279 523.188H424.727C436.478 530.61 446.851 538.057 455.919 545.25M410.279 523.188V577.762M410.279 577.762H379.782C376.316 577.762 370.464 577.212 363.731 575.603M410.279 577.762H439.171H442.382C447.404 577.134 451.917 576.238 455.919 575.195M363.731 546.434C353.832 553.134 345.689 559.346 339.082 564.921C346.916 570.44 355.917 573.735 363.731 575.603M363.731 546.434V575.603M455.919 545.25C464.577 552.119 472.044 558.756 478.383 564.921C475.784 567.347 468.289 571.971 455.919 575.195M455.919 545.25V575.195" stroke="#303435" stroke-width="3.21022"/>
<path d="M410.279 523.188H402.255C387.177 531.383 374.428 539.194 363.731 546.434V557.565C380.601 553.502 396.233 551.73 410.279 551.481V523.188Z" fill="#C8D0D3"/>
<path d="M424.726 523.188H410.279V551.481C428.375 551.16 443.838 553.367 455.918 556.457V545.25C446.851 538.057 436.477 530.61 424.726 523.188Z" fill="#C8D0D3"/>
<path d="M363.731 546.434C353.831 553.134 345.688 559.346 339.082 564.921C347.549 561.906 355.777 559.481 363.731 557.565V546.434Z" fill="#C8D0D3"/>
<path d="M478.382 564.921C472.043 558.756 464.576 552.119 455.918 545.25V556.457C465.811 558.987 473.435 562.11 478.382 564.921Z" fill="#C8D0D3"/>
<path d="M410.279 609.864H362.126L358.916 608.09M410.279 609.864H453.617L460.038 607.249M410.279 609.864L411.082 646.782M411.082 646.782H392.623C386.856 645.568 374.877 640.359 358.916 628.577M411.082 646.782H429.541C440.18 644.228 450.544 639.018 460.038 632.648M460.038 607.249L500.906 590.603C501.295 591.156 501.664 591.691 502.013 592.208C494.804 602.224 479.19 619.797 460.038 632.648M460.038 607.249V632.648M358.916 608.09L318.557 585.788C317.691 586.978 316.986 588.05 316.433 588.998C332.25 606.778 346.741 619.59 358.916 628.577M358.916 608.09V628.577M410.279 523.188H402.255C387.178 531.383 374.429 539.194 363.731 546.434M410.279 523.188H424.727C436.478 530.61 446.851 538.057 455.919 545.25M410.279 523.188V577.762M410.279 577.762H379.782C376.316 577.762 370.464 577.212 363.731 575.603M410.279 577.762H439.171H442.382C447.404 577.134 451.917 576.238 455.919 575.195M363.731 546.434C353.832 553.134 345.689 559.346 339.082 564.921C346.916 570.44 355.917 573.735 363.731 575.603M363.731 546.434V575.603M455.919 545.25C464.577 552.119 472.044 558.756 478.383 564.921C475.784 567.347 468.289 571.971 455.919 575.195M455.919 545.25V575.195" stroke="#303435" stroke-width="3.21022"/>
<path d="M411.886 264.766L325.21 356.257V364.283C345.756 384.828 390.485 418.856 410.281 433.302H419.912C475.128 393.496 495.352 367.493 498.562 359.467V349.837L423.122 264.766H411.886Z" fill="#414141" class="dark-parts-shadow" stroke="#414141" stroke-width="9.63065"/>
<path d="M411.886 264.766L325.21 356.257V364.283C345.756 384.828 390.485 418.856 410.281 433.302H419.912C475.128 393.496 495.352 367.493 498.562 359.467V349.837L423.122 264.766H411.886Z" fill="#414141" class="dark-parts-shadow" stroke="#323131" stroke-width="9.63065"/>
<path d="M752.17 75.3635L543.506 231.059L548.321 272.791C580.423 262.519 594.869 263.161 598.08 264.766L625.366 290.448L620.551 351.442C648.801 336.033 668.704 334.321 675.125 335.391H683.15L826.005 24L752.17 75.3635Z" fill="#414141" class="dark-parts-shadow" stroke="#414141" stroke-width="16.0511"/>
<path d="M548.321 272.791L543.506 231.059L634.997 174.88L575.608 265.629C568.456 266.981 559.449 269.23 548.321 272.791Z" fill="#807A77"  class="dark-parts-light"/>
<path d="M675.125 335.391C668.704 334.321 648.801 336.033 620.551 351.442C666.778 278.249 684.755 256.74 687.966 255.135L675.125 335.391Z" fill="#807A77"  class="dark-parts-light"/>
<path d="M675.125 202.167C677.265 197.886 709.153 160.113 819.584 43.2612L678.335 242.294C677.265 234.269 675.125 215.007 675.125 202.167Z" fill="#807A77" class="dark-parts-light"/>
<path d="M752.17 75.3635L543.506 231.059L548.321 272.791C580.423 262.519 594.869 263.161 598.08 264.766L625.366 290.448L620.551 351.442C648.801 336.033 668.704 334.321 675.125 335.391H683.15L826.005 24L752.17 75.3635Z" stroke="#414141" stroke-width="16.0511"/>
<path d="M17.0246 59.3126C57.1523 150.269 138.05 333.465 140.618 338.601C147.038 335.926 163.731 335.071 179.14 353.048L193.586 341.812C197.866 339.137 205.785 326.403 203.217 296.869L230.504 267.977C233.714 268.512 244.628 270.545 262.606 274.397C269.561 271.722 281.225 260.272 272.237 235.874C210.708 177.02 71.9193 55.4603 8.99902 40.0513L17.0246 59.3126Z" fill="#414141" class="dark-parts-shadow" stroke="#414141" stroke-width="9.63065"/>
<path d="M230.503 267.976C233.714 268.511 244.628 270.544 262.605 274.397C265.62 273.237 269.518 270.43 272.237 265.636L193.586 218.218C196.796 222.498 208.674 238.442 230.503 267.976Z" fill="#807A77"  class="dark-parts-light"/>
<path d="M179.14 353.047L193.586 341.811C107.552 212.118 66.9539 160.434 57.409 150.803C96.0954 238.405 138.764 334.893 140.618 338.601C147.038 335.926 163.731 335.07 179.14 353.047Z" fill="#807A77"  class="dark-parts-light"/>
<path d="M156.668 190.931C154.528 189.861 130.987 162.802 53.9414 63.1274C69.7453 72.5428 89.5125 86.3985 111.11 102.65L156.668 190.931Z" fill="#807A77"  class="dark-parts-light"/>
<path d="M17.0246 59.3126C57.1523 150.269 138.05 333.465 140.618 338.601C147.038 335.926 163.731 335.071 179.14 353.048L193.586 341.812C197.866 339.137 205.785 326.403 203.217 296.869L230.504 267.977C233.714 268.512 244.628 270.545 262.606 274.397C269.561 271.722 281.225 260.272 272.237 235.874C210.708 177.02 71.9193 55.4603 8.99902 40.0513L17.0246 59.3126Z" stroke="#414141" stroke-width="9.63065"/>
<path d="M585.239 536.03C601.932 527.041 615.736 508.743 620.551 500.717" stroke="#414141" stroke-width="3.21022"/>
<path d="M458.435 524.794C472.56 545.339 481.442 550.476 484.117 550.476L509.799 548.871" stroke="#414141" stroke-width="3.21022"/>
<path d="M334.841 131.542C336.125 159.792 338.587 171.135 339.657 173.275M344.472 184.511C375.29 221.75 397.976 227.849 405.466 226.244M432.753 223.034C467.423 210.193 479.301 195.212 480.906 189.326M482.511 178.091C490.216 160.113 491.072 141.708 490.537 134.753" stroke="#414141" stroke-width="3.21022"/>
<path d="M519.431 635.546C526.386 621.635 544.47 588.356 561.164 566.526C565.949 564.229 572.446 561.522 578.818 559.579C581.493 562.965 586.523 571.342 585.239 577.762C579.888 597.024 562.767 638.875 537.085 652.192H522.639C519.915 647.516 518.183 641.784 519.431 635.546Z" fill="#414141" class="dark-parts-shadow"/>
<path d="M601.291 584.183V563.316C601.291 555.069 590.257 556.091 578.818 559.579M532.272 662.833C529.52 660.907 525.524 657.142 522.639 652.192M522.639 652.192C519.915 647.516 518.183 641.784 519.431 635.546C526.386 621.635 544.47 588.356 561.164 566.526C565.949 564.229 572.446 561.522 578.818 559.579M522.639 652.192H537.085C562.767 638.875 579.888 597.024 585.239 577.762C586.523 571.342 581.493 562.965 578.818 559.579" stroke="#414141" stroke-width="3.21022"/>
</svg>
