<svg width="148" height="277" viewBox="0 0 148 277" fill="none" xmlns="http://www.w3.org/2000/svg">
<path d="M48.0698 9.61945L36.8693 63.8209C39.1966 75.5931 35.9882 107.488 34.0931 121.963L27.3804 142.149C28.5441 148.035 33.2732 182.267 35.4923 198.648L45.5257 228.774L99.8646 266.451L59.3556 226.04L47.137 164.236L49.0879 125.625L55.6393 88.652C55.8768 84.6975 54.6955 63.3547 48.0698 9.61945Z" fill="#565C9A" class="shard-shadow"/>
<path d="M48.0698 9.61945L36.8693 63.8209C39.1966 75.5931 35.9882 107.488 34.0931 121.963L27.3804 142.149C28.5441 148.035 33.2732 182.267 35.4923 198.648L45.5257 228.774L99.8646 266.451L59.3556 226.04L47.137 164.236L49.0879 125.625L55.6393 88.652C55.8768 84.6975 54.6955 63.3547 48.0698 9.61945Z" fill="url(#paint0_linear_3033_173)"/>
<path d="M99.8646 266.451C107.382 252.053 124.716 220.458 133.919 209.26C132.258 180.231 130.348 168.852 129.601 166.791L112.877 146.652L81.7106 50.8784L48.0698 9.61945M99.8646 266.451L45.5257 228.774L35.4923 198.648C33.2732 182.267 28.5441 148.035 27.3804 142.149L34.0931 121.963C35.9882 107.488 39.1966 75.5931 36.8693 63.8209L48.0698 9.61945M99.8646 266.451L59.3556 226.04L47.137 164.236L49.0879 125.625L55.6393 88.652C55.8768 84.6975 54.6955 63.3547 48.0698 9.61945" stroke="black"/>
<path d="M99.8646 266.451C107.382 252.053 124.716 220.458 133.919 209.26C132.258 180.231 130.348 168.852 129.601 166.791L112.877 146.652L81.7106 50.8784L48.0698 9.61945C54.6955 63.3547 55.8768 84.6975 55.6393 88.652L49.0879 125.625L47.137 164.236L59.3556 226.04L99.8646 266.451Z" fill="#7A9ACA" class="shard" />
<path d="M99.8646 266.451C107.382 252.053 124.716 220.458 133.919 209.26C132.258 180.231 130.348 168.852 129.601 166.791L112.877 146.652L81.7106 50.8784L48.0698 9.61945C54.6955 63.3547 55.8768 84.6975 55.6393 88.652L49.0879 125.625L47.137 164.236L59.3556 226.04L99.8646 266.451Z" fill="url(#paint1_linear_3033_173)"/>
<path d="M99.8646 266.451C107.382 252.053 124.716 220.458 133.919 209.26C132.258 180.231 130.348 168.852 129.601 166.791L112.877 146.652L81.7106 50.8784L48.0698 9.61945M99.8646 266.451L45.5257 228.774L35.4923 198.648C33.2732 182.267 28.5441 148.035 27.3804 142.149L34.0931 121.963C35.9882 107.488 39.1966 75.5931 36.8693 63.8209L48.0698 9.61945M99.8646 266.451L59.3556 226.04L47.137 164.236L49.0879 125.625L55.6393 88.652C55.8768 84.6975 54.6955 63.3547 48.0698 9.61945" stroke="white" stroke-width="2"/>
<defs>
<linearGradient id="paint0_linear_3033_173" x1="99.1768" y1="266.587" x2="48.363" y2="9.56149" gradientUnits="userSpaceOnUse">
<stop stop-color="white" stop-opacity="0"/>
<stop offset="1" stop-color="white" stop-opacity="0.34"/>
</linearGradient>
<linearGradient id="paint1_linear_3033_173" x1="99.1768" y1="266.587" x2="48.363" y2="9.56149" gradientUnits="userSpaceOnUse">
<stop stop-color="white" stop-opacity="0"/>
<stop offset="1" stop-color="white" stop-opacity="0.3"/>
</linearGradient>
</defs>
</svg>
