<svg width="157" height="169" viewBox="0 0 157 169" fill="none" xmlns="http://www.w3.org/2000/svg">
<path d="M87.1022 2H71.0428L71.1718 22.3161L55.4349 13.2222L47.3084 26.7663L71.1073 40.6973V70.8812L44.9866 56.1762V28.5077H29.1207V46.8244L11.1264 36.3116L3 49.9847L21.5102 60.433L6.03129 69.3333L13.9642 83.1999L37.0536 69.7203L63.3033 84.6833L37.4406 99.3883L13.6418 85.7797L5.64432 99.3883L21.5102 108.611L3.38697 118.995L11.5134 132.732L29.7012 122.413V140.085H45.4381V113.19L71.3653 98.1628V127.895L47.3084 141.568L55.4994 155.241L71.0428 146.212V166.98H87.1022V146.212L102.388 154.919L110.256 141.181L87.0377 127.895V98.6788L112.191 113.061V139.827L128.121 140.149V122.349L146.051 132.732L153.984 118.93L136.441 108.611L152.307 99.7107L144.245 85.8442L120.511 99.3883L94.7771 84.6188L120.511 69.8493L143.794 83.3289L151.791 69.5913L136.506 60.6909L154.5 50.3072L146.374 36.4406L128.702 46.9534V28.5722H112.9V55.9183L86.9732 70.8812V41.0843L110.321 27.4757L102.452 13.7382L87.1022 22.6386V2Z" fill="#FAFAFD" stroke="#8FAAD3" class="snow-flake" stroke-width="3"/>
</svg>
