<svg preserveAspectRatio="xMinYMin meet" viewBox="0 0 249 243" fill="none" xmlns="http://www.w3.org/2000/svg">
<path d="M248.169 113.295C248.169 83.247 235.096 54.4301 211.826 33.1832C188.555 11.9364 156.994 2.26853e-06 124.085 0C91.1753 -2.26853e-06 59.6139 11.9364 36.3435 33.1832C13.0732 54.4301 4.96916e-06 83.247 0 113.295L76.7189 113.295C76.7189 101.825 81.7092 90.8248 90.592 82.7144C99.4748 74.6041 111.522 70.0477 124.085 70.0477C136.647 70.0477 148.694 74.6041 157.577 82.7144C166.46 90.8248 171.45 101.825 171.45 113.295L248.169 113.295Z" fill="#FAFAFA"/>
<path d="M1.05117 134.166C1.02211 148.298 4.19711 162.297 10.3949 175.365C16.5927 188.433 25.6918 200.315 37.1729 210.33C48.6539 220.346 62.292 228.301 77.3084 233.739C92.3249 239.178 108.426 241.994 124.691 242.028C140.957 242.061 157.069 239.311 172.108 233.934C187.146 228.557 200.817 220.659 212.339 210.691C223.861 200.722 233.009 188.878 239.261 175.836C245.512 162.793 248.745 148.807 248.774 134.676L173.585 134.521C173.573 140.074 172.303 145.57 169.846 150.695C167.39 155.82 163.795 160.475 159.267 164.392C154.74 168.309 149.368 171.413 143.458 173.525C137.549 175.638 131.217 176.719 124.826 176.706C118.434 176.693 112.107 175.586 106.206 173.449C100.305 171.312 94.9462 168.186 90.4346 164.25C85.9231 160.314 82.3475 155.646 79.912 150.51C77.4766 145.375 76.2289 139.874 76.2403 134.321L1.05117 134.166Z" fill="#FAFAFA"/>
<circle cx="124.085" cy="124.085" r="35.2749" fill="#FAFAFA"/>
</svg>
