<svg width="124" height="124" viewBox="0 0 124 124" fill="none" xmlns="http://www.w3.org/2000/svg">
<g clip-path="url(#clip0_606_3)">
<path fill-rule="evenodd" clip-rule="evenodd" d="M55.5956 109.242C57.9421 109.602 60.3452 109.788 62.7923 109.788C88.846 109.788 109.967 88.667 109.967 62.6133C109.967 36.5594 88.846 15.4387 62.7923 15.4387C61.0443 15.4387 59.3183 15.5338 57.6198 15.719C70.5439 25.5104 79.0888 42.4718 79.0888 61.7555C79.0888 82.0288 69.6443 99.7353 55.5956 109.242ZM61.9345 123.511C96.0413 123.511 123.69 95.8623 123.69 61.7555C123.69 27.6487 96.0413 -0.000244141 61.9345 -0.000244141C27.8277 -0.000244141 0.178772 27.6487 0.178772 61.7555C0.178772 95.8623 27.8277 123.511 61.9345 123.511Z" fill="black"/>
</g>
<defs>
<clipPath id="clip0_606_3">
<rect width="123.512" height="123.512" fill="white" transform="translate(0.262817)"/>
</clipPath>
</defs>
</svg>
