<svg width="125" height="124" viewBox="0 0 125 124" fill="none" xmlns="http://www.w3.org/2000/svg">
<g clip-path="url(#clip0_606_5)">
<path fill-rule="evenodd" clip-rule="evenodd" d="M68.2403 61.4858C69.0774 60.9754 69.7876 59.9057 70.3603 58.7169C77.8976 61.7975 83.1944 69.077 83.1944 77.5662C83.1944 88.8439 73.8466 97.9864 62.3156 97.9864C57.5821 97.9864 53.2165 96.4456 49.7145 93.8492C48.5658 93.3052 47.6206 92.7827 46.8472 92.355C45.6476 91.6919 44.8609 91.2569 44.3683 91.325C42.9284 91.5235 43.3465 92.8483 43.7264 94.0519C43.9843 94.8694 44.2248 95.631 43.8526 95.9451C43.4632 96.2741 42.202 95.0716 40.7284 93.6666C38.7223 91.7539 36.3225 89.4658 35.1908 90.153C34.2961 90.6965 35.1648 92.1707 36.2281 93.9751L36.307 94.109C36.7562 94.8718 37.2768 95.6486 37.7518 96.3573C38.7174 97.7977 39.4952 98.9585 39.1061 99.1549C38.6356 99.3923 35.3583 97.1802 32.5964 94.109C31.5304 92.9239 30.4979 91.639 29.5383 90.4452V90.4449C27.4378 87.8314 25.6879 85.6543 24.7056 85.9122C23.5239 86.2224 24.4179 88.6598 25.7313 91.0053C26.3455 92.1022 27.068 93.2191 27.6935 94.1862V94.1865C28.6664 95.6903 29.4049 96.8316 29.1371 96.972C28.7757 97.1609 25.596 94.0603 23.4363 90.153C22.1536 87.8321 21.0765 85.2673 20.2045 83.191C19.2588 80.9391 18.5544 79.2618 18.0905 79.093C16.479 78.5065 16.479 81.7924 17.1253 86.5348C17.2096 87.1535 17.3352 87.8025 17.4898 88.4632C23.7581 108.744 43.0136 123.512 65.7954 123.512C93.662 123.512 116.252 101.417 116.252 74.1629C116.252 48.2226 95.7884 26.9571 69.7885 24.9662C69.8213 23.7442 70.4592 21.3209 70.4592 21.3209C70.4592 21.3209 75.0491 10.2156 75.2918 7.84248C75.3077 7.68497 75.3268 7.51382 75.3473 7.33154C75.6331 4.76747 76.1651 0 72.0636 0C69.8732 0 68.8547 1.62945 67.6898 3.49304V3.49306C67.2426 4.20849 66.7736 4.95843 66.2086 5.66392C62.1395 10.7454 55.2972 17.0911 51.4174 20.4718C43.2169 27.6174 35.1713 33.49 30.4788 36.915L30.4786 36.9152C28.3444 38.4729 26.904 39.5244 26.4582 39.9589C23.0988 43.2339 11.0535 64.9608 11.0535 64.9608C11.0535 64.9608 7.15813 71.9315 8.54269 73.3453C9.92725 74.759 13.2661 74.435 13.2661 74.435C13.2661 74.435 58.1213 64.1447 62.1371 63.3332C63.2183 63.1146 63.9816 62.9885 64.5675 62.8917C66.1585 62.629 66.4441 62.5817 68.2403 61.4858ZM36.5261 48.2621C34.1183 50.5507 30.1252 56.0134 30.1252 56.0134C30.1252 56.0134 37.5465 56.4706 41.6337 52.5855C45.7212 48.7002 44.7847 42.0791 44.7847 42.0791C44.7847 42.0791 38.9336 45.9735 36.5261 48.2621Z" fill="black"/>
</g>
<defs>
<clipPath id="clip0_606_5">
<rect width="123.512" height="123.512" fill="white" transform="translate(0.525696)"/>
</clipPath>
</defs>
</svg>
