<svg viewBox="0 0 125 124" fill="none" xmlns="http://www.w3.org/2000/svg">
<g clip-path="url(#clip0_606_7)">
<path fill-rule="evenodd" clip-rule="evenodd" d="M37.5911 0.140798C37.5673 0.0718779 37.6186 0 37.6915 0H81.0723C81.1188 0 81.1601 0.0302958 81.1738 0.0747298L101.099 64.4506C101.12 64.5188 101.069 64.5881 100.998 64.5881H72.1174C72.0822 64.5881 72.0569 64.6216 72.0665 64.6556L88.6301 122.963C88.6624 123.076 88.5141 123.15 88.4434 123.056L24.0747 37.4556C24.0221 37.3856 24.072 37.2858 24.1595 37.2858H50.3707C50.4072 37.2858 50.4327 37.2498 50.4207 37.2153L37.5911 0.140798Z" fill="currentColor"/>
<path d="M24 36.5L88 122.5L72 64.5H101L81.5 0H37.5L50 36.5H24Z" fill="currentColor" stroke="currentColor" stroke-width="3"/>
</g>
<defs>
<clipPath id="clip0_606_7">
<rect width="123.512" height="123.512" fill="currentColor" transform="translate(0.788513)"/>
</clipPath>
</defs>
</svg>
