<svg viewBox="0 0 125 124" fill="none" xmlns="http://www.w3.org/2000/svg">
<g clip-path="url(#clip0_606_11)">
<path fill-rule="evenodd" clip-rule="evenodd" d="M21.8105 10.5905C23.3053 4.68893 28.6518 0.322266 35.0179 0.322266C39.7931 0.322266 43.9947 2.77916 46.4273 6.49784H50.4108C52.8856 3.95804 56.3432 2.38079 60.1694 2.38079C65.779 2.38079 70.5969 5.77129 72.6855 10.6149H76.0206C78.1104 9.31026 80.5797 8.55636 83.2248 8.55636C88.8347 8.55636 93.6523 11.9469 95.7409 16.7905H104.81C104.888 16.7905 104.96 16.8113 105.023 16.8477C105.437 16.8098 105.856 16.7905 106.28 16.7905C113.804 16.7905 119.904 22.89 119.904 30.4142V71.2656L119.904 71.3414L119.904 71.4171V72.0055C119.904 72.2547 119.897 72.5029 119.884 72.75C119.064 101.09 93.5812 123.834 62.2652 123.834C30.4323 123.834 4.62659 100.332 4.62659 71.3414C4.62659 57.3477 10.6393 44.6328 20.4403 35.2227C20.4158 48.8652 20.6463 62.9691 21.7085 62.7272C24.5527 62.0788 22.3305 19.8235 21.8105 10.5905Z" fill="currentColor"/>
</g>
<defs>
<clipPath id="clip0_606_11">
<rect width="123.512" height="123.512" fill="currentColor" transform="translate(0.525696 0.32251)"/>
</clipPath>
</defs>
</svg>
