<svg  viewBox="0 0 123 125" fill="none" xmlns="http://www.w3.org/2000/svg">
<g clip-path="url(#clip0_606_13)">
<path d="M32.5 115C31.5 114.333 28.1 111.3 22.5 104.5C17.1667 97.8333 9.39999 78.4 21 54C20.5 57.3333 20.1 64.5 22.5 66.5C26.9 54.1 37 45 41.5 42C51.5 36 56.3333 30.1667 57.5 28C59.9 24.4 60.5 14.5 60.5 10C60.5 6.8 59.1667 2 58.5 0C61.5 3.16667 68 10.7 70 15.5C71.6667 19 74.6 27.8 73 35C72.1667 39.6667 71.1 49.5 73.5 51.5C74.1667 52.1667 76.8 53.2 82 52C84.6667 51.1667 88 45.9 80 31.5C86.5 34.8333 100.8 45.4 106 61C107 64 108.4 72.6 106 83C105 88.3333 97.4 100.8 75 108C77.3333 106.167 82.4 101.5 84 97.5C84.8333 96 85.9 90 83.5 78C83.3333 80.1667 82.5 85.2 80.5 88C78.3333 91.1667 72.5 97.4 66.5 97C68.3333 95.8333 72.3 92.1 73.5 86.5C73.5 84.8333 73 81 71 79C69.6667 77.5 66.2 74.4 63 74C61.3333 73.6667 57.2 73.5 54 75.5C52.5 76.3333 49.4 78.8 49 82C48.6667 83.8333 48.3 88.2 49.5 91C48.3333 90.5 45.7 88 44.5 82C44.1667 83.3333 43.5 86.8 43.5 90C43.5 91.5 43.7 95.3 44.5 98.5C44.8333 99.8333 45.8 103 47 105C47.6667 106.5 49.9 110 53.5 112C68.3 117.6 85.6667 114.667 92.5 112.5C90.1667 114.167 83.7 118.1 76.5 120.5C73.8333 121.167 67.3 122.7 62.5 123.5C60.5 123.833 54.6 124.1 47 122.5C44.5 121.833 38.1 119.4 32.5 115Z" fill="currentColor" stroke="currentColor"/>
</g>
<defs>
<clipPath id="clip0_606_13">
<rect width="123" height="125" fill="white"/>
</clipPath>
</defs>
</svg>
