<svg width="124" height="124" viewBox="0 0 124 124" fill="none" xmlns="http://www.w3.org/2000/svg">
<g clip-path="url(#clip0_606_15)">
<path fill-rule="evenodd" clip-rule="evenodd" d="M43.1113 115.568C61.2045 115.568 76.6946 105.512 83.0895 91.2569C83.1676 91.0829 57.4152 97.9494 58.2364 95.5221C58.6031 94.4383 74.3894 88.6713 85.8907 81.9448C92.5012 78.0785 95.5453 69.8942 95.5453 69.8942C95.5453 69.8942 84.4083 75.3015 78.7782 76.6731C67.4325 79.4376 57.4452 79.14 57.4452 78.8519C57.4452 78.2291 74.0288 75.0781 97.0781 61.0323C107.92 54.4256 110.865 43.0456 110.865 43.0456C110.865 43.0456 98.945 50.1456 91.7394 52.4897C74.6514 58.0484 59.0576 59.7236 59.0576 58.9714C59.0576 57.3609 72.7806 53.5873 87.3304 46.5373C94.8954 42.8717 101.447 38.0827 109.039 32.757C121.462 24.0434 123.511 8.52441 123.511 8.52441C123.511 8.52441 111.259 16.4272 105.279 19.0517C80.606 29.8811 58.8197 35.5616 43.1113 36.7914C19.399 38.648 0 55.1925 0 76.6731C0 98.154 19.3015 115.568 43.1113 115.568Z" fill="black"/>
</g>
<defs>
<clipPath id="clip0_606_15">
<rect width="123.512" height="123.512" fill="white" transform="translate(0 0.32251)"/>
</clipPath>
</defs>
</svg>
