<svg  viewBox="0 0 124 125" fill="none" xmlns="http://www.w3.org/2000/svg">
<g clip-path="url(#clip0_606_17)">
<path fill-rule="evenodd" clip-rule="evenodd" d="M89.0036 123.728C77.8627 124.299 65.1079 124.299 60.7735 123.728C26.9627 119.28 0 94.5599 0 61.1459C0 27.7319 27.649 0.644531 61.7558 0.644531C95.8626 0.644531 123.512 27.7319 123.512 61.1459C123.512 76.6864 117.531 90.8584 107.701 101.573C105.032 104.483 108.694 106.524 112.415 108.597C116.065 110.631 119.77 112.697 117.617 115.643C115.243 118.891 102.378 123.044 89.0036 123.728ZM53.0714 53.5832C53.0714 58.804 48.7511 63.0364 43.422 63.0364C38.0929 63.0364 33.7727 58.804 33.7727 53.5832C33.7727 50.0817 35.7158 47.025 38.6031 45.3912C38.7694 49.9435 42.5123 53.583 47.1054 53.583H53.0714V53.5832ZM82.9785 45.3912C82.8123 49.9435 79.0693 53.583 74.4762 53.583H68.5103V53.5832C68.5103 58.804 72.8306 63.0364 78.1596 63.0364C83.4887 63.0364 87.809 58.804 87.809 53.5832C87.809 50.0817 85.8658 47.025 82.9785 45.3912Z" fill="currentColor"/>
</g>
<defs>
<clipPath id="clip0_606_17">
<rect width="123.512" height="123.512" fill="currentColor" transform="translate(0 0.644531)"/>
</clipPath>
</defs>
</svg>
