<svg  viewBox="0 0 125 125" fill="none" xmlns="http://www.w3.org/2000/svg">
<g clip-path="url(#clip0_606_32)">
<path fill-rule="evenodd" clip-rule="evenodd" d="M104 96C128.8 76.4 125.667 48.8333 121 37.5C113 14.7 86.3334 4.33332 74 1.99999C53.2 -3.20001 32 7.16665 24 13C8.80003 23 2.6667 39.5 1.50003 46.5C-1.29997 64.5 5.33336 78.3333 9.00003 83C10.6 85.4 17 92 20 95C14.4 108.6 22 118.333 26.5 121.5C31.7 125.5 36.6667 124.833 38.5 124C43.3 122 46.5 117.833 47.5 116L48.5 114C50.9 120.4 56.1667 123.333 58.5 124C63.7 125.6 69.3333 122.667 71.5 121C73.5 119.4 75 116.667 75.5 115.5C77.0873 120.659 83.0708 123.62 85.932 124.48C86.6214 124.653 88.5 124.9 90.5 124.5C92.3333 124.333 96.9 122.8 100.5 118C102.667 115.333 106.4 107.2 104 96ZM61.5 84C81.6584 84 98 71.6878 98 56.5C98 41.3122 81.6584 29 61.5 29C41.3416 29 25 41.3122 25 56.5C25 71.6878 41.3416 84 61.5 84Z" fill="currentColor"/>
</g>
<defs>
<clipPath id="clip0_606_32">
<rect width="125" height="125" fill="currentColor"/>
</clipPath>
</defs>
</svg>
