<svg width="124" height="124" viewBox="0 0 124 124" fill="none" xmlns="http://www.w3.org/2000/svg">
<g clip-path="url(#clip0_606_34)">
<path fill-rule="evenodd" clip-rule="evenodd" d="M110.247 102.923C110.247 102.923 94.6732 115.414 63.6815 110.245C40.1685 106.324 27.6277 80.404 27.6277 66.4718C27.6277 33.4397 52.0757 25.9226 68.6043 25.9226C85.1327 25.9226 95.9151 42.037 95.9151 54.5136C95.9151 66.9902 87.0908 77.9031 73.3581 77.9031C59.6256 77.9031 55.5584 68.2622 55.5584 59.3986C55.5584 50.5352 62.7296 47.4124 69.2697 47.4124C75.8097 47.4124 78.0491 52.996 78.0491 57.7948C78.0491 62.5939 74.3257 64.3125 71.22 64.3125C68.1144 64.3125 67.8073 62.7457 66.6187 61.099C65.4299 59.4526 68.1346 53.2201 63.6815 53.2201C59.2283 53.2201 58.3982 60.385 58.3982 60.385C58.3982 60.385 60.0217 74.2156 73.3581 73.977C86.6947 73.7382 93.0215 63.4279 91.1828 53.2201C89.3441 43.012 79.4374 32.165 62.0507 34.3568C44.6641 36.5487 37.5653 54.1163 40.6943 72.89C43.8234 91.664 66.3143 102.542 83.9979 98.6282C101.682 94.7147 119.294 81.9124 119.294 49.4537C119.294 16.9948 91.1828 -2.51599 57.6622 0.699493C24.1416 3.91496 3.33356 33.2209 4.66545 68.4325C5.99735 103.644 39.4091 122.821 67.6621 123.81C95.9151 124.798 113.235 108.443 113.235 108.443C113.235 108.443 117.131 104.97 115.603 102.258C114.076 99.5451 110.247 102.923 110.247 102.923Z" fill="black"/>
</g>
<defs>
<clipPath id="clip0_606_34">
<rect width="123.512" height="123.512" fill="white" transform="translate(0.262817 0.354736)"/>
</clipPath>
</defs>
</svg>
