<svg width="125" height="124" viewBox="0 0 125 124" fill="none" xmlns="http://www.w3.org/2000/svg">
<g clip-path="url(#clip0_606_36)">
<path fill-rule="evenodd" clip-rule="evenodd" d="M95.8462 59.3986C95.8392 59.3889 95.8363 59.3768 95.8382 59.365L103.718 13.4182C103.721 13.3971 103.74 13.3816 103.761 13.3816H106.255C106.274 13.3816 106.291 13.3941 106.297 13.4124L124.049 69.6206C124.055 69.638 124.049 69.6572 124.035 69.6686L110.945 79.888C110.926 79.9032 110.898 79.8993 110.883 79.8793L95.8462 59.3986ZM0.284424 89.8579C0.284424 89.877 0.296678 89.8938 0.314793 89.8999L27.2965 98.722C27.3096 98.7264 27.324 98.7242 27.3354 98.7165L87.6459 57.0796C87.656 57.0726 87.6628 57.0617 87.6645 57.0497L94.132 13.6538C94.1361 13.6272 94.1153 13.6032 94.0885 13.6032H40.6684C40.6551 13.6032 40.6428 13.6091 40.6343 13.6192L0.294562 62.283C0.288009 62.2909 0.284424 62.3008 0.284424 62.3112V89.8579ZM38.5399 100.97L68.017 110.626C68.0303 110.63 68.045 110.628 68.0563 110.62L103.151 85.4462C103.17 85.4325 103.175 85.4057 103.162 85.3859L90.0059 65.8086C89.9922 65.7881 89.9646 65.7828 89.9444 65.7968L38.5399 100.97Z" fill="black"/>
</g>
<defs>
<clipPath id="clip0_606_36">
<rect width="123.512" height="123.512" fill="white" transform="translate(0.525696 0.354736)"/>
</clipPath>
</defs>
</svg>
