<svg width="124" height="124" viewBox="0 0 124 124" fill="none" xmlns="http://www.w3.org/2000/svg">
<g clip-path="url(#clip0_606_40)">
<path fill-rule="evenodd" clip-rule="evenodd" d="M101.842 83.9458C101.842 105.99 83.9041 123.861 61.7765 123.861C39.6489 123.861 21.711 105.99 21.711 83.9458C21.711 62.5059 59.6093 3.62294 61.6877 0.409692C61.7352 0.336417 61.818 0.336418 61.8653 0.409692C63.9437 3.62294 101.842 62.5059 101.842 83.9458ZM55.0977 111.064C34.7666 106.616 38.2456 84.0941 38.2456 84.0941C38.2456 84.0941 43.7974 97.6895 57.27 102.094C70.7424 106.497 87.0237 100.038 87.0237 100.038C87.0237 100.038 75.4289 115.513 55.0977 111.064Z" fill="black"/>
</g>
<defs>
<clipPath id="clip0_606_40">
<rect width="123.512" height="123.512" fill="white" transform="translate(0 0.354736)"/>
</clipPath>
</defs>
</svg>
