<svg width="723" height="652" viewBox="0 0 723 652" fill="none" xmlns="http://www.w3.org/2000/svg">
<path d="M408.798 608.171C415.486 615.028 426.471 623.859 440.085 630.568C455.108 637.97 473.642 642.933 493.278 639.448L493.443 639.419L493.605 639.376C506.904 635.89 525.882 626.078 540.295 607.901C554.28 590.264 563.806 564.95 559.919 530.448C586.751 525.133 635.815 497.883 651.872 424.47L651.913 424.28L651.936 424.088C654.536 402.598 660.087 367.777 668.272 333.29C676.494 298.645 687.244 264.922 700.039 245.21L700.075 245.154L700.11 245.097C707.951 232.108 723 194.099 723 142.827V142.731L722.995 142.635C722.286 127.55 718.056 104.128 707.622 82.5353C697.188 60.9422 680.276 40.6617 653.965 32.9864C595.029 15.4505 448.084 42.4749 312.227 275.02C302.56 268.459 290.599 263.479 275.876 260.992C268.123 259.773 258.953 259.129 249.09 259.459C246.952 269.273 245.115 279.477 243.639 290.064L238.709 289.834C238.253 279.568 238.282 269.676 238.737 260.157C232.13 260.83 225.339 261.964 218.557 263.666C202.813 230.58 188.092 202.515 174.381 178.816C168.752 169.087 163.293 160.093 158.004 151.79C138.244 120.775 120.844 99.3966 105.749 85.2971C88.8009 69.4658 74.0754 62.1664 61.6082 61.5407C48.6881 60.8923 39.3479 67.4508 33.8849 76.3948C-3.27156 135.506 -2.69267 191.488 2.63384 212.959L2.66626 213.09L2.7048 213.219C34.1742 318.578 64.9456 390.264 90.7282 437.13C103.618 460.561 115.3 477.858 125.249 490.081C135.085 502.164 143.563 509.708 150.157 513.067L150.376 513.178L150.605 513.271C162.924 518.28 178.074 520.967 187.702 522.126C184.256 560.626 197.843 593.665 205.703 606.221L205.849 606.453L206.016 606.671C225.594 632.169 243.903 643.694 251.664 646.377L251.909 646.462L252.161 646.524C264.267 649.532 276.008 647.287 285.512 643.541C293.126 640.54 299.594 636.466 304.099 632.9L315.759 644.139L315.792 644.169C323.464 651.132 329.323 652.796 333.613 651.684C337.89 650.576 340.228 646.81 341.096 643.788L341.113 643.731L341.121 643.671C344.432 618.988 339.196 587.729 334.639 568.727C336.614 555.232 337.038 541.194 336.591 527.976C336.574 527.452 336.555 526.928 336.534 526.406C337.258 526.054 337.963 525.699 338.65 525.343C340.339 524.667 342.142 523.835 344.01 522.847C343.785 553.507 350.959 574.623 354.32 584.518C354.657 585.511 354.956 586.39 355.205 587.155C360.513 605.615 367.705 620.261 374.864 630.924C382.005 641.561 389.167 648.312 394.455 650.869L394.487 650.884L394.52 650.897C396.831 651.78 398.886 651.781 400.673 651.132C402.443 650.489 403.869 649.237 404.996 647.751C407.236 644.796 408.425 640.747 408.849 637.938L408.85 637.934C410.322 627.902 410.035 617.723 408.798 608.171Z" fill="#7C70A2" class="shadow"/>
<path d="M182.351 11.2781C181.884 9.92966 181.195 8.42862 180.285 7.08598C179.355 5.71513 178.048 4.29333 176.304 3.53689C174.407 2.71424 172.282 2.80759 170.209 4.02108C168.296 5.14131 166.508 7.15976 164.781 10.0507C157.831 19.3448 146.675 44.7524 155.256 74.8831C153.977 91.4523 154.104 118.92 158.004 151.79C163.293 160.093 168.752 169.087 174.381 178.816C166.743 128.384 168.003 91.9133 170.891 75.3305C178.813 56.5766 182.439 42.1387 183.72 31.6433C184.363 26.3723 184.417 22.0696 184.115 18.6984C183.828 15.4938 183.206 12.9849 182.351 11.2781Z" fill="#7C70A2" class="shadow"/>
<path d="M372.325 68.1909C374.442 63.1394 376.719 55.4527 376.289 49.0989C376.072 45.9062 375.145 42.6687 372.75 40.3893C370.3 38.0576 366.789 37.1692 362.394 37.6959C358.218 37.9116 351.968 40.7237 345.306 47.4788C338.624 54.2533 331.354 65.1541 325.052 82.028C296.019 100.493 243.552 159.455 238.737 260.157C238.282 269.676 238.253 279.568 238.709 289.834L243.639 290.064C245.115 279.477 246.952 269.273 249.09 259.459C268.623 169.752 313.189 112.615 335.381 93.56C343.018 93.6754 358.517 88.5381 372.089 68.6249L372.229 68.4197L372.325 68.1909Z" fill="#7C70A2" class="shadow"/>
<path d="M631.288 43.0999L631.305 43.1052L631.323 43.1104C652.688 49.3773 667.05 66.0915 676.348 85.4514C685.615 104.745 689.427 125.855 690.076 139.295C690.067 163.261 687.831 184.62 684.746 201.38C681.622 218.35 677.751 229.908 674.825 234.842C661.509 255.537 650.897 289.625 643.01 323.059C635.091 356.631 629.715 390.475 627.165 411.575C619.531 446.37 601.528 471.572 582.693 488.45C563.601 505.559 544.13 513.711 534.312 514.953L527.794 515.777L528.698 522.284C533.297 555.398 527.151 575.279 518.05 587.508C508.949 599.739 496.085 605.415 484.821 608.42C468.937 611.184 453.557 607.193 440.508 600.725C427.366 594.209 417.076 585.414 411.777 579.512L411.699 579.425L411.617 579.34C394.3 561.405 360.747 519.991 349.01 501.133C341.269 474.268 330.208 431.24 321.904 388.478C313.589 345.657 308.252 304.116 311.247 279.162C441.619 49.9986 580.848 27.9923 631.288 43.0999Z" fill="#EAF3FB" class="wings" stroke="#C1E2FF" stroke-width="12.9801"/>
<path d="M642.477 34.0869C586.5 17.321 440.961 43.0107 306.618 279.897C299.479 333.115 329.603 456.751 345.558 511.916C357.456 531.386 385.796 575.031 403.968 593.853C415.867 607.103 448.749 631.982 485.094 625.491C509.702 619.001 556.484 588.498 546.749 518.406C570.275 515.431 621.384 490.823 637.609 416.188C642.747 373.462 659.513 277.95 685.473 237.712C692.775 225.543 707.377 188.712 707.377 138.739C706.025 109.804 691.152 48.365 642.477 34.0869Z" stroke="#302F2F" class="lines"  stroke-width="8.11254"/>
<path d="M676.285 203.585C673.04 214.943 657.951 238.145 623.553 240.092C646.269 262.807 644.376 299.313 640.59 314.727C637.345 335.495 613.277 350.963 601.65 356.101C623.067 382.71 621.931 407.751 618.686 416.945C612.196 437.064 597.052 451.829 590.292 456.697C580.557 462.538 563.521 464.539 556.219 464.809C559.464 470.65 558.112 482.386 557.031 487.524C545.348 503.749 532.152 510.51 527.014 511.862L510.789 514.296C521.822 532.468 518.631 557.022 515.657 567.027C505.272 591.04 485.37 603.534 476.716 606.779C454.001 611.971 435.342 604.615 428.852 600.289C411.329 589.905 398.025 576.762 393.968 571.084L401.446 587.309L405.326 592.176C416.143 598.937 438.587 612.944 441.832 614.891L458.057 624.626L484.829 619.759L508.355 608.401C513.223 604.616 523.12 596.719 523.769 595.421C524.175 594.61 527.825 589.743 531.476 584.875C535.127 580.008 538.777 575.14 539.183 574.329C539.832 573.031 543.239 551.073 544.862 540.256L548.918 515.918L565.143 509.428L584.613 503.75L604.083 482.657L626.798 446.962L637.345 421.002L639.778 393.419C642.753 373.949 648.702 334.684 648.702 333.386C648.702 332.436 651.764 322.577 654.301 314.41C656.095 308.635 657.626 303.706 657.626 303.37C657.626 302.721 661.953 291.742 664.116 286.333C664.927 279.843 668.984 263.943 678.719 252.261C680.612 247.393 686.831 230.357 696.566 201.152C699.27 193.039 705.166 172.271 707.113 154.099C706.572 143.823 703.705 116.457 696.566 89.1985C693.051 81.6268 681.477 61.9404 663.305 43.7682C651.677 38.6303 620.957 28.6789 591.103 29.9769C626.798 39.7119 629.773 59.9933 626.798 68.9171C628.962 70.81 633.126 75.7316 632.477 80.2747C641.401 76.2184 662.007 73.4601 673.04 94.8772C676.285 101.908 681.964 119.215 678.719 132.195C677.907 137.062 673.04 148.258 660.06 154.099C663.575 153.828 671.58 155.884 675.474 166.268C677.096 174.651 679.53 193.85 676.285 203.585Z" fill="#302F2F" class="lines" />
<path d="M490.508 123.271C482.936 123.271 459.031 129.923 423.985 156.533C420.576 158.772 414.089 164.828 404.515 175.995C399.052 182.366 392.585 190.401 385.111 200.34C380.128 206.968 374.698 214.442 368.819 222.834C412.952 167.197 454.272 147.338 469.415 144.364C496.673 140.47 509.437 151.936 512.412 158.155C519.273 172.67 516.141 212.516 450.831 258.004C465.429 248.006 478.735 238.576 490.508 230.012C491.881 229.013 493.233 228.026 494.564 227.051C516.046 211.318 531.995 198.777 540.805 191.417C542.57 189.064 544.506 185.386 545.871 180.693C548.898 170.281 549.109 154.874 538.372 137.874C537.508 136.722 536.137 135.341 534.239 133.891C530.943 131.376 526.058 128.656 519.476 126.585C512.038 124.243 502.433 122.729 490.508 123.271Z" fill="#302F2F" class="lines" />
<path d="M337.181 326.085C349.63 319.607 361.806 313.587 373.687 307.997M623.553 240.092C657.951 238.145 673.04 214.943 676.285 203.585C679.53 193.85 677.096 174.651 675.474 166.268C671.58 155.884 663.575 153.828 660.06 154.099M623.553 240.092C646.269 262.807 644.376 299.313 640.59 314.727C637.345 335.495 613.278 350.963 601.65 356.101M623.553 240.092C592.528 237.976 507.446 248.119 391.535 299.817C385.664 302.436 379.713 305.161 373.687 307.997M660.06 154.099C673.04 148.258 677.907 137.062 678.719 132.195C681.964 119.215 676.285 101.908 673.04 94.8772C662.007 73.4601 641.401 76.2184 632.477 80.2747M660.06 154.099C596.448 166.554 562.234 175.402 545.871 180.693M632.477 80.2747C633.126 75.7316 628.962 70.81 626.798 68.9171M632.477 80.2747C583.776 103.287 550.484 123.101 534.239 133.891M626.798 68.9171C629.773 59.9933 626.798 39.7119 591.103 29.9769C620.957 28.6789 651.677 38.6303 663.305 43.7682C681.477 61.9404 693.051 81.6268 696.566 89.1985C703.705 116.457 706.572 143.823 707.113 154.099C705.166 172.271 699.27 193.039 696.566 201.152C686.831 230.357 680.612 247.393 678.719 252.261C668.984 263.943 664.927 279.843 664.116 286.333C661.953 291.742 657.626 302.721 657.626 303.37C657.626 303.706 656.095 308.635 654.301 314.41C651.764 322.577 648.702 332.436 648.702 333.386C648.702 334.684 642.753 373.949 639.778 393.419L637.345 421.002L626.798 446.962L604.083 482.657L584.613 503.75L565.143 509.428L548.918 515.918L544.862 540.256C543.239 551.073 539.832 573.031 539.183 574.329C538.777 575.14 535.127 580.007 531.476 584.875C527.825 589.743 524.175 594.61 523.769 595.421C523.12 596.719 513.223 604.616 508.355 608.401L484.829 619.759L458.057 624.626M626.798 68.9171C558.314 102.898 529.098 119.859 519.476 126.585M601.65 356.101C623.067 382.71 621.931 407.751 618.686 416.945C612.196 437.064 597.052 451.829 590.292 456.697C580.557 462.538 563.521 464.539 556.219 464.809M601.65 356.101C478.339 338.578 380.447 348.8 346.916 356.101M556.219 464.809C559.464 470.65 558.112 482.386 557.031 487.524C545.348 503.749 532.152 510.51 527.014 511.862L510.789 514.296M556.219 464.809C390.723 407.697 323.389 397.746 310.409 399.909M510.789 514.296C521.822 532.468 518.631 557.022 515.657 567.027C505.272 591.04 485.37 603.534 476.716 606.779M510.789 514.296C492.879 510.974 476.195 506.801 460.83 502.127M476.716 606.779C454.001 611.971 435.342 604.615 428.852 600.289M476.716 606.779C472.822 591.203 458.328 565.134 451.567 554.047V553.467M428.852 600.289C411.329 589.905 398.025 576.762 393.968 571.084L401.446 587.309M428.852 600.289C434.044 580.819 421.281 554.859 414.25 544.312M402.081 588.931L401.446 587.309M458.057 624.626C454.001 622.193 445.077 616.838 441.832 614.891M458.057 624.626L441.832 614.891M441.832 614.891C438.587 612.944 416.143 598.937 405.326 592.176L401.446 587.309M515.657 129.761C515.972 129.235 517.153 128.208 519.476 126.585M526.203 139.496C528.1 138.073 530.784 136.187 534.239 133.891M533.504 185.738C534.61 184.802 538.36 183.122 545.871 180.693M346.916 445.339C361.371 458.242 401.152 483.972 460.83 502.127M414.25 544.312C381.8 517.054 365.574 492.933 361.518 484.279M414.25 544.312C426.581 554.047 442.644 554.859 449.134 554.047C449.978 553.887 450.788 553.692 451.567 553.467M451.567 553.467C463.369 550.055 467.843 539.651 468.604 534.577C469.279 531.203 467.997 524.757 466.17 518.206C464.484 512.158 462.333 506.021 460.83 502.127M373.687 307.997C399.937 291.936 424.251 276.091 445.889 261.377M324.201 291.201C341.187 263.598 356.058 241.053 368.819 222.834M545.871 180.693C544.506 185.386 542.57 189.064 540.805 191.417C531.995 198.777 516.046 211.318 494.564 227.051C493.233 228.026 491.881 229.013 490.508 230.012C478.735 238.576 465.429 248.006 450.831 258.004M545.871 180.693C548.898 170.281 549.109 154.874 538.372 137.874C537.508 136.722 536.137 135.341 534.239 133.891M534.239 133.891C530.943 131.376 526.058 128.656 519.476 126.585M519.476 126.585C512.038 124.243 502.433 122.729 490.508 123.271C482.936 123.271 459.031 129.923 423.985 156.533C420.576 158.772 414.089 164.828 404.515 175.995C399.052 182.366 392.585 190.401 385.111 200.34C380.128 206.968 374.698 214.442 368.819 222.834M445.889 261.377C447.574 260.249 449.221 259.125 450.831 258.004M445.889 261.377C447.552 260.246 449.199 259.121 450.831 258.004M368.819 222.834C412.952 167.197 454.272 147.338 469.415 144.364C496.673 140.47 509.437 151.936 512.412 158.155C519.273 172.67 516.141 212.516 450.831 258.004" stroke="#302F2F" class="lines"  stroke-width="4.86753"/>
<path d="M46.3183 80.9748L46.3487 80.9262L46.3785 80.8771C49.5536 75.6333 54.2924 72.4481 61.1365 72.7937C68.6405 73.1726 80.1178 77.8621 95.7414 92.545C126.923 121.85 170.806 187.346 227.513 317.611L228.35 319.534L230.015 320.811C231.059 321.611 233.772 324.388 238.266 330.502C242.604 336.403 248.248 344.917 255.192 356.621C269.012 379.913 287.831 415.581 311.604 467.891C314.288 479.532 317.414 499.09 318.13 520.4C318.864 542.259 317.029 565.153 310.167 583.128C308.428 587.325 308.284 591.451 308.23 592.996C308.221 593.258 308.214 593.446 308.203 593.547C308.151 594.008 308.086 594.249 307.898 594.611C307.658 595.074 307.069 595.992 305.583 597.493C305.072 597.967 304.562 598.447 304.05 598.929C296.438 606.089 288.373 613.675 273.711 610.128C272.254 609.665 270.288 609.228 268.591 608.852C267.885 608.695 267.226 608.549 266.669 608.415C264.094 607.797 261.178 606.964 257.96 605.553C251.683 602.8 243.667 597.59 235.156 586.529C233.898 584.533 232.332 582.257 230.586 579.719C220.16 564.568 203.316 540.089 207.309 510.146L208.449 501.596L199.845 500.982C196.234 500.724 188.062 499.975 179.088 498.583C170.12 497.192 161.008 495.253 154.804 492.779C150.875 490.663 144.122 485.016 135.06 473.815C125.932 462.533 114.903 446.172 102.533 423.549C77.8126 378.339 47.9484 308.516 17.2559 205.168C12.9457 187.376 11.9089 136.03 46.3183 80.9748Z" fill="#EAF3FB" class="wings" stroke="#C1E2FF" stroke-width="16.2251"/>
<path d="M39.4389 76.0695C57.2865 46.594 121.376 52.8677 234.951 313.767C243.064 319.987 271.295 358.873 319.322 464.66C325 488.728 332.626 546.597 317.699 585.537C314.725 592.568 306.828 608.577 299.04 616.365C291.469 623.396 271.133 636.16 250.365 630.968C244.145 628.804 227.001 618.312 208.18 593.65C200.608 581.481 186.763 547.408 191.955 508.468C184.383 507.927 165.67 505.385 151.392 499.544C129.759 488.457 71.0778 414.363 9.42249 206.682C4.55497 186.941 3.74371 133.182 39.4389 76.0695Z" stroke="#302F2F" class="lines"  stroke-width="11.3576"/>
<path d="M202.563 525.874C198.016 532.504 195.049 537.833 193.589 541.067V542.69L214.681 601.911L234.151 621.382L267.413 632.739C265.79 631.928 262.058 627.709 260.111 617.325C259.106 614.757 257.915 611.504 256.673 607.832C249.63 605.231 242.334 600.845 235.774 593.799C231.906 589.827 226.326 582.535 220.597 572.324C213.98 560.53 207.165 544.84 202.563 525.874Z" fill="#302F2F" class="lines" />
<path d="M301.485 599.478C298.24 602.182 290.452 608.077 285.26 610.024C279.508 611.547 268.443 612.18 256.673 607.832C257.915 611.504 259.106 614.757 260.111 617.325C262.058 627.709 265.79 631.928 267.413 632.739L305.542 610.024L301.485 599.478Z" fill="#302F2F" class="lines" />
<path d="M198.456 503.252C195.149 504.522 191.878 505.593 188.721 506.389L193.589 539.445V541.067C195.049 537.833 198.016 532.504 202.563 525.874C200.843 518.781 199.431 511.23 198.456 503.252Z" fill="#302F2F" class="lines" />
<path d="M234.151 475.356L236.375 486.475L236.585 487.525M236.585 487.525C228.89 505.376 224.662 525.028 222.517 542.69M236.585 487.525C221.041 501.475 209.8 515.323 202.563 525.874M193.589 541.067V542.69L214.681 601.911L234.151 621.382L267.413 632.739M193.589 541.067V539.445L188.721 506.389M193.589 541.067C195.049 537.833 198.016 532.504 202.563 525.874M174.93 507.806C179.046 508.218 183.743 507.645 188.721 506.389M240.641 479.412C231.615 486.137 214.597 497.056 198.456 503.252M198.456 503.252C195.149 504.522 191.878 505.593 188.721 506.389M198.456 503.252C199.431 511.23 200.843 518.781 202.563 525.874M221.171 588.931C220.795 584.729 220.549 579.045 220.597 572.324M222.517 542.69C228.949 559.222 239.021 563.062 247.943 561.955M222.517 542.69C221.187 553.632 220.657 563.811 220.597 572.324M269.846 525.653C269.846 529.131 269.578 534.307 268.812 539.445M268.812 539.445C267.79 546.294 265.883 553.074 262.545 555.67C259.034 558.436 253.73 561.236 247.943 561.955M268.812 539.445C275.481 561.511 290.128 571.895 296.618 574.329M247.943 561.955C246.398 573.415 251.902 593.72 256.673 607.832M267.413 632.739C265.79 631.928 262.058 627.709 260.111 617.325C259.106 614.757 257.915 611.504 256.673 607.832M267.413 632.739L305.542 610.024L301.485 599.478C298.24 602.182 290.452 608.077 285.26 610.024C279.508 611.547 268.443 612.18 256.673 607.832M202.563 525.874C207.165 544.84 213.98 560.53 220.597 572.324M256.673 607.832C249.63 605.231 242.334 600.845 235.774 593.799C231.906 589.827 226.326 582.535 220.597 572.324" stroke="#302F2F" class="lines"  stroke-width="4.86753"/>
<path d="M72.7114 174.38C70.9422 181.204 69.0785 198.942 74.6713 218.188C75.0624 219.534 75.4899 220.887 75.9565 222.244C76.509 225.191 85.7162 235.939 114.085 258.283C83.5823 224.26 84.069 194.662 88.1253 184.115C96.5623 167.89 118.142 173.028 127.877 177.625C142.427 185.849 152.506 196.664 156.011 201.398C144.003 184.953 128.721 168.124 113.274 160.589C107.091 158.799 96.4808 157.577 87.314 160.847C82.6151 162.524 78.2953 165.38 75.1452 169.946C74.2284 171.275 73.4106 172.749 72.7114 174.38Z" fill="#302F2F" class="lines" />
<path d="M24.0362 115.97C24.1683 117.291 24.4423 119.76 24.8393 122.924C28.0159 121.334 30.7372 119.944 32.1487 119.215C32.1487 115.321 31.067 105.153 30.5262 100.556L24.0362 115.97Z" fill="#302F2F" class="lines" />
<path d="M13.4899 141.93C19.3309 137.387 24.577 135.17 26.4699 134.629C25.8059 130.313 25.2552 126.237 24.8393 122.924C22.5388 124.075 19.9995 125.331 17.5461 126.516C16.194 131.113 13.4899 140.632 13.4899 141.93Z" fill="#302F2F" class="lines" />
<path d="M11.8674 200.34C14.4634 193.85 18.3574 191.146 19.9799 190.605C14.7879 182.168 10.7857 174.11 9.43359 171.135L11.8674 200.34Z" fill="#302F2F" class="lines" />
<path d="M103.539 444.528H123.82L117.33 462.376L103.539 444.528Z" fill="#302F2F" class="lines" />
<path d="M67.0327 335.82L52.4301 332.575L57.2976 346.366L67.0327 335.82Z" fill="#302F2F" class="lines" />
<path d="M23.2249 253.883L37.0162 248.204L18.3574 237.658L23.2249 253.883Z" fill="#302F2F" class="lines" />
<path d="M123.82 444.528C152.377 428.952 182.772 420.19 194.4 417.757M123.82 444.528H103.539L117.33 462.376L123.82 444.528ZM67.0327 335.82C99.4828 334.522 130.851 341.769 142.479 345.555M67.0327 335.82L52.4301 332.575L57.2976 346.366L67.0327 335.82ZM37.0162 248.204C91.5325 257.939 146.806 285.252 167.628 297.691C144.859 281.752 127.371 268.746 114.085 258.283M37.0162 248.204L23.2249 253.883L18.3574 237.658L37.0162 248.204ZM114.085 258.283C85.7162 235.939 76.509 225.191 75.9565 222.244C75.4899 220.887 75.0624 219.534 74.6713 218.188M114.085 258.283C83.5823 224.26 84.069 194.662 88.1253 184.115C96.5623 167.89 118.142 173.028 127.877 177.625C142.427 185.849 152.506 196.664 156.011 201.398M156.271 201.753C164.828 213.514 171.698 225.041 175.741 232.791L182.231 244.148M156.271 201.753C156.189 201.639 156.102 201.52 156.011 201.398M156.271 201.753C156.184 201.635 156.098 201.516 156.011 201.398M156.011 201.398C144.003 184.953 128.721 168.124 113.274 160.589C107.091 158.799 96.4808 157.577 87.314 160.847M19.9799 190.605C18.3574 191.146 14.4634 193.85 11.8674 200.34L9.43359 171.135C10.7857 174.11 14.7879 182.168 19.9799 190.605ZM19.9799 190.605C53.0791 200.989 70.2321 213.32 74.6713 218.188M26.4699 134.629C24.577 135.17 19.3309 137.387 13.4899 141.93C13.4899 140.632 16.194 131.113 17.5461 126.516C19.9995 125.331 22.5388 124.075 24.8393 122.924M26.4699 134.629C39.45 143.012 67.3572 161.811 75.1452 169.946M26.4699 134.629C25.8059 130.313 25.2552 126.237 24.8393 122.924M32.1487 119.215C32.1487 115.321 31.067 105.153 30.5262 100.556L24.0362 115.97C24.1683 117.291 24.4423 119.76 24.8393 122.924M32.1487 119.215C40.5317 123.001 63.3009 136.627 87.314 160.847M32.1487 119.215C30.7372 119.944 28.0159 121.334 24.8393 122.924M74.6713 218.188C69.0785 198.942 70.9422 181.204 72.7114 174.38C73.4106 172.749 74.2284 171.275 75.1452 169.946M75.1452 169.946C78.2953 165.38 82.6151 162.524 87.314 160.847" stroke="#302F2F" class="lines"  stroke-width="4.86753"/>
<path d="M312.031 633.55C301.755 621.922 281.853 583.739 284.449 524.031C286.396 506.508 298.781 512.403 304.73 517.541C309.868 520.786 321.442 531.819 326.634 549.991C331.231 565.675 339.452 604.345 335.558 633.55C333.935 639.229 326.958 647.179 312.031 633.55Z" fill="#5DC1CF" class="limbs"/>
<path d="M350.971 577.574C347.997 568.379 337.829 542.528 340.425 502.938C340.696 498.071 344.157 489.958 355.839 496.448C361.788 498.882 372.875 513.809 389.1 554.047C393.968 564.053 406.624 596.719 402.081 627.871C401.269 633.28 397.537 643.285 389.1 640.04C379.095 635.173 361.356 613.918 350.971 577.574Z" fill="#5DC1CF" class="limbs"/>
<path d="M312.031 633.55C301.755 621.922 281.853 583.739 284.449 524.031C286.396 506.508 298.781 512.403 304.73 517.541C309.868 520.786 321.442 531.819 326.634 549.991C331.231 565.675 339.452 604.345 335.558 633.55C333.935 639.229 326.958 647.179 312.031 633.55Z" stroke="#629DB7" class="limbs" stroke-width="1.62251"/>
<path d="M350.971 577.574C347.997 568.379 337.829 542.528 340.425 502.938C340.696 498.071 344.157 489.958 355.839 496.448C361.788 498.882 372.875 513.809 389.1 554.047C393.968 564.053 406.624 596.719 402.081 627.871C401.269 633.28 397.537 643.285 389.1 640.04C379.095 635.173 361.356 613.918 350.971 577.574Z" stroke="#629DB7" class="limbs" stroke-width="1.62251"/>
<path d="M272.28 255.506C229.554 248.745 142.966 259.886 138.423 358.535C141.96 379.254 163.819 420.183 222.793 428.642C194.886 483.536 233.325 518.062 267.412 524.031C301.5 530 320.955 523.49 333.935 516.73C352.053 509.428 383.584 483.793 364.763 439.66C358.002 426.139 338.839 398.449 316.268 395.853C329.587 383.782 341.918 369.287 344.481 356.101C347.456 327.166 337.18 266.539 272.28 255.506Z" fill="#787BA8" class="body"/>
<path d="M235.773 429.925C231.259 429.67 226.935 429.236 222.793 428.642M287.694 417.756C295.115 413.044 305.986 405.171 316.268 395.853M316.268 395.853C329.587 383.782 341.918 369.287 344.481 356.101C347.456 327.166 337.18 266.539 272.28 255.506C229.554 248.745 142.966 259.886 138.423 358.535C141.96 379.254 163.819 420.183 222.793 428.642M316.268 395.853C338.839 398.449 358.002 426.139 364.763 439.66C383.584 483.793 352.053 509.428 333.935 516.73C320.955 523.49 301.5 530 267.412 524.031C233.325 518.062 194.886 483.536 222.793 428.642" stroke="#696B94" class="body" stroke-width="8.11254"/>
<path d="M261.734 387.74C260.575 388.331 259.31 388.938 257.959 389.545C270.065 399.134 272.009 396.664 271.469 394.23C270.82 387.74 268.555 383.954 267.503 382.873C266.233 384.565 264.367 386.216 261.734 387.74Z" fill="white"/>
<path d="M219.548 404.777C218.467 403.424 216.414 399.499 216.855 394.613C220.207 396.279 224.203 396.962 228.472 396.957C226.85 400.916 222.793 408.022 219.548 404.777Z" fill="white"/>
<path d="M261.734 387.74C260.575 388.331 259.31 388.938 257.959 389.545C270.065 399.134 272.009 396.664 271.469 394.23C270.82 387.74 268.555 383.954 267.503 382.873C266.233 384.565 264.367 386.216 261.734 387.74Z" stroke="white" stroke-width="1.62251"/>
<path d="M219.548 404.777C218.467 403.424 216.414 399.499 216.855 394.613C220.207 396.279 224.203 396.962 228.472 396.957C226.85 400.916 222.793 408.022 219.548 404.777Z" stroke="white" stroke-width="1.62251"/>
<path d="M220.36 366.648C229.013 361.51 250.214 354.317 265.79 366.648C268.768 369.838 272.18 376.64 267.504 382.873C266.234 384.565 264.367 386.216 261.734 387.74C260.575 388.331 259.31 388.938 257.959 389.545C249.751 393.238 238.377 396.946 228.472 396.957C224.203 396.962 220.207 396.279 216.856 394.613C213.435 392.912 210.686 390.185 209.002 386.118C207.704 377.032 216.033 369.352 220.36 366.648Z" fill="#5DC1CF" class="limbs" stroke="#629DB7" stroke-width="1.62251"/>
<path d="M135.188 357.296C134.918 368.383 139.731 392.992 161.148 402.727C189.705 407.919 193.058 362.164 191.165 338.638C185.973 306.836 170.072 302.672 162.771 304.565C154.118 305.646 136.486 317.707 135.188 357.296Z" fill="#ED85A7" stroke="#996A95" class="eyes" stroke-width="3.24502"/>
<ellipse cx="156.883" cy="330.025" rx="10.1755" ry="13.0828" transform="rotate(23.079 156.883 330.025)" fill="white" fill-opacity="0.85"/>
<ellipse cx="297.076" cy="328.878" rx="33.0392" ry="52.495" transform="rotate(-28.8085 297.076 328.878)" fill="#ED85A7"/>
<path d="M323.155 376.298C331.811 371.537 336.374 361.771 337.054 350.241C337.736 338.686 334.558 325.103 327.448 312.175C320.338 299.248 310.57 289.289 300.446 283.676C290.345 278.075 279.654 276.698 270.998 281.459C262.341 286.219 257.779 295.985 257.098 307.515C256.417 319.07 259.595 332.654 266.704 345.581C273.814 358.509 283.583 368.468 293.706 374.081C303.807 379.681 314.498 381.059 323.155 376.298Z" stroke="#CA4F77" class="eyes" stroke-opacity="0.4" stroke-width="3.24502"/>
<ellipse cx="274.829" cy="310.641" rx="11.3809" ry="14.6326" transform="rotate(-6.39969 274.829 310.641)" fill="white" fill-opacity="0.85"/>
<path d="M322.578 80.2748C292.291 99.204 233.015 166.43 238.207 283.9C253.134 176.165 305.541 108.128 329.879 87.5761C335.828 88.1169 351.134 84.1688 364.763 64.0497C368.819 54.3146 373.038 35.3313 357.462 37.2783C350.972 37.5487 334.909 46.5266 322.578 80.2748Z" fill="#302F2F" class="lines" />
<path d="M156.271 71.351C153.296 108.939 157.731 205.695 199.267 292.012C161.625 181.682 161.949 98.9336 166.817 71.351C182.393 34.3578 180.879 14.8336 178.174 9.69564C176.552 4.82811 171.684 -2.14867 165.194 8.88439C158.704 17.5378 147.834 42.1458 156.271 71.351Z" fill="#302F2F" class="lines" />
<path d="M322.578 80.2748C292.291 99.204 233.015 166.43 238.207 283.9C253.134 176.165 305.541 108.128 329.879 87.5761C335.828 88.1169 351.134 84.1688 364.763 64.0497C368.819 54.3146 373.038 35.3313 357.462 37.2783C350.972 37.5487 334.909 46.5266 322.578 80.2748Z" stroke="#302F2F" class="lines"  stroke-width="4.86753"/>
<path d="M156.271 71.351C153.296 108.939 157.731 205.695 199.267 292.012C161.625 181.682 161.949 98.9336 166.817 71.351C182.393 34.3578 180.879 14.8336 178.174 9.69564C176.552 4.82811 171.684 -2.14867 165.194 8.88439C158.704 17.5378 147.834 42.1458 156.271 71.351Z" stroke="#302F2F" class="lines"  stroke-width="4.86753"/>
<path d="M300.674 472.111C305.812 473.463 318.035 474.22 325.823 466.432C334.909 456.697 332.584 443.717 329.879 438.849C328.316 436.243 324.792 430.823 322.796 429.272C319.377 425.901 314.195 426.14 312.032 426.68C297.159 428.573 275.039 434.306 305.542 442.094C304.46 442.905 300.512 445.501 293.373 449.395C290.128 451.288 288.181 456.21 306.353 460.753C303.108 463.998 297.429 470.813 300.674 472.111Z" fill="#5DC1CF" class="limbs" stroke="#629DB7" stroke-width="1.62251"/>
<path d="M207.38 476.978C213 491 220.197 492.392 235.773 482.657C238.37 480.061 229.284 476.708 224.416 475.356C226.85 473.192 232.529 468.054 235.773 464.809C237.396 463.187 236.747 459.455 221.171 457.508C227.12 453.722 236.098 445.826 224.416 444.528C220.089 443.987 210.625 444.69 207.38 451.829C205.757 455.345 203.486 465.296 207.38 476.978Z" fill="#5DC1CF" class="limbs" stroke="#629DB7" stroke-width="1.62251"/>
</svg>
