<svg viewBox="0 0 88 69" fill="none" xmlns="http://www.w3.org/2000/svg">
<g filter="url(#filter0_d_654_434)">
<path d="M35.3544 46.0774C26.6117 45.1156 7.99671 35.6273 3.47901 5.36859C6.40718 7.89253 13.5627 12.2388 18.7592 9.43246C23.1412 7.92558 33.5762 6.01069 40.2604 10.4062C50.3535 20.2349 72.1717 43.5984 78.6999 58.4235C70.869 55.4682 51.2368 48.8616 35.3544 46.0774Z" fill="#E172A1" class="petal" />
<path d="M35.3544 46.0774C26.6117 45.1156 7.99671 35.6273 3.47901 5.36859C6.40718 7.89253 13.5627 12.2388 18.7592 9.43246C23.1412 7.92558 33.5762 6.01069 40.2604 10.4062C50.3535 20.2349 72.1717 43.5984 78.6999 58.4235C70.869 55.4682 51.2368 48.8616 35.3544 46.0774Z" stroke="#D35F90" class="petal" stroke-width="4"/>
</g>
<defs>
<filter id="filter0_d_654_434" x="0.705566" y="0.337708" width="86.7441" height="68.6386" filterUnits="userSpaceOnUse" color-interpolation-filters="sRGB">
<feFlood flood-opacity="0" result="BackgroundImageFix"/>
<feColorMatrix in="SourceAlpha" type="matrix" values="0 0 0 0 0 0 0 0 0 0 0 0 0 0 0 0 0 0 127 0" result="hardAlpha"/>
<feOffset dx="5" dy="7"/>
<feColorMatrix type="matrix" values="0 0 0 0 0.486275 0 0 0 0 0.439216 0 0 0 0 0.635294 0 0 0 1 0"/>
<feBlend mode="normal" in2="BackgroundImageFix" result="effect1_dropShadow_654_434"/>
<feBlend mode="normal" in="SourceGraphic" in2="effect1_dropShadow_654_434" result="shape"/>
</filter>
</defs>
</svg>
