<svg  viewBox="0 0 53 92" fill="none" xmlns="http://www.w3.org/2000/svg">
<g filter="url(#filter0_d_654_424)">
<path d="M41.7417 42.6107C41.2353 44.0117 37.3551 48.0022 25.8859 52.7567C20.0289 59.7413 18.1562 64.0606 17.952 65.3472C16.2366 68.4841 11.3475 70.2651 9.11735 70.7634C7.8038 71.6751 6.94042 76.4245 6.67293 78.6853C2.61449 72.343 2.02872 68.6947 2.24313 67.6634C2.47177 61.8757 4.74373 48.1106 12.0025 39.3517C11.4102 37.3299 10.4989 31.6799 11.5918 25.2541C13.0396 19.2642 19.6371 6.2465 34.444 2.0948C37.7566 3.08727 44.378 5.74738 44.3633 8.44805C43.9162 13.8865 43.4581 26.4643 45.2032 33.2674C44.8214 35.2259 43.5945 39.8365 41.7417 42.6107Z" fill="#E172A1" class="petal"/>
<path d="M41.7417 42.6107C41.2353 44.0117 37.3551 48.0022 25.8859 52.7567C20.0289 59.7413 18.1562 64.0606 17.952 65.3472C16.2366 68.4841 11.3475 70.2651 9.11735 70.7634C7.8038 71.6751 6.94042 76.4245 6.67293 78.6853C2.61449 72.343 2.02872 68.6947 2.24313 67.6634C2.47177 61.8757 4.74373 48.1106 12.0025 39.3517C11.4102 37.3299 10.4989 31.6799 11.5918 25.2541C13.0396 19.2642 19.6371 6.2465 34.444 2.0948C37.7566 3.08727 44.378 5.74738 44.3633 8.44805C43.9162 13.8865 43.4581 26.4643 45.2032 33.2674C44.8214 35.2259 43.5945 39.8365 41.7417 42.6107Z" stroke="#D35F90" class="petal" stroke-width="4"/>
</g>
<defs>
<filter id="filter0_d_654_424" x="0.205078" y="0.0124512" width="52.0474" height="91.4606" filterUnits="userSpaceOnUse" color-interpolation-filters="sRGB">
<feFlood flood-opacity="0" result="BackgroundImageFix"/>
<feColorMatrix in="SourceAlpha" type="matrix" values="0 0 0 0 0 0 0 0 0 0 0 0 0 0 0 0 0 0 127 0" result="hardAlpha"/>
<feOffset dx="5" dy="7"/>
<feColorMatrix type="matrix" values="0 0 0 0 0.486275 0 0 0 0 0.439216 0 0 0 0 0.635294 0 0 0 1 0"/>
<feBlend mode="normal" in2="BackgroundImageFix" result="effect1_dropShadow_654_424"/>
<feBlend mode="normal" in="SourceGraphic" in2="effect1_dropShadow_654_424" result="shape"/>
</filter>
</defs>
</svg>
