<svg viewBox="0 0 85 100" fill="none" xmlns="http://www.w3.org/2000/svg">
<g filter="url(#filter0_d_654_435)">
<path d="M16.3986 5.20404C6.46545 14.2979 -7.88307 43.4761 14.1881 87.4374L18.8706 90.1409C55.6241 75.147 66.5928 66.9631 67.6066 65.207C91.3401 37.0767 64.8681 14.977 48.6653 7.44347C40.8003 3.94323 23.336 -1.40501 16.3986 5.20404Z" fill="#E172A1" class="petal"/>
<path d="M16.3986 5.20404C6.46545 14.2979 -7.88307 43.4761 14.1881 87.4374L18.8706 90.1409C55.6241 75.147 66.5928 66.9631 67.6066 65.207C91.3401 37.0767 64.8681 14.977 48.6653 7.44347C40.8003 3.94323 23.336 -1.40501 16.3986 5.20404Z" stroke="#D35F90" class="petal" stroke-width="4"/>
</g>
<defs>
<filter id="filter0_d_654_435" x="0.562012" y="0.0664673" width="83.5029" height="99.2963" filterUnits="userSpaceOnUse" color-interpolation-filters="sRGB">
<feFlood flood-opacity="0" result="BackgroundImageFix"/>
<feColorMatrix in="SourceAlpha" type="matrix" values="0 0 0 0 0 0 0 0 0 0 0 0 0 0 0 0 0 0 127 0" result="hardAlpha"/>
<feOffset dx="5" dy="7"/>
<feColorMatrix type="matrix" values="0 0 0 0 0.486275 0 0 0 0 0.439216 0 0 0 0 0.635294 0 0 0 1 0"/>
<feBlend mode="normal" in2="BackgroundImageFix" result="effect1_dropShadow_654_435"/>
<feBlend mode="normal" in="SourceGraphic" in2="effect1_dropShadow_654_435" result="shape"/>
</filter>
</defs>
</svg>
