<svg  viewBox="0 0 71 73" fill="none" xmlns="http://www.w3.org/2000/svg">
<g filter="url(#filter0_d_3013_245)">
<path d="M57.6403 39.7192C53.809 41.3906 45.7993 48.0259 44.4103 61.1952C43.1884 60.2057 38.9325 57.2642 31.6844 53.4137C28.4241 54.1836 19.7722 54.4475 11.2469 49.3447C9.14656 44.7797 5.35363 35.298 6.9843 33.8905C7.33308 31.8315 8.02135 26.7649 7.98418 22.9704C8.75664 21.118 12.1337 17.2057 19.4624 16.3749C20.1858 14.8921 22.1348 11.5419 24.1437 10.0042C27.8173 8.38702 35.6731 5.40063 37.7067 6.39269C40.1197 5.2095 45.6229 4.19632 48.3324 9.60915C50.1795 9.85459 54.6101 11.2554 57.5552 14.8949C58.666 20.6818 60.2382 33.7484 57.6403 39.7192Z" fill="#E172A1" class="petal" />
<path d="M57.6403 39.7192C53.809 41.3906 45.7993 48.0259 44.4103 61.1952C43.1884 60.2057 38.9325 57.2642 31.6844 53.4137C28.4241 54.1836 19.7722 54.4475 11.2469 49.3447C9.14656 44.7797 5.35363 35.298 6.9843 33.8905C7.33308 31.8315 8.02135 26.7649 7.98418 22.9704C8.75664 21.118 12.1337 17.2057 19.4624 16.3749C20.1858 14.8921 22.1348 11.5419 24.1437 10.0042C27.8173 8.38702 35.6731 5.40063 37.7067 6.39269C40.1197 5.2095 45.6229 4.19632 48.3324 9.60915C50.1795 9.85459 54.6101 11.2554 57.5552 14.8949C58.666 20.6818 60.2382 33.7484 57.6403 39.7192Z" stroke="#D35F90" stroke-width="4" class="petal" />
</g>
<defs>
<filter id="filter0_d_3013_245" x="4.58789" y="3.45416" width="61.4653" height="68.6123" filterUnits="userSpaceOnUse" color-interpolation-filters="sRGB">
<feFlood flood-opacity="0" result="BackgroundImageFix"/>
<feColorMatrix in="SourceAlpha" type="matrix" values="0 0 0 0 0 0 0 0 0 0 0 0 0 0 0 0 0 0 127 0" result="hardAlpha"/>
<feOffset dx="5" dy="7"/>
<feColorMatrix type="matrix" values="0 0 0 0 0.486275 0 0 0 0 0.439216 0 0 0 0 0.635294 0 0 0 1 0"/>
<feBlend mode="normal" in2="BackgroundImageFix" result="effect1_dropShadow_3013_245"/>
<feBlend mode="normal" in="SourceGraphic" in2="effect1_dropShadow_3013_245" result="shape"/>
</filter>
</defs>
</svg>
