<svg width="68" height="101" viewBox="0 0 68 101" fill="none" xmlns="http://www.w3.org/2000/svg">
<path d="M62.9427 56.4727C58.6935 60.2408 49.9447 73.1837 48.9437 94.8111C38.8407 82.4697 24.2497 72.0994 18.2171 68.457C14.5773 66.196 7.44495 58.6006 8.0344 46.3068C8.63396 42.5054 11.1978 33.2019 16.6566 26.3994L28.0391 10L43.1296 19.306C45.6689 21.0528 52.169 26.2285 57.8554 32.9573C61.8627 37.3447 68.4904 48.1901 62.9427 56.4727Z" fill="#7C70A2" class="petal-shadow" stroke="#7C70A2" stroke-width="4"/>
<path d="M57.9427 49.4727C53.6935 53.2408 44.9447 66.1837 43.9437 87.8111C33.8407 75.4697 19.2497 65.0994 13.2171 61.457C9.57725 59.196 2.44495 51.6006 3.0344 39.3068C3.63396 35.5054 6.1978 26.2019 11.6566 19.3994L23.0391 3L38.1296 12.306C40.6689 14.0528 47.169 19.2285 52.8554 25.9573C56.8627 30.3447 63.4904 41.1901 57.9427 49.4727Z" fill="#E172A1" class="petal" stroke="#D35F90" stroke-width="4"/>
</svg>
