<svg  viewBox="0 0 110 152" fill="none" xmlns="http://www.w3.org/2000/svg">
<g filter="url(#filter0_d_3013_247)">
<path d="M9.52338 41.4573C13.3174 39.7375 27.1272 29.7206 52.0147 3.41049L66.6755 4.78635C67.6385 21.0678 88.1328 41.5693 98.2596 49.7849C102.561 57.0386 95.7101 65.8923 91.7472 69.4125C93.7709 87.6616 83.1679 100.003 77.6135 103.893C63.7813 111.936 50.4995 130.15 45.5877 138.252C43.9495 122.53 30.0053 107.988 23.238 102.682C17.9898 97.7788 7.80704 86.2886 9.06159 79.5563C10.9511 73.2468 13.7367 59.6005 9.76317 55.4912C8.53372 52.0027 6.76454 44.312 9.52338 41.4573Z" fill="#E172A1" class="petal"/>
<path d="M9.52338 41.4573C13.3174 39.7375 27.1272 29.7206 52.0147 3.41049L66.6755 4.78635C67.6385 21.0678 88.1328 41.5693 98.2596 49.7849C102.561 57.0386 95.7101 65.8923 91.7472 69.4125C93.7709 87.6616 83.1679 100.003 77.6135 103.893C63.7813 111.936 50.4995 130.15 45.5877 138.252C43.9495 122.53 30.0053 107.988 23.238 102.682C17.9898 97.7788 7.80704 86.2886 9.06159 79.5563C10.9511 73.2468 13.7367 59.6005 9.76317 55.4912C8.53372 52.0027 6.76454 44.312 9.52338 41.4573Z" stroke="#D35F90" class="petal" stroke-width="4"/>
</g>
<defs>
<filter id="filter0_d_3013_247" x="6.06104" y="1.32819" width="100.569" height="150.046" filterUnits="userSpaceOnUse" color-interpolation-filters="sRGB">
<feFlood flood-opacity="0" result="BackgroundImageFix"/>
<feColorMatrix in="SourceAlpha" type="matrix" values="0 0 0 0 0 0 0 0 0 0 0 0 0 0 0 0 0 0 127 0" result="hardAlpha"/>
<feOffset dx="5" dy="7"/>
<feColorMatrix type="matrix" values="0 0 0 0 0.486275 0 0 0 0 0.439216 0 0 0 0 0.635294 0 0 0 1 0"/>
<feBlend mode="normal" in2="BackgroundImageFix" result="effect1_dropShadow_3013_247"/>
<feBlend mode="normal" in="SourceGraphic" in2="effect1_dropShadow_3013_247" result="shape"/>
</filter>
</defs>
</svg>
