<svg width="155" height="157" xmlns="http://www.w3.org/2000/svg"><path d="M77.017 156.353C38.07 156.326 5.799 127.841 0 90.628l39.613-.073c5.06 15.782 19.891 27.207 37.404 27.216 17.484-.02 32.294-11.426 37.374-27.18l39.599-.036c-5.758 37.235-38.021 65.749-76.973 65.798Zm0-52.339c-14.083 0-25.5-11.382-25.5-25.422 0-14.04 11.417-25.422 25.5-25.422s25.499 11.382 25.499 25.422c0 14.04-11.416 25.422-25.5 25.422ZM.043 66.629C5.801 29.393 38.064.879 77.017.83c38.947.026 71.217 28.512 77.016 65.725l-39.612.073c-5.061-15.783-19.892-27.207-37.404-27.217-17.484.02-32.295 11.427-37.374 27.181l-39.6.036Z" fill="#fff"/></svg>