<svg width="913" height="894" viewBox="0 0 913 894" fill="none" xmlns="http://www.w3.org/2000/svg">
<path d="M164.728 684.091C160.795 694.983 159.307 704.009 159.055 707.16M179.855 705.648L184.015 699.218M547.454 712.077C545.337 725.389 541.025 736.785 539.134 740.819M524.007 724.179C527.637 728.717 527.789 732.877 527.41 734.39" stroke="#062038" stroke-width="2.1715"/>
<path d="M287.261 374.355C290.917 377.38 298.229 384.793 298.229 390.239C305.793 406.274 329.871 396.92 340.964 390.239C350.041 386.079 365.849 374.506 356.47 361.496C351.301 354.815 329.467 326.854 283.479 268.462C259.578 249.099 254.611 219.298 255.115 206.817C260.864 194.715 296.59 158.913 313.734 142.525C326.442 130.423 356.596 114.035 370.085 107.354C386.422 105.538 400.844 109.623 406.012 111.892C431.729 111.892 437.654 101.555 437.402 96.3863V78.347C442.384 73.6031 446.601 67.3634 447.613 59.702C446.1 51.1298 438.234 29.2201 418.871 10.1594C416.097 6.62964 402.76 0.477793 371.597 4.10849C362.017 3.60424 341.04 2.89828 333.778 4.10849C330.879 6.25155 322.584 11.8235 312.6 16.9669C284.74 34.9939 220.625 85.6459 187.041 144.038C173.301 171.646 145.743 228.828 145.441 236.694C146.197 236.694 152.551 234.803 171.916 227.24C172.696 245.759 174.334 271.155 176.83 275.648C178.091 271.362 183.033 259.083 192.714 244.258C194.227 250.687 197.858 263.394 200.278 262.789C200.656 260.646 202.305 254.923 205.877 249.175C216.894 274.622 246.239 330.155 287.261 374.355Z" fill="#F7CF70"  class="arm"  />
<path d="M204.438 245.771C204.876 246.835 205.356 247.971 205.877 249.175M205.877 249.175C216.894 274.622 246.239 330.155 287.261 374.355C290.917 377.38 298.229 384.793 298.229 390.239C305.793 406.274 329.871 396.92 340.964 390.239C350.041 386.079 365.849 374.506 356.47 361.496C351.301 354.815 329.467 326.854 283.479 268.462C259.578 249.099 254.611 219.298 255.115 206.817C260.864 194.715 296.59 158.913 313.734 142.525C326.442 130.423 356.596 114.035 370.085 107.354C386.422 105.538 400.844 109.623 406.012 111.892C431.729 111.892 437.654 101.555 437.402 96.3863C437.402 90.0327 437.402 81.7128 437.402 78.347M205.877 249.175C202.305 254.923 200.656 260.646 200.278 262.789C197.858 263.394 194.227 250.687 192.714 244.258C183.033 259.083 178.091 271.362 176.83 275.648C174.334 271.155 172.696 245.759 171.916 227.24M171.536 216.65C171.624 219.694 171.751 223.312 171.916 227.24M171.916 227.24C152.551 234.803 146.197 236.694 145.441 236.694C145.743 228.828 173.301 171.646 187.041 144.038C220.625 85.6459 284.74 34.9939 312.6 16.9669C322.584 11.8235 330.879 6.25155 333.778 4.10849C341.04 2.89828 362.017 3.60424 371.597 4.10849C402.76 0.477793 416.097 6.62964 418.871 10.1594C438.234 29.2201 446.1 51.1298 447.613 59.702C446.601 67.3634 442.384 73.6031 437.402 78.347M421.518 88.4443C412.316 91.848 391.566 97.5965 382.187 93.3608M421.518 88.4443C424.241 66.9632 410.046 34.6155 402.609 21.1268M421.518 88.4443C425.6 86.9302 431.957 83.5321 437.402 78.347M314.491 23.0178C301.784 63.8621 302.137 80.3763 303.902 83.5279C309.65 91.0917 328.988 91.722 337.939 91.0917M337.939 91.0917C348.225 81.1075 347.771 41.549 346.259 23.0178M337.939 91.0917C363.05 101.983 377.9 97.1427 382.187 93.3608M382.187 93.3608C386.725 83.3766 380.8 42.3054 377.27 23.0178" stroke="#103961" class="dark-lines" stroke-width="5.06682"/>
<path fill-rule="evenodd" clip-rule="evenodd" d="M265.514 348.639C264.759 322.014 280.948 288.885 289.137 275.648L286.079 271.764L283.479 268.463C281.68 267.005 279.988 265.488 278.398 263.924C249.182 299.323 245.961 319.014 248.003 324.435C253.44 332.469 259.288 340.606 265.514 348.639ZM275.725 261.15C262.542 264.779 236.889 277.196 232.588 300.23C226.843 290.642 221.803 281.554 217.537 273.379C220.734 264.933 234.344 246.906 263.201 242.368C266.247 248.783 270.328 255.237 275.725 261.15ZM224.482 195.85C217.548 196.859 199.53 189.573 182.925 152.359C184.393 149.376 185.775 146.582 187.041 144.039C193.941 132.042 202.129 120.373 211.027 109.245C210.847 125.003 216.313 162.57 239.609 186.774H232.802L236.584 192.825L219.187 186.774L224.482 195.85ZM310.709 145.434C251.409 148.553 243.124 96.8912 246.394 70.6702C256.013 61.3689 265.621 52.854 274.666 45.3315C271.732 114.616 306.297 133.52 323.945 134.312C319.966 137.154 316.451 139.938 313.734 142.526C312.78 143.438 311.769 144.409 310.709 145.434ZM235.071 120.591C250.804 152.359 283.262 159.04 297.525 158.41C288.949 167 279.574 176.688 271.755 185.381C264.822 186.476 247.324 181.101 232.802 150.846L241.5 154.628L230.911 137.988L241.5 142.526L235.071 120.591Z" fill="#103961" class="stripes"/>
<path d="M287.261 374.356C290.917 377.381 298.229 384.794 298.229 390.239C305.792 406.275 329.87 396.921 340.964 390.239C350.04 386.079 365.849 374.507 356.47 361.497C352.388 356.221 337.917 337.679 309.37 301.365C303.891 311.198 291.346 339.068 284.992 371.886C285.744 372.713 286.501 373.536 287.261 374.356Z" fill="#103961" class="stripes"/>
<path d="M283.479 268.463C281.68 267.005 279.988 265.488 278.398 263.924C249.182 299.323 245.961 319.014 248.003 324.435C253.44 332.469 259.288 340.606 265.514 348.639C264.759 322.014 280.948 288.885 289.137 275.648M283.479 268.463C284.355 269.574 285.221 270.675 286.079 271.764M283.479 268.463L286.079 271.764M289.137 275.648C288.131 274.369 287.111 273.075 286.079 271.764M289.137 275.648L286.079 271.764M297.525 158.41C288.949 167 279.574 176.688 271.755 185.381C264.822 186.476 247.324 181.101 232.802 150.846L241.5 154.628L230.911 137.988L241.5 142.526L235.071 120.591C250.804 152.359 283.262 159.04 297.525 158.41ZM297.525 158.41C302.304 153.623 306.834 149.177 310.709 145.434M310.709 145.434C311.769 144.409 312.78 143.438 313.734 142.526C316.451 139.938 319.966 137.154 323.945 134.312C306.297 133.52 271.732 114.616 274.666 45.3315C265.621 52.854 256.013 61.3689 246.394 70.6702C243.124 96.8912 251.409 148.553 310.709 145.434ZM298.229 390.239C298.229 384.794 290.917 377.381 287.261 374.356C286.501 373.536 285.744 372.713 284.992 371.886C291.346 339.068 303.891 311.198 309.37 301.365C337.917 337.679 352.388 356.221 356.47 361.497C365.849 374.507 350.04 386.079 340.964 390.239C329.87 396.921 305.792 406.275 298.229 390.239ZM187.041 144.039C185.775 146.582 184.393 149.376 182.925 152.359C199.53 189.573 217.548 196.859 224.482 195.85L219.187 186.774L236.584 192.825L232.802 186.774H239.609C216.313 162.57 210.847 125.003 211.027 109.245C202.129 120.373 193.941 132.042 187.041 144.039ZM263.201 242.368C234.344 246.906 220.734 264.933 217.537 273.379C221.803 281.554 226.843 290.642 232.588 300.23C236.889 277.196 262.542 264.779 275.725 261.15C270.328 255.237 266.247 248.783 263.201 242.368Z" stroke="#103961" class="dark-lines" stroke-width="5.06682"/>
<path d="M646.54 701.866C593.467 731.995 463.194 775.31 366.68 707.539C384.531 696.647 407.651 695.941 416.979 696.95C470.531 723.877 514.174 719.263 529.301 713.59C606.149 695.135 659.398 638.583 676.416 612.614C712.723 565.416 738.439 575.299 746.759 586.141C752.205 595.52 744.238 610.471 739.574 616.774C725.707 635.053 687.686 677.662 646.54 701.866Z" fill="#FAD783" stroke="#103961" class="body" stroke-width="7.23832"/>
<path d="M416.979 696.949C407.651 695.941 384.531 696.647 366.68 707.538C385.581 720.811 405.777 729.822 426.434 735.507C446.402 727.049 444.335 713.116 440.805 707.206C433.14 704.453 425.176 701.07 416.979 696.949Z" fill="#103961" class="stripes"/>
<path fill-rule="evenodd" clip-rule="evenodd" d="M495.642 743.42C504.719 729.237 503.71 720.497 502.072 717.9C492.102 718.137 480.215 717.292 466.9 714.566C468.665 718.4 468.942 729.143 455.933 741.435C469.213 743.181 482.521 743.763 495.642 743.42Z" fill="#103961" class="stripes"/>
<path fill-rule="evenodd" clip-rule="evenodd" d="M729.762 628.875C731.268 618.286 726.186 596.359 693.813 593.368C688.336 598.345 682.526 604.671 676.416 612.613C673.989 616.317 670.826 620.642 666.962 625.39C694.878 627.51 701.983 647.59 702.137 658.213C713.058 647.653 722.518 637.361 729.762 628.875ZM648.907 645.137C668.192 649.676 673.947 671.989 674.415 682.578C665.466 689.642 656.087 696.249 646.54 701.866C644.736 702.889 642.844 703.928 640.867 704.978C642.758 695.746 641.774 675.411 622.714 667.924C632.583 660.347 641.344 652.587 648.907 645.137ZM594.35 687.045C585.359 692.314 575.764 697.221 565.607 701.544C579.525 714.811 576.197 727.061 572.793 731.527C584.931 728.186 596.362 724.36 606.83 720.335C610.107 714.072 612.2 698.645 594.35 687.045Z" fill="#103961" class="stripes"/>
<path d="M702.133 659.13C702.14 658.833 702.142 658.527 702.137 658.213M702.137 658.213C713.058 647.653 722.518 637.361 729.762 628.875C731.268 618.286 726.186 596.359 693.813 593.368C688.336 598.345 682.526 604.671 676.416 612.613C673.989 616.317 670.826 620.642 666.962 625.39C694.878 627.51 701.983 647.59 702.137 658.213ZM366.68 707.538C384.531 696.647 407.651 695.941 416.979 696.949C425.176 701.07 433.14 704.453 440.805 707.206C444.335 713.116 446.402 727.049 426.434 735.507C405.777 729.822 385.581 720.811 366.68 707.538ZM646.54 701.866C644.736 702.889 642.844 703.928 640.867 704.978C642.758 695.746 641.774 675.411 622.714 667.924C632.583 660.347 641.344 652.587 648.907 645.137C668.192 649.676 673.947 671.989 674.415 682.578C665.466 689.642 656.087 696.249 646.54 701.866ZM455.933 741.435C468.942 729.143 468.665 718.4 466.9 714.566C480.215 717.292 492.102 718.137 502.072 717.9C503.71 720.497 504.719 729.237 495.642 743.42C482.521 743.763 469.213 743.181 455.933 741.435ZM565.607 701.544C579.525 714.811 576.197 727.061 572.793 731.527C584.931 728.186 596.362 724.36 606.83 720.335C610.107 714.072 612.2 698.645 594.35 687.045C585.359 692.314 575.764 697.221 565.607 701.544Z" stroke="#103961" class="dark-lines" stroke-width="7.23832"/>
<path d="M461.227 802.464C457.193 800.825 447.99 797.169 443.452 795.657C454.949 782.042 470.682 777.126 477.111 776.369C472.321 783.177 462.437 797.926 461.227 802.464Z" fill="#EAECF0" stroke="#103961" class="dark-lines" stroke-width="3.61916"/>
<path d="M260.789 675.771C246.518 681.857 219.425 699.089 207.603 724.936C210.518 731.894 219.819 740.946 224.105 744.601C223.349 748.888 221.382 758.368 219.567 761.998C216.844 768.049 202.296 775.613 195.363 778.638C168.436 792.253 159.183 806.498 157.922 811.919C148.543 823.416 123.255 826.29 111.783 826.29C76.3847 822.357 58.2064 803.725 53.5421 794.901C49.3064 778.865 59.341 768.049 64.8878 764.645C72.149 763.133 115.061 740.315 135.609 729.096C138.004 718.128 146.123 692.109 159.435 675.771C169.142 666.947 194.304 643.928 217.298 622.447C191.581 484.786 274.404 398.685 319.03 372.842C392.055 338.858 460.85 335.374 488.08 338.427C493.753 339.057 506.839 340.656 513.797 342.008C529.191 336.053 539.365 334.955 543.296 335.402C560.844 336.612 574.56 330.107 579.224 326.703L579.98 324.997C575.658 320.918 572.034 317.522 570.526 316.114C567.198 313.089 585.023 313.341 594.351 313.845C593.141 305.979 579.728 290.397 573.173 283.59C569.881 281.395 601.793 288.779 622.716 293.84C628.161 290.178 634.313 281.699 636.708 277.917C640.642 281.548 647.928 294.557 651.08 300.608C795.699 306.962 832.232 322.921 857.192 337.671C882.153 352.42 905.222 393.643 907.113 403.097C912.559 430.932 906.105 461.59 902.197 473.44C894.935 480.399 885.052 480.122 881.018 479.113C857.722 480.626 841.813 472.18 836.77 467.768C820.13 476.844 797.312 456.926 787.984 445.833C780.117 465.498 763.78 466.381 756.594 464.364L739.198 458.313C735.567 456.195 716.254 440.79 707.052 433.352C705.523 431.633 705.121 423.191 705.159 414.821C701.503 411.796 693.437 405.593 690.411 404.988C681.461 403.854 650.626 397.046 598.89 378.893C569.675 384.055 516.899 398.078 491.329 419.254L491.484 419.738C505.099 468.398 523.328 581.771 487.324 645.98C502.836 660.806 532.748 684.647 549.725 697.706C559.104 708.901 556.406 734.39 553.885 745.736C551.425 752.766 551.227 763.199 551.84 772.587C556.178 775.739 570.374 784.009 592.46 791.875C606.579 794.648 635.12 802.842 636.33 813.432C636.33 821.5 633.078 839.073 620.068 844.821C605.319 850.368 571.509 860.554 554.263 856.923C548.339 854.15 532.404 848.603 516.066 848.603C510.646 849.107 498.216 848.603 491.862 842.552C482.534 833.476 463.876 812.146 463.876 799.439C465.515 793.262 472.643 778.79 488.044 770.318C489.863 759.875 491.862 743.574 491.862 725.314C491.736 722.162 483.769 711.094 452.909 692.033C416.099 708.926 326.14 729.323 260.789 675.771Z" fill="#FAD783" class="body"/>
<path d="M202.548 741.576C203.461 735.694 205.222 730.14 207.603 724.936M207.603 724.936C219.425 699.089 246.518 681.857 260.789 675.771C326.14 729.323 416.099 708.926 452.909 692.033C483.769 711.094 491.736 722.162 491.862 725.314C491.862 743.574 489.863 759.875 488.044 770.318M207.603 724.936C210.518 731.894 219.819 740.946 224.105 744.601C223.349 748.888 221.382 758.368 219.567 761.998C216.844 768.049 202.296 775.613 195.363 778.638C168.436 792.253 159.183 806.498 157.922 811.919C148.543 823.416 123.255 826.29 111.783 826.29C76.3847 822.357 58.2064 803.725 53.5421 794.901C49.3064 778.865 59.341 768.049 64.8878 764.645C72.149 763.133 115.061 740.315 135.609 729.096C138.004 718.128 146.123 692.109 159.435 675.771C169.142 666.947 194.304 643.928 217.298 622.447C191.581 484.786 274.404 398.685 319.03 372.842C392.055 338.858 460.85 335.374 488.08 338.427C493.753 339.057 506.839 340.656 513.797 342.008M486.19 779.395C486.705 777.331 487.362 774.237 488.044 770.318M488.044 770.318C472.643 778.79 465.515 793.262 463.876 799.439C463.876 812.146 482.534 833.476 491.862 842.552C498.216 848.603 510.646 849.107 516.066 848.603C532.404 848.603 548.338 854.15 554.263 856.923C571.509 860.554 605.319 850.368 620.068 844.821C633.078 839.073 636.33 821.5 636.33 813.432C635.12 802.842 606.579 794.648 592.46 791.875C570.374 784.009 556.178 775.739 551.84 772.587M477.491 634.549C478.199 636.673 481.872 640.77 487.324 645.98M553.885 789.606C553.146 785.591 552.282 779.361 551.84 772.587M551.84 772.587C551.227 763.199 551.425 752.766 553.885 745.736C556.407 734.39 559.104 708.901 549.725 697.706C532.748 684.647 502.836 660.806 487.324 645.98M487.324 645.98C523.328 581.771 505.099 468.398 491.484 419.738L491.329 419.254M477.113 439.782C478.627 432.348 483.798 425.491 491.329 419.254M492.241 352.042C500.261 347.723 507.47 344.455 513.797 342.008M583.384 328.216C582.22 327.113 581.078 326.033 579.98 324.997M579.98 324.997C575.658 320.918 572.034 317.522 570.526 316.114C567.197 313.089 585.023 313.341 594.351 313.845C593.141 305.979 579.728 290.397 573.173 283.59C569.881 281.395 601.793 288.779 622.716 293.84M579.98 324.997L579.224 326.703C574.56 330.107 560.844 336.612 543.296 335.402C539.365 334.955 529.191 336.053 513.797 342.008M628.767 295.314C626.899 294.856 624.865 294.36 622.716 293.84M622.716 293.84C628.161 290.178 634.313 281.699 636.708 277.917C640.642 281.548 647.928 294.557 651.08 300.608C795.699 306.962 832.232 322.921 857.192 337.671C882.153 352.42 905.222 393.643 907.113 403.097C912.559 430.932 906.105 461.59 902.197 473.44C894.935 480.399 885.052 480.122 881.018 479.113M881.018 479.113C888.834 468.02 902.651 436.075 895.389 397.046M881.018 479.113C857.722 480.626 841.813 472.18 836.77 467.768M836.77 467.768C871.866 419.359 876.606 387.087 874.589 377.002M836.77 467.768C820.13 476.844 797.312 456.926 787.984 445.833C780.118 465.498 763.78 466.381 756.594 464.364L739.198 458.313C735.567 456.195 716.254 440.79 707.052 433.352C705.523 431.633 705.121 423.191 705.159 414.821M736.172 367.169C734.706 370.7 731.769 376.392 727.852 381.601M705.159 414.821C705.181 409.933 705.353 405.07 705.539 401.585C705.539 396.744 712.094 393.517 715.372 392.508C720.08 390.511 724.356 386.248 727.852 381.601M705.159 414.821C701.503 411.796 693.437 405.593 690.411 404.988C681.461 403.854 650.626 397.046 598.89 378.893C569.675 384.055 516.899 398.078 491.329 419.254M777.016 333.889C772.735 345.68 769.592 356.261 767.335 365.657M764.914 420.872C762.762 416.27 760.942 404.554 763.575 385.322M767.335 365.657C758.137 356.883 760.124 342.587 762.267 336.536M767.335 365.657C765.592 372.916 764.377 379.468 763.575 385.322M763.575 385.322C746.493 398.332 754.829 422.763 761.132 433.352C771.117 443.337 795.295 442.051 806.137 440.16C822.777 431.688 828.702 377.633 829.584 351.664M728.986 356.58C725.961 368.985 726.969 378.429 727.852 381.601" stroke="#103961" class="dark-lines" stroke-width="7.23832"/>
<path d="M219.565 759.728C221.38 756.098 223.347 746.618 224.103 742.332C235.827 750.652 251.333 765.779 219.565 759.728Z" fill="#EAECF0"/>
<path d="M207.601 722.666C210.516 729.625 219.817 738.676 224.103 742.332M224.103 742.332C223.347 746.618 221.38 756.098 219.565 759.728C251.333 765.779 235.827 750.652 224.103 742.332Z" stroke="#103961" class="dark-lines" stroke-width="3.61916"/>
<path d="M216.608 526.009C271.013 509.066 317.39 506.847 333.778 507.856C255.418 579.56 233.306 617.656 232.046 627.741L252.846 612.614C239.534 631.372 235.954 640.348 235.828 642.491H238.475L235.828 645.894L277.05 612.614C335.14 562.39 417.736 523.361 451.773 510.125C436.04 506.494 450.512 503.065 459.715 501.805C426.056 493.485 382.817 486.677 364.79 487.433C408.357 444.774 451.017 372.708 466.901 342.008L415.089 355.068C375.883 374.985 283.84 428.285 229.311 482.139C223.928 495.653 219.553 510.285 216.608 526.009Z" fill="#103961" class="stripes"/>
<path d="M364.033 634.549C384.203 635.305 441.139 623.127 507.519 568.366C508.723 551.575 508.568 534.364 507.519 517.626C493.476 532.523 451.471 567.156 395.801 586.519C400.718 586.393 412.744 585.687 421.518 583.872L352.688 625.094C364.487 624.792 377.522 623.455 382.565 622.825L364.033 634.549Z" fill="#103961" class="stripes"/>
<path d="M217.296 622.447C208.163 630.979 198.688 639.754 189.975 647.785C205.176 681.368 226.625 690.713 235.449 691.188C244.785 683.818 254.167 678.595 260.788 675.771C251.585 671.99 230.003 656.03 217.296 622.447Z" fill="#103961" class="stripes"/>
<path d="M496.335 654.215C465.829 665.106 459.211 686.84 459.715 696.346C471.031 703.708 478.638 709.707 483.598 714.347C495.049 687.117 518.966 681.318 529.492 681.822C518.269 672.846 506.094 662.83 496.335 654.215Z" fill="#103961" class="stripes"/>
<path d="M513.796 342.008C509.423 341.158 502.63 340.211 496.777 339.469C453.21 368.891 474.991 404.918 491.327 419.254C498.368 413.423 507.472 408.135 517.578 403.424C493.979 377.143 505.224 351.53 513.796 342.008Z" fill="#103961" class="stripes"/>
<path d="M530.058 340.696C514.325 363.085 520.225 389.613 525.142 400.079C534.388 396.193 544.208 392.76 553.884 389.802C537.546 379.865 535.479 357.463 536.487 347.504L530.058 360.362V340.696Z" fill="#103961" class="stripes"/>
<path d="M547.455 335.55C545.337 363.569 554.64 379.146 559.557 383.432V361.875L564.095 375.868C564.095 354.689 570.398 336.421 573.55 329.934C567.592 332.718 558.419 335.575 547.455 335.55Z" fill="#103961" class="stripes"/>
<path d="M650.281 299.096C650.569 299.636 650.836 300.143 651.078 300.608C658.958 300.955 666.516 301.329 673.77 301.731C662.046 309.173 636.632 328.443 628.765 345.991L627.631 332.754L621.201 343.722L619.689 338.427L609.856 352.042C609.73 336.662 617.638 304.542 650.281 299.096Z" fill="#103961" class="stripes"/>
<path d="M662.046 321.409C634.514 348.336 639.228 380.951 645.027 393.892C661.548 398.775 673.871 401.803 681.909 403.476C678.944 398.685 672.711 387.289 671.5 380.028C668.853 367.548 669.912 338.352 695.326 321.409H690.41L693.435 314.223C676.493 323.905 671.5 327.586 671.122 328.216C675.055 319.745 676.543 316.114 676.795 315.358L657.507 336.536L662.046 321.409Z" fill="#103961" class="stripes"/>
<path d="M732.011 306.096C689.653 323.792 685.115 359.228 688.141 374.733C692.376 362.329 703.268 348.386 708.185 342.966L702.134 363.01L717.261 341.831C717.261 351.513 718.27 356.202 718.774 357.337C725.128 338.881 748.903 324.939 759.997 320.274C771.796 315.736 790.378 315.41 798.194 315.815C781.361 312.179 759.97 308.864 732.011 306.096Z" fill="#103961" class="stripes"/>
<path d="M204.801 732.121C205.597 729.658 206.538 727.262 207.601 724.936C209.491 720.804 211.771 716.893 214.327 713.212C200.063 714.347 166.889 712.002 148.303 693.546C142.352 705.51 138.32 718.117 136.321 726.07C158.139 753.602 191.065 741.576 204.801 732.121Z" fill="#103961" class="stripes"/>
<path d="M551.839 749.14C546.091 751.535 525.833 754.888 490.782 749.14C490.584 751.363 490.366 753.51 490.134 755.569L505.098 762.376L496.399 764.646L507.745 773.344L497.912 773.722C508.199 787.639 538.781 785.32 552.786 782.42C552.408 779.442 552.067 776.087 551.839 772.588C551.299 764.317 551.388 755.235 553.099 748.383L551.839 749.14Z" fill="#103961" class="stripes" />
<path d="M275.915 223.836C279.319 226.231 288.244 235.257 296.715 252.2L307.305 239.342C298.833 234.198 288.395 223.079 284.235 218.163C294.219 201.523 285.37 189.799 279.697 186.017C267.292 178.453 256.627 182.361 252.846 185.261C246.189 189.799 244.525 196.48 244.525 199.254C243.618 210.75 248.685 218.415 251.333 220.81C256.753 225.475 269.259 232.61 275.915 223.836Z" fill="#FAD783" stroke="#103961"  class="body" stroke-width="5.06682"/>
<path d="M291.802 254.849C295.836 248.167 306.702 232.914 317.897 225.35L318.78 224.594C310.722 190.057 303.891 133.257 317.897 82.3948C325.759 101.925 336.298 166.764 342.694 211.357C346.455 208.029 350.78 205.936 352.473 205.306C372.651 128.473 408.324 79.0329 425.302 62.729C423.663 78.739 417.133 117.718 404.124 145.552C398.348 160.618 386.872 186.719 374.852 205.306C403.413 198.65 437.026 215.895 450.263 225.35L451.019 225.956C462.508 220.17 472.039 214.778 472.954 212.492C466.6 194.944 480.896 184.001 488.838 180.724C502.755 176.791 512.033 184.632 514.933 189.044C518.21 192.7 523.102 203.264 516.445 216.273C510.773 224.468 495.721 237.074 480.896 221.946C476.242 224.246 468.919 228.162 460.852 232.995C521.967 255.016 529.934 285.482 526.278 297.962C515.689 326.704 476.484 350.53 458.204 358.85C433.698 370.347 411.687 400.955 403.745 414.822C388.618 437.816 355.337 437.009 340.588 433.732C321.83 429.496 312.854 417.848 310.711 412.553C306.778 398.938 311.846 391.501 314.871 389.484C317.897 384.34 316.888 375.315 316.006 371.446C311.651 371.442 307.323 371.064 303.147 370.196C294.449 366.792 276.598 357.186 274.783 345.992C274.531 341.832 273.119 332.377 269.489 327.839C264.068 323.427 253.756 308.778 255.874 285.482C256 277.792 262.757 261.807 291.802 254.849Z" fill="#FAD783" class="body" />
<path d="M438.917 343.723C435.135 339.311 423.789 331.167 408.662 333.89C402.863 337.798 386.122 348.261 365.548 358.85C356.443 363.61 335.943 371.46 316.006 371.446M324.326 244.638C322.573 239.38 320.644 232.582 318.78 224.594M318.78 224.594C310.722 190.057 303.891 133.257 317.897 82.3948C325.759 101.925 336.298 166.764 342.694 211.357M318.78 224.594L317.897 225.35C306.702 232.914 295.836 248.167 291.802 254.849C262.757 261.807 256 277.792 255.874 285.482C253.756 308.778 264.068 323.427 269.489 327.839C273.119 332.377 274.531 341.832 274.783 345.992C276.598 357.186 294.449 366.792 303.147 370.196C307.323 371.064 311.651 371.442 316.006 371.446M342.694 211.357C343.927 219.956 345.006 227.803 345.883 234.427C347.811 224.324 350.029 214.614 352.473 205.306M342.694 211.357C346.455 208.029 350.78 205.936 352.473 205.306M352.473 205.306C372.651 128.473 408.324 79.0329 425.302 62.729C423.663 78.739 417.133 117.718 404.124 145.552C398.348 160.618 386.872 186.719 374.852 205.306C403.413 198.65 437.026 215.895 450.263 225.35L451.019 225.956M417.738 241.612C426.494 237.734 439.706 231.654 451.019 225.956M451.019 225.956C462.508 220.17 472.039 214.778 472.954 212.492C466.6 194.944 480.896 184.001 488.838 180.724C502.755 176.791 512.033 184.632 514.933 189.044C518.21 192.7 523.102 203.264 516.445 216.273C510.773 224.468 495.721 237.074 480.896 221.946C476.242 224.246 468.919 228.162 460.852 232.995M428.706 255.983C437.589 247.797 449.906 239.552 460.852 232.995M460.852 232.995C521.967 255.016 529.934 285.482 526.278 297.962C515.689 326.704 476.484 350.53 458.204 358.85C433.698 370.347 411.687 400.955 403.745 414.822C388.618 437.816 355.337 437.009 340.588 433.732C321.83 429.496 312.854 417.848 310.711 412.553C306.778 398.938 311.846 391.501 314.871 389.484C317.897 384.34 316.888 375.315 316.006 371.446" stroke="#103961" class="dark-lines" stroke-width="7.23832"/>
<path d="M305.795 344.479C298.357 328.721 285.146 288.734 291.802 254.848C293.212 252.513 295.457 249.13 298.259 245.394C299.762 259.513 304.282 289.642 310.333 297.205C313.737 288.507 333.629 264.076 385.971 235.939L379.92 246.528L405.636 235.561C404.376 236.947 401.174 240.402 398.451 243.124C371.894 269.346 316.183 326.326 305.795 344.479Z" fill="#103961" class="stripes" />
<path d="M318.78 224.593L317.897 225.35C310.616 230.269 303.473 238.442 298.259 245.394M298.259 245.394C295.457 249.13 293.212 252.513 291.802 254.848C285.146 288.734 298.357 328.721 305.795 344.479C316.183 326.326 371.894 269.346 398.451 243.124C401.174 240.402 404.376 236.947 405.636 235.561L379.92 246.528L385.971 235.939C333.629 264.076 313.737 288.507 310.333 297.205C304.282 289.642 299.762 259.513 298.259 245.394Z" stroke="#103961" class="dark-lines" stroke-width="2.1715"/>
<path d="M298.231 354.312C298.231 358.245 299.996 360.741 300.878 361.497M317.897 354.312C314.871 358.245 313.61 360.741 313.358 361.497" stroke="#103961" class="dark-lines" stroke-width="0.723832"/>
<path d="M330.376 370.234C345.177 367.849 358.641 362.46 365.548 358.85C374.385 354.302 382.514 349.777 389.374 345.784C398.484 340.482 405.353 336.119 408.661 333.89C410.754 333.513 412.774 333.344 414.712 333.345C415.847 336.048 417.435 346.513 414.712 366.751C402.61 402.182 393.282 412.805 390.13 413.687C381.659 418.528 371.977 420.747 368.195 421.251C363.052 422.461 354.202 418.73 350.42 416.713C346.26 414.822 335.822 410.51 327.351 408.393C325.212 403.402 322.777 391.818 326.547 379.272C324.467 373.524 320.417 371.63 318.653 371.402C322.59 371.272 326.528 370.855 330.376 370.234Z" fill="#DBACB1"/>
<path d="M438.916 343.722C435.658 339.921 426.783 333.348 414.712 333.345M316.005 371.445C316.887 371.446 317.77 371.431 318.653 371.402M330.376 370.234C345.177 367.849 358.641 362.46 365.548 358.85C374.385 354.302 382.514 349.777 389.374 345.784C398.484 340.482 405.353 336.119 408.661 333.89C410.754 333.513 412.774 333.344 414.712 333.345M330.376 370.234C328.691 373.251 327.443 376.289 326.547 379.272M330.376 370.234C326.528 370.855 322.59 371.272 318.653 371.402M327.351 408.393C325.212 403.402 322.777 391.818 326.547 379.272M327.351 408.393C323.695 409.779 315.93 411.342 314.114 406.502M327.351 408.393C335.822 410.51 346.26 414.822 350.42 416.713C354.202 418.73 363.052 422.461 368.195 421.251C371.977 420.747 381.659 418.528 390.13 413.687C393.282 412.805 402.61 402.182 414.712 366.751C417.435 346.513 415.847 336.048 414.712 333.345M326.547 379.272C324.467 373.524 320.417 371.63 318.653 371.402" stroke="#103961" class="dark-lines" stroke-width="7.23832"/>
<path fill-rule="evenodd" clip-rule="evenodd" d="M365.548 358.85C358.642 362.46 345.178 367.849 330.377 370.234C326.529 370.855 322.59 371.272 318.653 371.402C320.418 371.63 324.468 373.524 326.547 379.272C325.067 384.198 324.544 388.976 324.583 393.265C357.355 374.841 394.291 378.799 408.662 383.081C410.583 378.337 412.606 372.92 414.713 366.751C417.436 346.513 415.847 336.048 414.713 333.345C412.775 333.344 410.754 333.513 408.662 333.89C405.354 336.119 398.484 340.482 389.374 345.784C382.515 349.777 374.385 354.302 365.548 358.85Z" fill="#A08080"/>
<path d="M438.916 343.722C435.658 339.921 426.783 333.348 414.712 333.345M316.005 371.445C316.887 371.446 317.77 371.431 318.653 371.402M330.376 370.234C345.177 367.849 358.641 362.46 365.548 358.85C374.385 354.302 382.514 349.777 389.374 345.784C398.484 340.482 405.353 336.119 408.661 333.89C410.754 333.513 412.774 333.344 414.712 333.345M330.376 370.234C328.691 373.251 327.443 376.289 326.547 379.272M330.376 370.234C326.528 370.855 322.59 371.272 318.653 371.402M327.351 408.393C325.212 403.402 322.777 391.818 326.547 379.272M327.351 408.393C323.695 409.779 315.93 411.342 314.114 406.502M327.351 408.393C335.822 410.51 346.26 414.822 350.42 416.713C354.202 418.73 363.052 422.461 368.195 421.251C371.977 420.747 381.659 418.528 390.13 413.687C393.282 412.805 402.61 402.182 414.712 366.751C417.435 346.513 415.847 336.048 414.712 333.345M326.547 379.272C324.467 373.524 320.417 371.63 318.653 371.402" stroke="#103961" class="dark-lines" stroke-width="7.23832"/>
<path d="M408.661 333.89C405.353 336.119 398.484 340.482 389.374 345.784L414.712 366.751L420.385 371.445C425.831 375.286 424.167 364.649 422.654 358.85L414.712 333.345C412.774 333.344 410.754 333.513 408.661 333.89Z" fill="white" stroke="#103961" class="dark-lines" stroke-width="2.1715"/>
<path fill-rule="evenodd" clip-rule="evenodd" d="M408.661 333.89C405.353 336.119 398.484 340.482 389.374 345.784L405.164 358.85C409.172 350.379 417.238 351.286 420.77 352.799L414.712 333.345C412.774 333.344 410.754 333.513 408.661 333.89Z" fill="#EAECF0"/>
<path d="M32.7423 781.666C25.6828 780.909 10.051 786.053 4 812.677C12.774 808.139 23.5397 807.508 27.8259 807.761C45.9789 807.155 63.6277 807.508 70.183 807.761H72.0739V802.088C73.2085 790.994 73.6623 768.807 66.4011 768.807C62.1149 773.471 49.3826 782.573 32.7423 781.666Z" fill="white" stroke="#103961" class="dark-lines" stroke-width="5.06682"/>
<path fill-rule="evenodd" clip-rule="evenodd" d="M4 812.676C12.774 808.138 23.5397 807.507 27.8259 807.759C45.9789 807.154 63.6277 807.507 70.183 807.759H72.0739V802.087C72.2865 800.008 72.4752 797.54 72.5937 794.901C55.7801 793.892 18.5224 796.036 4 812.676Z" fill="#EAECF0"/>
<path d="M32.7423 781.666C25.6828 780.909 10.051 786.053 4 812.677C12.774 808.139 23.5397 807.508 27.8259 807.761C45.9789 807.155 63.6277 807.508 70.183 807.761H72.0739V802.088C73.2085 790.994 73.6623 768.807 66.4011 768.807C62.1149 773.471 49.3826 782.573 32.7423 781.666Z" stroke="#103961" class="dark-lines" stroke-width="5.06682"/>
<path d="M83.4189 826.67C77.1157 825.913 62.316 826.745 53.542 836.124C47.1884 836.124 57.4499 816.459 63.3749 806.626C65.4927 802.995 95.2688 791.75 109.892 786.582C111.657 785.951 115.489 785.976 116.699 791.12C118.842 796.667 120.481 811.542 109.892 826.67C106.867 827.93 97.3362 829.695 83.4189 826.67Z" fill="white" stroke="#103961" class="dark-lines" stroke-width="5.06682"/>
<path d="M81.9067 824.4C75.6035 823.644 60.8038 824.476 52.0298 833.855C65.0395 814.491 99.5555 810.019 115.187 810.203C113.921 814.709 111.781 819.541 108.38 824.4C105.354 825.661 95.824 827.425 81.9067 824.4Z" fill="#EAECF0"/>
<path d="M83.4189 826.67C77.1157 825.913 62.316 826.745 53.542 836.124C47.1884 836.124 57.4499 816.459 63.3749 806.626C65.4927 802.995 95.2688 791.75 109.892 786.582C111.657 785.951 115.489 785.976 116.699 791.12C118.842 796.667 120.481 811.542 109.892 826.67C106.867 827.93 97.3362 829.695 83.4189 826.67Z" stroke="#103961" class="dark-lines" stroke-width="5.06682"/>
<path d="M408.658 333.889C405.35 336.118 398.481 340.481 389.371 345.783L414.709 366.75L420.382 371.444C425.828 375.285 424.164 364.648 422.651 358.849L414.709 333.344C412.772 333.343 410.751 333.512 408.658 333.889Z" stroke="#103961" class="dark-lines" stroke-width="3.61916"/>
<path d="M335.291 343.721C335.441 342.695 336.999 339.662 337.653 338.427M382.564 298.339C380.964 299.429 377.666 302.187 375.757 303.554M337.653 338.427C345.747 338.729 355.839 336.536 359.873 335.401M337.653 338.427C341.216 331.694 351.628 322.21 362.142 313.829C366.863 310.065 371.605 306.524 375.757 303.554M375.757 303.554C379.992 309.063 379.791 319.517 379.16 324.056" stroke="#103961" class="dark-lines" stroke-width="5.06682"/>
<path d="M359.873 335.401C355.839 336.536 345.748 338.729 337.653 338.427C341.216 331.694 351.629 322.21 362.143 313.829C366.864 310.065 371.606 306.523 375.757 303.554C379.993 309.063 379.791 319.517 379.161 324.056C377.018 326.703 370.16 332.678 359.873 335.401Z" fill="white"/>
<path fill-rule="evenodd" clip-rule="evenodd" d="M362.142 313.829C351.628 322.21 341.215 331.694 337.653 338.427C361.48 327.535 374.356 313.214 377.816 307.415C377.289 305.986 376.614 304.669 375.757 303.554C371.605 306.524 366.863 310.065 362.142 313.829Z" fill="#EAECF0"/>
<path d="M365.923 323.677C365.293 324.181 363.73 322.844 362.52 313.465L365.167 311.196C365.923 314.726 367.133 322.164 365.923 323.677Z" fill="#103961" stroke="#103961" class="dark-lines" stroke-width="0.723832"/>
<path d="M284.615 333.888C288.018 336.031 294.599 339.637 293.691 336.914C290.6 331.865 284.931 319.101 282.799 302.877C278.805 314.071 278.816 324.686 279.32 328.594C280.53 330.712 283.354 333.006 284.615 333.888Z" fill="white"/>
<path fill-rule="evenodd" clip-rule="evenodd" d="M293.69 336.913C290.599 331.864 284.931 319.101 282.798 302.876C280.645 308.912 279.656 314.779 279.28 319.517C281.429 316.794 287.765 330.158 290.665 337.181C292.675 338.046 294.152 338.299 293.69 336.913Z" fill="#EAECF0"/>
<path d="M281.967 291.531C282.022 295.454 282.322 299.252 282.799 302.877M284.614 333.888C288.018 336.031 294.599 339.637 293.691 336.914C290.6 331.865 284.931 319.101 282.799 302.877M282.799 302.877C278.805 314.071 278.816 324.686 279.32 328.594" stroke="#103961" class="dark-lines" stroke-width="2.1715"/>
<path d="M288.999 327.081C290.042 329.744 291.08 332.035 292.02 333.888C290.433 333.51 287.608 331.619 288.999 327.081Z" fill="#103961" stroke="#103961" class="dark-lines" stroke-width="2.1715"/>
<path d="M458.201 265.058C458.504 280.185 454.798 285.48 452.907 286.236" stroke="#103961" class="dark-lines" stroke-width="2.89533"/>
<path d="M291.799 255.603C272.436 282.53 270.621 298.843 272.133 303.633" stroke="#103961" class="dark-lines" stroke-width="2.1715"/>
<path d="M548.21 856.167C546.067 850.368 546.168 835.064 563.716 820.239L566.363 818.726L567.876 820.995C569.893 824.273 575.591 831.206 582.247 832.719C589.685 833.854 604.863 837.409 606.073 842.552C607.082 853.015 607.056 876.74 598.888 887.935C595.988 880.119 588.147 864.109 579.978 862.596C574.179 862.722 559.707 861.613 548.21 856.167Z" fill="white" stroke="#103961" class="dark-lines" stroke-width="5.06682"/>
<path fill-rule="evenodd" clip-rule="evenodd" d="M548.21 856.166C559.707 861.612 574.179 862.721 579.978 862.595C588.147 864.108 595.988 880.118 598.888 887.934C610.385 856.166 570.703 842.173 549.425 839.147C546.51 846.642 547.006 852.906 548.21 856.166Z" fill="#EAECF0"/>
<path d="M548.21 856.167C546.067 850.368 546.168 835.064 563.716 820.239L566.363 818.726L567.876 820.995C569.893 824.273 575.591 831.206 582.247 832.719C589.685 833.854 604.863 837.409 606.073 842.552C607.082 853.015 607.056 876.74 598.888 887.935C595.988 880.119 588.147 864.109 579.978 862.596C574.179 862.722 559.707 861.613 548.21 856.167Z" stroke="#103961" class="dark-lines" stroke-width="5.06682"/>
<path d="M614.394 847.09C614.015 840.03 615.831 822.81 626.117 810.405C637.463 817.465 662.197 832.038 670.366 833.853C673.265 838.643 678.534 851.703 676.417 865.621C673.895 862.343 666.13 854.653 655.238 850.115C646.666 850.115 626.496 849.51 614.394 847.09Z" fill="white" stroke="#103961" class="dark-lines" stroke-width="5.06682"/>
<path d="M657.506 850.115C648.934 850.115 628.764 849.51 616.662 847.09C616.481 843.706 616.803 837.987 618.321 831.584C619.97 824.628 623.03 816.864 628.386 810.405C634.437 815.952 648.732 831.659 657.506 850.115Z" fill="#EAECF0"/>
<path d="M614.394 847.09C614.015 840.03 615.831 822.81 626.117 810.405C637.463 817.465 662.197 832.038 670.366 833.853C673.265 838.643 678.534 851.703 676.417 865.621C673.895 862.343 666.13 854.653 655.238 850.115C646.666 850.115 626.496 849.51 614.394 847.09Z" stroke="#103961" class="dark-lines" stroke-width="5.06682"/>
</svg>
