<svg  viewBox="0 0 195 223" fill="none" xmlns="http://www.w3.org/2000/svg">
<path d="M4.44143 15.5246C6.94143 8.19123 17.9414 -4.07544 41.9414 5.52456C77.0258 18.6266 146.875 60.4155 178.384 131.025C182.949 141.253 186.708 152.086 189.441 163.525L95.4414 219.525C58.2748 183.358 -11.9586 91.9246 4.44143 15.5246Z" fill="#F3AE5C" class="arm" />
<path d="M178.384 131.025C182.949 141.253 186.708 152.086 189.441 163.525L95.4414 219.525C58.2748 183.358 -11.9586 91.9246 4.44143 15.5246C6.94143 8.19123 17.9414 -4.07544 41.9414 5.52456C77.0258 18.6266 146.875 60.4155 178.384 131.025ZM178.384 131.025C187.63 137.825 191.941 144.858 192.941 147.525" stroke="#F3AE5C" class="arm" stroke-width="4"/>
<path d="M189.441 163.525C186.708 152.086 182.949 141.253 178.384 131.025M95.4414 219.525C58.2748 183.358 -11.9586 91.9246 4.44143 15.5246C6.94143 8.19123 17.9414 -4.07544 41.9414 5.52456C77.0258 18.6266 146.875 60.4155 178.384 131.025M178.384 131.025C187.63 137.825 191.941 144.858 192.941 147.525" stroke="#6A482B" class="arm-line" stroke-width="4"/>
<path d="M4.44144 15.5246C6.94143 8.19123 17.9414 -4.07544 41.9414 5.52456C65.8442 14.4509 105.884 36.6926 138.941 72.2919C137.775 76.5361 135.441 88.1246 135.441 100.525C135.441 109.525 129.141 126.525 103.941 122.525C98.7747 134.358 84.0414 154.825 66.4414 142.025C58.2747 135.025 39.1414 122.63 27.9414 129.054C8.86113 93.0031 -3.49633 52.5029 4.44144 15.5246Z" fill="#69492B" stroke="#45180C" class="arm-spot" stroke-width="4"/>
</svg>
