<svg width="376" height="363" viewBox="0 0 376 363" fill="none" xmlns="http://www.w3.org/2000/svg">
<g clip-path="url(#clip0_3107_117)">
<path d="M83.3442 2C282.476 41.4108 350.481 269.712 361.778 379.479C357.253 381.027 349.62 382.526 341.692 381.866C339.01 381.643 336.294 381.172 333.654 380.373C324.636 378.354 313.706 374.761 311.217 369.782C271.935 275.362 108.616 223.482 14.082 328.918C106.75 198.843 262.54 252.562 286.031 294.979C246.293 222.916 158.988 159.722 3 207.709C67.1654 170.72 193.795 136.068 287.512 249.266C254.45 177.239 192.517 88.2413 83.3442 2Z" fill="#5C9161"/>
<path d="M287.512 249.266C254.45 177.239 192.517 88.2413 83.3442 2C282.476 41.4108 350.481 269.712 361.778 379.479C357.253 381.027 349.62 382.526 341.692 381.866M287.512 249.266C311.753 302.076 320.473 345.764 320.914 372.553C326.548 378.724 334.25 381.246 341.692 381.866M287.512 249.266C193.795 136.068 67.1654 170.72 3 207.709C158.988 159.722 246.293 222.916 286.031 294.979M341.692 381.866C332.919 380.609 314.541 376.432 311.217 369.782M286.031 294.979C262.54 252.562 106.75 198.843 14.082 328.918C108.616 223.482 271.935 275.362 311.217 369.782M286.031 294.979C299.993 320.298 308.083 346.711 311.217 369.782" stroke="#557733" stroke-width="4"/>
<path d="M307.062 198.012C272.2 202.861 205.8 235.414 219.099 326.84C247.409 275.674 278.915 248.736 304.291 234.953C320.914 259.702 328.763 341.616 330.61 379.479C351.006 387.854 360.175 385.064 373.553 370.475C372.249 286.437 378.073 228.739 340.307 203.553C331.384 201.399 310.956 197.254 307.062 198.012Z" fill="#5C9061"/>
<path d="M345.156 221.561C336.57 222.155 321.908 225.384 304.291 234.953M304.291 234.953C278.915 248.736 247.409 275.674 219.099 326.84C205.8 235.414 272.2 202.861 307.062 198.012C310.956 197.254 331.384 201.399 340.307 203.553C378.073 228.739 372.249 286.437 373.553 370.475C360.175 385.064 351.006 387.854 330.61 379.479C328.763 341.616 320.914 259.702 304.291 234.953Z" stroke="#557733" stroke-width="4"/>
</g>
<defs>
<clipPath id="clip0_3107_117">
<rect width="376" height="363" fill="white"/>
</clipPath>
</defs>
</svg>
