<svg  viewBox="0 0 389 322" fill="none" xmlns="http://www.w3.org/2000/svg">
<path d="M307.209 2C108.077 41.4108 40.0713 269.712 28.7744 379.479C33.2996 381.027 40.9327 382.526 48.8605 381.866C51.5426 381.643 54.2585 381.172 56.8992 380.373C65.9167 378.354 76.8464 374.761 79.3359 369.782C118.618 275.362 281.937 223.482 376.471 328.918C283.803 198.843 128.013 252.562 104.522 294.979C144.26 222.916 231.565 159.722 387.553 207.709C323.387 170.72 196.758 136.068 103.041 249.266C136.103 177.239 198.036 88.2413 307.209 2Z" fill="#5C9161"/>
<path d="M103.041 249.266C136.103 177.239 198.036 88.2413 307.209 2C108.077 41.4108 40.0713 269.712 28.7744 379.479C33.2996 381.027 40.9327 382.526 48.8605 381.866M103.041 249.266C78.8 302.076 70.0794 345.764 69.6392 372.553C64.0049 378.724 56.3028 381.246 48.8605 381.866M103.041 249.266C196.758 136.068 323.387 170.72 387.553 207.709C231.565 159.722 144.26 222.916 104.522 294.979M79.3359 369.782C76.0113 376.432 57.6337 380.609 48.8605 381.866M79.3359 369.782C118.618 275.362 281.937 223.482 376.471 328.918C283.803 198.843 128.013 252.562 104.522 294.979M79.3359 369.782C82.4699 346.711 90.5598 320.298 104.522 294.979" stroke="#557733" stroke-width="4"/>
<path d="M69.4912 198.012C104.353 202.861 170.753 235.414 157.454 326.84C129.144 275.674 97.6374 248.736 72.262 234.953C55.6391 259.702 47.7893 341.616 45.9423 379.479C25.547 387.854 16.378 385.064 2.99977 370.475C4.30415 286.437 -1.51982 228.739 36.2456 203.553C45.1685 201.399 65.5963 197.254 69.4912 198.012Z" fill="#5C9061"/>
<path d="M31.397 221.561C39.9831 222.155 54.6451 225.384 72.262 234.953M72.262 234.953C97.6374 248.736 129.144 275.674 157.454 326.84C170.753 235.414 104.353 202.861 69.4912 198.012C65.5963 197.254 45.1685 201.399 36.2456 203.553C-1.51983 228.739 4.30416 286.437 2.99977 370.475C16.378 385.064 25.547 387.854 45.9423 379.479C47.7893 341.616 55.6391 259.702 72.262 234.953Z" stroke="#557733" stroke-width="4"/>
</svg>
