<svg  viewBox="0 0 853 750" fill="none" xmlns="http://www.w3.org/2000/svg">
<path d="M800.214 609.404C643.602 481.167 528.083 501.329 459.893 732.262L453.236 735.743L446.579 739.224C435.594 748.115 424.907 747.575 420.936 746.194C380.151 547.963 403.356 95.6899 615.868 15.5453C536.877 94.1446 488.098 212.964 463.642 363.698C455.84 411.784 450.513 463.118 447.471 517.43C460.325 494.594 473.12 474.306 485.808 456.345C625.657 258.383 752.475 343.269 801.694 417.651C704.829 333.027 554.077 378.793 486.173 569.669L486.592 569.166C660.943 371.79 795.459 605.555 800.214 609.404Z" fill="#5C9061"/>
<path d="M446.579 739.224L453.236 735.743M446.579 739.224C443.425 660.82 443.59 586.703 447.471 517.43M446.579 739.224C435.594 748.115 424.907 747.575 420.936 746.194C380.151 547.963 403.356 95.6899 615.868 15.5453C536.877 94.1446 488.098 212.964 463.642 363.698C455.84 411.784 450.513 463.118 447.471 517.43M453.236 735.743L459.893 732.262C528.083 501.329 643.602 481.167 800.214 609.404C795.459 605.555 660.943 371.79 486.592 569.166L486.173 569.669M453.236 735.743C457.942 671.583 469.586 616.296 486.173 569.669M486.173 569.669C554.077 378.793 704.829 333.027 801.694 417.651C752.475 343.269 625.657 258.383 485.808 456.345C473.12 474.306 460.325 494.594 447.471 517.43" stroke="#557733" stroke-width="4"/>
<path d="M82.4623 252.001C149.68 244.578 304.797 295.105 387.522 556.593L372.176 390.834C256.043 237.876 193.057 222.2 82.4623 252.001Z" fill="#5C9061" stroke="#557733" stroke-width="4"/>
<path d="M26.0043 647.067C174.375 495.025 297.18 502.598 395.182 735.589L402.529 738.445L409.876 741.301C422.366 749.297 433.447 747.489 437.427 745.585C456.868 534.013 379.995 64.8517 149.064 6C240.585 78.7993 305.288 197.081 348.346 351.496C362.082 400.756 373.615 453.692 383.114 510.003C367.05 487.676 351.345 467.999 336.023 450.74C167.139 260.498 44.7867 363.84 2.12714 447.18C93.2773 347.602 255.804 377.783 348.841 569.015L348.346 568.539C143.554 382.93 30.5139 642.498 26.0043 647.067Z" fill="#5C9061"/>
<path d="M409.876 741.301L402.529 738.445M409.876 741.301C404.033 659.133 395.229 581.824 383.114 510.003M409.876 741.301C422.366 749.297 433.447 747.489 437.427 745.585C456.868 534.013 379.995 64.8516 149.064 6C240.585 78.7993 305.288 197.081 348.346 351.496C362.082 400.756 373.615 453.692 383.114 510.003M402.529 738.445L395.182 735.589C297.18 502.598 174.375 495.025 26.0043 647.067C30.5139 642.498 143.554 382.93 348.346 568.539L348.841 569.015M402.529 738.445C390.149 672.054 371.568 615.729 348.841 569.015M348.841 569.015C255.804 377.783 93.2773 347.602 2.12713 447.18C44.7867 363.84 167.139 260.498 336.023 450.74C351.345 467.999 367.05 487.676 383.114 510.003" stroke="#557733" stroke-width="4"/>
<path d="M828.114 652.224C686.705 507.395 569.661 514.609 476.258 736.546L469.256 739.266L462.253 741.986C450.35 749.603 439.788 747.88 435.996 746.067C417.467 544.533 490.733 97.6317 710.828 41.5723C623.601 110.918 561.934 223.588 520.896 370.676C507.805 417.598 496.813 468.024 487.76 521.662C503.07 500.395 518.038 481.652 532.641 465.211C693.601 283.996 810.212 382.434 850.87 461.82C763.997 366.967 609.097 395.716 520.425 577.875L520.896 577.421C716.08 400.619 823.816 647.871 828.114 652.224Z" fill="#5C9061"/>
<path d="M462.253 741.986L469.256 739.266M462.253 741.986C467.822 663.717 476.214 590.076 487.76 521.662M462.253 741.986C450.35 749.603 439.788 747.88 435.996 746.067C417.467 544.533 490.733 97.6317 710.828 41.5723C623.601 110.918 561.934 223.588 520.896 370.676C507.805 417.598 496.813 468.024 487.76 521.662M469.256 739.266L476.258 736.546C569.661 514.609 686.705 507.395 828.114 652.224C823.816 647.871 716.08 400.619 520.896 577.421L520.425 577.875M469.256 739.266C481.055 676.025 498.764 622.373 520.425 577.875M520.425 577.875C609.097 395.716 763.997 366.967 850.87 461.82C810.212 382.434 693.601 283.996 532.641 465.211C518.038 481.652 503.07 500.395 487.76 521.662" stroke="#557733" stroke-width="4"/>
</svg>
