<svg width="646" height="680" viewBox="0 0 646 680" fill="none" xmlns="http://www.w3.org/2000/svg">
<g clip-path="url(#clip0_3107_113)">
<path d="M120.519 242.523C218.848 235.538 445.761 283.091 566.775 529.19L544.327 373.186C374.441 229.229 282.302 214.476 120.519 242.523Z" fill="#5C9061" stroke="#557733" stroke-width="4"/>
<path d="M37.9287 614.34C254.973 471.245 434.619 478.373 577.981 697.652L588.728 700.34L599.475 703.028C617.746 710.554 633.956 708.852 639.778 707.06C668.217 507.939 555.764 66.3882 217.946 11C351.829 79.515 446.479 190.836 509.467 336.163C529.56 382.524 546.432 432.345 560.326 485.342C536.828 464.329 513.854 445.81 491.44 429.566C244.388 250.521 65.4045 347.781 3 426.216C136.339 332.499 374.091 360.903 510.19 540.881L509.467 540.433C209.885 365.748 44.5255 610.04 37.9287 614.34Z" fill="#5C9061"/>
<path d="M599.475 703.028L588.728 700.34M599.475 703.028C590.928 625.696 578.048 552.937 560.326 485.342M599.475 703.028C617.746 710.554 633.956 708.852 639.778 707.06C668.217 507.939 555.764 66.3882 217.946 11C351.829 79.515 446.479 190.836 509.467 336.163C529.56 382.524 546.432 432.345 560.326 485.342M588.728 700.34L577.981 697.652C434.619 478.373 254.973 471.245 37.9287 614.34C44.5255 610.04 209.885 365.748 509.467 540.433L510.19 540.881M588.728 700.34C570.617 637.856 543.437 584.846 510.19 540.881M560.326 485.342C536.828 464.329 513.854 445.81 491.44 429.566C244.388 250.521 65.4045 347.781 3 426.216C136.339 332.499 374.091 360.903 510.19 540.881" stroke="#557733" stroke-width="4"/>
</g>
<defs>
<clipPath id="clip0_3107_113">
<rect width="646" height="680" fill="white"/>
</clipPath>
</defs>
</svg>
