<svg  viewBox="0 0 580 611" fill="none" xmlns="http://www.w3.org/2000/svg">
<path d="M472.398 210.046C384.039 203.769 180.137 246.5 71.3943 467.643L91.5661 327.459C244.224 198.1 327.02 184.843 472.398 210.046Z" fill="#5C9061" stroke="#557733" stroke-width="4"/>
<path d="M546.613 544.159C351.578 415.575 190.149 421.979 61.3247 619.023L51.6672 621.438L42.0097 623.853C25.592 630.616 11.0253 629.087 5.79413 627.477C-19.7615 448.547 81.2889 51.7716 384.85 2C264.544 63.5673 179.491 163.6 122.891 294.19C104.835 335.85 89.6746 380.619 77.1889 428.242C98.3044 409.359 118.949 392.719 139.09 378.122C361.09 217.233 521.924 304.63 578 375.112C458.182 290.897 244.54 316.422 122.241 478.149L122.891 477.747C392.094 320.775 540.685 540.294 546.613 544.159Z" fill="#5C9061"/>
<path d="M42.0097 623.853L51.6672 621.438M42.0097 623.853C49.6902 554.363 61.2639 488.982 77.1889 428.242M42.0097 623.853C25.592 630.616 11.0253 629.087 5.79413 627.477C-19.7615 448.547 81.2889 51.7716 384.85 2C264.544 63.5673 179.491 163.6 122.891 294.19C104.835 335.85 89.6746 380.619 77.1889 428.242M51.6672 621.438L61.3247 619.023C190.149 421.979 351.578 415.575 546.613 544.159C540.685 540.295 392.094 320.775 122.891 477.747L122.241 478.149M51.6672 621.438C67.9416 565.29 92.3659 517.656 122.241 478.149M122.241 478.149C244.54 316.422 458.182 290.897 578 375.112C521.924 304.63 361.09 217.233 139.09 378.122C118.949 392.719 98.3044 409.359 77.1889 428.242" stroke="#557733" stroke-width="4"/>
</svg>
