<svg width="1251" height="858" viewBox="0 0 1251 858" fill="none" xmlns="http://www.w3.org/2000/svg">
<path d="M892.5 812.763C889.833 810.929 872.3 805.763 823.5 799.763C857 763.763 930.8 665.763 958 561.763C1013.2 555.763 1017.14 626.596 1012.21 662.763C1070.35 611.673 1120.91 597.478 1145 598.263C1159.6 599.403 1166.98 605.584 1170.35 612.263C1198.92 610.968 1207.54 628.341 1208.73 642.263C1209.32 642.096 1211.2 642.663 1214 646.263C1224.33 663.263 1235.8 699.163 1199 706.763C1193 705.763 1169.9 709.763 1125.5 733.763C1099.5 747.263 1039.6 782.263 1008 814.263C999.667 825.596 976 848.263 948 848.263C935.833 844.929 907.7 833.163 892.5 812.763Z" fill="#F3AE5C" class="body" />
<path d="M924 766.263C953.749 721.312 983.88 687.657 1012.21 662.763M1119.5 665.263C1119.83 663.429 1123.7 659.063 1136.5 656.263C1146.67 651.096 1168.1 637.863 1172.5 626.263C1173.14 622.61 1172.88 617.295 1170.35 612.263M1170.35 612.263C1166.98 605.584 1159.6 599.403 1145 598.263C1120.91 597.478 1070.35 611.673 1012.21 662.763M1170.35 612.263C1198.92 610.968 1207.54 628.341 1208.73 642.263M1151.5 689.263C1154.5 686.596 1166 680.663 1188 678.263C1192.83 677.263 1203.7 670.463 1208.5 651.263C1208.88 648.65 1209.02 645.553 1208.73 642.263M1208.73 642.263C1209.32 642.096 1211.2 642.663 1214 646.263C1224.33 663.263 1235.8 699.163 1199 706.763C1193 705.763 1169.9 709.763 1125.5 733.763C1099.5 747.263 1039.6 782.263 1008 814.263C999.667 825.596 976 848.263 948 848.263C935.833 844.929 907.7 833.163 892.5 812.763C889.833 810.929 872.3 805.763 823.5 799.763C857 763.763 930.8 665.763 958 561.763C1013.2 555.763 1017.14 626.596 1012.21 662.763" stroke="#6A482B" stroke-width="4" class="lines" />
<path d="M242.5 180.263C189.7 138.263 59.5 83.4295 1 61.2628C139.4 49.6628 233.667 70.4295 263.5 82.2628C357.9 117.863 418.833 170.096 437.5 191.763C404.3 185.763 338.667 201.596 310 210.263C355.6 234.263 426.667 312.596 456.5 348.763C488.5 383.563 484.5 443.263 478.5 468.763C470.5 491.963 447.833 516.096 437.5 525.263C423 537.096 389.7 566.663 372.5 590.263C361.333 609.43 341.9 653.463 353.5 676.263C381.9 723.463 410.333 748.93 421 755.763C498.449 797.141 542.777 790.216 622.5 755.763L662 793.263C639.833 802.596 585.4 821.863 545 824.263C505.333 827.763 407.5 811.163 333.5 716.763C328.833 700.763 320.3 664.563 323.5 647.763C326.167 625.263 343 571.163 389 534.763C407.667 520.763 447.3 482.963 456.5 443.763C459.5 429.096 456.2 389.563 419 348.763C318.659 245.273 201.505 230.09 142.5 233.263C153.3 214.863 213.667 190.263 242.5 180.263Z" fill="#F0D465"/>
<path d="M456.5 348.763C426.667 312.596 355.6 234.263 310 210.263C338.667 201.596 404.3 185.763 437.5 191.763C418.833 170.096 357.9 117.863 263.5 82.2628C233.667 70.4295 139.4 49.6628 1 61.2628C59.5 83.4295 189.7 138.263 242.5 180.263C213.667 190.263 153.3 214.863 142.5 233.263C201.505 230.09 318.659 245.273 419 348.763M456.5 348.763L443 345.763L444.5 352.763L434 345.263L433 355.763L419 348.763M456.5 348.763C488.5 383.563 484.5 443.263 478.5 468.763C470.5 491.963 447.833 516.096 437.5 525.263C423 537.096 389.7 566.663 372.5 590.263C361.333 609.429 341.9 653.463 353.5 676.263C381.9 723.463 410.333 748.929 421 755.763C498.45 797.141 542.777 790.216 622.5 755.763L662 793.263C639.833 802.596 585.4 821.863 545 824.263C505.333 827.763 407.5 811.163 333.5 716.763C328.833 700.763 320.3 664.563 323.5 647.763C326.167 625.263 343 571.163 389 534.763C407.667 520.763 447.3 482.963 456.5 443.763C459.5 429.096 456.2 389.563 419 348.763" stroke="#E08939" stroke-width="5"/>
<path d="M950.5 560.263C946.333 530.763 940.8 471.763 952 471.763C992.262 492.912 1047.4 537.652 967.5 556.899C962.397 558.129 956.743 559.254 950.5 560.263Z" fill="#F3AE5C" class="body" />
<path d="M963.5 478.763C962.7 492.763 970.166 503.596 974 507.263C976.8 514.863 975.166 524.763 974 528.763C974 532.363 976.666 535.929 978 537.263C978 543.663 971 553.021 967.5 556.899M967.5 556.899C962.397 558.129 956.743 559.254 950.5 560.263C946.333 530.763 940.8 471.763 952 471.763C992.262 492.912 1047.4 537.652 967.5 556.899Z" stroke="#6A482B"   class="lines" stroke-width="4"/>
<path d="M974 507.263C970.167 503.596 962.7 492.763 963.5 478.763L963.553 478.27C1001.39 501.051 1039.93 539.451 967.5 556.9C971 553.021 978 543.663 978 537.263C976.667 535.93 974 532.363 974 528.763C975.167 524.763 976.8 514.863 974 507.263Z" fill="#69492B" stroke="#45180C" stroke-width="4" class="spots" />
<path d="M443 345.763L456.5 348.763C488.5 383.563 484.5 443.263 478.5 468.763C470.5 491.963 447.833 516.096 437.5 525.263C423 537.096 389.7 566.663 372.5 590.263C361.333 609.429 341.9 653.463 353.5 676.263C381.9 723.463 410.333 748.929 421 755.763C498.45 797.141 542.777 790.216 622.5 755.763L662 793.263C639.833 802.596 585.4 821.863 545 824.263C505.333 827.763 407.5 811.163 333.5 716.763C328.833 700.763 320.3 664.563 323.5 647.763C326.167 625.263 343 571.163 389 534.763C407.667 520.763 447.3 482.963 456.5 443.763C459.5 429.096 456.2 389.563 419 348.763L433 355.763L434 345.263L444.5 352.763L443 345.763Z" fill="#69492B" stroke="#45180C" class="spots" stroke-width="5"/>
<path d="M1039.5 270.762C1091.1 222.762 1251 275.762 1249 275.262C1217.83 275.929 1150.4 280.362 1130 292.762C1100.4 311.162 1096 329.095 1097.5 335.762C1098.3 348.162 1109.5 379.383 1115 393.443C1112.52 390.525 1109.39 387.461 1105.5 384.262C1091.5 381.429 1058.4 368.562 1038 339.762C1036.67 329.262 1035.1 300.762 1039.5 270.762Z" fill="#F0D465"/>
<path d="M1249 275.262C1251 275.762 1091.1 222.762 1039.5 270.762C1035.1 300.762 1036.67 329.262 1038 339.762C1058.4 368.562 1091.5 381.429 1105.5 384.262M1249 275.262C1217.83 275.929 1150.4 280.362 1130 292.762C1100.4 311.162 1096 329.095 1097.5 335.762C1098.3 348.162 1109.5 379.383 1115 393.443M1249 275.262C1216.17 272.262 1143.4 268.062 1115 275.262C1096 278.595 1057.7 294.662 1056.5 332.262C1055.83 337.762 1064.7 355.862 1105.5 384.262M1105.5 384.262C1109.39 387.461 1112.52 390.525 1115 393.443M1099.5 419.762C1103 419.595 1109.9 417.762 1109.5 411.762C1109.33 409.595 1107.3 404.362 1100.5 400.762C1097 398.762 1089.2 397.162 1086 406.762C1084.67 410.095 1083.9 418.762 1091.5 426.762C1094.17 429.262 1101.7 433.362 1110.5 429.762C1119.6 425.284 1131.1 412.418 1115 393.443" stroke="#E08E43" stroke-width="4"/>
<path d="M1249 275.262C1251 275.762 1091.1 222.762 1039.5 270.762C1035.1 300.762 1036.67 329.262 1038 339.762C1058.4 368.562 1091.5 381.429 1105.5 384.262C1064.7 355.862 1055.83 337.762 1056.5 332.262C1057.7 294.662 1096 278.595 1115 275.262C1143.4 268.062 1216.17 272.262 1249 275.262Z" fill="#69492B" class="spots" />
<path d="M1105.5 384.262C1091.5 381.429 1058.4 368.562 1038 339.762C1036.67 329.262 1035.1 300.762 1039.5 270.762C1091.1 222.762 1251 275.762 1249 275.262C1216.17 272.262 1143.4 268.062 1115 275.262C1096 278.595 1057.7 294.662 1056.5 332.262C1055.83 337.762 1064.7 355.862 1105.5 384.262ZM1105.5 384.262C1109.39 387.461 1112.52 390.525 1115 393.443C1131.1 412.418 1119.6 425.284 1110.5 429.762C1101.7 433.362 1094.17 429.262 1091.5 426.762C1083.9 418.762 1084.67 410.095 1086 406.762C1089.2 397.162 1097 398.762 1100.5 400.762C1107.3 404.362 1109.33 409.595 1109.5 411.762C1109.9 417.762 1103 419.595 1099.5 419.762" stroke="#45180C" class="spot-lines" stroke-width="4"/>
<path d="M581.5 741.261C737.972 878.646 1011.37 840.167 949.5 473.262C1022.3 432.862 1036.5 404.762 1036.5 389.262C1036.5 373.762 1039 279.762 1039 269.762C1039 259.762 1033.5 234.262 1005.5 202.262C977.5 170.262 882.367 116.783 765 153.762C747.833 162.595 710.9 187.062 700.5 214.262C681.333 262.095 641.1 365.062 633.5 394.262C567.333 463.262 464.3 629.261 581.5 741.261Z" fill="#F3AE5C" class="body"  stroke="#6A482B" stroke-width="5" />
<path d="M581.5 741.262C495.309 658.895 528.229 547.323 578 466.605M633.5 394.263C621.547 406.727 608.391 422.357 595.548 440.263M578 466.605C617.2 477.131 635.333 476.429 639.5 474.763C641.9 468.763 611.199 449.263 595.548 440.263M578 466.605C583.68 457.393 589.58 448.582 595.548 440.263" stroke="#C46E1E" stroke-width="5"/>
<path d="M639.5 474.763C635.333 476.429 617.2 477.131 578 466.605C583.68 457.393 589.58 448.582 595.548 440.263C611.199 449.263 641.9 468.763 639.5 474.763Z" fill="#69492B" stroke="#45180C" stroke-width="5" class="spots" />
<path d="M1036.5 389.262C1036.5 401.141 1028.16 420.419 991.5 446.961C986.7 390.002 1019.5 370.096 1036.5 367.263V389.262Z" fill="#F0D465" stroke="#E08939" class="cheeks" stroke-width="5"/>
<path d="M871 312.763C887 315.263 922.4 317.663 938 337.263C942.109 341.372 948.042 346.34 954 349.602C944.113 368.343 932.914 382.203 922.084 392.263C904.872 408.251 888.593 414.637 880 415.763C870 416.563 865.166 411.763 864 409.263C855.924 394.528 844.307 359.466 852.309 322.763C853.721 316.291 855.742 309.768 858.5 303.297C862.249 307.302 867.055 310.611 871 312.763Z" fill="#AC4037"/>
<path d="M859.5 277.763C848.468 286.742 851.793 296.133 858.5 303.297M975 343.763C972.108 355.569 963.025 354.543 954 349.602M858.5 303.297C862.249 307.302 867.055 310.611 871 312.763C887 315.263 922.4 317.663 938 337.263C942.109 341.372 948.042 346.34 954 349.602M858.5 303.297C855.742 309.768 853.721 316.291 852.309 322.763M954 349.602C944.113 368.343 932.914 382.203 922.084 392.263M922.084 392.263C904.872 408.25 888.593 414.637 880 415.763C870 416.563 865.166 411.763 864 409.263C855.924 394.528 844.307 359.466 852.309 322.763M922.084 392.263C917.217 351.863 873.54 329.096 852.309 322.763" stroke="#C85544" stroke-width="5"/>
<path d="M859.5 277.763C848.468 286.742 851.794 296.133 858.5 303.297C862.249 307.302 867.055 310.611 871 312.763C887 315.263 922.4 317.663 938 337.263C942.109 341.372 948.042 346.34 954 349.602C963.025 354.543 972.109 355.569 975 343.763" stroke="#AC4037" stroke-width="5"/>
<path d="M864 409.263C865.166 411.763 870 416.563 880 415.763C888.593 414.637 904.872 408.25 922.084 392.263C917.217 351.863 873.54 329.096 852.309 322.763C844.307 359.466 855.924 394.528 864 409.263Z" fill="#DC6453" stroke="#C85544" stroke-width="5"/>
<path d="M815 421.263C856.2 446.463 898.5 452.004 897.5 452.763C896.5 453.522 822.6 470.063 815 421.263Z" fill="#DA923E" stroke="#D78E3A" stroke-width="5" class="chin" />
<ellipse cx="936.388" cy="298.87" rx="9.5" ry="4" transform="rotate(32.7921 936.388 298.87)" fill="#7A513B" class="spots"/>
<path d="M791 291.263C791 316.768 771.202 337.263 747 337.263C722.798 337.263 703 316.768 703 291.263C703 265.757 722.798 245.263 747 245.263C771.202 245.263 791 265.757 791 291.263Z" fill="#F0D465" stroke="#E08939" class="cheeks" stroke-width="5" />
<path d="M936.406 680.598C923.539 716.014 899.407 746.946 870.46 769.578C827.331 803.298 774.037 818.238 731.853 802.912C698.002 790.614 676.997 760.897 667.903 723.176C658.111 682.555 662.243 632.966 678.925 587.052C711.072 498.567 794.89 448.812 865.555 474.485C936.22 500.159 968.554 592.112 936.406 680.598Z" fill="#E4D9CF" stroke="#CAC1B4" stroke-width="5"/>
<path d="M665.473 723.763C674.698 762.026 696.13 792.594 731 805.263C774.286 820.989 828.481 805.574 872 771.548C882.101 763.65 891.627 754.75 900.309 745.004C837.263 797.238 719.782 790.681 667.48 616.504C658.599 653.648 657.683 691.45 665.473 723.763Z" fill="#CAC1B4"/>
<path d="M870.5 232.263C870.5 247.727 856.516 263.763 840.5 263.763C824.484 263.763 811.5 252.727 811.5 237.263C811.5 221.799 825.484 205.763 841.5 205.763C857.516 205.763 870.5 216.799 870.5 232.263Z" fill="#69492B" class="eye" />
<path d="M1008 814.263C999.667 825.596 976 848.263 948 848.263C943.518 847.035 936.87 844.663 929.5 841.136C903.5 807.638 952.333 751.596 980 727.763C1008.4 702.963 1017.5 694.763 1018.5 693.763C1021.3 687.363 1028.33 659.857 1031.5 646.904C1081.38 608.672 1123.61 597.567 1145 598.263C1159.6 599.403 1166.98 605.585 1170.35 612.263C1198.92 610.969 1207.54 628.342 1208.73 642.263C1209.32 642.096 1211.2 642.663 1214 646.263C1224.33 663.263 1235.8 699.163 1199 706.763C1193 705.763 1169.9 709.763 1125.5 733.763C1099.5 747.263 1039.6 782.263 1008 814.263Z" fill="#69492B" class="spots" />
<path d="M1199 706.763C1193 705.763 1169.9 709.763 1125.5 733.763C1099.5 747.263 1039.6 782.263 1008 814.263C999.667 825.596 976 848.263 948 848.263C943.518 847.035 936.87 844.663 929.5 841.136C903.5 807.638 952.333 751.596 980 727.763C1008.4 702.963 1017.5 694.763 1018.5 693.763M1199 706.763C1235.8 699.163 1224.33 663.263 1214 646.263C1211.2 642.663 1209.32 642.096 1208.73 642.263M1199 706.763C1202.17 700.93 1205.9 686.253 1195.5 674.215M1119.5 665.263C1119.83 663.43 1123.7 659.063 1136.5 656.263C1142.51 653.208 1152.46 647.333 1160.5 640.643M1170.35 612.263C1166.98 605.585 1159.6 599.403 1145 598.263C1123.61 597.567 1081.38 608.672 1031.5 646.904C1028.33 659.857 1021.3 687.363 1018.5 693.763M1170.35 612.263C1172.88 617.295 1173.14 622.61 1172.5 626.263C1170.7 631.004 1166.06 636.018 1160.5 640.643M1170.35 612.263C1198.92 610.969 1207.54 628.342 1208.73 642.263M1151.5 689.263C1154.5 686.596 1166 680.663 1188 678.263C1189.85 677.881 1192.57 676.654 1195.5 674.215M1208.73 642.263C1209.01 645.553 1208.88 648.65 1208.5 651.263C1205.53 663.133 1200.25 670.264 1195.5 674.215M1018.5 693.763C1072.9 644.563 1117.83 631.263 1133.5 630.763C1154.3 630.763 1160.17 637.35 1160.5 640.643M1162.5 642.263C1187.7 648.663 1195 666.231 1195.5 674.215" stroke="#45180C" stroke-width="4"/>
<path d="M1008 814.263C999.667 825.596 959.554 845.614 950 846.004C940.447 846.393 936.482 844.713 931.5 838.877C905.5 805.378 952.333 751.596 980 727.763C1008.4 702.963 1017.5 694.763 1018.5 693.763C1072.9 644.563 1117.83 631.263 1133.5 630.763C1154.3 630.763 1160.17 637.35 1160.5 640.643C1160.1 640.976 1159.7 641.307 1159.29 641.636L1162.5 642.263C1187.7 648.663 1195 666.231 1195.5 674.214C1205.9 686.253 1202.17 700.929 1199 706.763C1193 705.763 1169.9 709.763 1125.5 733.763C1099.5 747.263 1039.6 782.263 1008 814.263Z" fill="#F2D5A8" class="feet"  />
<path d="M1119.5 665.263C1119.83 663.429 1123.7 659.063 1136.5 656.263C1142.21 653.36 1151.48 647.911 1159.29 641.636M1151.5 689.263C1154.5 686.596 1166 680.663 1188 678.263C1189.84 677.881 1192.57 676.654 1195.5 674.214M1195.5 674.214C1195 666.231 1187.7 648.663 1162.5 642.263L1159.29 641.636M1195.5 674.214C1205.9 686.253 1202.17 700.929 1199 706.763C1193 705.763 1169.9 709.763 1125.5 733.763C1099.5 747.263 1039.6 782.263 1008 814.263C999.667 825.596 959.554 845.614 950 846.004C940.447 846.393 936.482 844.713 931.5 838.877C905.5 805.378 952.333 751.596 980 727.763C1008.4 702.963 1017.5 694.763 1018.5 693.763C1072.9 644.563 1117.83 631.263 1133.5 630.763C1154.3 630.763 1160.17 637.35 1160.5 640.643C1160.1 640.976 1159.7 641.307 1159.29 641.636" stroke="#F0D465" class="feet" stroke-width="4"/>
<path d="M1199 706.763C1193 705.763 1169.9 709.763 1125.5 733.763C1099.5 747.263 1039.6 782.263 1008 814.263C999.667 825.596 976 848.263 948 848.263C940.106 848.56 932.885 846.444 929.5 841.136C903.5 807.638 952.333 751.596 980 727.763C1008.4 702.963 1017.5 694.763 1018.5 693.763M1199 706.763C1235.8 699.163 1224.33 663.263 1214 646.263C1211.2 642.663 1209.32 642.096 1208.73 642.263M1199 706.763C1202.17 700.93 1205.9 686.253 1195.5 674.215M1119.5 665.263C1119.83 663.43 1123.7 659.063 1136.5 656.263C1142.51 653.208 1152.46 647.333 1160.5 640.643M1170.35 612.263C1166.98 605.585 1159.6 599.403 1145 598.263C1123.61 597.567 1081.38 608.672 1031.5 646.904C1028.33 659.857 1021.3 687.363 1018.5 693.763M1170.35 612.263C1172.88 617.295 1173.14 622.61 1172.5 626.263C1170.7 631.004 1166.06 636.018 1160.5 640.643M1170.35 612.263C1198.92 610.969 1207.54 628.342 1208.73 642.263M1151.5 689.263C1154.5 686.596 1166 680.663 1188 678.263C1189.85 677.881 1192.57 676.654 1195.5 674.215M1208.73 642.263C1209.01 645.553 1208.88 648.65 1208.5 651.263C1205.53 663.133 1200.25 670.264 1195.5 674.215M1018.5 693.763C1072.9 644.563 1117.83 631.263 1133.5 630.763C1154.3 630.763 1160.17 637.35 1160.5 640.643M1162.5 642.263C1187.7 648.663 1195 666.231 1195.5 674.215" stroke="#45180C" class="spot-lines" stroke-width="4"/>
<ellipse cx="1008.33" cy="772.468" rx="48.162" ry="22.3064" transform="rotate(-41.5996 1008.33 772.468)" fill="#DEAC59" class="feet-spot" />
<ellipse cx="827" cy="234.803" rx="11.7541" ry="14.0979" transform="rotate(24.1986 827 234.803)" fill="white"/>
<path d="M580 173.263C694 237.263 758.5 213.596 776.5 193.763C811.3 148.163 728.333 86.0962 682.5 60.7629C576.9 3.56289 494.167 1.2629 466 7.2629C629.658 58.2639 674.897 158.716 580 173.263ZM580 173.263C534.8 166.863 524.5 189.263 525 201.263C527.4 216.863 541.667 222.096 548.5 222.763C560.5 222.763 565.167 210.43 566 204.263C566 191.863 552 197.096 545 201.263"  stroke-width="5"/>
<path d="M1023.5 309.443C1023.5 323.802 1016.87 338.565 1005 338.565C993.126 338.565 985 326.986 985 312.626C985 298.267 995.126 284.004 1007 284.004C1018.87 284.004 1023.5 295.083 1023.5 309.443Z" fill="#69492B" class="eye" />
<path d="M1005.51 313.022C1004.64 319.313 999.692 323.825 994.465 323.099C989.237 322.374 985.708 316.686 986.581 310.395C987.454 304.104 992.4 299.592 997.627 300.318C1002.85 301.043 1006.38 306.731 1005.51 313.022Z" fill="white"/>
<path d="M581.5 741.261C737.972 878.646 1011.37 840.167 949.5 473.262C1022.3 432.862 1036.5 404.762 1036.5 389.262C1036.5 373.762 1039 279.762 1039 269.762C1039 259.762 1033.5 234.262 1005.5 202.262C977.5 170.262 882.367 116.783 765 153.762C747.833 162.595 710.9 187.062 700.5 214.262C681.333 262.095 641.1 365.062 633.5 394.262C567.333 463.262 464.3 629.261 581.5 741.261Z" stroke="#6A482B" class="lines" stroke-width="5"/>
<path d="M776.5 193.763C758.5 213.596 694 237.263 580 173.263C674.897 158.716 629.658 58.2639 466 7.2629C494.167 1.2629 576.9 3.56289 682.5 60.7629C728.333 86.0962 811.3 148.163 776.5 193.763Z" fill="#F0D465"/>
<path d="M580 173.263C694 237.263 758.5 213.596 776.5 193.763C811.3 148.163 728.333 86.0962 682.5 60.7629C576.9 3.56289 494.167 1.2629 466 7.2629M580 173.263C674.897 158.716 629.658 58.2639 466 7.2629M580 173.263C534.8 166.863 524.5 189.263 525 201.263C527.4 216.863 541.667 222.096 548.5 222.763C560.5 222.763 565.167 210.43 566 204.263C566 191.863 552 197.096 545 201.263M580 173.263C674.032 214.086 717.982 197.466 720 176.763C720.167 169.096 715.6 147.663 696 123.263C670 95.0962 587.6 32.4629 466 7.2629" stroke="#E08939" stroke-width="5"/>
<path d="M776.5 193.763C758.5 213.596 694 237.263 580 173.263C674.032 214.086 717.982 197.466 720 176.763C720.167 169.096 715.6 147.663 696 123.263C670 95.0965 584.6 31.7 463 6.50006C489 -3.7598 576.9 3.56313 682.5 60.7631C728.333 86.0965 811.3 148.163 776.5 193.763Z" fill="#69492B" class="spots" />
<path d="M580 173.263C694 237.263 758.5 213.596 776.5 193.763C811.3 148.163 728.333 86.0965 682.5 60.7631C576.9 3.56313 489 -3.7598 463 6.50006C584.6 31.7 670 95.0965 696 123.263C715.6 147.663 720.167 169.096 720 176.763C717.982 197.466 674.032 214.086 580 173.263ZM580 173.263C534.8 166.863 524.5 189.263 525 201.263C527.4 216.863 541.667 222.096 548.5 222.763C560.5 222.763 565.167 210.43 566 204.263C566 191.863 552 197.096 545 201.263" stroke="#45180C" class="spot-lines" stroke-width="5"/>
<path d="M327 730.263C324.5 751.763 324.3 794.363 343.5 792.763C349.489 801.238 361.515 810.31 374 801.311C403.2 811.672 433.833 754.263 445.5 724.263L487 551.763C475.333 553.429 444.3 564.463 413.5 595.263C387.833 618.263 334.6 677.463 327 730.263Z" fill="#F3AE5C" class="body" />
<path d="M391.5 774.263C385.962 788.688 379.929 797.038 374 801.311M343.5 792.763C370.7 778.763 374.167 746.263 372.5 731.763M343.5 792.763C324.3 794.363 324.5 751.763 327 730.263C334.6 677.463 387.833 618.263 413.5 595.263C444.3 564.463 475.333 553.429 487 551.763L445.5 724.263C433.833 754.263 403.2 811.672 374 801.311M343.5 792.763C349.489 801.238 361.515 810.31 374 801.311" stroke="#6A482B" stroke-width="4" class="lines" />
<path d="M327 730.263C324.5 751.763 324.3 794.363 343.5 792.763C349.489 801.238 361.515 810.31 374 801.311C403.2 811.672 433.833 754.263 445.5 724.263C436.5 724.929 415.9 724.163 405.5 715.763C391.833 704.263 374.3 664.063 413.5 595.263C387.833 618.263 334.6 677.463 327 730.263Z" fill="#69492B" class="spots" />
<path d="M391.5 774.263C385.962 788.688 379.929 797.038 374 801.311M343.5 792.763C370.7 778.763 374.167 746.263 372.5 731.763M343.5 792.763C324.3 794.363 324.5 751.763 327 730.263C334.6 677.463 387.833 618.263 413.5 595.263C374.3 664.063 391.833 704.263 405.5 715.763C415.9 724.163 436.5 724.929 445.5 724.263C433.833 754.263 403.2 811.672 374 801.311M343.5 792.763C349.489 801.238 361.515 810.31 374 801.311" stroke="#45180C" class="spots" stroke-width="4"/>
<path d="M486 762.763C561.667 766.263 702.2 724.963 659 531.763L636 497.763C616.167 484.929 561.8 471.363 503 519.763C475.667 542.429 422.5 607.763 428.5 687.763C429.5 710.929 442.4 758.363 486 762.763Z" fill="#F3AE5C" class="body" />
<path d="M659 531.763C702.2 724.963 561.667 766.263 486 762.763C442.4 758.363 429.5 710.929 428.5 687.763C422.5 607.763 475.667 542.429 503 519.763C561.8 471.363 616.167 484.929 636 497.763" stroke="#6A482B" class="lines" stroke-width="4"/>
</svg>
