<svg viewBox="0 0 464 274" fill="none" xmlns="http://www.w3.org/2000/svg">
<path d="M82.8293 64.4426C78.8653 53.872 58.5498 27.5775 9 6.96481C78.3698 -4.33255 139.977 11.1765 162.109 20.3433C167.857 14.199 171.606 10.5158 172.762 9.4422L174.249 24.5549L187.875 20.3433C182.325 32.0369 182.59 40.0805 183.415 42.6406C191.343 62.6587 198.941 74.4351 201.749 77.821C222.956 104.578 234.204 113.414 237.177 114.488C242.132 107.551 248.326 99.7055 250.803 96.6499C221.668 82.1814 200.84 64.1948 194.069 57.01C196.645 52.0551 235.608 64.1948 254.767 70.884C261.704 73.6588 272.192 79.1423 276.569 81.5372C290.245 81.5372 303.904 88.309 309.024 91.6949H326.119C328.514 91.6949 333.304 92.3391 333.304 94.9157C332.065 100.779 328.596 113.943 324.632 119.691V153.632C357.137 155.812 381.284 141.327 389.295 133.812C390.484 133.218 391.772 127.123 392.268 124.15L396.975 131.583L403.169 119.195C407.133 123.555 406.968 133.565 406.39 138.024C437.705 157.844 455.609 203.43 460.647 223.745C419.223 177.168 388.552 186.831 378.394 197.484C362.34 171.718 334.047 164.12 321.907 163.542C319.925 168.1 317.186 172.048 316.064 173.451C321.019 176.837 333.605 186.979 344.307 200.456C356.53 216.229 375.471 249.065 369.723 266.11C365.924 255.292 351.142 231.326 322.403 222.011H304.812C312.906 211.606 324.831 188.763 307.785 180.637C306.216 182.206 298.074 187.376 278.056 195.502L275.083 205.907L271.862 199.218L264.677 212.597L262.943 203.43C261.787 201.117 255.56 195.155 239.902 189.804L234.204 200.209L232.47 191.29C230.405 194.428 225.235 201.844 221.073 206.403C221.156 202.026 221.668 191.885 223.055 186.335C221.651 186.831 218.051 188.218 214.88 189.804C215.458 187.078 217.902 179.844 223.055 172.709L219.835 151.898C210.585 155.449 188.172 170.727 172.514 203.43L161.118 190.299C156.906 184.518 135.798 180.736 85.059 211.853C87.5365 193.768 117.564 154.673 217.853 142.979C226.97 138.024 227.597 130.014 226.772 126.628C212.303 102.051 164.752 84.3451 142.785 78.5643C123.956 72.6183 95.4645 81.2896 92.4915 82.0328C89.5185 82.7761 89.5185 80.7941 87.5365 75.8391L82.8293 64.4426Z" fill="#1B1C1C" stroke="#EB1D70" stroke-width="4.95498"/>
</svg>
