<svg viewBox="0 0 686 680" fill="none" xmlns="http://www.w3.org/2000/svg">
<path d="M135.004 533.18C135.004 533.18 117.807 519.984 115.835 470.683C115.325 469.663 114.952 469.534 114.829 469.597C100.125 477.275 76.2021 502.798 95.4278 545.297C77.0613 549.889 69.1903 537.789 66.7301 533.18C64.2699 528.572 67.0334 558.97 64.2699 557.907C48.4882 550.351 46.2323 542.891 44.4098 542.746C42.5873 542.602 39.3987 576.401 32.293 558.689C25.1874 540.978 19.4479 536.514 6.78407 476.423C-8.97534 356.531 83.547 307.001 131.778 297.222C134.967 286.874 134.967 283.83 134.967 283.83C86.4996 227.2 63.5415 98.8901 63.5415 98.8901C63.5415 98.8901 101.761 114.042 125.401 120.573C163.327 131.05 217.233 151.184 217.233 151.184C200.907 99.1452 206.179 95.4889 210.856 100.166L253.583 131.414C253.583 70.1925 252 67 258.047 70.1925C264.095 73.385 309.703 120.573 309.703 120.573C355.109 10.3739 371.137 -1.02007 373.476 7.05777C389.801 45.8314 398.559 106.968 400.898 132.689C465.18 88.814 482.952 87.6236 483.802 92.5129L474.236 155.648C492.675 146.859 500.686 142.961 502.387 142.111L665.644 78.976C665.644 78.976 655.677 130.776 562.242 283.83C689.787 329.746 689.787 456.016 673.844 513.411C661.089 549.634 644.387 567.898 640.135 566.198C638.605 549.872 639.621 545.79 635.156 552.805C630.692 559.82 620.791 567.686 621.641 563.009C621.641 563.009 617.938 542.457 616.662 543.877C615.387 545.297 592.093 562.584 593.581 558.545C593.581 558.545 595.951 544.804 596.041 541.471C596.132 538.138 594.341 494.917 583.287 481.525C579.205 528.461 560.329 544.659 560.329 544.659C560.329 544.659 583.287 586.367 583.287 697.076C573.083 698.096 485.077 714.082 442.35 721.947C437.248 668.378 413.865 660.938 402.811 663.914C393.628 663.914 411.648 709.975 413.014 711.743C414.381 713.512 363.697 714.719 332.661 706.004C293.888 692.229 279.092 670.504 276.541 661.363C260.216 715.952 223.398 722.797 207.029 719.396C162.206 708.682 138.671 702.081 132.506 700.12C81.9987 656.754 135.004 533.18 135.004 533.18Z" fill="#321E4F"/>
<path d="M115.197 469.408C115.075 469.47 114.953 469.533 114.829 469.597M114.829 469.597C100.125 477.275 76.2021 502.798 95.4278 545.297C77.0613 549.889 69.1903 537.789 66.7301 533.18C64.2699 528.572 67.0334 558.97 64.2699 557.907C48.4882 550.351 46.2323 542.891 44.4098 542.746C42.5873 542.602 39.3987 576.401 32.293 558.689C25.1874 540.978 19.4479 536.514 6.78407 476.423C-8.97534 356.531 83.547 307.001 131.778 297.222C134.967 286.874 134.967 283.83 134.967 283.83C86.4996 227.2 63.5415 98.8901 63.5415 98.8901C63.5415 98.8901 101.761 114.042 125.401 120.573C163.327 131.05 217.233 151.184 217.233 151.184C200.907 99.1452 206.179 95.4889 210.856 100.166L253.583 131.414C253.583 70.1925 252 67 258.047 70.1925C264.095 73.385 309.703 120.573 309.703 120.573C355.109 10.3739 371.137 -1.02007 373.476 7.05777C389.801 45.8314 398.559 106.968 400.898 132.689C465.18 88.814 482.952 87.6236 483.802 92.5129L474.236 155.648C492.675 146.859 500.686 142.961 502.387 142.111L665.644 78.976C665.644 78.976 655.677 130.776 562.242 283.83C689.787 329.746 689.787 456.016 673.844 513.411C661.089 549.634 644.387 567.898 640.135 566.198C638.605 549.872 639.621 545.79 635.156 552.805C630.692 559.82 620.791 567.686 621.641 563.009C621.641 563.009 617.938 542.457 616.662 543.877C615.387 545.297 592.093 562.584 593.581 558.545C593.581 558.545 595.951 544.804 596.041 541.471C596.132 538.138 594.341 494.917 583.287 481.525C579.205 528.461 560.329 544.659 560.329 544.659C560.329 544.659 583.287 586.367 583.287 697.076C573.083 698.096 485.077 714.082 442.35 721.947C437.248 668.378 413.865 660.938 402.811 663.914C393.628 663.914 411.648 709.975 413.014 711.743C414.381 713.512 363.697 714.719 332.661 706.004C293.888 692.229 279.092 670.504 276.541 661.363C260.216 715.952 223.398 722.797 207.029 719.396C162.206 708.682 138.671 702.081 132.506 700.12C81.9987 656.754 135.004 533.18 135.004 533.18C135.004 533.18 117.807 519.984 115.835 470.683C115.325 469.663 114.952 469.534 114.829 469.597Z" stroke="#EB1D70" stroke-width="9.09073"/>
<path d="M309.188 392.881C312.377 394.369 296.561 376.428 207.79 292.758C202.263 312.528 195.801 357.551 214.167 379.489C226.922 396.707 263.782 423.492 309.188 392.881Z" fill="#FF0000"/>
<path d="M387.628 392.881C385.29 393.519 405.229 380.509 503.694 323.369C506.883 335.698 506.373 366.862 478.823 392.881C467.556 404.36 433.544 420.431 387.628 392.881Z" fill="#FF0000"/>
<path d="M309.188 392.881C312.377 394.369 296.561 376.428 207.79 292.758C202.263 312.528 195.801 357.551 214.167 379.489C226.922 396.707 263.782 423.492 309.188 392.881Z" stroke="#EB1D70" stroke-opacity="0.3" stroke-width="1.13634"/>
<path d="M387.628 392.881C385.29 393.519 405.229 380.509 503.694 323.369C506.883 335.698 506.373 366.862 478.823 392.881C467.556 404.36 433.544 420.431 387.628 392.881Z" stroke="#EB1D70" stroke-opacity="0.3" stroke-width="1.13634"/>
<path d="M436.186 381.957C432.36 395.925 427.258 394.436 422.156 371.105L441.288 359.575C441.288 359.575 440.013 367.988 436.186 381.957Z" fill="#321E4F" stroke="#321E4F" stroke-width="1.13634"/>
<path d="M272.244 379.786C268.622 381.105 262.018 376.358 264.574 346.82L276.718 358.029C276.931 365.281 276.334 379.786 272.244 379.786Z" fill="#321E4F" stroke="#321E4F" stroke-width="1.13634"/>
<path d="M506.672 419.638C422.449 447.171 241.019 483.59 189.085 409C205.411 476.854 257.959 513.374 282.193 523.153C335.336 539.946 454.633 542.754 506.672 419.638Z" fill="white" stroke="#EB1D70" stroke-width="5.68171"/>
</svg>
