<svg viewBox="0 0 122 117" fill="none" xmlns="http://www.w3.org/2000/svg">
<path d="M61.6704 43.5819C60.5744 44.6656 59.4 46.8571 58.9109 47.6679C53.294 40.6427 45.598 22.0471 59.7497 3.86558C62.1131 0.631811 59.3382 0.840406 57.6553 1.34892C37.6195 6.01372 23.9168 14.9114 19.5699 18.7771C7.46452 28.5793 3.27692 33.7698 2.69629 35.1398C0.41866 38.7203 1.43149 38.9478 2.22261 38.614C4.53181 36.3502 6.74169 35.1962 7.55797 34.9022C18.4538 31.212 21.7348 42.0773 22.0133 47.9712C25.3055 43.8822 33.4293 44.3638 37.0797 45.1158C41.2204 46.1143 50.0761 49.6523 52.3743 55.8158C51.5379 56.9578 49.9001 60.0887 50.0394 63.4755C50.1864 63.8837 49.6217 65.2436 46.1868 67.4182C36.51 74.2127 16.4565 88.9129 13.6572 93.3583C12.0389 95.5523 10.2972 98.6597 16.2768 93.5376C22.4565 88.3445 38.4042 75.9205 52.7577 67.7692C53.8188 69.2694 56.9427 72.638 58.7871 72.8069C59.4123 73.9704 59.3372 77.3705 56.1974 82.9669C55.4366 84.2283 51.3501 91.8832 41.0904 112.412C40.7297 113.866 40.3296 116.436 41.6146 115.088C42.626 113.167 48.626 102.095 64.5351 73.1776C65.668 73.2957 68.7282 72.7284 71.9058 69.5138C74.0764 68.808 80.6916 69.9328 89.7882 80.0791C91.109 81.6376 93.4037 85.843 92.0164 90.1963C93.3973 89.2108 97.0526 87.5426 100.627 88.7549C104.526 89.4606 111.592 93.4079 108.658 103.552C108.065 105.431 107.512 108.287 110.041 104.681C114.602 98.9538 123.014 82.3677 120.178 61.8426C118.516 53.1486 114.507 36.6294 111.762 40.1048C106.949 48.7764 93.262 64.9821 77.0155 60.4315C77.2238 59.3529 78.3558 56.7428 81.2183 54.9306C82.8162 55.2556 87.6533 55.0669 94.2177 51.713C96.8667 50.0917 101.996 46.0538 101.319 42.8736C99.1475 40.8511 92.3033 37.922 82.2978 42.3851C81.0514 39.8885 77.4947 35.1677 73.2395 36.2577C72.5846 30.8249 69.6299 19.6305 63.0504 18.3159C59.8594 20.2247 55.1493 27.5281 61.8378 41.4711C61.786 42.0051 61.68 43.1748 61.6704 43.5819Z" fill="#1B1C1C" stroke="#EB1D70" stroke-width="1.97625"/>
</svg>
