<svg width="916" height="1051" viewBox="0 0 916 1051" fill="none" xmlns="http://www.w3.org/2000/svg">
<g  class="chandelure">
<path d="M670.486 455.904C674.804 457.847 683.44 470.024 683.44 503.187L690.565 493.471C692.638 481.553 677.611 318.373 669.838 238.273C631.81 311.117 562.79 464.295 568.148 490.233C574.193 476.631 590.688 445.022 608.306 427.404C614.999 436.904 630.328 461.733 638.1 485.051L670.486 455.904Z" fill="url(#paint0_linear_3076_151)" stroke="url(#paint1_linear_3076_151)" stroke-width="6.47712"/>
<path d="M656.064 511.178C659.654 512.793 666.834 522.917 666.834 550.487L672.757 542.41C674.48 532.501 661.987 396.84 655.525 330.248C623.91 390.808 566.529 518.153 570.984 539.717C576.009 528.409 589.723 502.131 604.37 487.484C609.934 495.382 622.678 516.024 629.14 535.409L656.064 511.178Z" fill="url(#paint2_linear_3076_151)" stroke="url(#paint3_linear_3076_151)" stroke-width="5.38482"/>
<path d="M611.544 647.626C624.067 698.58 675.668 806.575 781.893 830.929C691.893 773.412 654.577 690.375 647.169 656.046C640.951 630.138 642.851 599.48 644.578 587.389C687.068 566.144 693.372 514.629 691.213 491.528L683.44 503.187C683.44 470.024 674.804 457.847 670.486 455.904L638.101 485.051C630.328 461.733 614.999 436.904 608.306 427.404C590.688 445.022 574.193 476.63 568.148 490.232C551.048 537.386 592.977 574.651 616.078 587.389C613.488 592.571 608.954 611.873 611.544 647.626Z" fill="#1B1C1C" stroke="#1B1C1C" stroke-width="6.47712"/>
<path d="M225.509 620.422L208.021 590.627C205.411 586.229 222.435 553.93 266.963 443.597C275.599 483.539 292.483 574.435 290.928 618.479L286.394 626.899C281.86 613.729 270.59 586.741 261.781 584.15C253.577 588.684 234.836 602.286 225.509 620.422Z" fill="url(#paint4_linear_3076_151)"/>
<path d="M148.432 832.224L140.659 835.462M208.021 590.627L225.509 620.422C234.836 602.286 253.577 588.684 261.781 584.15C270.59 586.741 281.86 613.729 286.394 626.899L290.928 618.479C292.483 574.435 275.599 483.539 266.963 443.597C222.435 553.93 205.411 586.229 208.021 590.627Z" stroke="url(#paint5_linear_3076_151)" stroke-width="6.47712"/>
<path d="M220.271 660.46L202.795 636.033C200.187 632.428 217.198 605.948 261.697 515.493C270.327 548.239 287.2 622.758 285.646 658.867L281.115 665.77C276.584 654.973 265.322 632.847 256.519 630.723C248.32 634.44 229.592 645.592 220.271 660.46Z" fill="url(#paint6_linear_3076_151)"/>
<path d="M143.245 834.103L135.478 836.758M202.795 636.033L220.271 660.46C229.592 645.592 248.32 634.44 256.519 630.723C265.322 632.847 276.584 654.973 281.115 665.77L285.646 658.867C287.2 622.758 270.327 548.239 261.697 515.493C217.198 605.948 200.187 632.428 202.795 636.033Z" stroke="url(#paint7_linear_3076_151)" stroke-width="6.47712"/>
<path d="M222.271 711.75C215.578 744.135 191.44 813.57 148.432 832.224L140.659 835.462C172.268 842.717 211.692 800.918 227.453 779.112C234.707 769.785 242.998 744.567 246.236 733.124C255.045 707.216 257.247 693.83 257.247 690.375C270.201 672.887 295.074 634.024 290.928 618.479L286.394 626.899C281.86 613.729 270.59 586.741 261.781 584.15C253.577 588.684 234.836 602.286 225.509 620.422L206.726 591.275C204.567 598.184 200.249 614.204 200.249 623.013C199.817 628.411 203.228 648.144 220.328 683.898C221.623 690.159 223.825 704.495 222.271 711.75Z" fill="#1B1C1C" stroke="#1B1C1C" stroke-width="6.47712"/>
<path d="M185.068 944.094C225.442 971.945 325.363 1007.57 402.052 927.253C413.71 911.492 428.996 886.706 396.87 913.651C316.554 981.531 234.726 941.934 203.852 913.651C160.844 867.016 151.819 832.471 152.683 821.028C137.138 727.24 198.886 687.816 231.704 679.827C263.225 679.827 312.02 696.797 255.021 764.677C247.249 770.507 228.076 779.704 213.568 769.859C202.988 758.848 192.711 733.458 236.238 719.985C240.987 715.667 247.249 707.031 234.294 707.031C232.351 706.167 225.874 704.958 215.511 707.031C204.5 709.622 181.83 720.892 179.239 745.246C177.296 757.121 179.498 785.534 203.852 804.188C211.84 812.608 238.828 825.044 282.873 807.426C326.399 777.373 337.281 727.974 337.281 707.031C344.405 678.316 332.487 625.419 227.817 643.555L203.852 652.623C171.898 665.362 109.416 716.229 115.115 817.79C119.218 846.937 138.951 913.003 185.068 944.094Z" fill="#1B1C1C" stroke="#1B1C1C" stroke-width="6.47712"/>
<path d="M435.873 453.96C437.601 461.084 437.428 481.034 422.919 503.833C429.137 549.951 447.532 565.367 455.953 567.31C493.779 557.983 514.031 516.356 519.428 496.708C503.883 485.827 502.156 451.153 503.235 435.176C504.272 403.049 520.94 382.064 529.144 375.586C555.571 352.269 566.927 323.554 569.302 312.111C573.966 288.275 579.45 277.998 581.609 275.839C588.345 267.03 581.824 236.76 577.722 222.727C574.095 205.109 536.053 160.114 517.485 139.819C478.622 95.775 492.872 12.8672 496.758 5.09539C500.645 -2.67641 473.052 32.6879 463.725 54.9692C457.464 73.1051 448.698 115.206 463.725 138.524C471.929 157.523 487.431 198.891 483.804 212.363C482.725 223.806 477.197 251.355 463.725 270.009C450.339 286.418 420.717 329.21 409.317 369.109C406.726 382.495 404.136 411.729 414.499 421.574C419.465 424.812 430.692 435.824 435.873 453.96Z" fill="url(#paint8_linear_3076_151)" stroke="url(#paint9_linear_3076_151)" stroke-width="6.47712"/>
<path d="M459.981 440.358C458.686 450.506 451.302 481.035 432.129 521.97L459.981 560.833L503.378 529.743C492.582 509.664 468.79 463.676 459.981 440.358Z" fill="#B4CAE5" class="flame-light"  class="flame-light" />
<path d="M510.503 670.944C513.741 683.682 512.446 712.398 481.356 725.352C486.537 775.614 473.151 802.465 465.81 809.608C491.164 810.481 514.619 812.554 531.877 814.736C579.549 767.064 592.114 721.466 585.637 695.557C579.16 669.648 509.423 578.431 484.594 568.446C479.222 567.595 474.415 567.011 470.344 566.663C466.162 566.372 460.338 566.163 453.504 566.184C468.013 591.957 474.663 625.604 476.174 639.206C485.674 642.445 505.839 653.326 510.503 670.944Z" fill="url(#paint10_linear_3076_151)"/>
<path d="M327.848 698.796C325.09 717.579 329.778 766.923 370.597 814.027C396.392 809.839 426.373 808.752 454.799 809.31C459.333 791.687 467.883 750.224 465.81 725.352C453.288 726.647 426.171 721.466 417.88 690.375H377.722C378.369 694.909 380.053 707.864 381.608 723.409C381.608 727.727 379.535 736.363 371.245 736.363C367.574 735.499 360.493 725.352 361.529 691.671C354.836 693.398 338.729 697.241 327.848 698.796Z" fill="url(#paint11_linear_3076_151)"/>
<path d="M354.404 817.219C318.65 784.142 311.871 726.215 312.951 701.387L294.167 709.159C290.54 715.377 295.678 735.931 298.701 745.431C303.364 759.421 292.871 751.26 287.042 745.431C284.451 741.976 280.306 733.383 281.86 716.284L275.383 719.522C274.347 751.131 265.883 760.328 261.781 760.976C270.072 798.284 303.034 823.588 318.479 831.577C327.581 825.307 339.986 820.63 354.404 817.219Z" fill="url(#paint12_linear_3076_151)"/>
<path d="M399.096 571.543C395.317 572.381 391.626 573.341 388.085 574.435C385.006 575.537 383.876 575.252 379.665 577.026C355.821 587.073 313.699 609.311 286.394 636.615L266.315 677.421C270.633 682.819 278.233 696.464 274.088 707.864C276.463 707.216 281.731 705.143 283.804 702.034C298.83 646.072 298.269 674.83 296.11 696.205C301.508 695.341 312.432 692.966 312.951 690.375C313.382 672.455 331.216 623.601 399.096 571.543Z" fill="url(#paint13_linear_3076_151)"/>
<path d="M461.276 636.615C457.39 620.638 446.897 584.292 436.016 566.721C430.165 567.063 424.038 567.589 417.88 568.357C359.327 619.336 335.189 668.785 330.439 687.137L360.233 679.364C362.608 669.433 369.301 649.699 377.074 650.217C378.585 651.513 381.608 658.767 381.608 677.421C383.983 677.205 395.08 676.126 420.471 673.535C423.061 662.092 434.85 638.688 461.276 636.615Z" fill="url(#paint14_linear_3076_151)"/>
<path d="M587.58 838.054C634.215 809.554 654.942 770.908 659.476 755.147C667.767 697.112 631.841 645.036 612.841 626.252C591.862 605.273 563.363 590.93 536.411 581.543C544.399 591.265 560.376 607.468 585.637 642.445C610.898 677.422 631.884 736.791 555.195 821.409C568.689 826.75 582.292 833.85 587.58 838.054Z" fill="url(#paint15_linear_3076_151)"/>
<path d="M314.246 834.815C338.082 865.905 374.267 878.428 389.381 880.803C397.671 938.319 425.221 1002.79 437.959 1027.83C444.177 1039.23 453.072 1036.47 456.743 1033.66C472.288 1021.74 499.06 962.198 510.503 933.915C516.202 918.888 520.65 892.245 522.161 880.803C556.361 868.366 580.024 847.122 587.58 838.054M314.246 834.815C276.42 827.561 254.009 774.794 247.532 749.317C238.205 696.464 269.554 652.16 286.394 636.615M314.246 834.815C315.563 833.691 316.976 832.612 318.479 831.577M587.58 838.054C634.215 809.554 654.942 770.908 659.476 755.147C667.767 697.112 631.841 645.036 612.841 626.252C591.862 605.273 563.363 590.93 536.411 581.543M587.58 838.054C582.292 833.85 568.689 826.75 555.195 821.409M531.877 814.736C514.619 812.554 491.164 810.481 465.81 809.608M531.877 814.736C540.935 815.699 547.204 818.246 555.195 821.409M531.877 814.736C579.549 767.064 592.114 721.466 585.637 695.557C579.16 669.648 509.423 578.431 484.594 568.446M286.394 636.615L266.315 677.421C270.633 682.819 278.233 696.464 274.088 707.864C276.463 707.216 281.731 705.143 283.804 702.034C298.83 646.072 298.269 674.83 296.11 696.205C301.508 695.341 312.432 692.966 312.951 690.375C313.382 672.455 331.216 623.601 399.096 571.543M286.394 636.615C313.699 609.311 355.821 587.073 379.665 577.026M399.096 571.543C395.317 572.381 391.626 573.341 388.085 574.435C385.006 575.537 383.876 575.252 379.665 577.026M399.096 571.543C405.215 570.185 411.564 569.144 417.88 568.357M354.404 817.219C318.65 784.142 311.871 726.215 312.951 701.387L294.167 709.159C290.54 715.377 295.678 735.931 298.701 745.431C303.364 759.421 292.871 751.26 287.042 745.431C284.451 741.976 280.306 733.383 281.86 716.284L275.383 719.522C274.347 751.131 265.883 760.328 261.781 760.976C270.072 798.284 303.034 823.588 318.479 831.577M354.404 817.219C359.564 815.998 364.981 814.939 370.597 814.027M354.404 817.219C339.986 820.63 327.581 825.307 318.479 831.577M370.597 814.027C329.778 766.923 325.09 717.579 327.848 698.796C338.729 697.241 354.836 693.398 361.529 691.671C360.493 725.352 367.574 735.499 371.245 736.363C379.535 736.363 381.608 727.727 381.608 723.409C380.053 707.864 378.369 694.909 377.722 690.375H417.88C426.171 721.466 453.288 726.647 465.81 725.352C467.883 750.224 459.333 791.687 454.799 809.31M370.597 814.027C396.392 809.839 426.373 808.752 454.799 809.31M453.504 566.184C460.338 566.163 466.162 566.372 470.344 566.663C474.415 567.011 479.222 567.595 484.594 568.446M453.504 566.184C468.013 591.957 474.663 625.604 476.174 639.206C485.674 642.445 505.839 653.326 510.503 670.944C513.741 683.682 512.446 712.398 481.356 725.352C486.537 775.614 473.151 802.465 465.81 809.608M453.504 566.184C448.187 566.2 442.259 566.356 436.016 566.721M436.016 566.721C446.897 584.292 457.39 620.638 461.276 636.615C434.85 638.688 423.061 662.092 420.471 673.535C395.08 676.126 383.983 677.205 381.608 677.421C381.608 658.767 378.585 651.513 377.074 650.217C369.301 649.699 362.608 669.433 360.233 679.364L330.439 687.137C335.189 668.785 359.327 619.336 417.88 568.357M436.016 566.721C430.165 567.063 424.038 567.589 417.88 568.357M465.81 809.608C462.175 809.483 458.5 809.382 454.799 809.31M555.195 821.409C631.884 736.791 610.898 677.422 585.637 642.445C560.376 607.468 544.399 591.265 536.411 581.543M536.411 581.543C533.364 580.482 530.337 579.485 527.343 578.548M484.594 568.446C496.643 570.353 511.535 573.602 527.343 578.548M379.665 577.026C305.567 488.587 362.177 518.726 399.744 544.85C399.744 544.85 398.448 485.698 406.869 490.88C415.289 496.062 458.686 544.85 458.686 544.85C497.548 513.592 509.207 503.186 521.514 497.357C533.82 491.528 527.343 531.038 522.809 549.174C555.842 536.436 602.996 524.477 527.343 578.548" stroke="#1B1C1C" stroke-width="9.06796"/>
<path d="M314.246 834.815C338.082 865.905 374.267 878.428 389.381 880.803C397.671 938.319 425.221 1002.79 437.959 1027.83C444.177 1039.23 453.072 1036.47 456.743 1033.66C472.288 1021.74 499.06 962.198 510.503 933.915C516.202 918.888 520.65 892.245 522.161 880.803C556.361 868.366 580.024 847.122 587.58 838.054C582.292 833.85 568.689 826.75 555.195 821.409C547.204 818.246 540.935 815.699 531.877 814.736C514.619 812.554 491.164 810.481 465.81 809.608C462.175 809.483 458.5 809.382 454.799 809.31C426.373 808.752 396.392 809.839 370.597 814.027C364.981 814.939 359.564 815.998 354.404 817.219C339.986 820.63 327.581 825.307 318.479 831.577C316.976 832.612 315.563 833.691 314.246 834.815Z" fill="#1B1C1C"/>
<path d="M247.532 749.317C254.009 774.794 276.42 827.561 314.246 834.815C315.563 833.691 316.976 832.612 318.479 831.577C303.034 823.588 270.072 798.284 261.781 760.976C265.883 760.328 274.347 751.131 275.383 719.522L281.86 716.284C280.306 733.383 284.451 741.976 287.042 745.431C292.871 751.26 303.364 759.421 298.701 745.431C295.678 735.931 290.54 715.377 294.167 709.159L312.951 701.387C311.871 726.215 318.65 784.142 354.404 817.219C359.564 815.998 364.981 814.939 370.597 814.027C329.778 766.923 325.09 717.579 327.848 698.796C338.729 697.241 354.836 693.398 361.529 691.671C360.493 725.352 367.574 735.499 371.245 736.363C379.535 736.363 381.608 727.727 381.608 723.409C380.053 707.864 378.369 694.909 377.722 690.375H417.88C426.171 721.466 453.288 726.647 465.81 725.352C467.883 750.224 459.333 791.687 454.799 809.31C458.5 809.382 462.175 809.483 465.81 809.608C473.151 802.465 486.537 775.614 481.356 725.352C512.446 712.398 513.741 683.682 510.503 670.944C505.839 653.326 485.674 642.445 476.174 639.206C474.663 625.604 468.013 591.957 453.504 566.184C448.187 566.2 442.259 566.356 436.016 566.721C446.897 584.292 457.39 620.638 461.276 636.615C434.85 638.688 423.061 662.092 420.471 673.535C395.08 676.126 383.983 677.205 381.608 677.421C381.608 658.767 378.585 651.513 377.074 650.217C369.301 649.699 362.608 669.433 360.233 679.364L330.439 687.137C335.189 668.785 359.327 619.336 417.88 568.357C411.564 569.144 405.215 570.185 399.096 571.543C331.216 623.601 313.382 672.455 312.951 690.375C312.432 692.966 301.508 695.341 296.11 696.205C298.269 674.83 298.83 646.072 283.804 702.034C281.731 705.143 276.463 707.216 274.088 707.864C278.233 696.464 270.633 682.819 266.315 677.421L286.394 636.615C269.554 652.16 238.205 696.464 247.532 749.317Z" fill="#1B1C1C"/>
<path d="M531.877 814.736C540.935 815.699 547.204 818.246 555.195 821.409C631.884 736.791 610.898 677.422 585.637 642.445C560.376 607.468 544.399 591.265 536.411 581.543C533.364 580.482 530.337 579.485 527.343 578.548C511.535 573.602 496.643 570.353 484.594 568.446C509.423 578.431 579.16 669.648 585.637 695.557C592.114 721.466 579.549 767.064 531.877 814.736Z" fill="#1B1C1C"/>
<path d="M388.085 574.435C391.626 573.341 395.317 572.381 399.096 571.543C405.215 570.185 411.564 569.144 417.88 568.357C424.038 567.589 430.165 567.063 436.016 566.721C442.259 566.356 448.187 566.2 453.504 566.184C460.338 566.163 466.162 566.372 470.344 566.663C474.415 567.011 479.222 567.595 484.594 568.446C496.643 570.353 511.535 573.602 527.343 578.548C602.996 524.477 555.842 536.436 522.809 549.174C527.343 531.038 533.82 491.528 521.514 497.357C509.207 503.186 497.548 513.592 458.686 544.85C458.686 544.85 415.289 496.062 406.869 490.88C398.448 485.698 399.744 544.85 399.744 544.85C362.177 518.726 305.567 488.587 379.665 577.026C383.876 575.252 385.006 575.537 388.085 574.435Z" fill="#1B1C1C"/>
<path d="M314.246 834.815C338.082 865.905 374.267 878.428 389.381 880.803C397.671 938.319 425.221 1002.79 437.959 1027.83C444.177 1039.23 453.072 1036.47 456.743 1033.66C472.288 1021.74 499.06 962.198 510.503 933.915C516.202 918.888 520.65 892.245 522.161 880.803C556.361 868.366 580.024 847.122 587.58 838.054M314.246 834.815C276.42 827.561 254.009 774.794 247.532 749.317C238.205 696.464 269.554 652.16 286.394 636.615M314.246 834.815C315.563 833.691 316.976 832.612 318.479 831.577M587.58 838.054C634.215 809.554 654.942 770.908 659.476 755.147C667.767 697.112 631.841 645.036 612.841 626.252C591.862 605.273 563.363 590.93 536.411 581.543M587.58 838.054C582.292 833.85 568.689 826.75 555.195 821.409M531.877 814.736C514.619 812.554 491.164 810.481 465.81 809.608M531.877 814.736C540.935 815.699 547.204 818.246 555.195 821.409M531.877 814.736C579.549 767.064 592.114 721.466 585.637 695.557C579.16 669.648 509.423 578.431 484.594 568.446M286.394 636.615L266.315 677.421C270.633 682.819 278.233 696.464 274.088 707.864C276.463 707.216 281.731 705.143 283.804 702.034C298.83 646.072 298.269 674.83 296.11 696.205C301.508 695.341 312.432 692.966 312.951 690.375C313.382 672.455 331.216 623.601 399.096 571.543M286.394 636.615C313.699 609.311 355.821 587.073 379.665 577.026M399.096 571.543C395.317 572.381 391.626 573.341 388.085 574.435C385.006 575.537 383.876 575.252 379.665 577.026M399.096 571.543C405.215 570.185 411.564 569.144 417.88 568.357M354.404 817.219C318.65 784.142 311.871 726.215 312.951 701.387L294.167 709.159C290.54 715.377 295.678 735.931 298.701 745.431C303.364 759.421 292.871 751.26 287.042 745.431C284.451 741.976 280.306 733.383 281.86 716.284L275.383 719.522C274.347 751.131 265.883 760.328 261.781 760.976C270.072 798.284 303.034 823.588 318.479 831.577M354.404 817.219C359.564 815.998 364.981 814.939 370.597 814.027M354.404 817.219C339.986 820.63 327.581 825.307 318.479 831.577M370.597 814.027C329.778 766.923 325.09 717.579 327.848 698.796C338.729 697.241 354.836 693.398 361.529 691.671C360.493 725.352 367.574 735.499 371.245 736.363C379.535 736.363 381.608 727.727 381.608 723.409C380.053 707.864 378.369 694.909 377.722 690.375H417.88C426.171 721.466 453.288 726.647 465.81 725.352C467.883 750.224 459.333 791.687 454.799 809.31M370.597 814.027C396.392 809.839 426.373 808.752 454.799 809.31M453.504 566.184C460.338 566.163 466.162 566.372 470.344 566.663C474.415 567.011 479.222 567.595 484.594 568.446M453.504 566.184C468.013 591.957 474.663 625.604 476.174 639.206C485.674 642.445 505.839 653.326 510.503 670.944C513.741 683.682 512.446 712.398 481.356 725.352C486.537 775.614 473.151 802.465 465.81 809.608M453.504 566.184C448.187 566.2 442.259 566.356 436.016 566.721M436.016 566.721C446.897 584.292 457.39 620.638 461.276 636.615C434.85 638.688 423.061 662.092 420.471 673.535C395.08 676.126 383.983 677.205 381.608 677.421C381.608 658.767 378.585 651.513 377.074 650.217C369.301 649.699 362.608 669.433 360.233 679.364L330.439 687.137C335.189 668.785 359.327 619.336 417.88 568.357M436.016 566.721C430.165 567.063 424.038 567.589 417.88 568.357M465.81 809.608C462.175 809.483 458.5 809.382 454.799 809.31M555.195 821.409C631.884 736.791 610.898 677.422 585.637 642.445C560.376 607.468 544.399 591.265 536.411 581.543M536.411 581.543C533.364 580.482 530.337 579.485 527.343 578.548M484.594 568.446C496.643 570.353 511.535 573.602 527.343 578.548M379.665 577.026C305.567 488.587 362.177 518.726 399.744 544.85C399.744 544.85 398.448 485.698 406.869 490.88C415.289 496.062 458.686 544.85 458.686 544.85C497.548 513.592 509.207 503.186 521.514 497.357C533.82 491.528 527.343 531.038 522.809 549.174C555.842 536.436 602.996 524.477 527.343 578.548" stroke="#1B1C1C" stroke-width="9.06796"/>
<path d="M396.099 574.912C399.1 573.984 402.228 573.171 405.43 572.461C410.615 571.31 415.995 570.428 421.347 569.761C426.566 569.11 431.758 568.664 436.716 568.375C442.006 568.065 447.03 567.933 451.536 567.919C457.327 567.902 462.262 568.079 465.806 568.325C469.256 568.621 473.329 569.116 477.882 569.836C488.092 571.453 500.712 574.205 514.107 578.397C578.216 532.577 538.258 542.711 510.265 553.505C514.107 538.137 519.596 504.655 509.168 509.595C498.739 514.535 488.859 523.353 455.927 549.841C455.927 549.841 419.152 508.498 412.017 504.107C404.881 499.715 405.979 549.841 405.979 549.841C374.144 527.703 326.172 502.163 388.964 577.107C392.532 575.604 393.49 575.845 396.099 574.912Z" fill="#252525" stroke="#1B1C1C" stroke-width="7.68427"/>
<path d="M253.361 754.498C241.703 756.441 250.123 683.25 259.839 689.727C269.554 696.204 265.02 752.555 253.361 754.498Z" fill="#FBED8A" stroke="#FBED8A" class="eye" stroke-width="2.59085"/>
<circle cx="466.458" cy="680.659" r="31.7379" fill="#FBED8A" class="eye" />
<path d="M774.768 868.496C738.712 909.301 633.955 978.477 503.377 928.733C489.904 923.551 502.081 922.688 509.854 922.903C618.151 922.903 680.634 897.427 698.338 884.688C742.382 856.707 767.643 827.69 774.768 816.679C792.904 785.589 799.165 739.817 800.029 720.817C800.029 675.737 774.984 643.308 762.461 632.729C730.853 609.411 704.383 613.081 695.099 617.831C672.818 628.195 655.589 655.399 649.759 667.705C636.805 706.568 666.816 714.556 683.44 713.693C688.19 713.261 698.597 710.065 702.224 700.738C706.326 689.08 706.758 666.151 675.668 667.705C673.077 651.124 690.565 642.66 699.633 640.501C720.878 637.91 733.962 647.626 737.848 652.808C743.462 658.637 753.652 678.068 749.507 709.159C745.837 724.92 726.189 756.053 676.963 754.498C660.9 754.498 644.362 747.158 638.101 743.487C610.033 719.738 570.739 658.119 638.101 601.638C649.112 595.593 673.466 582.855 682.793 580.264C694.451 577.241 722.692 572.751 742.382 578.969C753.393 581.775 781.374 593.089 805.21 615.888C819.244 628.411 844.462 671.462 833.062 743.487C830.255 767.453 814.667 826.006 774.768 868.496Z" fill="#1B1C1C" stroke="#1B1C1C" stroke-width="3.88627"/>
<path d="M8.52539 523.266C8.53509 523.232 8.54574 523.201 8.55734 523.172C52.0751 394.734 100.073 341.472 118.636 330.896L116.046 343.202C110.432 371.701 101.019 434.788 108.273 459.142C114.318 479.653 125.373 525.468 121.227 544.64C121.227 544.209 120.968 543.604 119.932 544.64C114.966 550.254 103.35 562.258 96.614 565.367C92.2959 551.333 75.8872 507.721 72.6487 507.721C69.4101 507.721 60.6012 513.68 33.1383 560.833C23.8124 547.289 9.89423 519.817 8.55734 523.172C8.54669 523.203 8.53604 523.234 8.52539 523.266Z" fill="url(#paint16_linear_3076_151)"/>
<path d="M8.52539 523.266C9.65231 519.34 23.7315 547.171 33.1383 560.833C60.6012 513.68 69.4101 507.721 72.6487 507.721C75.8872 507.721 92.2959 551.333 96.614 565.367C103.35 562.258 114.966 550.254 119.932 544.64C120.968 543.604 121.227 544.209 121.227 544.64C125.373 525.468 114.318 479.653 108.273 459.142C101.019 434.788 110.432 371.701 116.046 343.202L118.636 330.896C100.069 341.475 52.0516 394.76 8.52539 523.266Z" stroke="url(#paint17_linear_3076_151)" stroke-width="1.29542"/>
<path d="M12.4116 547.164C12.419 547.138 12.4272 547.114 12.436 547.092C45.682 448.97 82.3507 408.281 96.5323 400.2L94.553 409.602C90.2645 431.375 83.073 479.571 88.615 498.176C93.2334 513.846 101.678 548.847 98.5115 563.493C98.5115 563.164 98.3135 562.702 97.5218 563.493C93.7281 567.782 84.8542 576.953 79.708 579.328C76.4092 568.607 63.8735 535.288 61.3994 535.288C58.9253 535.288 52.1956 539.841 31.2149 575.864C24.0904 565.517 13.4574 544.53 12.436 547.092C12.4279 547.116 12.4198 547.14 12.4116 547.164Z" fill="url(#paint18_linear_3076_151)"/>
<path d="M12.4116 547.164C13.2725 544.165 24.0285 565.427 31.2149 575.864C52.1956 539.841 58.9253 535.288 61.3994 535.288C63.8735 535.288 76.4092 568.607 79.708 579.328C84.8542 576.953 93.7281 567.782 97.5218 563.493C98.3135 562.702 98.5115 563.164 98.5115 563.493C101.678 548.847 93.2334 513.846 88.615 498.176C83.073 479.571 90.2645 431.375 94.553 409.602L96.5323 400.2C82.3472 408.283 45.664 448.99 12.4116 547.164Z" stroke="url(#paint19_linear_3076_151)" stroke-width="0.989655"/>
<path d="M48.0358 642.445C24.7182 626.9 -15.8286 581.301 8.52537 523.266C9.65229 519.34 23.7315 547.171 33.1383 560.833C60.6012 513.68 69.4101 507.721 72.6487 507.721C75.8872 507.721 92.2959 551.334 96.614 565.367C103.35 562.258 114.966 550.254 119.932 544.641C120.968 543.604 121.227 544.209 121.227 544.641C122.522 571.197 115.786 627.936 78.4781 642.445C74.8176 671.68 87.4588 748.42 134.829 831.577C135.477 833.304 135.606 836.37 130.943 834.815C105.034 823.156 52.181 768.36 48.0358 642.445Z" fill="#1B1C1C" stroke="#1B1C1C" stroke-width="1.29542"/>
<path d="M893.299 586.741C896.322 586.093 904.181 581.818 911.435 569.9C913.508 536.22 895.89 467.778 886.822 437.767C882.072 417.041 872.572 377.271 872.572 384.007C871.493 410.132 860.266 482.719 823.994 564.071C826.369 567.957 833.71 577.932 844.073 586.741L869.334 549.821C871.925 544.122 886.39 572.059 893.299 586.741Z" fill="url(#paint20_linear_3076_151)" stroke="url(#paint21_linear_3076_151)" stroke-width="6.47712"/>
<path d="M889.26 611.354C891.852 610.826 898.592 607.343 904.814 597.632C906.591 570.187 891.482 514.418 883.705 489.964C879.632 473.075 871.485 440.669 871.485 446.158C870.559 467.445 860.93 526.592 829.823 592.882C831.86 596.048 838.156 604.176 847.043 611.354L868.707 581.27C870.929 576.626 883.335 599.391 889.26 611.354Z" fill="url(#paint22_linear_3076_151)" stroke="url(#paint23_linear_3076_151)" stroke-width="5.56727"/>
<path d="M882.289 661.228C884.016 697.284 868.428 782.739 792.257 836.11C778.784 839.219 810.824 792.929 828.529 769.396C844.074 747.114 853.142 683.682 855.732 654.751C807.543 622.624 814.495 580.912 823.995 564.071C826.37 567.957 833.71 577.932 844.074 586.741L869.334 549.821C871.925 544.122 886.391 572.06 893.3 586.741C896.322 586.093 904.181 581.818 911.436 569.9C913.379 590.627 910.27 637.91 882.289 661.228Z" fill="#1B1C1C" stroke="#1B1C1C" stroke-width="6.47712"/>
<ellipse cx="317.091" cy="630.816" rx="4.38168" ry="10.4823" transform="rotate(40.1891 317.091 630.816)" fill="#E5E6F2"/>
<ellipse cx="614.434" cy="801.328" rx="5.94767" ry="37.4524" transform="rotate(45.1333 614.434 801.328)" fill="#E5E6F2"/>
<ellipse cx="474.232" cy="995.189" rx="5.94767" ry="37.4524" transform="rotate(30.1766 474.232 995.189)" fill="#9395AA"/>
<ellipse cx="338.084" cy="615.737" rx="3.96759" ry="11.4088" transform="rotate(45.1333 338.084 615.737)" fill="#E5E6F2"/>
<ellipse cx="883.135" cy="522.626" rx="3.08396" ry="8.86791" transform="rotate(-9.29788 883.135 522.626)" fill="#E5E6F2"/>
<ellipse cx="268.621" cy="561.04" rx="3.08396" ry="8.86791" transform="rotate(176.488 268.621 561.04)" fill="#E5E6F2"/>
<ellipse cx="639.703" cy="765.791" rx="2.88944" ry="10.35" transform="rotate(45.1333 639.703 765.791)" fill="#E5E6F2"/>
<ellipse cx="261.132" cy="703.329" rx="3.88627" ry="7.77254" fill="#FFF7C1"/>
<ellipse cx="261.132" cy="703.329" rx="3.88627" ry="7.77254" fill="#FFF7C1"/>
<ellipse cx="497.019" cy="487.132" rx="2" ry="12.0217" transform="rotate(-14.8737 497.019 487.132)" fill="#B4CAE5" class="flame-light" />
<ellipse cx="661.137" cy="421.723" rx="2.40608" ry="22.598" transform="rotate(-4.91373 661.137 421.723)" fill="#B4CAE5" class="flame-light"  fill-opacity="0.69"/>
<ellipse cx="110.019" cy="504.132" rx="2" ry="12.0217" transform="rotate(-14.8737 110.019 504.132)" fill="#B4CAE5" class="flame-light" />
<ellipse cx="0.423961" cy="2.54837" rx="0.423961" ry="2.54837" transform="matrix(-0.966494 0.25669 0.25669 0.966494 491.819 468)" fill="#B4CAE5" class="flame-light" />
<ellipse cx="56.9702" cy="444.231" rx="0.818805" ry="8.02932" transform="rotate(32.1896 56.9702 444.231)" fill="#B4CAE5" class="flame-light" />
<ellipse cx="456.935" cy="460.457" rx="1.10172" ry="4.42302" transform="rotate(26.096 456.935 460.457)" fill="#B4CAE5" class="flame-light" />
<ellipse cx="573.019" cy="242.132" rx="2" ry="12.0217" transform="rotate(-14.8737 573.019 242.132)" fill="#B4CAE5" class="flame-light" />
<ellipse cx="499.236" cy="594.166" rx="2" ry="12.0217" transform="rotate(-33.0683 499.236 594.166)" fill="#B4CAE5" class="flame-light" />
<ellipse cx="567.223" cy="221.954" rx="0.774948" ry="5.72188" transform="rotate(-14.8737 567.223 221.954)" fill="#B4CAE5" class="flame-light" />
</g>
<defs>
<filter id="normalFilter" x="0.352051" y="0.761475" width="914.789" height="1049.91" filterUnits="userSpaceOnUse" color-interpolation-filters="sRGB">
<feFlood flood-opacity="0" result="BackgroundImageFix"/>
<feColorMatrix in="SourceAlpha" type="matrix" values="0 0 0 0 0 0 0 0 0 0 0 0 0 0 0 0 0 0 127 0" result="hardAlpha"/>
<feOffset dy="10"/>
<feColorMatrix type="matrix" values="0 0 0 0 0.541176 0 0 0 0 0.67451 0 0 0 0 0.854902 0 0 0 1 0"/>
<feBlend mode="normal" in2="BackgroundImageFix" result="effect1_dropShadow_3076_151"/>
<feBlend mode="normal" in="SourceGraphic" in2="effect1_dropShadow_3076_151" result="shape"/>
</filter>

<filter id="shinyFilter" x="0.352051" y="0.761475" width="914.789" height="1049.91" filterUnits="userSpaceOnUse" color-interpolation-filters="sRGB">
    <feFlood flood-opacity="0" result="BackgroundImageFix"/>
    <feColorMatrix in="SourceAlpha" type="matrix" values="0 0 0 0 0 0 0 0 0 0 0 0 0 0 0 0 0 0 255 0" result="hardAlpha"/>
    <feOffset dy="10"/>
    <feColorMatrix type="matrix" values="1 0 0 0 1 0 0 0 0 0 0 0 0 0 0 0 0 0 1 0"/>
    <feBlend mode="normal" in2="BackgroundImageFix" result="effect1_dropShadow_3076_151"/>
    <feBlend mode="normal" in="SourceGraphic" in2="effect1_dropShadow_3076_151" result="shape"/>
</filter>

<linearGradient class="linear" id="paint0_linear_3076_151" x1="629.306" y1="238.273" x2="629.306" y2="503.187" gradientUnits="userSpaceOnUse">
<stop stop-color="#776EAD"/>
<stop offset="0.1875" stop-color="#8E82D9"/>
<stop offset="0.651042" stop-color="#89ABD9"/>
<stop offset="0.951012" stop-color="#89ABD9"/>
</linearGradient>
<linearGradient class="linear"  id="paint1_linear_3076_151" x1="629.306" y1="238.273" x2="629.306" y2="503.187" gradientUnits="userSpaceOnUse">
<stop stop-color="#776EAD"/>
<stop offset="0.1875" stop-color="#8E82D9"/>
<stop offset="0.651042" stop-color="#89ABD9"/>
<stop offset="0.951012" stop-color="#89ABD9"/>
</linearGradient>
<linearGradient class="linear"  id="paint2_linear_3076_151" x1="621.829" y1="330.248" x2="621.829" y2="550.487" gradientUnits="userSpaceOnUse">
<stop stop-color="#776EAD"/>
<stop offset="0.1875" stop-color="#8E82D9"/>
<stop offset="0.651042" stop-color="#89ABD9"/>
<stop offset="0.951012" stop-color="#89ABD9"/>
</linearGradient>
<linearGradient class="linear"  id="paint3_linear_3076_151" x1="621.829" y1="330.248" x2="621.829" y2="550.487" gradientUnits="userSpaceOnUse">
<stop stop-color="#776EAD"/>
<stop offset="0.1875" stop-color="#8E82D9"/>
<stop offset="0.651042" stop-color="#89ABD9"/>
<stop offset="0.951012" stop-color="#89ABD9"/>
</linearGradient>
<linearGradient class="linear"  id="paint4_linear_3076_151" x1="215.844" y1="443.597" x2="215.844" y2="835.462" gradientUnits="userSpaceOnUse">
<stop stop-color="#776EAD"/>
<stop offset="0.1875" stop-color="#8E82D9"/>
<stop offset="0.651042" stop-color="#89ABD9"/>
<stop offset="0.951012" stop-color="#89ABD9"/>
</linearGradient>
<linearGradient  class="linear"  id="paint5_linear_3076_151" x1="215.844" y1="443.597" x2="215.844" y2="835.462" gradientUnits="userSpaceOnUse">
<stop stop-color="#776EAD"/>
<stop offset="0.1875" stop-color="#8E82D9"/>
<stop offset="0.651042" stop-color="#89ABD9"/>
<stop offset="0.951012" stop-color="#89ABD9"/>
</linearGradient>
<linearGradient class="linear"  id="paint6_linear_3076_151" x1="210.612" y1="515.493" x2="210.612" y2="836.758" gradientUnits="userSpaceOnUse">
<stop stop-color="#776EAD"/>
<stop offset="0.1875" stop-color="#8E82D9"/>
<stop offset="0.651042" stop-color="#89ABD9"/>
<stop offset="0.951012" stop-color="#89ABD9"/>
</linearGradient>
<linearGradient class="linear"  id="paint7_linear_3076_151" x1="210.612" y1="515.493" x2="210.612" y2="836.758" gradientUnits="userSpaceOnUse">
<stop stop-color="#776EAD"/>
<stop offset="0.1875" stop-color="#8E82D9"/>
<stop offset="0.651042" stop-color="#89ABD9"/>
<stop offset="0.951012" stop-color="#89ABD9"/>
</linearGradient>
<linearGradient class="linear"  id="paint8_linear_3076_151" x1="495.759" y1="4" x2="495.759" y2="567.31" gradientUnits="userSpaceOnUse">
<stop stop-color="#776EAD"/>
<stop offset="0.1875" stop-color="#8E82D9"/>
<stop offset="0.651042" stop-color="#89ABD9"/>
<stop offset="0.951012" stop-color="#89ABD9"/>
</linearGradient>
<linearGradient  class="linear"  id="paint9_linear_3076_151" x1="495.759" y1="4" x2="495.759" y2="567.31" gradientUnits="userSpaceOnUse">
<stop stop-color="#776EAD"/>
<stop offset="0.1875" stop-color="#8E82D9"/>
<stop offset="0.651042" stop-color="#89ABD9"/>
<stop offset="0.951012" stop-color="#89ABD9"/>
</linearGradient>
<linearGradient  class="linear-2"   id="paint10_linear_3076_151" x1="453.266" y1="490.559" x2="453.266" y2="1036.14" gradientUnits="userSpaceOnUse">
<stop offset="0.130208" stop-color="#786FB0"/>
<stop offset="0.484375" stop-color="#7EA2D3"/>
<stop offset="1" stop-color="#C1D2EC"/>
</linearGradient>
<linearGradient  class="linear-2"   id="paint11_linear_3076_151" x1="453.266" y1="490.559" x2="453.266" y2="1036.14" gradientUnits="userSpaceOnUse">
<stop offset="0.130208" stop-color="#786FB0"/>
<stop offset="0.484375" stop-color="#7EA2D3"/>
<stop offset="1" stop-color="#C1D2EC"/>
</linearGradient>
<linearGradient  class="linear-2"   id="paint12_linear_3076_151" x1="453.266" y1="490.559" x2="453.266" y2="1036.14" gradientUnits="userSpaceOnUse">
<stop offset="0.130208" stop-color="#786FB0"/>
<stop offset="0.484375" stop-color="#7EA2D3"/>
<stop offset="1" stop-color="#C1D2EC"/>
</linearGradient>
<linearGradient  class="linear-2"   id="paint13_linear_3076_151" x1="453.266" y1="490.559" x2="453.266" y2="1036.14" gradientUnits="userSpaceOnUse">
<stop offset="0.130208" stop-color="#786FB0"/>
<stop offset="0.484375" stop-color="#7EA2D3"/>
<stop offset="1" stop-color="#C1D2EC"/>
</linearGradient>
<linearGradient class="linear-2" id="paint14_linear_3076_151" x1="453.266" y1="490.559" x2="453.266" y2="1036.14" gradientUnits="userSpaceOnUse">
<stop offset="0.130208" stop-color="#786FB0"/>
<stop offset="0.484375" stop-color="#7EA2D3"/>
<stop offset="1" stop-color="#C1D2EC"/>
</linearGradient>
<linearGradient class="linear-2"   id="paint15_linear_3076_151" x1="453.266" y1="490.559" x2="453.266" y2="1036.14" gradientUnits="userSpaceOnUse">
<stop offset="0.130208" stop-color="#786FB0"/>
<stop offset="0.484375" stop-color="#7EA2D3"/>
<stop offset="1" stop-color="#C1D2EC"/>
</linearGradient>
<linearGradient  class="linear"  id="paint16_linear_3076_151" x1="65.3301" y1="330.896" x2="65.3301" y2="565.367" gradientUnits="userSpaceOnUse">
<stop stop-color="#776EAD"/>
<stop offset="0.1875" stop-color="#8E82D9"/>
<stop offset="0.651042" stop-color="#89ABD9"/>
<stop offset="0.951012" stop-color="#89ABD9"/>
</linearGradient>
<linearGradient  class="linear"  id="paint17_linear_3076_151" x1="65.3301" y1="330.896" x2="65.3301" y2="565.367" gradientUnits="userSpaceOnUse">
<stop stop-color="#776EAD"/>
<stop offset="0.1875" stop-color="#8E82D9"/>
<stop offset="0.651042" stop-color="#89ABD9"/>
<stop offset="0.951012" stop-color="#89ABD9"/>
</linearGradient>
<linearGradient  class="linear"  id="paint18_linear_3076_151" x1="55.8083" y1="400.2" x2="55.8083" y2="579.328" gradientUnits="userSpaceOnUse">
<stop stop-color="#776EAD"/>
<stop offset="0.1875" stop-color="#8E82D9"/>
<stop offset="0.651042" stop-color="#89ABD9"/>
<stop offset="0.951012" stop-color="#89ABD9"/>
</linearGradient>
<linearGradient  class="linear"  id="paint19_linear_3076_151" x1="55.8083" y1="400.2" x2="55.8083" y2="579.328" gradientUnits="userSpaceOnUse">
<stop stop-color="#776EAD"/>
<stop offset="0.1875" stop-color="#8E82D9"/>
<stop offset="0.651042" stop-color="#89ABD9"/>
<stop offset="0.951012" stop-color="#89ABD9"/>
</linearGradient>
<linearGradient  class="linear"  id="paint20_linear_3076_151" x1="867.799" y1="383.249" x2="867.799" y2="586.741" gradientUnits="userSpaceOnUse">
<stop stop-color="#776EAD"/>
<stop offset="0.1875" stop-color="#8E82D9"/>
<stop offset="0.651042" stop-color="#89ABD9"/>
<stop offset="0.951012" stop-color="#89ABD9"/>
</linearGradient>
<linearGradient  class="linear"  id="paint21_linear_3076_151" x1="867.799" y1="383.249" x2="867.799" y2="586.741" gradientUnits="userSpaceOnUse">
<stop stop-color="#776EAD"/>
<stop offset="0.1875" stop-color="#8E82D9"/>
<stop offset="0.651042" stop-color="#89ABD9"/>
<stop offset="0.951012" stop-color="#89ABD9"/>
</linearGradient>
<linearGradient  class="linear"  id="paint22_linear_3076_151" x1="867.391" y1="445.54" x2="867.391" y2="611.354" gradientUnits="userSpaceOnUse">
<stop stop-color="#776EAD"/>
<stop offset="0.1875" stop-color="#8E82D9"/>
<stop offset="0.651042" stop-color="#89ABD9"/>
<stop offset="0.951012" stop-color="#89ABD9"/>
</linearGradient>
<linearGradient  class="linear"  id="paint23_linear_3076_151" x1="867.391" y1="445.54" x2="867.391" y2="611.354" gradientUnits="userSpaceOnUse">
<stop stop-color="#776EAD"/>
<stop offset="0.1875" stop-color="#8E82D9"/>
<stop offset="0.651042" stop-color="#89ABD9"/>
<stop offset="0.951012" stop-color="#89ABD9"/>
</linearGradient>
</defs>
</svg>
