<svg width="115" height="263" viewBox="0 0 115 263" fill="none" xmlns="http://www.w3.org/2000/svg">
<path d="M56.7379 34.7958C58.2612 29.7908 59.4798 17.8223 52.1681 9.98831C42.2451 -6.72413 59.3492 10.4235 69.1417 21.0864C82.1982 33.621 75.8876 65.4791 71.1001 79.8414C63.7884 101.254 81.9806 133.156 91.9906 146.43C122.282 189.256 111.575 223.899 102.436 235.868C93.5573 251.536 75.2347 258.499 67.1832 260.022C51.08 261.763 16.6541 257.411 7.77565 226.075C3.42345 214.542 -1.88622 186.775 11.6926 167.973C9.95176 154.481 8.16736 124.364 14.9568 111.83C27.3605 90.9392 53.082 46.2856 56.7379 34.7958Z" fill="#8C9CD9" stroke="#8AACDA" stroke-width="5.22264" class="flame" />
<path d="M48.8067 176.633C52.6178 172.336 58.7449 158.793 52.7644 139C67.3731 151.257 67.0908 167.298 65.1235 173.786C62.3277 180.692 62.9711 187.68 63.6423 190.311C64.7902 195.255 66.3116 197.324 66.9288 197.74C68.0027 194.593 66.4042 190.504 65.4707 188.853C64.1931 184.298 69.5827 174.966 72.4371 170.87L73.6406 169.435C70.3079 184.099 73.3475 190.851 75.2839 192.394C83.0974 200.319 80.1596 214.196 77.7141 220.144C71.8446 233.346 54.5774 233.761 46.6774 232.318C41.4468 231.292 30.4116 225.342 28.1157 209.752C27.7145 205.085 28.1342 194.153 33.0223 187.765C35.2055 183.561 38.1187 172.971 32.3048 164.251C36.2933 165.901 43.8955 172.74 42.3957 186.886C43.2906 184.772 45.8257 179.762 48.8067 176.633Z" fill="url(#paint0_linear_2164_328)"/>
<defs>
<linearGradient id="paint0_linear_2164_328" x1="54.1742" y1="139" x2="54.1742" y2="232.886" gradientUnits="userSpaceOnUse" class="linear" >
<stop stop-color="#8177BF" stop-opacity="0.4"/>
<stop offset="1" stop-color="#7B71B4"/>
</linearGradient>
</defs>
</svg>
