<svg width="74" height="163" viewBox="0 0 74 163" fill="none" xmlns="http://www.w3.org/2000/svg">
<path d="M13.48 69.323C25.5212 53.4445 30.9463 7 30.9463 7C30.9463 7 48.942 41.668 45.237 54.6354C43.3316 69.2436 58.7337 96.4487 66.673 108.225C68.1285 110.872 71.0396 119.658 71.0396 133.631C70.7749 140.379 66.276 154.987 50.3975 159.433C39.1503 161.418 14.5916 160.386 6.33478 140.379C3.82069 134.557 -0.254784 121.325 3.55605 114.974C5.01157 112.989 8.00202 108.146 8.31959 104.653C7.52567 96.4487 7.44625 77.8974 13.48 69.323Z" fill="url(#paint0_linear_2164_343)" stroke="#8BA4D9" stroke-width="3.96962" class="flame-stroke" />
<path d="M41.4613 108.941C39.0974 106.276 35.2969 97.8757 39.0065 85.5986C29.9451 93.2015 30.1202 103.151 31.3405 107.175C33.0747 111.459 32.6756 115.794 32.2592 117.426C31.5472 120.492 30.6035 121.775 30.2207 122.034C29.5546 120.081 30.5461 117.545 31.1251 116.521C31.9176 113.696 28.5746 107.908 26.804 105.367L26.0575 104.477C28.1248 113.572 26.2394 117.76 25.0383 118.718C20.1917 123.633 22.014 132.241 23.5309 135.93C27.1715 144.119 37.8819 144.376 42.7821 143.481C46.0265 142.845 52.8714 139.155 54.2955 129.484C54.5443 126.589 54.284 119.809 51.252 115.846C49.8978 113.238 48.0909 106.67 51.697 101.261C49.2231 102.285 44.5076 106.527 45.4379 115.301C44.8828 113.99 43.3104 110.882 41.4613 108.941Z" fill="#8A7ECF" stroke="#8A7ECF" class="flame"   stroke-width="0.287117"/>
<defs>
<linearGradient id="paint0_linear_2164_343" x1="36.5197" y1="7" x2="36.5197" y2="160.137" class="linear" gradientUnits="userSpaceOnUse">
<stop stop-color="#8A7ECF"/>
<stop offset="1" stop-color="#8C9CD9"/>
</linearGradient>
</defs>
</svg>
