<svg width="79" height="181" viewBox="0 0 79 181" fill="none" xmlns="http://www.w3.org/2000/svg">
<path d="M39.9104 23.8123C38.8654 20.3788 38.0294 12.1682 43.0453 6.79405C49.8526 -4.67086 38.119 7.09262 31.4013 14.4075C22.4443 23.0063 26.7735 44.8613 30.0577 54.714C35.0737 69.4034 22.5937 91.2883 15.7267 100.395C-5.0535 129.773 2.29121 153.539 8.56109 161.75C14.6519 172.498 27.2214 177.275 32.7448 178.32C43.7917 179.514 67.4083 176.528 73.499 155.032C76.4847 147.12 80.1272 128.071 70.8119 115.173C72.0062 105.918 73.2303 85.257 68.5727 76.6583C60.0636 62.3272 42.4183 31.6944 39.9104 23.8123Z" fill="#8C9CD9" stroke="#8AACDA" stroke-width="3.58278" class="flame" />
<path d="M45.3519 121.114C42.7374 118.166 38.5341 108.876 42.6368 95.2976C32.6151 103.706 32.8088 114.71 34.1584 119.161C36.0763 123.899 35.635 128.693 35.1745 130.498C34.387 133.889 33.3433 135.308 32.9199 135.594C32.1832 133.435 33.2798 130.63 33.9202 129.497C34.7966 126.373 31.0993 119.971 29.1411 117.161L28.3155 116.176C30.6018 126.236 28.5166 130.868 27.1882 131.927C21.8281 137.363 23.8434 146.883 25.5211 150.963C29.5476 160.02 41.3931 160.305 46.8126 159.315C50.4008 158.611 57.9711 154.529 59.5461 143.834C59.8214 140.633 59.5334 133.133 56.1802 128.751C54.6824 125.867 52.684 118.602 56.6724 112.62C53.9362 113.752 48.721 118.444 49.7499 128.148C49.1359 126.698 47.3968 123.261 45.3519 121.114Z" fill="url(#paint0_linear_2164_331)"    />
<defs>
<linearGradient id="paint0_linear_2164_331" x1="41.6697" y1="95.2976" x2="41.6697" y2="159.704" gradientUnits="userSpaceOnUse" class="linear">
<stop stop-color="#8177BF" stop-opacity="0.4"/>
<stop offset="1" stop-color="#7B71B4"/>
</linearGradient>
</defs>
</svg>
