<svg width="117" height="259" viewBox="0 0 117 259" fill="none" xmlns="http://www.w3.org/2000/svg">
<path d="M95.7971 109.477C76.3844 83.8775 67.638 9 67.638 9C67.638 9 38.6255 64.8915 44.5986 85.7975C47.6705 109.349 22.8393 153.209 10.0398 172.195C7.69318 176.461 3 190.626 3 213.153C3.42665 224.033 10.6797 247.584 36.2789 254.752C54.4116 257.952 94.005 256.288 107.317 224.033C111.37 214.647 117.94 193.314 111.796 183.074C109.45 179.874 104.629 172.067 104.117 166.435C105.397 153.209 105.525 123.3 95.7971 109.477Z" fill="url(#paint0_linear_2164_340)" stroke="#8BA4D9"  stroke-width="5" class="flame-stroke"/>
<path d="M50.6861 173.349C54.4972 169.051 60.6243 155.509 54.6438 135.716C69.2525 147.973 68.9702 164.014 67.0029 170.502C64.2071 177.408 64.8505 184.396 65.5217 187.027C66.6696 191.971 68.191 194.04 68.8082 194.456C69.8821 191.309 68.2836 187.22 67.3501 185.569C66.0725 181.014 71.4621 171.682 74.3165 167.586L75.52 166.151C72.1873 180.815 75.2269 187.567 77.1633 189.11C84.9768 197.035 82.039 210.912 79.5935 216.86C73.724 230.062 56.4568 230.477 48.5568 229.034C43.3262 228.008 32.291 222.058 29.995 206.468C29.5939 201.801 30.0136 190.869 34.9017 184.481C37.0849 180.276 39.998 169.687 34.1842 160.966C38.1727 162.617 45.7749 169.456 44.2751 183.602C45.17 181.488 47.7051 176.478 50.6861 173.349Z" fill="#8A7ECF" stroke="#8A7ECF" stroke-width="0.361643" class="flame" />
<defs>
<linearGradient id="paint0_linear_2164_340" x1="58.6527" y1="9" x2="58.6527" y2="255.886" gradientUnits="userSpaceOnUse" class="linear">
<stop stop-color="#8A7ECF"/>
<stop offset="1" stop-color="#8C9CD9"/>
</linearGradient>
</defs>
</svg>
